<svg width="500" height="571" viewBox="0 0 500 571" fill="none" xmlns="http://www.w3.org/2000/svg">
<path d="M0 0H500V570.822H0V0Z" fill="#FCFFEF"/>
<path d="M16.289 19.1218H482.295V550.283H16.289V19.1218Z" stroke="#B9D93C" stroke-width="1.41643"/>
<path d="M49.8507 392.669C48.6496 394.187 48.2417 395.026 48.2417 395.909C48.2417 396.793 48.6949 397.428 49.3975 397.428C50.032 397.428 50.4626 396.952 50.4626 396.408C50.4626 395.819 50.0094 395.343 49.4201 395.343C49.6014 394.663 49.9867 393.938 50.5986 393.235L49.8507 392.669ZM54.2473 392.669C53.0462 394.187 52.6383 395.026 52.6383 395.909C52.6383 396.793 53.0915 397.428 53.7941 397.428C54.4286 397.428 54.8592 396.952 54.8592 396.408C54.8592 395.819 54.406 395.343 53.8167 395.343C53.998 394.663 54.3833 393.938 54.9952 393.235L54.2473 392.669ZM58.5804 407.853H60.0308V402.096H64.9713C68.1668 402.096 70.5917 400.079 70.5917 397.201C70.5917 394.323 68.1668 392.283 64.9713 392.283H58.5804V407.853ZM60.0308 400.714V393.666H64.722C67.3283 393.666 69.1413 395.026 69.1413 397.201C69.1413 399.354 67.3283 400.714 64.722 400.714H60.0308ZM74.6167 398.538V396.136H73.2116V407.853H74.6167V401.303C74.6167 398.878 76.4977 397.156 79.1492 397.156V395.864C76.9963 395.864 75.2739 396.952 74.6167 398.538ZM86.5701 408.125C89.8562 408.125 92.6211 405.315 92.6211 401.983C92.6211 398.652 89.8562 395.864 86.5701 395.864C83.284 395.864 80.4965 398.652 80.4965 401.983C80.4965 405.315 83.284 408.125 86.5701 408.125ZM86.5701 406.833C84.0545 406.833 81.9695 404.635 81.9695 401.983C81.9695 399.354 84.0545 397.156 86.5701 397.156C89.063 397.156 91.148 399.354 91.148 401.983C91.148 404.635 89.063 406.833 86.5701 406.833ZM104.652 392.011V398.425C103.745 396.839 102.204 395.864 100.278 395.864C97.2638 395.864 94.9295 398.493 94.9295 401.983C94.9295 405.496 97.2638 408.125 100.278 408.125C102.204 408.125 103.745 407.15 104.652 405.564V407.853H106.057V392.011H104.652ZM100.527 406.833C98.1703 406.833 96.38 404.748 96.38 401.983C96.38 399.218 98.1703 397.156 100.527 397.156C102.952 397.156 104.652 399.15 104.652 401.983C104.652 404.816 102.952 406.833 100.527 406.833ZM117.908 396.136V403.592C117.908 405.405 116.299 406.833 114.237 406.833C112.378 406.833 111.064 405.451 111.064 403.479V396.136H109.659V403.66C109.659 406.266 111.472 408.125 114.055 408.125C115.778 408.125 117.274 407.218 117.908 405.926V407.853H119.313V396.136H117.908ZM128.154 408.125C129.74 408.125 131.214 407.445 132.301 406.357L131.327 405.405C130.511 406.289 129.378 406.833 128.154 406.833C125.616 406.833 123.621 404.703 123.621 401.983C123.621 399.286 125.616 397.156 128.154 397.156C129.355 397.156 130.466 397.677 131.282 398.538L132.256 397.586C131.168 396.521 129.718 395.864 128.154 395.864C124.823 395.864 122.148 398.561 122.148 401.983C122.148 405.405 124.823 408.125 128.154 408.125ZM140.101 406.334C139.784 406.629 139.285 406.833 138.741 406.833C137.971 406.833 137.336 406.13 137.336 405.133V397.428H140.282V396.136H137.336V392.918H135.931V396.136H134.027V397.428H135.931V405.133C135.931 406.878 137.064 408.125 138.65 408.125C139.421 408.125 140.214 407.853 140.826 407.377L140.101 406.334ZM152.231 394.527C152.231 393.53 152.865 392.827 153.636 392.827C154.202 392.827 154.678 393.009 154.996 393.326L155.721 392.283C155.086 391.807 154.338 391.536 153.545 391.536C151.959 391.536 150.826 392.782 150.826 394.527V396.136H148.922V397.428H150.826V407.853H152.231V397.428H155.245V396.136H152.231V394.527ZM158.365 393.847C158.908 393.847 159.339 393.417 159.339 392.873C159.339 392.351 158.908 391.898 158.365 391.898C157.821 391.898 157.39 392.351 157.39 392.873C157.39 393.417 157.821 393.847 158.365 393.847ZM157.662 407.853H159.067V396.136H157.662V407.853ZM162.487 407.853H163.892V392.011H162.487V407.853ZM172.524 406.334C172.207 406.629 171.708 406.833 171.164 406.833C170.394 406.833 169.759 406.13 169.759 405.133V397.428H172.705V396.136H169.759V392.918H168.354V396.136H166.45V397.428H168.354V405.133C168.354 406.878 169.487 408.125 171.073 408.125C171.844 408.125 172.637 407.853 173.249 407.377L172.524 406.334ZM180.891 406.833C178.488 406.833 176.698 404.975 176.449 402.55H186.353C186.353 398.516 184.268 395.864 180.8 395.864C177.627 395.864 175.021 398.493 175.021 401.96C175.021 405.473 177.763 408.125 180.891 408.125C182.613 408.125 184.675 407.4 185.673 406.312L184.789 405.36C183.973 406.244 182.364 406.833 180.891 406.833ZM180.845 397.156C183.316 397.156 184.766 398.901 184.947 401.258H176.471C176.766 398.833 178.556 397.156 180.845 397.156ZM190.698 398.538V396.136H189.292V407.853H190.698V401.303C190.698 398.878 192.579 397.156 195.23 397.156V395.864C193.077 395.864 191.355 396.952 190.698 398.538ZM201.735 408.125C204.092 408.125 205.951 406.742 205.951 404.748C205.951 402.708 204.274 401.96 202.121 401.281C199.832 400.533 198.925 400.057 198.925 398.992C198.925 397.858 200.126 397.156 201.554 397.156C202.642 397.156 203.866 397.541 205.044 398.266L205.747 397.179C204.5 396.363 202.982 395.864 201.554 395.864C199.288 395.864 197.52 397.201 197.52 399.15C197.52 400.805 198.631 401.688 201.441 402.504C203.299 403.071 204.546 403.615 204.546 404.884C204.546 406.017 203.345 406.833 201.735 406.833C200.421 406.833 198.993 406.312 197.633 405.337L196.886 406.38C198.268 407.49 200.081 408.125 201.735 408.125ZM220.777 408.125C224.063 408.125 226.828 405.315 226.828 401.983C226.828 398.652 224.063 395.864 220.777 395.864C217.491 395.864 214.703 398.652 214.703 401.983C214.703 405.315 217.491 408.125 220.777 408.125ZM220.777 406.833C218.261 406.833 216.176 404.635 216.176 401.983C216.176 399.354 218.261 397.156 220.777 397.156C223.27 397.156 225.355 399.354 225.355 401.983C225.355 404.635 223.27 406.833 220.777 406.833ZM234.915 395.864C233.193 395.864 231.697 396.771 231.063 398.062V396.136H229.658V407.853H231.063V400.397C231.063 398.584 232.672 397.156 234.734 397.156C236.592 397.156 237.907 398.538 237.907 400.51V407.853H239.312V400.329C239.312 397.722 237.499 395.864 234.915 395.864ZM261.797 395.864C259.984 395.864 258.443 396.861 257.944 398.402C257.332 396.861 255.972 395.864 254.205 395.864C252.596 395.864 251.304 396.635 250.737 397.858V396.136H249.332V407.853H250.737V400.329C250.737 398.47 252.097 397.156 254.023 397.156C255.723 397.156 256.902 398.538 256.902 400.51V407.853H258.307V400.329C258.307 398.47 259.666 397.156 261.593 397.156C263.292 397.156 264.494 398.538 264.494 400.51V407.853H265.899V400.329C265.899 397.722 264.199 395.864 261.797 395.864ZM274.778 408.125C278.064 408.125 280.829 405.315 280.829 401.983C280.829 398.652 278.064 395.864 274.778 395.864C271.492 395.864 268.705 398.652 268.705 401.983C268.705 405.315 271.492 408.125 274.778 408.125ZM274.778 406.833C272.263 406.833 270.178 404.635 270.178 401.983C270.178 399.354 272.263 397.156 274.778 397.156C277.271 397.156 279.356 399.354 279.356 401.983C279.356 404.635 277.271 406.833 274.778 406.833ZM289.574 395.864C287.648 395.864 286.107 396.839 285.2 398.425V392.011H283.795V407.853H285.2V405.564C286.107 407.15 287.648 408.125 289.574 408.125C292.588 408.125 294.922 405.496 294.922 401.983C294.922 398.493 292.588 395.864 289.574 395.864ZM289.325 406.833C286.9 406.833 285.2 404.816 285.2 401.983C285.2 399.15 286.9 397.156 289.325 397.156C291.682 397.156 293.472 399.218 293.472 401.983C293.472 404.748 291.682 406.833 289.325 406.833ZM298.547 393.847C299.091 393.847 299.521 393.417 299.521 392.873C299.521 392.351 299.091 391.898 298.547 391.898C298.003 391.898 297.572 392.351 297.572 392.873C297.572 393.417 298.003 393.847 298.547 393.847ZM297.844 407.853H299.249V396.136H297.844V407.853ZM302.67 407.853H304.075V392.011H302.67V407.853ZM312.752 406.833C310.349 406.833 308.559 404.975 308.31 402.55H318.213C318.213 398.516 316.128 395.864 312.661 395.864C309.488 395.864 306.882 398.493 306.882 401.96C306.882 405.473 309.624 408.125 312.752 408.125C314.474 408.125 316.536 407.4 317.533 406.312L316.65 405.36C315.834 406.244 314.225 406.833 312.752 406.833ZM312.706 397.156C315.177 397.156 316.627 398.901 316.808 401.258H308.332C308.627 398.833 310.417 397.156 312.706 397.156ZM336.792 392.011V398.425C335.885 396.839 334.344 395.864 332.418 395.864C329.404 395.864 327.069 398.493 327.069 401.983C327.069 405.496 329.404 408.125 332.418 408.125C334.344 408.125 335.885 407.15 336.792 405.564V407.853H338.197V392.011H336.792ZM332.667 406.833C330.31 406.833 328.52 404.748 328.52 401.983C328.52 399.218 330.31 397.156 332.667 397.156C335.092 397.156 336.792 399.15 336.792 401.983C336.792 404.816 335.092 406.833 332.667 406.833ZM347.034 406.833C344.631 406.833 342.841 404.975 342.592 402.55H352.495C352.495 398.516 350.41 395.864 346.943 395.864C343.77 395.864 341.164 398.493 341.164 401.96C341.164 405.473 343.906 408.125 347.034 408.125C348.756 408.125 350.818 407.4 351.816 406.312L350.932 405.36C350.116 406.244 348.507 406.833 347.034 406.833ZM346.988 397.156C349.459 397.156 350.909 398.901 351.09 401.258H342.614C342.909 398.833 344.699 397.156 346.988 397.156ZM359.288 407.853H360.535L365.611 396.136H364.047L359.9 406.062L355.73 396.136H354.166L359.288 407.853ZM368.616 393.847C369.16 393.847 369.59 393.417 369.59 392.873C369.59 392.351 369.16 391.898 368.616 391.898C368.072 391.898 367.641 392.351 367.641 392.873C367.641 393.417 368.072 393.847 368.616 393.847ZM367.913 407.853H369.319V396.136H367.913V407.853ZM378.11 408.125C379.696 408.125 381.169 407.445 382.257 406.357L381.283 405.405C380.467 406.289 379.334 406.833 378.11 406.833C375.572 406.833 373.577 404.703 373.577 401.983C373.577 399.286 375.572 397.156 378.11 397.156C379.311 397.156 380.421 397.677 381.237 398.538L382.212 397.586C381.124 396.521 379.674 395.864 378.11 395.864C374.778 395.864 372.104 398.561 372.104 401.983C372.104 405.405 374.778 408.125 378.11 408.125ZM390.102 406.833C387.7 406.833 385.909 404.975 385.66 402.55H395.564C395.564 398.516 393.479 395.864 390.011 395.864C386.839 395.864 384.232 398.493 384.232 401.96C384.232 405.473 386.974 408.125 390.102 408.125C391.824 408.125 393.887 407.4 394.884 406.312L394 405.36C393.184 406.244 391.575 406.833 390.102 406.833ZM390.057 397.156C392.527 397.156 393.977 398.901 394.159 401.258H385.683C385.977 398.833 387.768 397.156 390.057 397.156ZM402.492 408.125C404.849 408.125 406.708 406.742 406.708 404.748C406.708 402.708 405.031 401.96 402.878 401.281C400.589 400.533 399.682 400.057 399.682 398.992C399.682 397.858 400.883 397.156 402.311 397.156C403.399 397.156 404.623 397.541 405.801 398.266L406.504 397.179C405.257 396.363 403.739 395.864 402.311 395.864C400.045 395.864 398.277 397.201 398.277 399.15C398.277 400.805 399.388 401.688 402.198 402.504C404.056 403.071 405.303 403.615 405.303 404.884C405.303 406.017 404.101 406.833 402.492 406.833C401.178 406.833 399.75 406.312 398.39 405.337L397.643 406.38C399.025 407.49 400.838 408.125 402.492 408.125ZM420.786 395.864C419.63 395.864 418.18 396.181 416.639 396.997L417.205 398.153C418.27 397.564 419.494 397.111 420.673 397.111C423.302 397.111 424.072 398.992 424.072 400.714V401.19C422.826 400.782 421.421 400.487 420.151 400.487C417.522 400.487 415.505 402.074 415.505 404.385C415.505 406.652 417.319 408.125 419.766 408.125C421.353 408.125 423.211 407.377 424.072 405.994V407.853H425.477V400.714C425.477 397.881 423.868 395.864 420.786 395.864ZM419.993 406.856C418.248 406.856 416.888 405.881 416.888 404.317C416.888 402.799 418.406 401.711 420.355 401.711C421.67 401.711 422.962 401.96 424.072 402.3V404.181C423.619 405.994 421.624 406.856 419.993 406.856ZM430.517 398.538V396.136H429.112V407.853H430.517V401.303C430.517 398.878 432.398 397.156 435.05 397.156V395.864C432.897 395.864 431.174 396.952 430.517 398.538ZM442.643 406.833C440.24 406.833 438.45 404.975 438.201 402.55H448.104C448.104 398.516 446.019 395.864 442.552 395.864C439.379 395.864 436.773 398.493 436.773 401.96C436.773 405.473 439.515 408.125 442.643 408.125C444.365 408.125 446.427 407.4 447.425 406.312L446.541 405.36C445.725 406.244 444.116 406.833 442.643 406.833ZM442.597 397.156C445.068 397.156 446.518 398.901 446.699 401.258H438.223C438.518 398.833 440.308 397.156 442.597 397.156ZM80.9149 430.136V437.592C80.9149 439.405 79.3059 440.833 77.2435 440.833C75.3852 440.833 74.0707 439.451 74.0707 437.479V430.136H72.6656V437.66C72.6656 440.266 74.4787 442.125 77.0622 442.125C78.7846 442.125 80.2804 441.218 80.9149 439.926V441.853H82.32V430.136H80.9149ZM89.9371 442.125C92.294 442.125 94.1524 440.742 94.1524 438.748C94.1524 436.708 92.4753 435.96 90.3223 435.281C88.0334 434.533 87.1269 434.057 87.1269 432.992C87.1269 431.858 88.328 431.156 89.7558 431.156C90.8436 431.156 92.0674 431.541 93.2458 432.266L93.9484 431.179C92.7019 430.363 91.1835 429.864 89.7558 429.864C87.4895 429.864 85.7218 431.201 85.7218 433.15C85.7218 434.805 86.8322 435.688 89.6424 436.504C91.5008 437.071 92.7473 437.615 92.7473 438.884C92.7473 440.017 91.5461 440.833 89.9371 440.833C88.6226 440.833 87.1948 440.312 85.8351 439.337L85.0872 440.38C86.4696 441.49 88.2827 442.125 89.9371 442.125ZM105.216 430.136V437.592C105.216 439.405 103.606 440.833 101.544 440.833C99.6858 440.833 98.3714 439.451 98.3714 437.479V430.136H96.9663V437.66C96.9663 440.266 98.7793 442.125 101.363 442.125C103.085 442.125 104.581 441.218 105.216 439.926V441.853H106.621V430.136H105.216ZM114.782 429.864C113.626 429.864 112.175 430.181 110.634 430.997L111.201 432.153C112.266 431.564 113.49 431.111 114.668 431.111C117.297 431.111 118.068 432.992 118.068 434.714V435.19C116.821 434.782 115.416 434.487 114.147 434.487C111.518 434.487 109.501 436.074 109.501 438.385C109.501 440.652 111.314 442.125 113.762 442.125C115.348 442.125 117.207 441.377 118.068 439.994V441.853H119.473V434.714C119.473 431.881 117.864 429.864 114.782 429.864ZM113.988 440.856C112.243 440.856 110.884 439.881 110.884 438.317C110.884 436.799 112.402 435.711 114.351 435.711C115.665 435.711 116.957 435.96 118.068 436.3V438.181C117.614 439.994 115.62 440.856 113.988 440.856ZM122.949 441.853H124.354V426.011H122.949V441.853ZM127.796 441.853H129.201V426.011H127.796V441.853ZM134.184 445.932C135.815 445.909 136.949 445.162 137.696 443.303L143.09 430.136H141.572L137.47 440.357L133.141 430.136H131.6L136.745 442.034L136.042 443.552C135.611 444.323 135 444.64 134.138 444.64C133.64 444.64 133.119 444.527 132.688 444.3L132.325 445.547C132.869 445.796 133.526 445.932 134.184 445.932ZM157.731 429.864C156.009 429.864 154.513 430.771 153.878 432.062V430.136H152.473V441.853H153.878V434.397C153.878 432.584 155.487 431.156 157.55 431.156C159.408 431.156 160.722 432.538 160.722 434.51V441.853H162.128V434.329C162.128 431.722 160.315 429.864 157.731 429.864ZM171.014 442.125C174.3 442.125 177.065 439.315 177.065 435.983C177.065 432.652 174.3 429.864 171.014 429.864C167.728 429.864 164.94 432.652 164.94 435.983C164.94 439.315 167.728 442.125 171.014 442.125ZM171.014 440.833C168.498 440.833 166.413 438.635 166.413 435.983C166.413 433.354 168.498 431.156 171.014 431.156C173.507 431.156 175.592 433.354 175.592 435.983C175.592 438.635 173.507 440.833 171.014 440.833ZM185.062 440.334C184.744 440.629 184.246 440.833 183.702 440.833C182.931 440.833 182.297 440.13 182.297 439.133V431.428H185.243V430.136H182.297V426.918H180.892V430.136H178.988V431.428H180.892V439.133C180.892 440.878 182.025 442.125 183.611 442.125C184.382 442.125 185.175 441.853 185.787 441.377L185.062 440.334ZM199.458 429.864C198.302 429.864 196.851 430.181 195.31 430.997L195.877 432.153C196.942 431.564 198.166 431.111 199.344 431.111C201.973 431.111 202.744 432.992 202.744 434.714V435.19C201.497 434.782 200.092 434.487 198.823 434.487C196.194 434.487 194.177 436.074 194.177 438.385C194.177 440.652 195.99 442.125 198.438 442.125C200.024 442.125 201.883 441.377 202.744 439.994V441.853H204.149V434.714C204.149 431.881 202.54 429.864 199.458 429.864ZM198.664 440.856C196.919 440.856 195.56 439.881 195.56 438.317C195.56 436.799 197.078 435.711 199.027 435.711C200.341 435.711 201.633 435.96 202.744 436.3V438.181C202.29 439.994 200.296 440.856 198.664 440.856ZM216.623 428.527C216.623 427.53 217.258 426.827 218.028 426.827C218.595 426.827 219.071 427.009 219.388 427.326L220.113 426.283C219.478 425.807 218.731 425.536 217.937 425.536C216.351 425.536 215.218 426.782 215.218 428.527V430.136H213.314V431.428H215.218V441.853H216.623V431.428H219.637V430.136H216.623V428.527ZM230.326 430.136V437.592C230.326 439.405 228.717 440.833 226.655 440.833C224.796 440.833 223.482 439.451 223.482 437.479V430.136H222.077V437.66C222.077 440.266 223.89 442.125 226.474 442.125C228.196 442.125 229.692 441.218 230.326 439.926V441.853H231.731V430.136H230.326ZM240.482 429.864C238.759 429.864 237.263 430.771 236.629 432.062V430.136H235.224V441.853H236.629V434.397C236.629 432.584 238.238 431.156 240.3 431.156C242.159 431.156 243.473 432.538 243.473 434.51V441.853H244.878V434.329C244.878 431.722 243.065 429.864 240.482 429.864ZM260.133 440.833C257.731 440.833 255.941 438.975 255.691 436.55H265.595C265.595 432.516 263.51 429.864 260.043 429.864C256.87 429.864 254.264 432.493 254.264 435.96C254.264 439.473 257.006 442.125 260.133 442.125C261.856 442.125 263.918 441.4 264.915 440.312L264.031 439.36C263.216 440.244 261.606 440.833 260.133 440.833ZM260.088 431.156C262.558 431.156 264.009 432.901 264.19 435.258H255.714C256.009 432.833 257.799 431.156 260.088 431.156ZM278.076 441.853L273.566 435.87L277.895 430.136H276.241L272.728 434.782L269.215 430.136H267.561L271.912 435.87L267.379 441.853H269.034L272.728 436.958L276.422 441.853H278.076ZM286.465 429.864C284.538 429.864 282.997 430.839 282.091 432.425V430.136H280.685V445.751H282.091V439.564C282.997 441.15 284.538 442.125 286.465 442.125C289.479 442.125 291.813 439.496 291.813 435.983C291.813 432.493 289.479 429.864 286.465 429.864ZM286.215 440.833C283.79 440.833 282.091 438.816 282.091 435.983C282.091 433.15 283.79 431.156 286.215 431.156C288.572 431.156 290.363 433.218 290.363 435.983C290.363 438.748 288.572 440.833 286.215 440.833ZM299.993 440.833C297.59 440.833 295.8 438.975 295.551 436.55H305.454C305.454 432.516 303.369 429.864 299.902 429.864C296.729 429.864 294.123 432.493 294.123 435.96C294.123 439.473 296.865 442.125 299.993 442.125C301.715 442.125 303.777 441.4 304.775 440.312L303.891 439.36C303.075 440.244 301.466 440.833 299.993 440.833ZM299.947 431.156C302.418 431.156 303.868 432.901 304.049 435.258H295.573C295.868 432.833 297.658 431.156 299.947 431.156ZM309.799 432.538V430.136H308.394V441.853H309.799V435.303C309.799 432.878 311.681 431.156 314.332 431.156V429.864C312.179 429.864 310.457 430.952 309.799 432.538ZM317.37 427.847C317.914 427.847 318.344 427.417 318.344 426.873C318.344 426.351 317.914 425.898 317.37 425.898C316.826 425.898 316.395 426.351 316.395 426.873C316.395 427.417 316.826 427.847 317.37 427.847ZM316.667 441.853H318.072V430.136H316.667V441.853ZM326.728 440.833C324.326 440.833 322.535 438.975 322.286 436.55H332.19C332.19 432.516 330.105 429.864 326.637 429.864C323.464 429.864 320.858 432.493 320.858 435.96C320.858 439.473 323.6 442.125 326.728 442.125C328.45 442.125 330.512 441.4 331.51 440.312L330.626 439.36C329.81 440.244 328.201 440.833 326.728 440.833ZM326.682 431.156C329.153 431.156 330.603 432.901 330.784 435.258H322.309C322.603 432.833 324.393 431.156 326.682 431.156ZM340.251 429.864C338.529 429.864 337.033 430.771 336.399 432.062V430.136H334.994V441.853H336.399V434.397C336.399 432.584 338.008 431.156 340.07 431.156C341.928 431.156 343.243 432.538 343.243 434.51V441.853H344.648V434.329C344.648 431.722 342.835 429.864 340.251 429.864ZM353.466 442.125C355.053 442.125 356.526 441.445 357.613 440.357L356.639 439.405C355.823 440.289 354.69 440.833 353.466 440.833C350.928 440.833 348.934 438.703 348.934 435.983C348.934 433.286 350.928 431.156 353.466 431.156C354.667 431.156 355.778 431.677 356.594 432.538L357.568 431.586C356.48 430.521 355.03 429.864 353.466 429.864C350.135 429.864 347.46 432.561 347.46 435.983C347.46 439.405 350.135 442.125 353.466 442.125ZM365.458 440.833C363.056 440.833 361.266 438.975 361.016 436.55H370.92C370.92 432.516 368.835 429.864 365.368 429.864C362.195 429.864 359.589 432.493 359.589 435.96C359.589 439.473 362.331 442.125 365.458 442.125C367.181 442.125 369.243 441.4 370.24 440.312L369.356 439.36C368.54 440.244 366.931 440.833 365.458 440.833ZM365.413 431.156C367.883 431.156 369.334 432.901 369.515 435.258H361.039C361.334 432.833 363.124 431.156 365.413 431.156ZM374.699 442.125C375.265 442.125 375.718 441.649 375.718 441.06C375.718 440.516 375.265 440.04 374.699 440.04C374.087 440.04 373.633 440.516 373.633 441.06C373.633 441.649 374.087 442.125 374.699 442.125ZM390.344 441.853H391.794V427.666H397.188V426.283H384.95V427.666H390.344V441.853ZM405.208 429.864C403.486 429.864 401.99 430.771 401.355 432.062V426.011H399.95V441.853H401.355V434.397C401.355 432.584 402.964 431.156 405.027 431.156C406.885 431.156 408.199 432.538 408.199 434.51V441.853H409.605V434.329C409.605 431.722 407.792 429.864 405.208 429.864ZM418.287 440.833C415.884 440.833 414.094 438.975 413.845 436.55H423.748C423.748 432.516 421.664 429.864 418.196 429.864C415.023 429.864 412.417 432.493 412.417 435.96C412.417 439.473 415.159 442.125 418.287 442.125C420.009 442.125 422.071 441.4 423.069 440.312L422.185 439.36C421.369 440.244 419.76 440.833 418.287 440.833ZM418.241 431.156C420.712 431.156 422.162 432.901 422.343 435.258H413.867C414.162 432.833 415.952 431.156 418.241 431.156ZM83.7662 462.527C83.7662 461.53 84.4008 460.827 85.1713 460.827C85.7379 460.827 86.2138 461.009 86.5311 461.326L87.2563 460.283C86.6217 459.807 85.8739 459.536 85.0807 459.536C83.4943 459.536 82.3611 460.782 82.3611 462.527V464.136H80.4574V465.428H82.3611V475.853H83.7662V465.428H86.7804V464.136H83.7662V462.527ZM89.9001 461.847C90.444 461.847 90.8746 461.417 90.8746 460.873C90.8746 460.351 90.444 459.898 89.9001 459.898C89.3561 459.898 88.9256 460.351 88.9256 460.873C88.9256 461.417 89.3561 461.847 89.9001 461.847ZM89.1975 475.853H90.6026V464.136H89.1975V475.853ZM94.0228 475.853H95.4279V460.011H94.0228V475.853ZM104.059 474.334C103.742 474.629 103.244 474.833 102.7 474.833C101.929 474.833 101.295 474.13 101.295 473.133V465.428H104.241V464.136H101.295V460.918H99.8894V464.136H97.9858V465.428H99.8894V473.133C99.8894 474.878 101.023 476.125 102.609 476.125C103.38 476.125 104.173 475.853 104.785 475.377L104.059 474.334ZM112.426 474.833C110.024 474.833 108.234 472.975 107.984 470.55H117.888C117.888 466.516 115.803 463.864 112.336 463.864C109.163 463.864 106.557 466.493 106.557 469.96C106.557 473.473 109.299 476.125 112.426 476.125C114.149 476.125 116.211 475.4 117.208 474.312L116.324 473.36C115.508 474.244 113.899 474.833 112.426 474.833ZM112.381 465.156C114.851 465.156 116.302 466.901 116.483 469.258H108.007C108.302 466.833 110.092 465.156 112.381 465.156ZM122.233 466.538V464.136H120.828V475.853H122.233V469.303C122.233 466.878 124.114 465.156 126.766 465.156V463.864C124.613 463.864 122.89 464.952 122.233 466.538ZM133.271 476.125C135.628 476.125 137.486 474.742 137.486 472.748C137.486 470.708 135.809 469.96 133.656 469.281C131.367 468.533 130.461 468.057 130.461 466.992C130.461 465.858 131.662 465.156 133.09 465.156C134.178 465.156 135.401 465.541 136.58 466.266L137.282 465.179C136.036 464.363 134.517 463.864 133.09 463.864C130.823 463.864 129.056 465.201 129.056 467.15C129.056 468.805 130.166 469.688 132.976 470.504C134.835 471.071 136.081 471.615 136.081 472.884C136.081 474.017 134.88 474.833 133.271 474.833C131.957 474.833 130.529 474.312 129.169 473.337L128.421 474.38C129.804 475.49 131.617 476.125 133.271 476.125ZM151.565 463.864C150.409 463.864 148.958 464.181 147.417 464.997L147.984 466.153C149.049 465.564 150.273 465.111 151.451 465.111C154.08 465.111 154.851 466.992 154.851 468.714V469.19C153.604 468.782 152.199 468.487 150.93 468.487C148.301 468.487 146.284 470.074 146.284 472.385C146.284 474.652 148.097 476.125 150.545 476.125C152.131 476.125 153.989 475.377 154.851 473.994V475.853H156.256V468.714C156.256 465.881 154.647 463.864 151.565 463.864ZM150.771 474.856C149.026 474.856 147.667 473.881 147.667 472.317C147.667 470.799 149.185 469.711 151.134 469.711C152.448 469.711 153.74 469.96 154.851 470.3V472.181C154.397 473.994 152.403 474.856 150.771 474.856ZM161.296 466.538V464.136H159.89V475.853H161.296V469.303C161.296 466.878 163.177 465.156 165.828 465.156V463.864C163.675 463.864 161.953 464.952 161.296 466.538ZM173.421 474.833C171.019 474.833 169.229 472.975 168.979 470.55H178.883C178.883 466.516 176.798 463.864 173.331 463.864C170.158 463.864 167.552 466.493 167.552 469.96C167.552 473.473 170.294 476.125 173.421 476.125C175.144 476.125 177.206 475.4 178.203 474.312L177.319 473.36C176.503 474.244 174.894 474.833 173.421 474.833ZM173.376 465.156C175.846 465.156 177.297 466.901 177.478 469.258H169.002C169.297 466.833 171.087 465.156 173.376 465.156ZM193.427 474.334C193.11 474.629 192.611 474.833 192.068 474.833C191.297 474.833 190.662 474.13 190.662 473.133V465.428H193.609V464.136H190.662V460.918H189.257V464.136H187.354V465.428H189.257V473.133C189.257 474.878 190.39 476.125 191.977 476.125C192.747 476.125 193.541 475.853 194.153 475.377L193.427 474.334ZM201.998 476.125C205.284 476.125 208.049 473.315 208.049 469.983C208.049 466.652 205.284 463.864 201.998 463.864C198.712 463.864 195.924 466.652 195.924 469.983C195.924 473.315 198.712 476.125 201.998 476.125ZM201.998 474.833C199.483 474.833 197.398 472.635 197.398 469.983C197.398 467.354 199.483 465.156 201.998 465.156C204.491 465.156 206.576 467.354 206.576 469.983C206.576 472.635 204.491 474.833 201.998 474.833ZM216.295 476.125C219.581 476.125 222.346 473.315 222.346 469.983C222.346 466.652 219.581 463.864 216.295 463.864C213.009 463.864 210.222 466.652 210.222 469.983C210.222 473.315 213.009 476.125 216.295 476.125ZM216.295 474.833C213.78 474.833 211.695 472.635 211.695 469.983C211.695 467.354 213.78 465.156 216.295 465.156C218.788 465.156 220.873 467.354 220.873 469.983C220.873 472.635 218.788 474.833 216.295 474.833ZM235.874 476.125C238.231 476.125 240.089 474.742 240.089 472.748C240.089 470.708 238.412 469.96 236.259 469.281C233.97 468.533 233.063 468.057 233.063 466.992C233.063 465.858 234.265 465.156 235.692 465.156C236.78 465.156 238.004 465.541 239.182 466.266L239.885 465.179C238.639 464.363 237.12 463.864 235.692 463.864C233.426 463.864 231.658 465.201 231.658 467.15C231.658 468.805 232.769 469.688 235.579 470.504C237.437 471.071 238.684 471.615 238.684 472.884C238.684 474.017 237.483 474.833 235.874 474.833C234.559 474.833 233.131 474.312 231.772 473.337L231.024 474.38C232.406 475.49 234.219 476.125 235.874 476.125ZM255.367 463.864C253.554 463.864 252.013 464.861 251.515 466.402C250.903 464.861 249.543 463.864 247.775 463.864C246.166 463.864 244.875 464.635 244.308 465.858V464.136H242.903V475.853H244.308V468.329C244.308 466.47 245.668 465.156 247.594 465.156C249.294 465.156 250.472 466.538 250.472 468.51V475.853H251.877V468.329C251.877 466.47 253.237 465.156 255.164 465.156C256.863 465.156 258.064 466.538 258.064 468.51V475.853H259.469V468.329C259.469 465.722 257.77 463.864 255.367 463.864ZM267.601 463.864C266.445 463.864 264.995 464.181 263.454 464.997L264.02 466.153C265.086 465.564 266.309 465.111 267.488 465.111C270.117 465.111 270.887 466.992 270.887 468.714V469.19C269.641 468.782 268.236 468.487 266.967 468.487C264.338 468.487 262.321 470.074 262.321 472.385C262.321 474.652 264.134 476.125 266.581 476.125C268.168 476.125 270.026 475.377 270.887 473.994V475.853H272.292V468.714C272.292 465.881 270.683 463.864 267.601 463.864ZM266.808 474.856C265.063 474.856 263.703 473.881 263.703 472.317C263.703 470.799 265.222 469.711 267.171 469.711C268.485 469.711 269.777 469.96 270.887 470.3V472.181C270.434 473.994 268.44 474.856 266.808 474.856ZM275.769 475.853H277.174V460.011H275.769V475.853ZM280.615 475.853H282.02V460.011H280.615V475.853ZM294.46 462.527C294.46 461.53 295.095 460.827 295.865 460.827C296.432 460.827 296.908 461.009 297.225 461.326L297.95 460.283C297.316 459.807 296.568 459.536 295.775 459.536C294.188 459.536 293.055 460.782 293.055 462.527V464.136H291.151V465.428H293.055V475.853H294.46V465.428H297.474V464.136H294.46V462.527ZM305.353 476.125C308.639 476.125 311.404 473.315 311.404 469.983C311.404 466.652 308.639 463.864 305.353 463.864C302.067 463.864 299.28 466.652 299.28 469.983C299.28 473.315 302.067 476.125 305.353 476.125ZM305.353 474.833C302.838 474.833 300.753 472.635 300.753 469.983C300.753 467.354 302.838 465.156 305.353 465.156C307.846 465.156 309.931 467.354 309.931 469.983C309.931 472.635 307.846 474.833 305.353 474.833ZM315.775 466.538V464.136H314.37V475.853H315.775V469.303C315.775 466.878 317.656 465.156 320.308 465.156V463.864C318.155 463.864 316.432 464.952 315.775 466.538ZM331.664 462.527C331.664 461.53 332.298 460.827 333.069 460.827C333.635 460.827 334.111 461.009 334.429 461.326L335.154 460.283C334.519 459.807 333.771 459.536 332.978 459.536C331.392 459.536 330.259 460.782 330.259 462.527V464.136H328.355V465.428H330.259V475.853H331.664V465.428H334.678V464.136H331.664V462.527ZM337.798 461.847C338.341 461.847 338.772 461.417 338.772 460.873C338.772 460.351 338.341 459.898 337.798 459.898C337.254 459.898 336.823 460.351 336.823 460.873C336.823 461.417 337.254 461.847 337.798 461.847ZM337.095 475.853H338.5V464.136H337.095V475.853ZM347.201 463.864C345.478 463.864 343.983 464.771 343.348 466.062V464.136H341.943V475.853H343.348V468.397C343.348 466.584 344.957 465.156 347.019 465.156C348.878 465.156 350.192 466.538 350.192 468.51V475.853H351.597V468.329C351.597 465.722 349.784 463.864 347.201 463.864ZM364.155 464.136V466.357C363.248 464.771 361.662 463.864 359.69 463.864C356.653 463.864 354.387 466.244 354.387 469.417C354.387 472.612 356.653 474.992 359.69 474.992C361.639 474.992 363.248 474.062 364.155 472.476V474.606C364.155 476.986 362.455 478.459 359.781 478.459C358.308 478.459 356.789 477.915 355.838 477.054L355.203 478.187C356.268 479.094 358.104 479.751 359.94 479.751C363.248 479.751 365.56 477.62 365.56 474.606V464.136H364.155ZM359.94 473.7C357.605 473.7 355.838 471.864 355.838 469.417C355.838 466.992 357.605 465.156 359.94 465.156C362.387 465.156 364.155 466.924 364.155 469.417C364.155 471.932 362.387 473.7 359.94 473.7ZM374.4 474.833C371.997 474.833 370.207 472.975 369.958 470.55H379.861C379.861 466.516 377.776 463.864 374.309 463.864C371.136 463.864 368.53 466.493 368.53 469.96C368.53 473.473 371.272 476.125 374.4 476.125C376.122 476.125 378.184 475.4 379.181 474.312L378.298 473.36C377.482 474.244 375.873 474.833 374.4 474.833ZM374.354 465.156C376.824 465.156 378.275 466.901 378.456 469.258H369.98C370.275 466.833 372.065 465.156 374.354 465.156ZM384.206 466.538V464.136H382.801V475.853H384.206V469.303C384.206 466.878 386.087 465.156 388.739 465.156V463.864C386.586 463.864 384.864 464.952 384.206 466.538ZM395.244 476.125C397.601 476.125 399.46 474.742 399.46 472.748C399.46 470.708 397.783 469.96 395.63 469.281C393.341 468.533 392.434 468.057 392.434 466.992C392.434 465.858 393.635 465.156 395.063 465.156C396.151 465.156 397.375 465.541 398.553 466.266L399.256 465.179C398.009 464.363 396.491 463.864 395.063 463.864C392.797 463.864 391.029 465.201 391.029 467.15C391.029 468.805 392.139 469.688 394.95 470.504C396.808 471.071 398.054 471.615 398.054 472.884C398.054 474.017 396.853 474.833 395.244 474.833C393.93 474.833 392.502 474.312 391.142 473.337L390.394 474.38C391.777 475.49 393.59 476.125 395.244 476.125ZM403.271 476.125C403.837 476.125 404.29 475.649 404.29 475.06C404.29 474.516 403.837 474.04 403.271 474.04C402.659 474.04 402.205 474.516 402.205 475.06C402.205 475.649 402.659 476.125 403.271 476.125ZM408.467 465.519C409.668 464 410.076 463.162 410.076 462.278C410.076 461.394 409.623 460.759 408.921 460.759C408.286 460.759 407.855 461.235 407.855 461.779C407.855 462.368 408.309 462.844 408.898 462.844C408.717 463.524 408.331 464.249 407.719 464.952L408.467 465.519ZM412.841 465.519C414.042 464 414.45 463.162 414.45 462.278C414.45 461.394 413.997 460.759 413.295 460.759C412.66 460.759 412.229 461.235 412.229 461.779C412.229 462.368 412.683 462.844 413.272 462.844C413.091 463.524 412.705 464.249 412.093 464.952L412.841 465.519Z" fill="#2D2D2D"/>
<path d="M128.595 355.3C131.836 355.3 134.012 353.419 134.012 350.813C134.012 348.569 132.244 347.414 130.658 347.051C132.267 346.575 133.672 345.397 133.672 343.402C133.672 340.909 131.496 339.187 128.527 339.187C126.103 339.187 124.38 340.365 123.202 341.929L124.38 342.994C125.491 341.657 126.714 340.796 128.437 340.796C130.386 340.796 131.882 341.974 131.882 343.606C131.882 345.374 130.318 346.371 128.233 346.348L126.556 346.326V347.957H128.21C130.658 347.957 132.222 348.887 132.222 350.722C132.222 352.49 130.771 353.691 128.595 353.691C126.692 353.691 125.173 352.785 124.154 351.47L122.93 352.626C124.063 354.122 126.035 355.3 128.595 355.3ZM136.413 355.028H147.155V353.351H139.246L143.325 349.816C145.954 347.55 146.996 345.873 146.996 343.765C146.996 340.977 144.73 339.187 142.033 339.187C139.586 339.187 137.841 340.343 136.549 342.178L137.795 343.198C138.86 341.748 140.152 340.773 141.965 340.773C143.62 340.773 145.206 341.884 145.206 343.788C145.206 345.329 144.299 346.824 142.101 348.705L136.413 353.555V355.028ZM151.277 358.042C152.636 356.343 153.022 355.572 153.022 354.666C153.022 353.623 152.5 352.853 151.639 352.853C150.914 352.853 150.393 353.419 150.393 354.054C150.393 354.734 150.937 355.3 151.617 355.3C151.435 356.003 151.05 356.705 150.438 357.408L151.277 358.042ZM163.327 355.028H165.094V343.266L170.873 354.122L176.652 343.266V355.028H178.42V339.459H176.652L170.873 350.314L165.094 339.459H163.327V355.028ZM187.021 343.04C185.888 343.04 184.483 343.334 182.806 344.173L183.486 345.555C184.551 345.011 185.729 344.49 186.908 344.49C189.446 344.49 190.081 346.303 190.081 347.89V348.32C188.879 347.935 187.542 347.663 186.273 347.663C183.758 347.663 181.673 349.227 181.673 351.561C181.673 353.873 183.486 355.3 185.956 355.3C187.497 355.3 189.242 354.575 190.081 353.193V355.028H191.78V347.89C191.78 345.057 190.217 343.04 187.021 343.04ZM186.251 353.805C184.596 353.805 183.327 352.943 183.327 351.493C183.327 350.088 184.8 349.091 186.545 349.091C187.814 349.091 189.015 349.272 190.081 349.567V351.357C189.627 353.011 187.792 353.805 186.251 353.805ZM197.112 345.601V343.312H195.412V355.028H197.112V348.479C197.112 346.19 198.993 344.558 201.644 344.558V343.04C199.491 343.04 197.814 344.037 197.112 345.601ZM214.262 343.312H212.086L205.672 349.793V339.187H203.973V355.028H205.672V351.924L207.78 349.839L211.837 355.028H213.967L208.981 348.683L214.262 343.312ZM221.581 353.782C219.269 353.782 217.66 352.105 217.411 349.816H226.997C226.997 345.714 224.98 343.04 221.445 343.04C218.295 343.04 215.666 345.646 215.666 349.136C215.666 352.739 218.476 355.3 221.604 355.3C223.235 355.3 225.298 354.598 226.318 353.487L225.275 352.377C224.55 353.17 222.963 353.782 221.581 353.782ZM221.513 344.558C223.847 344.558 225.094 346.19 225.32 348.297H217.434C217.751 346.031 219.428 344.558 221.513 344.558ZM234.923 353.306C234.674 353.578 234.221 353.782 233.699 353.782C233.02 353.782 232.43 353.17 232.43 352.309V344.83H235.308V343.312H232.43V340.093H230.731V343.312H228.895V344.83H230.731V352.309C230.731 354.054 231.909 355.3 233.586 355.3C234.379 355.3 235.15 355.028 235.762 354.552L234.923 353.306ZM239.005 341.181C239.617 341.181 240.116 340.66 240.116 340.048C240.116 339.459 239.617 338.938 239.005 338.938C238.371 338.938 237.872 339.459 237.872 340.048C237.872 340.66 238.371 341.181 239.005 341.181ZM238.144 355.028H239.844V343.312H238.144V355.028ZM248.832 343.04C247.178 343.04 245.659 343.946 244.979 345.193V343.312H243.28V355.028H244.979V347.572C244.979 345.941 246.634 344.558 248.605 344.558C250.328 344.558 251.529 345.895 251.529 347.799V355.028H253.229V347.572C253.229 344.921 251.416 343.04 248.832 343.04ZM265.779 343.312V345.329C264.873 343.901 263.377 343.04 261.519 343.04C258.368 343.04 256.125 345.329 256.125 348.592C256.125 351.856 258.368 354.167 261.519 354.167C263.377 354.167 264.873 353.306 265.779 351.878V353.782C265.779 356.071 264.193 357.408 261.496 357.408C260.046 357.408 258.64 356.887 257.734 356.025L256.986 357.363C258.051 358.269 259.819 358.926 261.723 358.926C265.099 358.926 267.479 356.796 267.479 353.782V343.312H265.779ZM261.836 352.649C259.547 352.649 257.915 350.972 257.915 348.592C257.915 346.235 259.547 344.558 261.836 344.558C264.148 344.558 265.779 346.235 265.779 348.592C265.779 350.972 264.148 352.649 261.836 352.649ZM283.111 355.278C286.737 355.278 288.596 353.261 288.596 350.79C288.596 348.048 286.466 346.983 283.497 346.28C280.845 345.646 279.304 345.079 279.304 343.47C279.304 342.042 280.709 340.773 282.635 340.773C284.267 340.773 285.808 341.521 287.1 342.768L288.188 341.385C286.76 340.071 285.038 339.164 282.726 339.164C279.735 339.164 277.514 341.113 277.514 343.606C277.514 346.303 279.485 347.278 282.613 348.003C285.332 348.637 286.805 349.295 286.805 350.949C286.805 352.354 285.582 353.669 283.179 353.669C281.004 353.669 279.395 352.739 278.08 351.425L276.97 352.807C278.534 354.348 280.551 355.278 283.111 355.278ZM297.667 343.04C295.786 343.04 294.291 343.969 293.407 345.51V343.312H291.707V358.926H293.407V352.83C294.291 354.371 295.786 355.3 297.667 355.3C300.75 355.3 303.061 352.762 303.061 349.159C303.061 345.578 300.75 343.04 297.667 343.04ZM297.35 353.782C295.038 353.782 293.407 351.856 293.407 349.159C293.407 346.462 295.038 344.558 297.35 344.558C299.639 344.558 301.271 346.462 301.271 349.159C301.271 351.856 299.639 353.782 297.35 353.782ZM311.281 353.782C308.969 353.782 307.36 352.105 307.111 349.816H316.697C316.697 345.714 314.68 343.04 311.145 343.04C307.995 343.04 305.366 345.646 305.366 349.136C305.366 352.739 308.176 355.3 311.304 355.3C312.935 355.3 314.998 354.598 316.017 353.487L314.975 352.377C314.25 353.17 312.663 353.782 311.281 353.782ZM311.213 344.558C313.547 344.558 314.794 346.19 315.02 348.297H307.134C307.451 346.031 309.128 344.558 311.213 344.558ZM324.918 355.3C326.549 355.3 328.045 354.62 329.156 353.51L327.977 352.354C327.184 353.238 326.096 353.782 324.918 353.782C322.583 353.782 320.634 351.674 320.634 349.159C320.634 346.666 322.583 344.558 324.918 344.558C326.074 344.558 327.139 345.079 327.909 345.918L329.088 344.762C327.977 343.697 326.504 343.04 324.918 343.04C321.632 343.04 318.844 345.827 318.844 349.159C318.844 352.49 321.632 355.3 324.918 355.3ZM332.6 341.181C333.212 341.181 333.711 340.66 333.711 340.048C333.711 339.459 333.212 338.938 332.6 338.938C331.966 338.938 331.467 339.459 331.467 340.048C331.467 340.66 331.966 341.181 332.6 341.181ZM331.739 355.028H333.439V343.312H331.739V355.028ZM341.611 343.04C340.478 343.04 339.073 343.334 337.396 344.173L338.076 345.555C339.141 345.011 340.319 344.49 341.498 344.49C344.036 344.49 344.671 346.303 344.671 347.89V348.32C343.47 347.935 342.132 347.663 340.863 347.663C338.348 347.663 336.263 349.227 336.263 351.561C336.263 353.873 338.076 355.3 340.546 355.3C342.087 355.3 343.832 354.575 344.671 353.193V355.028H346.37V347.89C346.37 345.057 344.807 343.04 341.611 343.04ZM340.841 353.805C339.186 353.805 337.917 352.943 337.917 351.493C337.917 350.088 339.39 349.091 341.135 349.091C342.404 349.091 343.606 349.272 344.671 349.567V351.357C344.217 353.011 342.382 353.805 340.841 353.805ZM349.843 355.028H351.543V339.187H349.843V355.028ZM355.816 341.181C356.428 341.181 356.927 340.66 356.927 340.048C356.927 339.459 356.428 338.938 355.816 338.938C355.182 338.938 354.683 339.459 354.683 340.048C354.683 340.66 355.182 341.181 355.816 341.181ZM354.955 355.028H356.655V343.312H354.955V355.028ZM364.216 355.3C366.64 355.3 368.499 353.918 368.499 351.765C368.499 349.544 366.55 348.909 364.669 348.32C362.493 347.618 361.632 347.3 361.632 346.28C361.632 345.147 362.72 344.558 364.034 344.558C365.077 344.558 366.233 344.921 367.411 345.669L368.227 344.354C366.98 343.538 365.485 343.04 364.034 343.04C361.7 343.04 359.932 344.354 359.932 346.484C359.932 348.161 361.02 349 363.853 349.816C365.439 350.269 366.799 350.677 366.799 351.946C366.799 353.057 365.757 353.782 364.216 353.782C362.924 353.782 361.587 353.283 360.25 352.309L359.366 353.555C360.771 354.688 362.584 355.3 364.216 355.3ZM376.456 353.306C376.206 353.578 375.753 353.782 375.232 353.782C374.552 353.782 373.963 353.17 373.963 352.309V344.83H376.841V343.312H373.963V340.093H372.263V343.312H370.427V344.83H372.263V352.309C372.263 354.054 373.441 355.3 375.118 355.3C375.912 355.3 376.682 355.028 377.294 354.552L376.456 353.306Z" fill="#A2CC00"/>
<path d="M201.35 321.609C207.061 321.609 210.427 318.652 210.427 314.198C210.427 309.881 207.095 308.385 202.064 307.263C198.461 306.448 197.067 305.904 197.067 304.204C197.067 302.81 198.359 301.688 200.5 301.688C202.744 301.688 205.09 302.606 207.163 304.272L209.781 300.669C207.401 298.629 204.444 297.439 200.636 297.439C195.537 297.439 192.002 300.397 192.002 304.714C192.002 309.235 195.503 310.629 200.432 311.751C204.002 312.567 205.362 313.077 205.362 314.742C205.362 316.204 204.07 317.36 201.554 317.36C198.597 317.36 196.081 316.204 193.872 314.3L190.982 317.734C193.702 320.249 197.305 321.609 201.35 321.609ZM221.74 303.218C219.293 303.218 216.879 303.898 214.398 305.156L216.063 308.453C217.457 307.739 218.987 307.196 220.619 307.196C223.508 307.196 224.664 308.827 224.664 310.697V311.037C223.168 310.459 221.605 310.153 220.177 310.153C216.097 310.153 212.868 312.533 212.868 316C212.868 319.365 215.757 321.609 219.497 321.609C221.401 321.609 223.406 320.861 224.664 319.433V321.201H229.457V310.697C229.457 306.108 226.33 303.218 221.74 303.218ZM220.619 318.176C218.919 318.176 217.661 317.292 217.661 315.864C217.661 314.436 219.089 313.382 220.891 313.382C222.25 313.382 223.542 313.62 224.664 314.028V315.66C224.324 317.292 222.522 318.176 220.619 318.176ZM243.805 303.218C241.527 303.218 239.555 304.238 238.502 305.836V303.626H233.538V321.201H238.502V310.697L238.536 310.799C238.536 308.895 240.133 307.399 242.207 307.399C244.179 307.399 245.538 308.895 245.538 311.071V321.201H250.332V310.017C250.332 306.04 247.612 303.218 243.805 303.218ZM267.643 297.439V306.142C266.25 304.306 264.21 303.218 261.728 303.218C257.037 303.218 253.638 307.026 253.638 312.397C253.638 317.802 257.037 321.609 261.728 321.609C264.21 321.609 266.25 320.521 267.643 318.686V321.201H272.607V297.439H267.643ZM263.156 317.428C260.403 317.428 258.465 315.354 258.465 312.397C258.465 309.473 260.403 307.399 263.156 307.399C265.774 307.399 267.643 309.473 267.643 312.397C267.643 315.354 265.774 317.428 263.156 317.428ZM281.926 306.89V303.626H276.963V321.201H281.926V312.805C281.926 309.507 284.272 307.399 287.943 307.399V303.218C285.258 303.218 283.082 304.612 281.926 306.89ZM298.659 303.218C296.212 303.218 293.798 303.898 291.317 305.156L292.982 308.453C294.376 307.739 295.906 307.196 297.538 307.196C300.427 307.196 301.583 308.827 301.583 310.697V311.037C300.087 310.459 298.523 310.153 297.096 310.153C293.016 310.153 289.787 312.533 289.787 316C289.787 319.365 292.676 321.609 296.416 321.609C298.319 321.609 300.325 320.861 301.583 319.433V321.201H306.376V310.697C306.376 306.108 303.249 303.218 298.659 303.218ZM297.538 318.176C295.838 318.176 294.58 317.292 294.58 315.864C294.58 314.436 296.008 313.382 297.809 313.382C299.169 313.382 300.461 313.62 301.583 314.028V315.66C301.243 317.292 299.441 318.176 297.538 318.176Z" fill="#A2CC00"/>
<circle cx="250.708" cy="160.057" r="98.5836" fill="#F9FFE0" stroke="#A2CC00" stroke-width="1.13314"/>
<circle cx="250.708" cy="160.057" r="87.8187" fill="#EEF9C1"/>
<mask id="mask0_408_2" style="mask-type:alpha" maskUnits="userSpaceOnUse" x="162" y="72" width="177" height="176">
<circle cx="250.708" cy="160.057" r="87.8187" fill="#EFDAB9"/>
</mask>
<g mask="url(#mask0_408_2)">
<path d="M308.83 220.579C313.519 229.531 315.864 262.144 315.864 262.144H184.136C184.136 262.144 186.481 229.531 191.17 220.579C198.204 207.15 250 189.885 250 189.885C250 189.885 301.796 207.15 308.83 220.579Z" fill="url(#paint0_linear_408_2)"/>
<mask id="mask1_408_2" style="mask-type:alpha" maskUnits="userSpaceOnUse" x="184" y="189" width="132" height="74">
<path d="M308.83 220.579C313.519 229.531 315.864 262.144 315.864 262.144H184.136C184.136 262.144 186.481 229.531 191.17 220.579C198.204 207.15 250 189.885 250 189.885C250 189.885 301.796 207.15 308.83 220.579Z" fill="url(#paint1_linear_408_2)"/>
</mask>
<g mask="url(#mask1_408_2)">
<path d="M310.108 256.389C310.108 255.63 310.333 254.888 310.755 254.257C311.177 253.626 311.776 253.134 312.477 252.844C313.178 252.554 313.949 252.478 314.694 252.626C315.438 252.774 316.122 253.139 316.658 253.676C317.195 254.212 317.56 254.896 317.708 255.64C317.856 256.384 317.78 257.156 317.49 257.857C317.199 258.558 316.708 259.157 316.077 259.579C315.446 260 314.704 260.225 313.945 260.225C312.928 260.225 311.952 259.821 311.232 259.102C310.513 258.382 310.108 257.406 310.108 256.389V256.389ZM284.53 256.389C284.53 255.63 284.755 254.888 285.177 254.257C285.598 253.626 286.198 253.134 286.899 252.844C287.6 252.554 288.371 252.478 289.115 252.626C289.86 252.774 290.543 253.139 291.08 253.676C291.616 254.212 291.982 254.896 292.13 255.64C292.278 256.384 292.202 257.156 291.912 257.857C291.621 258.558 291.129 259.157 290.498 259.579C289.867 260 289.126 260.225 288.367 260.225C287.349 260.225 286.373 259.821 285.654 259.102C284.934 258.382 284.53 257.406 284.53 256.389ZM258.952 256.389C258.952 255.63 259.177 254.888 259.598 254.257C260.02 253.626 260.619 253.134 261.32 252.844C262.021 252.554 262.793 252.478 263.537 252.626C264.281 252.774 264.965 253.139 265.502 253.676C266.038 254.212 266.404 254.896 266.552 255.64C266.7 256.384 266.624 257.156 266.333 257.857C266.043 258.558 265.551 259.157 264.92 259.579C264.289 260 263.547 260.225 262.789 260.225C261.771 260.225 260.795 259.821 260.076 259.102C259.356 258.382 258.952 257.406 258.952 256.389ZM233.374 256.389C233.374 255.63 233.599 254.888 234.02 254.257C234.442 253.626 235.041 253.134 235.742 252.844C236.443 252.554 237.215 252.478 237.959 252.626C238.703 252.774 239.387 253.139 239.923 253.676C240.46 254.212 240.825 254.896 240.973 255.64C241.121 256.384 241.045 257.156 240.755 257.857C240.465 258.558 239.973 259.157 239.342 259.579C238.711 260 237.969 260.225 237.21 260.225C236.193 260.225 235.217 259.821 234.497 259.102C233.778 258.382 233.374 257.406 233.374 256.389ZM207.795 256.389C207.795 255.63 208.02 254.888 208.442 254.257C208.863 253.626 209.463 253.134 210.164 252.844C210.865 252.554 211.636 252.478 212.381 252.626C213.125 252.774 213.808 253.139 214.345 253.676C214.882 254.212 215.247 254.896 215.395 255.64C215.543 256.384 215.467 257.156 215.177 257.857C214.886 258.558 214.395 259.157 213.764 259.579C213.133 260 212.391 260.225 211.632 260.225C210.614 260.225 209.639 259.821 208.919 259.102C208.2 258.382 207.795 257.406 207.795 256.389ZM182.217 256.389C182.217 255.63 182.442 254.888 182.864 254.257C183.285 253.626 183.884 253.134 184.586 252.844C185.287 252.554 186.058 252.478 186.802 252.626C187.547 252.774 188.23 253.139 188.767 253.676C189.303 254.212 189.669 254.896 189.817 255.64C189.965 256.384 189.889 257.156 189.598 257.857C189.308 258.558 188.816 259.157 188.185 259.579C187.554 260 186.813 260.225 186.054 260.225C185.036 260.225 184.06 259.821 183.341 259.102C182.621 258.382 182.217 257.406 182.217 256.389V256.389ZM297.319 243.6C297.319 242.841 297.544 242.099 297.966 241.468C298.387 240.837 298.987 240.345 299.688 240.055C300.389 239.764 301.16 239.688 301.904 239.837C302.649 239.985 303.332 240.35 303.869 240.887C304.406 241.423 304.771 242.107 304.919 242.851C305.067 243.595 304.991 244.367 304.701 245.068C304.41 245.769 303.919 246.368 303.288 246.79C302.657 247.211 301.915 247.436 301.156 247.436C300.138 247.436 299.163 247.032 298.443 246.312C297.723 245.593 297.319 244.617 297.319 243.6ZM271.741 243.6C271.741 242.841 271.966 242.099 272.388 241.468C272.809 240.837 273.408 240.345 274.109 240.055C274.811 239.764 275.582 239.688 276.326 239.837C277.07 239.985 277.754 240.35 278.291 240.887C278.827 241.423 279.193 242.107 279.341 242.851C279.489 243.595 279.413 244.367 279.122 245.068C278.832 245.769 278.34 246.368 277.709 246.79C277.078 247.211 276.337 247.436 275.578 247.436C274.56 247.436 273.584 247.032 272.865 246.312C272.145 245.593 271.741 244.617 271.741 243.6ZM246.163 243.6C246.163 242.841 246.388 242.099 246.809 241.468C247.231 240.837 247.83 240.345 248.531 240.055C249.232 239.764 250.004 239.688 250.748 239.837C251.492 239.985 252.176 240.35 252.712 240.887C253.249 241.423 253.614 242.107 253.762 242.851C253.911 243.595 253.835 244.367 253.544 245.068C253.254 245.769 252.762 246.368 252.131 246.79C251.5 247.211 250.758 247.436 249.999 247.436C248.982 247.436 248.006 247.032 247.286 246.312C246.567 245.593 246.163 244.617 246.163 243.6V243.6ZM220.584 243.6C220.584 242.841 220.809 242.099 221.231 241.468C221.653 240.837 222.252 240.345 222.953 240.055C223.654 239.764 224.425 239.688 225.17 239.837C225.914 239.985 226.598 240.35 227.134 240.887C227.671 241.423 228.036 242.107 228.184 242.851C228.332 243.595 228.256 244.367 227.966 245.068C227.675 245.769 227.184 246.368 226.553 246.79C225.922 247.211 225.18 247.436 224.421 247.436C223.404 247.436 222.428 247.032 221.708 246.312C220.989 245.593 220.584 244.617 220.584 243.6ZM195.006 243.6C195.006 242.841 195.231 242.099 195.653 241.468C196.074 240.837 196.674 240.345 197.375 240.055C198.076 239.764 198.847 239.688 199.591 239.837C200.336 239.985 201.019 240.35 201.556 240.887C202.092 241.423 202.458 242.107 202.606 242.851C202.754 243.595 202.678 244.367 202.388 245.068C202.097 245.769 201.605 246.368 200.974 246.79C200.344 247.211 199.602 247.436 198.843 247.436C197.825 247.436 196.849 247.032 196.13 246.312C195.41 245.593 195.006 244.617 195.006 243.6ZM310.108 230.81C310.108 230.052 310.333 229.31 310.755 228.679C311.177 228.048 311.776 227.556 312.477 227.266C313.178 226.975 313.949 226.899 314.694 227.047C315.438 227.195 316.122 227.561 316.658 228.097C317.195 228.634 317.56 229.318 317.708 230.062C317.856 230.806 317.78 231.578 317.49 232.279C317.199 232.98 316.708 233.579 316.077 234.001C315.446 234.422 314.704 234.647 313.945 234.647C312.928 234.647 311.952 234.243 311.232 233.523C310.513 232.804 310.108 231.828 310.108 230.81V230.81ZM284.53 230.81C284.53 230.052 284.755 229.31 285.177 228.679C285.598 228.048 286.198 227.556 286.899 227.266C287.6 226.975 288.371 226.899 289.115 227.047C289.86 227.195 290.543 227.561 291.08 228.097C291.616 228.634 291.982 229.318 292.13 230.062C292.278 230.806 292.202 231.578 291.912 232.279C291.621 232.98 291.129 233.579 290.498 234.001C289.867 234.422 289.126 234.647 288.367 234.647C287.349 234.647 286.373 234.243 285.654 233.523C284.934 232.804 284.53 231.828 284.53 230.81ZM258.952 230.81C258.952 230.052 259.177 229.31 259.598 228.679C260.02 228.048 260.619 227.556 261.32 227.266C262.021 226.975 262.793 226.899 263.537 227.047C264.281 227.195 264.965 227.561 265.502 228.097C266.038 228.634 266.404 229.318 266.552 230.062C266.7 230.806 266.624 231.578 266.333 232.279C266.043 232.98 265.551 233.579 264.92 234.001C264.289 234.422 263.547 234.647 262.789 234.647C261.771 234.647 260.795 234.243 260.076 233.523C259.356 232.804 258.952 231.828 258.952 230.81ZM233.374 230.81C233.374 230.052 233.599 229.31 234.02 228.679C234.442 228.048 235.041 227.556 235.742 227.266C236.443 226.975 237.215 226.899 237.959 227.047C238.703 227.195 239.387 227.561 239.923 228.097C240.46 228.634 240.825 229.318 240.973 230.062C241.121 230.806 241.045 231.578 240.755 232.279C240.465 232.98 239.973 233.579 239.342 234.001C238.711 234.422 237.969 234.647 237.21 234.647C236.193 234.647 235.217 234.243 234.497 233.523C233.778 232.804 233.374 231.828 233.374 230.81ZM207.795 230.81C207.795 230.052 208.02 229.31 208.442 228.679C208.863 228.048 209.463 227.556 210.164 227.266C210.865 226.975 211.636 226.899 212.381 227.047C213.125 227.195 213.808 227.561 214.345 228.097C214.882 228.634 215.247 229.318 215.395 230.062C215.543 230.806 215.467 231.578 215.177 232.279C214.886 232.98 214.395 233.579 213.764 234.001C213.133 234.422 212.391 234.647 211.632 234.647C210.614 234.647 209.639 234.243 208.919 233.523C208.2 232.804 207.795 231.828 207.795 230.81ZM182.217 230.81C182.217 230.052 182.442 229.31 182.864 228.679C183.285 228.048 183.884 227.556 184.586 227.266C185.287 226.975 186.058 226.899 186.802 227.047C187.547 227.195 188.23 227.561 188.767 228.097C189.303 228.634 189.669 229.318 189.817 230.062C189.965 230.806 189.889 231.578 189.598 232.279C189.308 232.98 188.816 233.579 188.185 234.001C187.554 234.422 186.813 234.647 186.054 234.647C185.036 234.647 184.06 234.243 183.341 233.523C182.621 232.804 182.217 231.828 182.217 230.81V230.81ZM297.319 218.021C297.319 217.262 297.544 216.521 297.966 215.89C298.387 215.259 298.987 214.767 299.688 214.477C300.389 214.186 301.16 214.11 301.904 214.258C302.649 214.406 303.332 214.772 303.869 215.308C304.406 215.845 304.771 216.528 304.919 217.273C305.067 218.017 304.991 218.788 304.701 219.49C304.41 220.191 303.919 220.79 303.288 221.211C302.657 221.633 301.915 221.858 301.156 221.858C300.138 221.858 299.163 221.454 298.443 220.734C297.723 220.015 297.319 219.039 297.319 218.021ZM271.741 218.021C271.741 217.262 271.966 216.521 272.388 215.89C272.809 215.259 273.408 214.767 274.109 214.477C274.811 214.186 275.582 214.11 276.326 214.258C277.07 214.406 277.754 214.772 278.291 215.308C278.827 215.845 279.193 216.528 279.341 217.273C279.489 218.017 279.413 218.788 279.122 219.49C278.832 220.191 278.34 220.79 277.709 221.211C277.078 221.633 276.337 221.858 275.578 221.858C274.56 221.858 273.584 221.454 272.865 220.734C272.145 220.015 271.741 219.039 271.741 218.021ZM246.163 218.021C246.163 217.262 246.388 216.521 246.809 215.89C247.231 215.259 247.83 214.767 248.531 214.477C249.232 214.186 250.004 214.11 250.748 214.258C251.492 214.406 252.176 214.772 252.712 215.308C253.249 215.845 253.614 216.528 253.762 217.273C253.911 218.017 253.835 218.788 253.544 219.49C253.254 220.191 252.762 220.79 252.131 221.211C251.5 221.633 250.758 221.858 249.999 221.858C248.982 221.858 248.006 221.454 247.286 220.734C246.567 220.015 246.163 219.039 246.163 218.021V218.021ZM220.584 218.021C220.584 217.262 220.809 216.521 221.231 215.89C221.653 215.259 222.252 214.767 222.953 214.477C223.654 214.186 224.425 214.11 225.17 214.258C225.914 214.406 226.598 214.772 227.134 215.308C227.671 215.845 228.036 216.528 228.184 217.273C228.332 218.017 228.256 218.788 227.966 219.49C227.675 220.191 227.184 220.79 226.553 221.211C225.922 221.633 225.18 221.858 224.421 221.858C223.404 221.858 222.428 221.454 221.708 220.734C220.989 220.015 220.584 219.039 220.584 218.021ZM195.006 218.021C195.006 217.262 195.231 216.521 195.653 215.89C196.074 215.259 196.674 214.767 197.375 214.477C198.076 214.186 198.847 214.11 199.591 214.258C200.336 214.406 201.019 214.772 201.556 215.308C202.092 215.845 202.458 216.528 202.606 217.273C202.754 218.017 202.678 218.788 202.388 219.49C202.097 220.191 201.605 220.79 200.974 221.211C200.344 221.633 199.602 221.858 198.843 221.858C197.825 221.858 196.849 221.454 196.13 220.734C195.41 220.015 195.006 219.039 195.006 218.021ZM310.108 205.232C310.108 204.473 310.333 203.731 310.755 203.101C311.177 202.47 311.776 201.978 312.477 201.687C313.178 201.397 313.949 201.321 314.694 201.469C315.438 201.617 316.122 201.983 316.658 202.519C317.195 203.056 317.56 203.739 317.708 204.484C317.856 205.228 317.78 205.999 317.49 206.7C317.199 207.401 316.708 208.001 316.077 208.422C315.446 208.844 314.704 209.069 313.945 209.069C312.928 209.069 311.952 208.665 311.232 207.945C310.513 207.226 310.108 206.25 310.108 205.232V205.232ZM284.53 205.232C284.53 204.473 284.755 203.731 285.177 203.101C285.598 202.47 286.198 201.978 286.899 201.687C287.6 201.397 288.371 201.321 289.115 201.469C289.86 201.617 290.543 201.983 291.08 202.519C291.616 203.056 291.982 203.739 292.13 204.484C292.278 205.228 292.202 205.999 291.912 206.7C291.621 207.401 291.129 208.001 290.498 208.422C289.867 208.844 289.126 209.069 288.367 209.069C287.349 209.069 286.373 208.665 285.654 207.945C284.934 207.226 284.53 206.25 284.53 205.232V205.232ZM207.795 205.232C207.795 204.473 208.02 203.731 208.442 203.101C208.863 202.47 209.463 201.978 210.164 201.687C210.865 201.397 211.636 201.321 212.381 201.469C213.125 201.617 213.808 201.983 214.345 202.519C214.882 203.056 215.247 203.739 215.395 204.484C215.543 205.228 215.467 205.999 215.177 206.7C214.886 207.401 214.395 208.001 213.764 208.422C213.133 208.844 212.391 209.069 211.632 209.069C210.614 209.069 209.639 208.665 208.919 207.945C208.2 207.226 207.795 206.25 207.795 205.232V205.232ZM182.217 205.232C182.217 204.473 182.442 203.731 182.864 203.101C183.285 202.47 183.884 201.978 184.586 201.687C185.287 201.397 186.058 201.321 186.802 201.469C187.547 201.617 188.23 201.983 188.767 202.519C189.303 203.056 189.669 203.739 189.817 204.484C189.965 205.228 189.889 205.999 189.598 206.7C189.308 207.401 188.816 208.001 188.185 208.422C187.554 208.844 186.813 209.069 186.054 209.069C185.036 209.069 184.06 208.665 183.341 207.945C182.621 207.226 182.217 206.25 182.217 205.232V205.232Z" fill="#FFA573"/>
</g>
<path d="M256.947 98.8907C254.389 87.7002 266.518 79.1129 279.008 85.0081C308.423 98.8907 290.925 118.266 280.054 116.987C269.183 115.708 259.505 110.081 256.947 98.8907Z" fill="url(#paint2_linear_408_2)"/>
<path opacity="0.6" d="M267.585 100.681C267.585 100.681 289.326 114.749 294.762 107.076C295.322 110.28 292.743 119.331 288.687 119.225C276.552 118.909 267.585 100.681 267.585 100.681Z" fill="black"/>
<path d="M264.068 169.423C250.33 176.022 248.326 175.669 218.027 150.878C172.306 113.47 215.469 79.2593 261.829 97.4838C312.027 119.545 295.21 154.464 264.068 169.423Z" fill="url(#paint3_linear_408_2)"/>
<path d="M265.347 195.641C260.658 203.314 239.343 203.314 234.654 195.641V182.851C234.654 182.851 232.567 182.915 231.137 182.851C216.179 182.212 211.181 158.151 213.528 134.085C215.247 116.46 230.177 140.647 254.477 123.702C253.518 142.246 261.511 140.328 265.028 138.089C281.014 130.736 281.148 160.881 265.347 158.552V195.641Z" fill="url(#paint4_linear_408_2)"/>
<path d="M234.654 182.848C243.283 182.207 256.152 173.193 256.152 173.193C256.152 173.193 249.996 186.362 234.655 188.601L234.654 182.848Z" fill="#DB6F3D"/>
<path d="M265.347 194.016V189.885C266.519 189.885 269.877 192.655 271.604 195.001C278.431 204.273 270.859 212.586 264.683 212.586C256.89 212.586 251.726 206.075 250 202.943C248.273 206.076 243.109 212.586 235.316 212.586C229.141 212.586 221.568 204.273 228.395 195.001C230.122 192.655 233.48 189.885 234.653 189.885V194.016C234.653 198.907 245.357 201.17 249.979 201.379C254.353 201.17 265.347 198.907 265.347 194.016Z" fill="white"/>
</g>
<defs>
<linearGradient id="paint0_linear_408_2" x1="300.979" y1="251.449" x2="250.352" y2="165.51" gradientUnits="userSpaceOnUse">
<stop stop-color="#E2834C"/>
<stop offset="1" stop-color="#DF6638"/>
</linearGradient>
<linearGradient id="paint1_linear_408_2" x1="300.979" y1="251.449" x2="250.352" y2="165.51" gradientUnits="userSpaceOnUse">
<stop stop-color="#E2834C"/>
<stop offset="1" stop-color="#DF6638"/>
</linearGradient>
<linearGradient id="paint2_linear_408_2" x1="275.911" y1="83.093" x2="275.911" y2="117.047" gradientUnits="userSpaceOnUse">
<stop stop-color="#1D0024"/>
<stop offset="1" stop-color="#100014"/>
</linearGradient>
<linearGradient id="paint3_linear_408_2" x1="246.127" y1="92.4368" x2="246.127" y2="173.057" gradientUnits="userSpaceOnUse">
<stop stop-color="#1D0024"/>
<stop offset="1" stop-color="#100014"/>
</linearGradient>
<linearGradient id="paint4_linear_408_2" x1="245.042" y1="123.702" x2="245.042" y2="201.396" gradientUnits="userSpaceOnUse">
<stop stop-color="#E6864E"/>
<stop offset="1" stop-color="#EB965E"/>
</linearGradient>
</defs>
</svg>
