<svg width="500" height="571" viewBox="0 0 500 571" fill="none" xmlns="http://www.w3.org/2000/svg">
<path d="M0 0H500V570.822H0V0Z" fill="#FCFFEF"/>
<path d="M16.2889 19.1218H482.295V550.283H16.2889V19.1218Z" stroke="#B9D93C" stroke-width="1.41643"/>
<path d="M45.596 397.926H46.4798C46.6385 396.612 46.9557 394.686 46.9557 393.688C46.9557 393.19 46.5478 392.782 46.0492 392.782C45.5506 392.782 45.12 393.19 45.12 393.688C45.12 394.686 45.4373 396.612 45.596 397.926ZM49.6753 397.926H50.5591C50.7178 396.612 51.0351 394.686 51.0351 393.688C51.0351 393.19 50.6271 392.782 50.1285 392.782C49.63 392.782 49.1994 393.19 49.1994 393.688C49.1994 394.686 49.5166 396.612 49.6753 397.926ZM54.4639 407.853H55.9143V392.283H54.4639V407.853ZM64.6096 406.334C64.2923 406.629 63.7937 406.833 63.2498 406.833C62.4793 406.833 61.8447 406.13 61.8447 405.133V397.428H64.7909V396.136H61.8447V392.918H60.4396V396.136H58.5359V397.428H60.4396V405.133C60.4396 406.878 61.5728 408.125 63.1592 408.125C63.9297 408.125 64.7229 407.853 65.3348 407.377L64.6096 406.334ZM68.1039 397.926H68.9878C69.1464 396.612 69.4637 394.686 69.4637 393.688C69.4637 393.19 69.0558 392.782 68.5572 392.782C68.0586 392.782 67.628 393.19 67.628 393.688C67.628 394.686 67.9453 396.612 68.1039 397.926ZM76.9347 408.125C79.2916 408.125 81.15 406.742 81.15 404.748C81.15 402.708 79.4729 401.96 77.3199 401.281C75.031 400.533 74.1245 400.057 74.1245 398.992C74.1245 397.858 75.3256 397.156 76.7534 397.156C77.8412 397.156 79.065 397.541 80.2434 398.266L80.946 397.179C79.6995 396.363 78.1811 395.864 76.7534 395.864C74.4871 395.864 72.7194 397.201 72.7194 399.15C72.7194 400.805 73.8298 401.688 76.64 402.504C78.4984 403.071 79.7449 403.615 79.7449 404.884C79.7449 406.017 78.5437 406.833 76.9347 406.833C75.6202 406.833 74.1925 406.312 72.8327 405.337L72.0848 406.38C73.4672 407.49 75.2803 408.125 76.9347 408.125ZM92.9619 394.527C92.9619 393.53 93.5965 392.827 94.367 392.827C94.9336 392.827 95.4095 393.009 95.7268 393.326L96.452 392.283C95.8175 391.807 95.0696 391.536 94.2764 391.536C92.69 391.536 91.5568 392.782 91.5568 394.527V396.136H89.6531V397.428H91.5568V407.853H92.9619V397.428H95.9761V396.136H92.9619V394.527ZM99.9796 398.538V396.136H98.5745V407.853H99.9796V401.303C99.9796 398.878 101.861 397.156 104.512 397.156V395.864C102.359 395.864 100.637 396.952 99.9796 398.538ZM115.12 396.136V403.592C115.12 405.405 113.51 406.833 111.448 406.833C109.59 406.833 108.275 405.451 108.275 403.479V396.136H106.87V403.66C106.87 406.266 108.683 408.125 111.267 408.125C112.989 408.125 114.485 407.218 115.12 405.926V407.853H116.525V396.136H115.12ZM124.142 408.125C126.499 408.125 128.357 406.742 128.357 404.748C128.357 402.708 126.68 401.96 124.527 401.281C122.238 400.533 121.331 400.057 121.331 398.992C121.331 397.858 122.533 397.156 123.96 397.156C125.048 397.156 126.272 397.541 127.45 398.266L128.153 397.179C126.907 396.363 125.388 395.864 123.96 395.864C121.694 395.864 119.926 397.201 119.926 399.15C119.926 400.805 121.037 401.688 123.847 402.504C125.705 403.071 126.952 403.615 126.952 404.884C126.952 406.017 125.751 406.833 124.142 406.833C122.827 406.833 121.399 406.312 120.04 405.337L119.292 406.38C120.674 407.49 122.487 408.125 124.142 408.125ZM136.361 406.334C136.043 406.629 135.545 406.833 135.001 406.833C134.23 406.833 133.596 406.13 133.596 405.133V397.428H136.542V396.136H133.596V392.918H132.191V396.136H130.287V397.428H132.191V405.133C132.191 406.878 133.324 408.125 134.91 408.125C135.681 408.125 136.474 407.853 137.086 407.377L136.361 406.334ZM141.056 398.538V396.136H139.651V407.853H141.056V401.303C141.056 398.878 142.937 397.156 145.589 397.156V395.864C143.436 395.864 141.713 396.952 141.056 398.538ZM152.638 395.864C151.482 395.864 150.032 396.181 148.491 396.997L149.057 398.153C150.122 397.564 151.346 397.111 152.525 397.111C155.153 397.111 155.924 398.992 155.924 400.714V401.19C154.678 400.782 153.272 400.487 152.003 400.487C149.374 400.487 147.357 402.074 147.357 404.385C147.357 406.652 149.17 408.125 151.618 408.125C153.204 408.125 155.063 407.377 155.924 405.994V407.853H157.329V400.714C157.329 397.881 155.72 395.864 152.638 395.864ZM151.845 406.856C150.1 406.856 148.74 405.881 148.74 404.317C148.74 402.799 150.258 401.711 152.207 401.711C153.522 401.711 154.814 401.96 155.924 402.3V404.181C155.471 405.994 153.476 406.856 151.845 406.856ZM165.995 406.334C165.678 406.629 165.179 406.833 164.635 406.833C163.865 406.833 163.23 406.13 163.23 405.133V397.428H166.176V396.136H163.23V392.918H161.825V396.136H159.921V397.428H161.825V405.133C161.825 406.878 162.958 408.125 164.545 408.125C165.315 408.125 166.108 407.853 166.72 407.377L165.995 406.334ZM169.807 393.847C170.351 393.847 170.781 393.417 170.781 392.873C170.781 392.351 170.351 391.898 169.807 391.898C169.263 391.898 168.832 392.351 168.832 392.873C168.832 393.417 169.263 393.847 169.807 393.847ZM169.104 407.853H170.509V396.136H169.104V407.853ZM179.21 395.864C177.487 395.864 175.992 396.771 175.357 398.062V396.136H173.952V407.853H175.357V400.397C175.357 398.584 176.966 397.156 179.029 397.156C180.887 397.156 182.201 398.538 182.201 400.51V407.853H183.606V400.329C183.606 397.722 181.793 395.864 179.21 395.864ZM196.164 396.136V398.357C195.257 396.771 193.671 395.864 191.699 395.864C188.663 395.864 186.396 398.244 186.396 401.417C186.396 404.612 188.663 406.992 191.699 406.992C193.648 406.992 195.257 406.062 196.164 404.476V406.606C196.164 408.986 194.464 410.459 191.79 410.459C190.317 410.459 188.799 409.915 187.847 409.054L187.212 410.187C188.277 411.094 190.113 411.751 191.949 411.751C195.257 411.751 197.569 409.62 197.569 406.606V396.136H196.164ZM191.949 405.7C189.614 405.7 187.847 403.864 187.847 401.417C187.847 398.992 189.614 397.156 191.949 397.156C194.396 397.156 196.164 398.924 196.164 401.417C196.164 403.932 194.396 405.7 191.949 405.7ZM212.936 406.334C212.619 406.629 212.121 406.833 211.577 406.833C210.806 406.833 210.172 406.13 210.172 405.133V397.428H213.118V396.136H210.172V392.918H208.766V396.136H206.863V397.428H208.766V405.133C208.766 406.878 209.9 408.125 211.486 408.125C212.257 408.125 213.05 407.853 213.662 407.377L212.936 406.334ZM221.507 408.125C224.793 408.125 227.558 405.315 227.558 401.983C227.558 398.652 224.793 395.864 221.507 395.864C218.221 395.864 215.434 398.652 215.434 401.983C215.434 405.315 218.221 408.125 221.507 408.125ZM221.507 406.833C218.992 406.833 216.907 404.635 216.907 401.983C216.907 399.354 218.992 397.156 221.507 397.156C224 397.156 226.085 399.354 226.085 401.983C226.085 404.635 224 406.833 221.507 406.833ZM246.049 396.136V398.357C245.142 396.771 243.556 395.864 241.584 395.864C238.547 395.864 236.281 398.244 236.281 401.417C236.281 404.612 238.547 406.992 241.584 406.992C243.533 406.992 245.142 406.062 246.049 404.476V406.606C246.049 408.986 244.349 410.459 241.675 410.459C240.202 410.459 238.683 409.915 237.732 409.054L237.097 410.187C238.162 411.094 239.998 411.751 241.834 411.751C245.142 411.751 247.454 409.62 247.454 406.606V396.136H246.049ZM241.834 405.7C239.499 405.7 237.732 403.864 237.732 401.417C237.732 398.992 239.499 397.156 241.834 397.156C244.281 397.156 246.049 398.924 246.049 401.417C246.049 403.932 244.281 405.7 241.834 405.7ZM256.498 408.125C259.784 408.125 262.549 405.315 262.549 401.983C262.549 398.652 259.784 395.864 256.498 395.864C253.211 395.864 250.424 398.652 250.424 401.983C250.424 405.315 253.211 408.125 256.498 408.125ZM256.498 406.833C253.982 406.833 251.897 404.635 251.897 401.983C251.897 399.354 253.982 397.156 256.498 397.156C258.99 397.156 261.075 399.354 261.075 401.983C261.075 404.635 258.99 406.833 256.498 406.833ZM277.118 406.334C276.801 406.629 276.303 406.833 275.759 406.833C274.988 406.833 274.354 406.13 274.354 405.133V397.428H277.3V396.136H274.354V392.918H272.948V396.136H271.045V397.428H272.948V405.133C272.948 406.878 274.082 408.125 275.668 408.125C276.439 408.125 277.232 407.853 277.844 407.377L277.118 406.334ZM285.531 395.864C283.808 395.864 282.312 396.771 281.678 398.062V392.011H280.273V407.853H281.678V400.397C281.678 398.584 283.287 397.156 285.349 397.156C287.208 397.156 288.522 398.538 288.522 400.51V407.853H289.927V400.329C289.927 397.722 288.114 395.864 285.531 395.864ZM294.938 398.538V396.136H293.533V407.853H294.938V401.303C294.938 398.878 296.819 397.156 299.471 397.156V395.864C297.318 395.864 295.595 396.952 294.938 398.538ZM306.891 408.125C310.178 408.125 312.942 405.315 312.942 401.983C312.942 398.652 310.178 395.864 306.891 395.864C303.605 395.864 300.818 398.652 300.818 401.983C300.818 405.315 303.605 408.125 306.891 408.125ZM306.891 406.833C304.376 406.833 302.291 404.635 302.291 401.983C302.291 399.354 304.376 397.156 306.891 397.156C309.384 397.156 311.469 399.354 311.469 401.983C311.469 404.635 309.384 406.833 306.891 406.833ZM323.999 396.136V403.592C323.999 405.405 322.39 406.833 320.327 406.833C318.469 406.833 317.155 405.451 317.155 403.479V396.136H315.749V403.66C315.749 406.266 317.563 408.125 320.146 408.125C321.868 408.125 323.364 407.218 323.999 405.926V407.853H325.404V396.136H323.999ZM337.984 396.136V398.357C337.078 396.771 335.491 395.864 333.519 395.864C330.483 395.864 328.216 398.244 328.216 401.417C328.216 404.612 330.483 406.992 333.519 406.992C335.468 406.992 337.078 406.062 337.984 404.476V406.606C337.984 408.986 336.284 410.459 333.61 410.459C332.137 410.459 330.619 409.915 329.667 409.054L329.032 410.187C330.097 411.094 331.933 411.751 333.769 411.751C337.078 411.751 339.389 409.62 339.389 406.606V396.136H337.984ZM333.769 405.7C331.434 405.7 329.667 403.864 329.667 401.417C329.667 398.992 331.434 397.156 333.769 397.156C336.216 397.156 337.984 398.924 337.984 401.417C337.984 403.932 336.216 405.7 333.769 405.7ZM348.274 395.864C346.552 395.864 345.056 396.771 344.421 398.062V392.011H343.016V407.853H344.421V400.397C344.421 398.584 346.03 397.156 348.093 397.156C349.951 397.156 351.266 398.538 351.266 400.51V407.853H352.671V400.329C352.671 397.722 350.858 395.864 348.274 395.864ZM366.838 408.125C369.195 408.125 371.053 406.742 371.053 404.748C371.053 402.708 369.376 401.96 367.223 401.281C364.935 400.533 364.028 400.057 364.028 398.992C364.028 397.858 365.229 397.156 366.657 397.156C367.745 397.156 368.969 397.541 370.147 398.266L370.85 397.179C369.603 396.363 368.085 395.864 366.657 395.864C364.391 395.864 362.623 397.201 362.623 399.15C362.623 400.805 363.733 401.688 366.544 402.504C368.402 403.071 369.648 403.615 369.648 404.884C369.648 406.017 368.447 406.833 366.838 406.833C365.524 406.833 364.096 406.312 362.736 405.337L361.988 406.38C363.371 407.49 365.184 408.125 366.838 408.125ZM379.306 408.125C382.593 408.125 385.357 405.315 385.357 401.983C385.357 398.652 382.593 395.864 379.306 395.864C376.02 395.864 373.233 398.652 373.233 401.983C373.233 405.315 376.02 408.125 379.306 408.125ZM379.306 406.833C376.791 406.833 374.706 404.635 374.706 401.983C374.706 399.354 376.791 397.156 379.306 397.156C381.799 397.156 383.884 399.354 383.884 401.983C383.884 404.635 381.799 406.833 379.306 406.833ZM407.202 395.864C405.389 395.864 403.848 396.861 403.349 398.402C402.738 396.861 401.378 395.864 399.61 395.864C398.001 395.864 396.709 396.635 396.143 397.858V396.136H394.738V407.853H396.143V400.329C396.143 398.47 397.502 397.156 399.429 397.156C401.129 397.156 402.307 398.538 402.307 400.51V407.853H403.712V400.329C403.712 398.47 405.072 397.156 406.998 397.156C408.698 397.156 409.899 398.538 409.899 400.51V407.853H411.304V400.329C411.304 397.722 409.604 395.864 407.202 395.864ZM419.436 395.864C418.28 395.864 416.83 396.181 415.289 396.997L415.855 398.153C416.92 397.564 418.144 397.111 419.323 397.111C421.951 397.111 422.722 398.992 422.722 400.714V401.19C421.476 400.782 420.07 400.487 418.801 400.487C416.172 400.487 414.155 402.074 414.155 404.385C414.155 406.652 415.968 408.125 418.416 408.125C420.002 408.125 421.861 407.377 422.722 405.994V407.853H424.127V400.714C424.127 397.881 422.518 395.864 419.436 395.864ZM418.643 406.856C416.898 406.856 415.538 405.881 415.538 404.317C415.538 402.799 417.056 401.711 419.005 401.711C420.32 401.711 421.612 401.96 422.722 402.3V404.181C422.269 405.994 420.274 406.856 418.643 406.856ZM432.884 395.864C431.161 395.864 429.666 396.771 429.031 398.062V396.136H427.626V407.853H429.031V400.397C429.031 398.584 430.64 397.156 432.702 397.156C434.561 397.156 435.875 398.538 435.875 400.51V407.853H437.28V400.329C437.28 397.722 435.467 395.864 432.884 395.864ZM442.268 411.932C443.9 411.909 445.033 411.162 445.781 409.303L451.175 396.136H449.657L445.555 406.357L441.226 396.136H439.685L444.829 408.034L444.127 409.552C443.696 410.323 443.084 410.64 442.223 410.64C441.724 410.64 441.203 410.527 440.773 410.3L440.41 411.547C440.954 411.796 441.611 411.932 442.268 411.932ZM83.3169 426.011V432.425C82.4104 430.839 80.8693 429.864 78.943 429.864C75.9288 429.864 73.5945 432.493 73.5945 435.983C73.5945 439.496 75.9288 442.125 78.943 442.125C80.8693 442.125 82.4104 441.15 83.3169 439.564V441.853H84.722V426.011H83.3169ZM79.1923 440.833C76.8353 440.833 75.045 438.748 75.045 435.983C75.045 433.218 76.8353 431.156 79.1923 431.156C81.6172 431.156 83.3169 433.15 83.3169 435.983C83.3169 438.816 81.6172 440.833 79.1923 440.833ZM89.0037 427.847C89.5476 427.847 89.9782 427.417 89.9782 426.873C89.9782 426.351 89.5476 425.898 89.0037 425.898C88.4598 425.898 88.0292 426.351 88.0292 426.873C88.0292 427.417 88.4598 427.847 89.0037 427.847ZM88.3012 441.853H89.7063V430.136H88.3012V441.853ZM95.5513 428.527C95.5513 427.53 96.1859 426.827 96.9564 426.827C97.523 426.827 97.9989 427.009 98.3162 427.326L99.0414 426.283C98.4069 425.807 97.659 425.536 96.8658 425.536C95.2794 425.536 94.1462 426.782 94.1462 428.527V430.136H92.2426V431.428H94.1462V441.853H95.5513V431.428H98.5655V430.136H95.5513V428.527ZM103.43 428.527C103.43 427.53 104.065 426.827 104.835 426.827C105.402 426.827 105.878 427.009 106.195 427.326L106.92 426.283C106.286 425.807 105.538 425.536 104.745 425.536C103.158 425.536 102.025 426.782 102.025 428.527V430.136H100.121V431.428H102.025V441.853H103.43V431.428H106.444V430.136H103.43V428.527ZM114.119 440.833C111.717 440.833 109.927 438.975 109.677 436.55H119.581C119.581 432.516 117.496 429.864 114.029 429.864C110.856 429.864 108.25 432.493 108.25 435.96C108.25 439.473 110.992 442.125 114.119 442.125C115.842 442.125 117.904 441.4 118.901 440.312L118.017 439.36C117.201 440.244 115.592 440.833 114.119 440.833ZM114.074 431.156C116.544 431.156 117.995 432.901 118.176 435.258H109.7C109.995 432.833 111.785 431.156 114.074 431.156ZM123.926 432.538V430.136H122.521V441.853H123.926V435.303C123.926 432.878 125.807 431.156 128.459 431.156V429.864C126.306 429.864 124.583 430.952 123.926 432.538ZM136.052 440.833C133.65 440.833 131.859 438.975 131.61 436.55H141.514C141.514 432.516 139.429 429.864 135.961 429.864C132.788 429.864 130.182 432.493 130.182 435.96C130.182 439.473 132.924 442.125 136.052 442.125C137.774 442.125 139.837 441.4 140.834 440.312L139.95 439.36C139.134 440.244 137.525 440.833 136.052 440.833ZM136.007 431.156C138.477 431.156 139.927 432.901 140.109 435.258H131.633C131.927 432.833 133.718 431.156 136.007 431.156ZM149.575 429.864C147.853 429.864 146.357 430.771 145.723 432.062V430.136H144.318V441.853H145.723V434.397C145.723 432.584 147.332 431.156 149.394 431.156C151.252 431.156 152.567 432.538 152.567 434.51V441.853H153.972V434.329C153.972 431.722 152.159 429.864 149.575 429.864ZM162.609 440.334C162.292 440.629 161.793 440.833 161.249 440.833C160.479 440.833 159.844 440.13 159.844 439.133V431.428H162.79V430.136H159.844V426.918H158.439V430.136H156.535V431.428H158.439V439.133C158.439 440.878 159.572 442.125 161.158 442.125C161.929 442.125 162.722 441.853 163.334 441.377L162.609 440.334ZM177.753 442.125C181.039 442.125 183.804 439.315 183.804 435.983C183.804 432.652 181.039 429.864 177.753 429.864C174.467 429.864 171.679 432.652 171.679 435.983C171.679 439.315 174.467 442.125 177.753 442.125ZM177.753 440.833C175.237 440.833 173.152 438.635 173.152 435.983C173.152 433.354 175.237 431.156 177.753 431.156C180.246 431.156 182.331 433.354 182.331 435.983C182.331 438.635 180.246 440.833 177.753 440.833ZM192.549 429.864C190.622 429.864 189.081 430.839 188.175 432.425V430.136H186.769V445.751H188.175V439.564C189.081 441.15 190.622 442.125 192.549 442.125C195.563 442.125 197.897 439.496 197.897 435.983C197.897 432.493 195.563 429.864 192.549 429.864ZM192.299 440.833C189.874 440.833 188.175 438.816 188.175 435.983C188.175 433.15 189.874 431.156 192.299 431.156C194.656 431.156 196.447 433.218 196.447 435.983C196.447 438.748 194.656 440.833 192.299 440.833ZM206.031 440.334C205.714 440.629 205.215 440.833 204.672 440.833C203.901 440.833 203.266 440.13 203.266 439.133V431.428H206.213V430.136H203.266V426.918H201.861V430.136H199.958V431.428H201.861V439.133C201.861 440.878 202.994 442.125 204.581 442.125C205.351 442.125 206.145 441.853 206.757 441.377L206.031 440.334ZM209.843 427.847C210.387 427.847 210.817 427.417 210.817 426.873C210.817 426.351 210.387 425.898 209.843 425.898C209.299 425.898 208.868 426.351 208.868 426.873C208.868 427.417 209.299 427.847 209.843 427.847ZM209.14 441.853H210.545V430.136H209.14V441.853ZM219.405 442.125C222.691 442.125 225.456 439.315 225.456 435.983C225.456 432.652 222.691 429.864 219.405 429.864C216.119 429.864 213.331 432.652 213.331 435.983C213.331 439.315 216.119 442.125 219.405 442.125ZM219.405 440.833C216.889 440.833 214.804 438.635 214.804 435.983C214.804 433.354 216.889 431.156 219.405 431.156C221.898 431.156 223.983 433.354 223.983 435.983C223.983 438.635 221.898 440.833 219.405 440.833ZM233.543 429.864C231.821 429.864 230.325 430.771 229.691 432.062V430.136H228.285V441.853H229.691V434.397C229.691 432.584 231.3 431.156 233.362 431.156C235.22 431.156 236.535 432.538 236.535 434.51V441.853H237.94V434.329C237.94 431.722 236.127 429.864 233.543 429.864ZM245.534 442.125C247.891 442.125 249.749 440.742 249.749 438.748C249.749 436.708 248.072 435.96 245.919 435.281C243.63 434.533 242.724 434.057 242.724 432.992C242.724 431.858 243.925 431.156 245.353 431.156C246.441 431.156 247.664 431.541 248.843 432.266L249.545 431.179C248.299 430.363 246.781 429.864 245.353 429.864C243.087 429.864 241.319 431.201 241.319 433.15C241.319 434.805 242.429 435.688 245.24 436.504C247.098 437.071 248.344 437.615 248.344 438.884C248.344 440.017 247.143 440.833 245.534 440.833C244.22 440.833 242.792 440.312 241.432 439.337L240.684 440.38C242.067 441.49 243.88 442.125 245.534 442.125ZM259.816 427.847C260.36 427.847 260.791 427.417 260.791 426.873C260.791 426.351 260.36 425.898 259.816 425.898C259.272 425.898 258.842 426.351 258.842 426.873C258.842 427.417 259.272 427.847 259.816 427.847ZM259.114 441.853H260.519V430.136H259.114V441.853ZM269.22 429.864C267.497 429.864 266.001 430.771 265.367 432.062V430.136H263.962V441.853H265.367V434.397C265.367 432.584 266.976 431.156 269.038 431.156C270.897 431.156 272.211 432.538 272.211 434.51V441.853H273.616V434.329C273.616 431.722 271.803 429.864 269.22 429.864ZM287.784 442.125C290.141 442.125 291.999 440.742 291.999 438.748C291.999 436.708 290.322 435.96 288.169 435.281C285.88 434.533 284.973 434.057 284.973 432.992C284.973 431.858 286.175 431.156 287.602 431.156C288.69 431.156 289.914 431.541 291.092 432.266L291.795 431.179C290.549 430.363 289.03 429.864 287.602 429.864C285.336 429.864 283.568 431.201 283.568 433.15C283.568 434.805 284.679 435.688 287.489 436.504C289.347 437.071 290.594 437.615 290.594 438.884C290.594 440.017 289.393 440.833 287.784 440.833C286.469 440.833 285.041 440.312 283.682 439.337L282.934 440.38C284.316 441.49 286.129 442.125 287.784 442.125ZM300.048 440.833C297.646 440.833 295.855 438.975 295.606 436.55H305.51C305.51 432.516 303.425 429.864 299.957 429.864C296.785 429.864 294.178 432.493 294.178 435.96C294.178 439.473 296.92 442.125 300.048 442.125C301.77 442.125 303.833 441.4 304.83 440.312L303.946 439.36C303.13 440.244 301.521 440.833 300.048 440.833ZM300.003 431.156C302.473 431.156 303.923 432.901 304.105 435.258H295.629C295.923 432.833 297.714 431.156 300.003 431.156ZM312.982 429.864C311.826 429.864 310.376 430.181 308.835 430.997L309.402 432.153C310.467 431.564 311.691 431.111 312.869 431.111C315.498 431.111 316.268 432.992 316.268 434.714V435.19C315.022 434.782 313.617 434.487 312.348 434.487C309.719 434.487 307.702 436.074 307.702 438.385C307.702 440.652 309.515 442.125 311.962 442.125C313.549 442.125 315.407 441.377 316.268 439.994V441.853H317.674V434.714C317.674 431.881 316.064 429.864 312.982 429.864ZM312.189 440.856C310.444 440.856 309.084 439.881 309.084 438.317C309.084 436.799 310.603 435.711 312.552 435.711C313.866 435.711 315.158 435.96 316.268 436.3V438.181C315.815 439.994 313.821 440.856 312.189 440.856ZM322.713 432.538V430.136H321.308V441.853H322.713V435.303C322.713 432.878 324.594 431.156 327.246 431.156V429.864C325.093 429.864 323.371 430.952 322.713 432.538ZM334.975 442.125C336.561 442.125 338.035 441.445 339.122 440.357L338.148 439.405C337.332 440.289 336.199 440.833 334.975 440.833C332.437 440.833 330.442 438.703 330.442 435.983C330.442 433.286 332.437 431.156 334.975 431.156C336.176 431.156 337.287 431.677 338.102 432.538L339.077 431.586C337.989 430.521 336.539 429.864 334.975 429.864C331.644 429.864 328.969 432.561 328.969 435.983C328.969 439.405 331.644 442.125 334.975 442.125ZM347.013 429.864C345.29 429.864 343.794 430.771 343.16 432.062V426.011H341.755V441.853H343.16V434.397C343.16 432.584 344.769 431.156 346.831 431.156C348.69 431.156 350.004 432.538 350.004 434.51V441.853H351.409V434.329C351.409 431.722 349.596 429.864 347.013 429.864ZM366.868 442.125C370.155 442.125 372.919 439.315 372.919 435.983C372.919 432.652 370.155 429.864 366.868 429.864C363.582 429.864 360.795 432.652 360.795 435.983C360.795 439.315 363.582 442.125 366.868 442.125ZM366.868 440.833C364.353 440.833 362.268 438.635 362.268 435.983C362.268 433.354 364.353 431.156 366.868 431.156C369.361 431.156 371.446 433.354 371.446 435.983C371.446 438.635 369.361 440.833 366.868 440.833ZM378.151 428.527C378.151 427.53 378.786 426.827 379.556 426.827C380.123 426.827 380.599 427.009 380.916 427.326L381.641 426.283C381.007 425.807 380.259 425.536 379.466 425.536C377.879 425.536 376.746 426.782 376.746 428.527V430.136H374.843V431.428H376.746V441.853H378.151V431.428H381.166V430.136H378.151V428.527ZM395.368 440.334C395.051 440.629 394.552 440.833 394.008 440.833C393.238 440.833 392.603 440.13 392.603 439.133V431.428H395.55V430.136H392.603V426.918H391.198V430.136H389.295V431.428H391.198V439.133C391.198 440.878 392.331 442.125 393.918 442.125C394.688 442.125 395.482 441.853 396.093 441.377L395.368 440.334ZM403.78 429.864C402.058 429.864 400.562 430.771 399.928 432.062V426.011H398.523V441.853H399.928V434.397C399.928 432.584 401.537 431.156 403.599 431.156C405.457 431.156 406.772 432.538 406.772 434.51V441.853H408.177V434.329C408.177 431.722 406.364 429.864 403.78 429.864ZM416.859 440.833C414.457 440.833 412.667 438.975 412.417 436.55H422.321C422.321 432.516 420.236 429.864 416.769 429.864C413.596 429.864 410.99 432.493 410.99 435.96C410.99 439.473 413.732 442.125 416.859 442.125C418.582 442.125 420.644 441.4 421.641 440.312L420.757 439.36C419.941 440.244 418.332 440.833 416.859 440.833ZM416.814 431.156C419.284 431.156 420.735 432.901 420.916 435.258H412.44C412.735 432.833 414.525 431.156 416.814 431.156ZM78.277 474.833C75.8747 474.833 74.0844 472.975 73.8351 470.55H83.7388C83.7388 466.516 81.6538 463.864 78.1863 463.864C75.0135 463.864 72.4073 466.493 72.4073 469.96C72.4073 473.473 75.1495 476.125 78.277 476.125C79.9994 476.125 82.0617 475.4 83.0589 474.312L82.175 473.36C81.3591 474.244 79.7501 474.833 78.277 474.833ZM78.2317 465.156C80.7019 465.156 82.1524 466.901 82.3337 469.258H73.8577C74.1523 466.833 75.9427 465.156 78.2317 465.156ZM96.2198 475.853L91.7099 469.87L96.0385 464.136H94.3841L90.8714 468.782L87.3586 464.136H85.7042L90.0555 469.87L85.5229 475.853H87.1773L90.8714 470.958L94.5654 475.853H96.2198ZM103.362 463.864C102.206 463.864 100.755 464.181 99.2143 464.997L99.7809 466.153C100.846 465.564 102.07 465.111 103.248 465.111C105.877 465.111 106.648 466.992 106.648 468.714V469.19C105.401 468.782 103.996 468.487 102.727 468.487C100.098 468.487 98.0812 470.074 98.0812 472.385C98.0812 474.652 99.8942 476.125 102.342 476.125C103.928 476.125 105.787 475.377 106.648 473.994V475.853H108.053V468.714C108.053 465.881 106.444 463.864 103.362 463.864ZM102.568 474.856C100.823 474.856 99.4636 473.881 99.4636 472.317C99.4636 470.799 100.982 469.711 102.931 469.711C104.245 469.711 105.537 469.96 106.648 470.3V472.181C106.194 473.994 104.2 474.856 102.568 474.856ZM116.9 476.125C118.486 476.125 119.96 475.445 121.047 474.357L120.073 473.405C119.257 474.289 118.124 474.833 116.9 474.833C114.362 474.833 112.367 472.703 112.367 469.983C112.367 467.286 114.362 465.156 116.9 465.156C118.101 465.156 119.212 465.677 120.028 466.538L121.002 465.586C119.914 464.521 118.464 463.864 116.9 463.864C113.569 463.864 110.894 466.561 110.894 469.983C110.894 473.405 113.569 476.125 116.9 476.125ZM128.847 474.334C128.53 474.629 128.031 474.833 127.487 474.833C126.717 474.833 126.082 474.13 126.082 473.133V465.428H129.028V464.136H126.082V460.918H124.677V464.136H122.773V465.428H124.677V473.133C124.677 474.878 125.81 476.125 127.397 476.125C128.167 476.125 128.96 475.853 129.572 475.377L128.847 474.334ZM142.699 476.125C145.056 476.125 146.914 474.742 146.914 472.748C146.914 470.708 145.237 469.96 143.084 469.281C140.795 468.533 139.889 468.057 139.889 466.992C139.889 465.858 141.09 465.156 142.518 465.156C143.606 465.156 144.829 465.541 146.008 466.266L146.71 465.179C145.464 464.363 143.946 463.864 142.518 463.864C140.252 463.864 138.484 465.201 138.484 467.15C138.484 468.805 139.594 469.688 142.404 470.504C144.263 471.071 145.509 471.615 145.509 472.884C145.509 474.017 144.308 474.833 142.699 474.833C141.385 474.833 139.957 474.312 138.597 473.337L137.849 474.38C139.232 475.49 141.045 476.125 142.699 476.125ZM150.408 461.847C150.952 461.847 151.383 461.417 151.383 460.873C151.383 460.351 150.952 459.898 150.408 459.898C149.864 459.898 149.434 460.351 149.434 460.873C149.434 461.417 149.864 461.847 150.408 461.847ZM149.706 475.853H151.111V464.136H149.706V475.853ZM154.032 475.853H163.279V474.516H155.891L163.233 465.247V464.136H154.168V465.473H161.352L154.032 474.742V475.853ZM171.407 474.833C169.005 474.833 167.215 472.975 166.965 470.55H176.869C176.869 466.516 174.784 463.864 171.317 463.864C168.144 463.864 165.538 466.493 165.538 469.96C165.538 473.473 168.28 476.125 171.407 476.125C173.13 476.125 175.192 475.4 176.189 474.312L175.305 473.36C174.489 474.244 172.88 474.833 171.407 474.833ZM171.362 465.156C173.832 465.156 175.283 466.901 175.464 469.258H166.988C167.283 466.833 169.073 465.156 171.362 465.156ZM190.915 463.864C189.759 463.864 188.309 464.181 186.767 464.997L187.334 466.153C188.399 465.564 189.623 465.111 190.801 465.111C193.43 465.111 194.201 466.992 194.201 468.714V469.19C192.954 468.782 191.549 468.487 190.28 468.487C187.651 468.487 185.634 470.074 185.634 472.385C185.634 474.652 187.447 476.125 189.895 476.125C191.481 476.125 193.34 475.377 194.201 473.994V475.853H195.606V468.714C195.606 465.881 193.997 463.864 190.915 463.864ZM190.122 474.856C188.376 474.856 187.017 473.881 187.017 472.317C187.017 470.799 188.535 469.711 190.484 469.711C191.799 469.711 193.09 469.96 194.201 470.3V472.181C193.748 473.994 191.753 474.856 190.122 474.856ZM204.363 463.864C202.64 463.864 201.144 464.771 200.51 466.062V464.136H199.105V475.853H200.51V468.397C200.51 466.584 202.119 465.156 204.181 465.156C206.04 465.156 207.354 466.538 207.354 468.51V475.853H208.759V468.329C208.759 465.722 206.946 463.864 204.363 463.864ZM221.43 460.011V466.425C220.523 464.839 218.982 463.864 217.056 463.864C214.042 463.864 211.708 466.493 211.708 469.983C211.708 473.496 214.042 476.125 217.056 476.125C218.982 476.125 220.523 475.15 221.43 473.564V475.853H222.835V460.011H221.43ZM217.305 474.833C214.948 474.833 213.158 472.748 213.158 469.983C213.158 467.218 214.948 465.156 217.305 465.156C219.73 465.156 221.43 467.15 221.43 469.983C221.43 472.816 219.73 474.833 217.305 474.833ZM238.948 463.864C237.021 463.864 235.48 464.839 234.574 466.425V464.136H233.169V479.751H234.574V473.564C235.48 475.15 237.021 476.125 238.948 476.125C241.962 476.125 244.296 473.496 244.296 469.983C244.296 466.493 241.962 463.864 238.948 463.864ZM238.698 474.833C236.273 474.833 234.574 472.816 234.574 469.983C234.574 467.15 236.273 465.156 238.698 465.156C241.055 465.156 242.846 467.218 242.846 469.983C242.846 472.748 241.055 474.833 238.698 474.833ZM248.804 466.538V464.136H247.399V475.853H248.804V469.303C248.804 466.878 250.685 465.156 253.337 465.156V463.864C251.184 463.864 249.462 464.952 248.804 466.538ZM260.758 476.125C264.044 476.125 266.809 473.315 266.809 469.983C266.809 466.652 264.044 463.864 260.758 463.864C257.472 463.864 254.684 466.652 254.684 469.983C254.684 473.315 257.472 476.125 260.758 476.125ZM260.758 474.833C258.242 474.833 256.157 472.635 256.157 469.983C256.157 467.354 258.242 465.156 260.758 465.156C263.251 465.156 265.336 467.354 265.336 469.983C265.336 472.635 263.251 474.833 260.758 474.833ZM278.84 460.011V466.425C277.933 464.839 276.392 463.864 274.466 463.864C271.452 463.864 269.117 466.493 269.117 469.983C269.117 473.496 271.452 476.125 274.466 476.125C276.392 476.125 277.933 475.15 278.84 473.564V475.853H280.245V460.011H278.84ZM274.715 474.833C272.358 474.833 270.568 472.748 270.568 469.983C270.568 467.218 272.358 465.156 274.715 465.156C277.14 465.156 278.84 467.15 278.84 469.983C278.84 472.816 277.14 474.833 274.715 474.833ZM292.096 464.136V471.592C292.096 473.405 290.487 474.833 288.424 474.833C286.566 474.833 285.252 473.451 285.252 471.479V464.136H283.847V471.66C283.847 474.266 285.66 476.125 288.243 476.125C289.966 476.125 291.461 475.218 292.096 473.926V475.853H293.501V464.136H292.096ZM302.342 476.125C303.928 476.125 305.401 475.445 306.489 474.357L305.515 473.405C304.699 474.289 303.566 474.833 302.342 474.833C299.804 474.833 297.809 472.703 297.809 469.983C297.809 467.286 299.804 465.156 302.342 465.156C303.543 465.156 304.653 465.677 305.469 466.538L306.444 465.586C305.356 464.521 303.906 463.864 302.342 463.864C299.01 463.864 296.336 466.561 296.336 469.983C296.336 473.405 299.01 476.125 302.342 476.125ZM314.289 474.334C313.971 474.629 313.473 474.833 312.929 474.833C312.158 474.833 311.524 474.13 311.524 473.133V465.428H314.47V464.136H311.524V460.918H310.119V464.136H308.215V465.428H310.119V473.133C310.119 474.878 311.252 476.125 312.838 476.125C313.609 476.125 314.402 475.853 315.014 475.377L314.289 474.334ZM324.062 475.853H325.512V460.283H324.062V475.853ZM337.154 466.538V464.136H335.749V475.853H337.154V469.303C337.154 466.878 339.035 465.156 341.687 465.156V463.864C339.534 463.864 337.812 464.952 337.154 466.538ZM349.28 474.833C346.878 474.833 345.087 472.975 344.838 470.55H354.742C354.742 466.516 352.657 463.864 349.189 463.864C346.017 463.864 343.41 466.493 343.41 469.96C343.41 473.473 346.153 476.125 349.28 476.125C351.002 476.125 353.065 475.4 354.062 474.312L353.178 473.36C352.362 474.244 350.753 474.833 349.28 474.833ZM349.235 465.156C351.705 465.156 353.155 466.901 353.337 469.258H344.861C345.155 466.833 346.946 465.156 349.235 465.156ZM366.747 464.136V466.425C365.84 464.839 364.299 463.864 362.373 463.864C359.359 463.864 357.025 466.493 357.025 469.983C357.025 473.496 359.359 476.125 362.373 476.125C364.299 476.125 365.84 475.15 366.747 473.564V479.751H368.152V464.136H366.747ZM362.622 474.833C360.265 474.833 358.475 472.748 358.475 469.983C358.475 467.218 360.265 465.156 362.622 465.156C365.047 465.156 366.747 467.15 366.747 469.983C366.747 472.816 365.047 474.833 362.622 474.833ZM380.003 464.136V471.592C380.003 473.405 378.394 474.833 376.332 474.833C374.473 474.833 373.159 473.451 373.159 471.479V464.136H371.754V471.66C371.754 474.266 373.567 476.125 376.15 476.125C377.873 476.125 379.369 475.218 380.003 473.926V475.853H381.408V464.136H380.003ZM385.558 461.847C386.102 461.847 386.532 461.417 386.532 460.873C386.532 460.351 386.102 459.898 385.558 459.898C385.014 459.898 384.583 460.351 384.583 460.873C384.583 461.417 385.014 461.847 385.558 461.847ZM384.855 475.853H386.26V464.136H384.855V475.853ZM391.244 466.538V464.136H389.839V475.853H391.244V469.303C391.244 466.878 393.125 465.156 395.777 465.156V463.864C393.624 463.864 391.901 464.952 391.244 466.538ZM403.37 474.833C400.968 474.833 399.177 472.975 398.928 470.55H408.832C408.832 466.516 406.747 463.864 403.279 463.864C400.106 463.864 397.5 466.493 397.5 469.96C397.5 473.473 400.242 476.125 403.37 476.125C405.092 476.125 407.155 475.4 408.152 474.312L407.268 473.36C406.452 474.244 404.843 474.833 403.37 474.833ZM403.325 465.156C405.795 465.156 407.245 466.901 407.427 469.258H398.951C399.245 466.833 401.036 465.156 403.325 465.156ZM412.61 476.125C413.177 476.125 413.63 475.649 413.63 475.06C413.63 474.516 413.177 474.04 412.61 474.04C411.998 474.04 411.545 474.516 411.545 475.06C411.545 475.649 411.998 476.125 412.61 476.125ZM417.354 465.926H418.238C418.396 464.612 418.713 462.686 418.713 461.688C418.713 461.19 418.306 460.782 417.807 460.782C417.308 460.782 416.878 461.19 416.878 461.688C416.878 462.686 417.195 464.612 417.354 465.926ZM421.433 465.926H422.317C422.475 464.612 422.793 462.686 422.793 461.688C422.793 461.19 422.385 460.782 421.886 460.782C421.388 460.782 420.957 461.19 420.957 461.688C420.957 462.686 421.274 464.612 421.433 465.926Z" fill="#2D2D2D"/>
<path d="M131.621 355.028H142.364V353.351H134.454L138.533 349.816C141.162 347.55 142.205 345.873 142.205 343.765C142.205 340.977 139.939 339.187 137.242 339.187C134.794 339.187 133.049 340.343 131.757 342.178L133.004 343.198C134.069 341.748 135.361 340.773 137.174 340.773C138.828 340.773 140.415 341.884 140.415 343.788C140.415 345.329 139.508 346.824 137.31 348.705L131.621 353.555V355.028ZM146.984 355.028H149.023L155.732 340.796V339.459H145.193V341.136H153.624L146.984 355.028ZM160.074 358.042C161.434 356.343 161.819 355.572 161.819 354.666C161.819 353.623 161.298 352.853 160.437 352.853C159.711 352.853 159.19 353.419 159.19 354.054C159.19 354.734 159.734 355.3 160.414 355.3C160.233 356.003 159.847 356.705 159.236 357.408L160.074 358.042ZM175.365 355.3C178.243 355.3 180.283 353.079 180.283 349.952V339.459H178.515V349.952C178.515 352.15 177.201 353.691 175.365 353.691C173.937 353.691 172.487 352.762 171.875 351.448L170.583 352.717C171.535 354.235 173.529 355.3 175.365 355.3ZM192.204 343.312V350.768C192.204 352.399 190.55 353.782 188.578 353.782C186.856 353.782 185.655 352.445 185.655 350.541V343.312H183.955V350.768C183.955 353.419 185.768 355.3 188.352 355.3C190.006 355.3 191.524 354.394 192.204 353.147V355.028H193.904V343.312H192.204ZM202.942 343.04C201.288 343.04 199.769 343.946 199.089 345.193V343.312H197.39V355.028H199.089V347.572C199.089 345.941 200.744 344.558 202.715 344.558C204.438 344.558 205.639 345.895 205.639 347.799V355.028H207.339V347.572C207.339 344.921 205.526 343.04 202.942 343.04ZM211.617 341.181C212.229 341.181 212.728 340.66 212.728 340.048C212.728 339.459 212.229 338.938 211.617 338.938C210.983 338.938 210.484 339.459 210.484 340.048C210.484 340.66 210.983 341.181 211.617 341.181ZM210.756 355.028H212.456V343.312H210.756V355.028ZM221.308 355.3C224.594 355.3 227.359 352.49 227.359 349.159C227.359 345.827 224.594 343.04 221.308 343.04C218.022 343.04 215.234 345.827 215.234 349.159C215.234 352.49 218.022 355.3 221.308 355.3ZM221.308 353.782C218.974 353.782 217.025 351.674 217.025 349.159C217.025 346.666 218.974 344.558 221.308 344.558C223.62 344.558 225.569 346.666 225.569 349.159C225.569 351.674 223.62 353.782 221.308 353.782ZM232.024 345.601V343.312H230.325V355.028H232.024V348.479C232.024 346.19 233.905 344.558 236.557 344.558V343.04C234.404 343.04 232.727 344.037 232.024 345.601ZM258.218 355.028H260.144L253.277 339.459H251.351L244.484 355.028H246.41L247.974 351.493H256.654L258.218 355.028ZM248.699 349.816L252.325 341.635L255.929 349.816H248.699ZM268.028 355.3C269.66 355.3 271.156 354.62 272.266 353.51L271.088 352.354C270.294 353.238 269.207 353.782 268.028 353.782C265.694 353.782 263.745 351.674 263.745 349.159C263.745 346.666 265.694 344.558 268.028 344.558C269.184 344.558 270.249 345.079 271.02 345.918L272.198 344.762C271.088 343.697 269.615 343.04 268.028 343.04C264.742 343.04 261.955 345.827 261.955 349.159C261.955 352.49 264.742 355.3 268.028 355.3ZM280.311 355.3C281.943 355.3 283.439 354.62 284.549 353.51L283.371 352.354C282.578 353.238 281.49 353.782 280.311 353.782C277.977 353.782 276.028 351.674 276.028 349.159C276.028 346.666 277.977 344.558 280.311 344.558C281.467 344.558 282.532 345.079 283.303 345.918L284.481 344.762C283.371 343.697 281.898 343.04 280.311 343.04C277.025 343.04 274.238 345.827 274.238 349.159C274.238 352.49 277.025 355.3 280.311 355.3ZM292.351 355.3C295.637 355.3 298.402 352.49 298.402 349.159C298.402 345.827 295.637 343.04 292.351 343.04C289.065 343.04 286.277 345.827 286.277 349.159C286.277 352.49 289.065 355.3 292.351 355.3ZM292.351 353.782C290.017 353.782 288.068 351.674 288.068 349.159C288.068 346.666 290.017 344.558 292.351 344.558C294.663 344.558 296.612 346.666 296.612 349.159C296.612 351.674 294.663 353.782 292.351 353.782ZM309.458 343.312V350.768C309.458 352.399 307.804 353.782 305.832 353.782C304.11 353.782 302.909 352.445 302.909 350.541V343.312H301.209V350.768C301.209 353.419 303.022 355.3 305.606 355.3C307.26 355.3 308.778 354.394 309.458 353.147V355.028H311.158V343.312H309.458ZM320.196 343.04C318.541 343.04 317.023 343.946 316.343 345.193V343.312H314.643V355.028H316.343V347.572C316.343 345.941 317.998 344.558 319.969 344.558C321.692 344.558 322.893 345.895 322.893 347.799V355.028H324.592V347.572C324.592 344.921 322.779 343.04 320.196 343.04ZM333.177 353.306C332.928 353.578 332.475 353.782 331.953 353.782C331.273 353.782 330.684 353.17 330.684 352.309V344.83H333.562V343.312H330.684V340.093H328.984V343.312H327.149V344.83H328.984V352.309C328.984 354.054 330.163 355.3 331.84 355.3C332.633 355.3 333.404 355.028 334.016 354.552L333.177 353.306ZM341.18 343.04C340.047 343.04 338.641 343.334 336.964 344.173L337.644 345.555C338.709 345.011 339.888 344.49 341.066 344.49C343.605 344.49 344.239 346.303 344.239 347.89V348.32C343.038 347.935 341.701 347.663 340.432 347.663C337.916 347.663 335.831 349.227 335.831 351.561C335.831 353.873 337.644 355.3 340.115 355.3C341.656 355.3 343.401 354.575 344.239 353.193V355.028H345.939V347.89C345.939 345.057 344.375 343.04 341.18 343.04ZM340.409 353.805C338.755 353.805 337.486 352.943 337.486 351.493C337.486 350.088 338.959 349.091 340.704 349.091C341.973 349.091 343.174 349.272 344.239 349.567V351.357C343.786 353.011 341.95 353.805 340.409 353.805ZM354.987 343.04C353.333 343.04 351.814 343.946 351.134 345.193V343.312H349.435V355.028H351.134V347.572C351.134 345.941 352.789 344.558 354.76 344.558C356.483 344.558 357.684 345.895 357.684 347.799V355.028H359.384V347.572C359.384 344.921 357.571 343.04 354.987 343.04ZM367.968 353.306C367.719 353.578 367.266 353.782 366.744 353.782C366.064 353.782 365.475 353.17 365.475 352.309V344.83H368.353V343.312H365.475V340.093H363.776V343.312H361.94V344.83H363.776V352.309C363.776 354.054 364.954 355.3 366.631 355.3C367.424 355.3 368.195 355.028 368.807 354.552L367.968 353.306Z" fill="#A2CC00"/>
<path d="M201.473 321.609C205.009 321.609 208.272 320.079 210.55 317.7L206.912 314.436C205.553 316 203.615 317.054 201.473 317.054C197.564 317.054 194.232 313.586 194.232 309.507C194.232 305.462 197.564 301.994 201.473 301.994C203.615 301.994 205.553 303.048 206.912 304.612L210.55 301.348C208.272 298.935 205.009 297.439 201.473 297.439C194.776 297.439 189.065 302.946 189.065 309.507C189.065 316.068 194.776 321.609 201.473 321.609ZM223.681 303.218C221.438 303.218 219.5 304.238 218.412 305.768V297.439H213.449V321.201H218.412V310.799C218.412 308.895 220.01 307.399 222.084 307.399C224.055 307.399 225.415 308.895 225.415 311.071V321.201H230.208V310.017C230.208 306.04 227.489 303.218 223.681 303.218ZM242.251 303.218C239.803 303.218 237.39 303.898 234.908 305.156L236.574 308.453C237.968 307.739 239.498 307.196 241.129 307.196C244.019 307.196 245.175 308.827 245.175 310.697V311.037C243.679 310.459 242.115 310.153 240.687 310.153C236.608 310.153 233.379 312.533 233.379 316C233.379 319.365 236.268 321.609 240.007 321.609C241.911 321.609 243.917 320.861 245.175 319.433V321.201H249.968V310.697C249.968 306.108 246.84 303.218 242.251 303.218ZM241.129 318.176C239.43 318.176 238.172 317.292 238.172 315.864C238.172 314.436 239.599 313.382 241.401 313.382C242.761 313.382 244.053 313.62 245.175 314.028V315.66C244.835 317.292 243.033 318.176 241.129 318.176ZM259.114 306.89V303.626H254.151V321.201H259.114V312.805C259.114 309.507 261.46 307.399 265.131 307.399V303.218C262.446 303.218 260.27 304.612 259.114 306.89ZM267.994 321.201H272.957V297.439H267.994V321.201ZM285.584 317.224C283.511 317.224 281.981 315.932 281.403 314.028H294.083C294.083 307.399 290.853 303.218 285.346 303.218C280.213 303.218 276.304 307.06 276.304 312.363C276.304 317.768 280.383 321.609 285.618 321.609C288.202 321.609 291.227 320.521 292.791 318.89L289.63 315.66C288.678 316.578 286.978 317.224 285.584 317.224ZM285.55 307.603C287.556 307.603 288.848 308.725 289.324 310.459H281.471C282.117 308.691 283.681 307.603 285.55 307.603ZM304.035 321.609C308.353 321.609 311.174 319.399 311.174 315.932C311.174 312.091 307.809 311.071 304.783 310.289C302.404 309.643 301.69 309.371 301.69 308.419C301.69 307.807 302.54 307.365 303.764 307.365C305.259 307.365 307.095 307.943 308.693 308.929L310.698 305.394C308.761 304.102 306.279 303.218 303.764 303.218C299.616 303.218 296.863 305.598 296.897 308.929C296.931 312.397 299.718 313.382 303.322 314.266C305.123 314.742 306.415 315.082 306.415 316.17C306.415 316.952 305.463 317.496 304.137 317.496C301.792 317.496 299.82 316.646 298.256 315.524L296.115 318.958C298.222 320.657 301.214 321.609 304.035 321.609Z" fill="#A2CC00"/>
<circle cx="250.708" cy="160.057" r="98.5836" fill="#F9FFE0" stroke="#A2CC00" stroke-width="1.13314"/>
<circle cx="250.708" cy="160.057" r="87.8187" fill="#EEF9C1"/>
<mask id="mask0_408_49" style="mask-type:alpha" maskUnits="userSpaceOnUse" x="162" y="72" width="177" height="176">
<circle cx="250.708" cy="160.057" r="87.8187" fill="#EFDAB9"/>
</mask>
<g mask="url(#mask0_408_49)">
<path d="M267.326 174.024V180.877C267.326 190.015 280.462 194.013 280.462 194.013C280.462 194.013 265.327 205.436 249.621 205.436C233.915 205.436 218.78 194.013 218.78 194.013C218.78 194.013 232.019 190.015 231.916 180.877C231.813 171.739 231.882 166.371 231.813 150.715C223.627 140.105 224.153 132.984 228.628 127.976C243.624 111.2 284.46 116.911 284.46 116.911C284.46 116.911 288.27 158.028 279.605 170.026C275.893 175.166 267.326 174.024 267.326 174.024Z" fill="url(#paint0_linear_408_49)"/>
<g style="mix-blend-mode:multiply">
<path d="M267.325 174.024C254.76 172.596 247.336 167.17 247.336 167.17C252.023 174.105 259.167 179.004 267.325 180.877V174.024Z" fill="#FFDBC9"/>
</g>
<path d="M309.59 211.323C315.027 222.378 318.157 247.875 318.157 247.875H181.086C181.086 247.875 184.217 222.376 189.653 211.323C195.089 200.271 226.833 190.019 226.833 190.019C232.952 202.58 266.532 202.58 272.393 190.015C272.393 190.015 304.153 200.268 309.59 211.323Z" fill="url(#paint1_linear_408_49)"/>
<path d="M247.336 233.421C247.336 232.969 247.47 232.528 247.721 232.152C247.972 231.776 248.329 231.483 248.746 231.31C249.163 231.138 249.623 231.092 250.066 231.18C250.509 231.269 250.916 231.486 251.236 231.806C251.555 232.125 251.773 232.532 251.861 232.975C251.949 233.419 251.904 233.878 251.731 234.295C251.558 234.713 251.265 235.07 250.889 235.321C250.514 235.572 250.072 235.706 249.62 235.706C249.014 235.706 248.433 235.465 248.005 235.036C247.576 234.608 247.336 234.027 247.336 233.421ZM247.336 221.998C247.336 221.547 247.47 221.105 247.721 220.729C247.972 220.354 248.329 220.061 248.746 219.888C249.163 219.715 249.623 219.67 250.066 219.758C250.509 219.846 250.916 220.064 251.236 220.383C251.555 220.703 251.773 221.11 251.861 221.553C251.949 221.996 251.904 222.455 251.731 222.873C251.558 223.29 251.265 223.647 250.889 223.898C250.514 224.149 250.072 224.283 249.62 224.283C249.014 224.283 248.433 224.042 248.005 223.614C247.576 223.185 247.336 222.604 247.336 221.998ZM247.336 210.576C247.336 210.124 247.47 209.682 247.721 209.307C247.972 208.931 248.329 208.638 248.746 208.465C249.163 208.292 249.623 208.247 250.066 208.335C250.509 208.423 250.916 208.641 251.236 208.961C251.555 209.28 251.773 209.687 251.861 210.13C251.949 210.573 251.904 211.033 251.731 211.45C251.558 211.868 251.265 212.224 250.889 212.475C250.514 212.726 250.072 212.86 249.62 212.86C249.014 212.86 248.433 212.62 248.005 212.191C247.576 211.763 247.336 211.182 247.336 210.576V210.576Z" fill="white"/>
<path d="M238.859 133.593C237.043 132.033 234.836 130.983 231.717 132.604C224.321 136.443 229.918 151.178 236.486 151.178C238.2 151.178 239.052 156.56 231.423 160.317C231.423 154.32 222.285 139.47 221.486 125.951C212.29 122.527 214.575 108.827 220.888 108.827C219.88 96.2689 239.99 89.782 247.777 96.9891C255.696 87.4975 275.686 92.3521 276.893 100.587C290.638 93.2494 299.673 114.341 286.803 122.528C281.507 125.898 269.118 127.18 251.234 127.18C248.534 127.18 247.022 127.851 247.777 131.189C249.239 137.658 245.845 141.732 238.859 133.593Z" fill="url(#paint2_linear_408_49)"/>
</g>
<defs>
<linearGradient id="paint0_linear_408_49" x1="252.037" y1="115.974" x2="252.037" y2="205.436" gradientUnits="userSpaceOnUse">
<stop stop-color="#FFD4B3"/>
<stop offset="1" stop-color="#FFDCC2"/>
</linearGradient>
<linearGradient id="paint1_linear_408_49" x1="249.621" y1="190.015" x2="249.621" y2="247.875" gradientUnits="userSpaceOnUse">
<stop stop-color="#806A6A"/>
<stop offset="1" stop-color="#665654"/>
</linearGradient>
<linearGradient id="paint2_linear_408_49" x1="254.182" y1="160.317" x2="254.182" y2="91.7795" gradientUnits="userSpaceOnUse">
<stop stop-color="#E6864E"/>
<stop offset="1" stop-color="#E67240"/>
</linearGradient>
</defs>
</svg>
