<svg width="500" height="571" viewBox="0 0 500 571" fill="none" xmlns="http://www.w3.org/2000/svg">
<path d="M0 0H500V570.822H0V0Z" fill="#FCFFEF"/>
<path d="M16.289 19.1218H482.295V550.283H16.289V19.1218Z" stroke="#B9D93C" stroke-width="1.41643"/>
<path d="M58.7034 392.669C57.5023 394.187 57.0944 395.026 57.0944 395.909C57.0944 396.793 57.5476 397.428 58.2502 397.428C58.8847 397.428 59.3153 396.952 59.3153 396.408C59.3153 395.819 58.8621 395.343 58.2728 395.343C58.4541 394.663 58.8394 393.938 59.4513 393.235L58.7034 392.669ZM63.1 392.669C61.8989 394.187 61.491 395.026 61.491 395.909C61.491 396.793 61.9442 397.428 62.6468 397.428C63.2813 397.428 63.7119 396.952 63.7119 396.408C63.7119 395.819 63.2587 395.343 62.6694 395.343C62.8507 394.663 63.236 393.938 63.8479 393.235L63.1 392.669ZM67.773 407.853H74.9798C77.6767 407.853 79.603 406.085 79.603 403.592C79.603 401.892 78.5152 400.419 76.7702 399.626C78.13 398.946 78.9911 397.813 78.9911 396.159C78.9911 393.892 77.2234 392.283 74.7079 392.283H67.773V407.853ZM69.2234 399.037V393.62H74.3906C76.2263 393.62 77.5181 394.754 77.5181 396.317C77.5181 397.904 76.2716 399.037 74.4812 399.037H69.2234ZM69.2234 406.516V400.374H74.6625C76.7022 400.374 78.13 401.643 78.13 403.434C78.13 405.224 76.7022 406.516 74.6625 406.516H69.2234ZM84.1776 398.538V396.136H82.7725V407.853H84.1776V401.303C84.1776 398.878 86.0586 397.156 88.7102 397.156V395.864C86.5572 395.864 84.8348 396.952 84.1776 398.538ZM96.131 408.125C99.4171 408.125 102.182 405.315 102.182 401.983C102.182 398.652 99.4171 395.864 96.131 395.864C92.8449 395.864 90.0574 398.652 90.0574 401.983C90.0574 405.315 92.8449 408.125 96.131 408.125ZM96.131 406.833C93.6154 406.833 91.5304 404.635 91.5304 401.983C91.5304 399.354 93.6154 397.156 96.131 397.156C98.6239 397.156 100.709 399.354 100.709 401.983C100.709 404.635 98.6239 406.833 96.131 406.833ZM107.515 407.853H108.92L112.138 398.221L115.334 407.853H116.739L120.66 396.136H119.164L116.036 405.972L112.75 396.136H111.527L108.218 405.972L105.113 396.136H103.617L107.515 407.853ZM127.284 408.125C129.641 408.125 131.5 406.742 131.5 404.748C131.5 402.708 129.823 401.96 127.67 401.281C125.381 400.533 124.474 400.057 124.474 398.992C124.474 397.858 125.675 397.156 127.103 397.156C128.191 397.156 129.415 397.541 130.593 398.266L131.296 397.179C130.049 396.363 128.531 395.864 127.103 395.864C124.837 395.864 123.069 397.201 123.069 399.15C123.069 400.805 124.18 401.688 126.99 402.504C128.848 403.071 130.095 403.615 130.095 404.884C130.095 406.017 128.893 406.833 127.284 406.833C125.97 406.833 124.542 406.312 123.182 405.337L122.434 406.38C123.817 407.49 125.63 408.125 127.284 408.125ZM134.993 393.847C135.537 393.847 135.968 393.417 135.968 392.873C135.968 392.351 135.537 391.898 134.993 391.898C134.45 391.898 134.019 392.351 134.019 392.873C134.019 393.417 134.45 393.847 134.993 393.847ZM134.291 407.853H135.696V396.136H134.291V407.853ZM144.397 395.864C142.674 395.864 141.178 396.771 140.544 398.062V396.136H139.139V407.853H140.544V400.397C140.544 398.584 142.153 397.156 144.215 397.156C146.074 397.156 147.388 398.538 147.388 400.51V407.853H148.793V400.329C148.793 397.722 146.98 395.864 144.397 395.864ZM161.351 396.136V398.357C160.444 396.771 158.858 395.864 156.886 395.864C153.849 395.864 151.583 398.244 151.583 401.417C151.583 404.612 153.849 406.992 156.886 406.992C158.835 406.992 160.444 406.062 161.351 404.476V406.606C161.351 408.986 159.651 410.459 156.977 410.459C155.504 410.459 153.985 409.915 153.033 409.054L152.399 410.187C153.464 411.094 155.3 411.751 157.135 411.751C160.444 411.751 162.756 409.62 162.756 406.606V396.136H161.351ZM157.135 405.7C154.801 405.7 153.033 403.864 153.033 401.417C153.033 398.992 154.801 397.156 157.135 397.156C159.583 397.156 161.351 398.924 161.351 401.417C161.351 403.932 159.583 405.7 157.135 405.7ZM174.497 398.538V396.136H173.092V407.853H174.497V401.303C174.497 398.878 176.378 397.156 179.03 397.156V395.864C176.877 395.864 175.154 396.952 174.497 398.538ZM186.079 395.864C184.923 395.864 183.473 396.181 181.932 396.997L182.498 398.153C183.563 397.564 184.787 397.111 185.966 397.111C188.595 397.111 189.365 398.992 189.365 400.714V401.19C188.119 400.782 186.714 400.487 185.444 400.487C182.816 400.487 180.799 402.074 180.799 404.385C180.799 406.652 182.612 408.125 185.059 408.125C186.646 408.125 188.504 407.377 189.365 405.994V407.853H190.77V400.714C190.77 397.881 189.161 395.864 186.079 395.864ZM185.286 406.856C183.541 406.856 182.181 405.881 182.181 404.317C182.181 402.799 183.699 401.711 185.648 401.711C186.963 401.711 188.255 401.96 189.365 402.3V404.181C188.912 405.994 186.917 406.856 185.286 406.856ZM199.527 395.864C197.804 395.864 196.309 396.771 195.674 398.062V396.136H194.269V407.853H195.674V400.397C195.674 398.584 197.283 397.156 199.345 397.156C201.204 397.156 202.518 398.538 202.518 400.51V407.853H203.923V400.329C203.923 397.722 202.11 395.864 199.527 395.864ZM216.594 392.011V398.425C215.688 396.839 214.147 395.864 212.22 395.864C209.206 395.864 206.872 398.493 206.872 401.983C206.872 405.496 209.206 408.125 212.22 408.125C214.147 408.125 215.688 407.15 216.594 405.564V407.853H217.999V392.011H216.594ZM212.47 406.833C210.113 406.833 208.322 404.748 208.322 401.983C208.322 399.218 210.113 397.156 212.47 397.156C214.894 397.156 216.594 399.15 216.594 401.983C216.594 404.816 214.894 406.833 212.47 406.833ZM227.04 408.125C230.326 408.125 233.091 405.315 233.091 401.983C233.091 398.652 230.326 395.864 227.04 395.864C223.754 395.864 220.967 398.652 220.967 401.983C220.967 405.315 223.754 408.125 227.04 408.125ZM227.04 406.833C224.525 406.833 222.44 404.635 222.44 401.983C222.44 399.354 224.525 397.156 227.04 397.156C229.533 397.156 231.618 399.354 231.618 401.983C231.618 404.635 229.533 406.833 227.04 406.833ZM248.363 395.864C246.55 395.864 245.009 396.861 244.51 398.402C243.898 396.861 242.538 395.864 240.771 395.864C239.162 395.864 237.87 396.635 237.303 397.858V396.136H235.898V407.853H237.303V400.329C237.303 398.47 238.663 397.156 240.589 397.156C242.289 397.156 243.468 398.538 243.468 400.51V407.853H244.873V400.329C244.873 398.47 246.232 397.156 248.159 397.156C249.859 397.156 251.06 398.538 251.06 400.51V407.853H252.465V400.329C252.465 397.722 250.765 395.864 248.363 395.864ZM255.905 407.853H257.31V392.011H255.905V407.853ZM262.293 411.932C263.925 411.909 265.058 411.162 265.806 409.303L271.2 396.136H269.681L265.579 406.357L261.251 396.136H259.71L264.854 408.034L264.152 409.552C263.721 410.323 263.109 410.64 262.248 410.64C261.749 410.64 261.228 410.527 260.797 410.3L260.435 411.547C260.979 411.796 261.636 411.932 262.293 411.932ZM285.251 395.864C284.095 395.864 282.645 396.181 281.104 396.997L281.67 398.153C282.736 397.564 283.959 397.111 285.138 397.111C287.767 397.111 288.537 398.992 288.537 400.714V401.19C287.291 400.782 285.886 400.487 284.617 400.487C281.988 400.487 279.971 402.074 279.971 404.385C279.971 406.652 281.784 408.125 284.231 408.125C285.818 408.125 287.676 407.377 288.537 405.994V407.853H289.942V400.714C289.942 397.881 288.333 395.864 285.251 395.864ZM284.458 406.856C282.713 406.856 281.353 405.881 281.353 404.317C281.353 402.799 282.872 401.711 284.821 401.711C286.135 401.711 287.427 401.96 288.537 402.3V404.181C288.084 405.994 286.09 406.856 284.458 406.856ZM298.699 395.864C296.977 395.864 295.481 396.771 294.846 398.062V396.136H293.441V407.853H294.846V400.397C294.846 398.584 296.455 397.156 298.518 397.156C300.376 397.156 301.691 398.538 301.691 400.51V407.853H303.096V400.329C303.096 397.722 301.283 395.864 298.699 395.864ZM315.766 392.011V398.425C314.86 396.839 313.319 395.864 311.393 395.864C308.378 395.864 306.044 398.493 306.044 401.983C306.044 405.496 308.378 408.125 311.393 408.125C313.319 408.125 314.86 407.15 315.766 405.564V407.853H317.172V392.011H315.766ZM311.642 406.833C309.285 406.833 307.495 404.748 307.495 401.983C307.495 399.218 309.285 397.156 311.642 397.156C314.067 397.156 315.766 399.15 315.766 401.983C315.766 404.816 314.067 406.833 311.642 406.833ZM327.346 407.853H328.752V392.011H327.346V407.853ZM337.632 408.125C340.919 408.125 343.683 405.315 343.683 401.983C343.683 398.652 340.919 395.864 337.632 395.864C334.346 395.864 331.559 398.652 331.559 401.983C331.559 405.315 334.346 408.125 337.632 408.125ZM337.632 406.833C335.117 406.833 333.032 404.635 333.032 401.983C333.032 399.354 335.117 397.156 337.632 397.156C340.125 397.156 342.21 399.354 342.21 401.983C342.21 404.635 340.125 406.833 337.632 406.833ZM351.93 408.125C355.216 408.125 357.981 405.315 357.981 401.983C357.981 398.652 355.216 395.864 351.93 395.864C348.643 395.864 345.856 398.652 345.856 401.983C345.856 405.315 348.643 408.125 351.93 408.125ZM351.93 406.833C349.414 406.833 347.329 404.635 347.329 401.983C347.329 399.354 349.414 397.156 351.93 397.156C354.422 397.156 356.507 399.354 356.507 401.983C356.507 404.635 354.422 406.833 351.93 406.833ZM370.737 396.136H368.901L362.17 402.958V392.011H360.765V407.853H362.17V404.771L364.459 402.459L368.674 407.853H370.442L365.456 401.507L370.737 396.136ZM373.463 393.847C374.007 393.847 374.437 393.417 374.437 392.873C374.437 392.351 374.007 391.898 373.463 391.898C372.919 391.898 372.488 392.351 372.488 392.873C372.488 393.417 372.919 393.847 373.463 393.847ZM372.76 407.853H374.165V396.136H372.76V407.853ZM382.866 395.864C381.144 395.864 379.648 396.771 379.013 398.062V396.136H377.608V407.853H379.013V400.397C379.013 398.584 380.622 397.156 382.685 397.156C384.543 397.156 385.857 398.538 385.857 400.51V407.853H387.263V400.329C387.263 397.722 385.45 395.864 382.866 395.864ZM399.82 396.136V398.357C398.914 396.771 397.327 395.864 395.356 395.864C392.319 395.864 390.052 398.244 390.052 401.417C390.052 404.612 392.319 406.992 395.356 406.992C397.305 406.992 398.914 406.062 399.82 404.476V406.606C399.82 408.986 398.12 410.459 395.446 410.459C393.973 410.459 392.455 409.915 391.503 409.054L390.868 410.187C391.933 411.094 393.769 411.751 395.605 411.751C398.914 411.751 401.225 409.62 401.225 406.606V396.136H399.82ZM395.605 405.7C393.271 405.7 391.503 403.864 391.503 401.417C391.503 398.992 393.271 397.156 395.605 397.156C398.052 397.156 399.82 398.924 399.82 401.417C399.82 403.932 398.052 405.7 395.605 405.7ZM413.828 394.527C413.828 393.53 414.462 392.827 415.233 392.827C415.799 392.827 416.275 393.009 416.593 393.326L417.318 392.283C416.683 391.807 415.935 391.536 415.142 391.536C413.556 391.536 412.423 392.782 412.423 394.527V396.136H410.519V397.428H412.423V407.853H413.828V397.428H416.842V396.136H413.828V394.527ZM424.721 408.125C428.007 408.125 430.772 405.315 430.772 401.983C430.772 398.652 428.007 395.864 424.721 395.864C421.435 395.864 418.647 398.652 418.647 401.983C418.647 405.315 421.435 408.125 424.721 408.125ZM424.721 406.833C422.205 406.833 420.12 404.635 420.12 401.983C420.12 399.354 422.205 397.156 424.721 397.156C427.214 397.156 429.299 399.354 429.299 401.983C429.299 404.635 427.214 406.833 424.721 406.833ZM435.143 398.538V396.136H433.737V407.853H435.143V401.303C435.143 398.878 437.024 397.156 439.675 397.156V395.864C437.522 395.864 435.8 396.952 435.143 398.538ZM59.6632 440.334C59.3459 440.629 58.8473 440.833 58.3034 440.833C57.5328 440.833 56.8983 440.13 56.8983 439.133V431.428H59.8445V430.136H56.8983V426.918H55.4932V430.136H53.5895V431.428H55.4932V439.133C55.4932 440.878 56.6263 442.125 58.2127 442.125C58.9833 442.125 59.7765 441.853 60.3884 441.377L59.6632 440.334ZM68.0753 429.864C66.353 429.864 64.8572 430.771 64.2226 432.062V426.011H62.8175V441.853H64.2226V434.397C64.2226 432.584 65.8317 431.156 67.894 431.156C69.7524 431.156 71.0668 432.538 71.0668 434.51V441.853H72.4719V434.329C72.4719 431.722 70.6589 429.864 68.0753 429.864ZM81.1541 440.833C78.7519 440.833 76.9615 438.975 76.7122 436.55H86.6159C86.6159 432.516 84.5309 429.864 81.0635 429.864C77.8907 429.864 75.2844 432.493 75.2844 435.96C75.2844 439.473 78.0266 442.125 81.1541 442.125C82.8765 442.125 84.9388 441.4 85.936 440.312L85.0521 439.36C84.2363 440.244 82.6272 440.833 81.1541 440.833ZM81.1088 431.156C83.5791 431.156 85.0295 432.901 85.2108 435.258H76.7349C77.0295 432.833 78.8199 431.156 81.1088 431.156ZM101.908 429.864C99.9817 429.864 98.4406 430.839 97.5341 432.425V430.136H96.129V445.751H97.5341V439.564C98.4406 441.15 99.9817 442.125 101.908 442.125C104.922 442.125 107.256 439.496 107.256 435.983C107.256 432.493 104.922 429.864 101.908 429.864ZM101.659 440.833C99.2338 440.833 97.5341 438.816 97.5341 435.983C97.5341 433.15 99.2338 431.156 101.659 431.156C104.016 431.156 105.806 433.218 105.806 435.983C105.806 438.748 104.016 440.833 101.659 440.833ZM115.436 440.833C113.034 440.833 111.244 438.975 110.994 436.55H120.898C120.898 432.516 118.813 429.864 115.346 429.864C112.173 429.864 109.566 432.493 109.566 435.96C109.566 439.473 112.309 442.125 115.436 442.125C117.159 442.125 119.221 441.4 120.218 440.312L119.334 439.36C118.518 440.244 116.909 440.833 115.436 440.833ZM115.391 431.156C117.861 431.156 119.312 432.901 119.493 435.258H111.017C111.312 432.833 113.102 431.156 115.391 431.156ZM132.79 430.136V432.357C131.883 430.771 130.297 429.864 128.325 429.864C125.288 429.864 123.022 432.244 123.022 435.417C123.022 438.612 125.288 440.992 128.325 440.992C130.274 440.992 131.883 440.062 132.79 438.476V440.606C132.79 442.986 131.09 444.459 128.416 444.459C126.943 444.459 125.424 443.915 124.472 443.054L123.838 444.187C124.903 445.094 126.739 445.751 128.574 445.751C131.883 445.751 134.195 443.62 134.195 440.606V430.136H132.79ZM128.574 439.7C126.24 439.7 124.472 437.864 124.472 435.417C124.472 432.992 126.24 431.156 128.574 431.156C131.022 431.156 132.79 432.924 132.79 435.417C132.79 437.932 131.022 439.7 128.574 439.7ZM141.947 442.125C144.304 442.125 146.162 440.742 146.162 438.748C146.162 436.708 144.485 435.96 142.332 435.281C140.043 434.533 139.136 434.057 139.136 432.992C139.136 431.858 140.338 431.156 141.765 431.156C142.853 431.156 144.077 431.541 145.255 432.266L145.958 431.179C144.711 430.363 143.193 429.864 141.765 429.864C139.499 429.864 137.731 431.201 137.731 433.15C137.731 434.805 138.842 435.688 141.652 436.504C143.51 437.071 144.757 437.615 144.757 438.884C144.757 440.017 143.556 440.833 141.947 440.833C140.632 440.833 139.204 440.312 137.845 439.337L137.097 440.38C138.479 441.49 140.292 442.125 141.947 442.125ZM155.617 441.853H157.067V426.283H155.617V441.853ZM167.146 441.853H168.551V426.011H167.146V441.853ZM172.673 427.847C173.217 427.847 173.647 427.417 173.647 426.873C173.647 426.351 173.217 425.898 172.673 425.898C172.129 425.898 171.698 426.351 171.698 426.873C171.698 427.417 172.129 427.847 172.673 427.847ZM171.97 441.853H173.375V430.136H171.97V441.853ZM186.744 430.136H184.909L178.178 436.958V426.011H176.773V441.853H178.178V438.771L180.467 436.459L184.682 441.853H186.45L181.464 435.507L186.744 430.136ZM194.026 440.833C191.624 440.833 189.833 438.975 189.584 436.55H199.488C199.488 432.516 197.403 429.864 193.935 429.864C190.762 429.864 188.156 432.493 188.156 435.96C188.156 439.473 190.898 442.125 194.026 442.125C195.748 442.125 197.811 441.4 198.808 440.312L197.924 439.36C197.108 440.244 195.499 440.833 194.026 440.833ZM193.981 431.156C196.451 431.156 197.901 432.901 198.083 435.258H189.607C189.901 432.833 191.692 431.156 193.981 431.156ZM209.522 427.847C210.066 427.847 210.497 427.417 210.497 426.873C210.497 426.351 210.066 425.898 209.522 425.898C208.978 425.898 208.548 426.351 208.548 426.873C208.548 427.417 208.978 427.847 209.522 427.847ZM208.819 441.853H210.225V430.136H208.819V441.853ZM217.792 442.125C220.149 442.125 222.007 440.742 222.007 438.748C222.007 436.708 220.33 435.96 218.177 435.281C215.888 434.533 214.982 434.057 214.982 432.992C214.982 431.858 216.183 431.156 217.611 431.156C218.699 431.156 219.922 431.541 221.101 432.266L221.803 431.179C220.557 430.363 219.039 429.864 217.611 429.864C215.344 429.864 213.577 431.201 213.577 433.15C213.577 434.805 214.687 435.688 217.497 436.504C219.356 437.071 220.602 437.615 220.602 438.884C220.602 440.017 219.401 440.833 217.792 440.833C216.478 440.833 215.05 440.312 213.69 439.337L212.942 440.38C214.325 441.49 216.138 442.125 217.792 442.125ZM236.675 429.864C234.952 429.864 233.457 430.771 232.822 432.062V426.011H231.417V441.853H232.822V434.397C232.822 432.584 234.431 431.156 236.494 431.156C238.352 431.156 239.666 432.538 239.666 434.51V441.853H241.071V434.329C241.071 431.722 239.258 429.864 236.675 429.864ZM249.21 429.864C248.054 429.864 246.603 430.181 245.062 430.997L245.629 432.153C246.694 431.564 247.918 431.111 249.096 431.111C251.725 431.111 252.496 432.992 252.496 434.714V435.19C251.249 434.782 249.844 434.487 248.575 434.487C245.946 434.487 243.929 436.074 243.929 438.385C243.929 440.652 245.742 442.125 248.19 442.125C249.776 442.125 251.635 441.377 252.496 439.994V441.853H253.901V434.714C253.901 431.881 252.292 429.864 249.21 429.864ZM248.417 440.856C246.671 440.856 245.312 439.881 245.312 438.317C245.312 436.799 246.83 435.711 248.779 435.711C250.094 435.711 251.385 435.96 252.496 436.3V438.181C252.043 439.994 250.048 440.856 248.417 440.856ZM258.941 432.538V430.136H257.536V441.853H258.941V435.303C258.941 432.878 260.822 431.156 263.473 431.156V429.864C261.32 429.864 259.598 430.952 258.941 432.538ZM275.055 426.011V432.425C274.149 430.839 272.608 429.864 270.681 429.864C267.667 429.864 265.333 432.493 265.333 435.983C265.333 439.496 267.667 442.125 270.681 442.125C272.608 442.125 274.149 441.15 275.055 439.564V441.853H276.46V426.011H275.055ZM270.931 440.833C268.574 440.833 266.783 438.748 266.783 435.983C266.783 433.218 268.574 431.156 270.931 431.156C273.355 431.156 275.055 433.15 275.055 435.983C275.055 438.816 273.355 440.833 270.931 440.833ZM281.059 442.125C281.626 442.125 282.079 441.649 282.079 441.06C282.079 440.516 281.626 440.04 281.059 440.04C280.447 440.04 279.994 440.516 279.994 441.06C279.994 441.649 280.447 442.125 281.059 442.125ZM292.081 441.853H293.532V426.283H292.081V441.853ZM308.891 429.864C307.168 429.864 305.673 430.771 305.038 432.062V426.011H303.633V441.853H305.038V434.397C305.038 432.584 306.647 431.156 308.709 431.156C310.568 431.156 311.882 432.538 311.882 434.51V441.853H313.287V434.329C313.287 431.722 311.474 429.864 308.891 429.864ZM322.173 442.125C325.46 442.125 328.224 439.315 328.224 435.983C328.224 432.652 325.46 429.864 322.173 429.864C318.887 429.864 316.1 432.652 316.1 435.983C316.1 439.315 318.887 442.125 322.173 442.125ZM322.173 440.833C319.658 440.833 317.573 438.635 317.573 435.983C317.573 433.354 319.658 431.156 322.173 431.156C324.666 431.156 326.751 433.354 326.751 435.983C326.751 438.635 324.666 440.833 322.173 440.833ZM336.969 429.864C335.043 429.864 333.502 430.839 332.595 432.425V430.136H331.19V445.751H332.595V439.564C333.502 441.15 335.043 442.125 336.969 442.125C339.983 442.125 342.318 439.496 342.318 435.983C342.318 432.493 339.983 429.864 336.969 429.864ZM336.72 440.833C334.295 440.833 332.595 438.816 332.595 435.983C332.595 433.15 334.295 431.156 336.72 431.156C339.077 431.156 340.867 433.218 340.867 435.983C340.867 438.748 339.077 440.833 336.72 440.833ZM350.497 440.833C348.095 440.833 346.305 438.975 346.055 436.55H355.959C355.959 432.516 353.874 429.864 350.407 429.864C347.234 429.864 344.628 432.493 344.628 435.96C344.628 439.473 347.37 442.125 350.497 442.125C352.22 442.125 354.282 441.4 355.279 440.312L354.395 439.36C353.579 440.244 351.97 440.833 350.497 440.833ZM350.452 431.156C352.922 431.156 354.373 432.901 354.554 435.258H346.078C346.373 432.833 348.163 431.156 350.452 431.156ZM370.503 440.334C370.186 440.629 369.687 440.833 369.144 440.833C368.373 440.833 367.738 440.13 367.738 439.133V431.428H370.685V430.136H367.738V426.918H366.333V430.136H364.43V431.428H366.333V439.133C366.333 440.878 367.466 442.125 369.053 442.125C369.823 442.125 370.617 441.853 371.228 441.377L370.503 440.334ZM378.915 429.864C377.193 429.864 375.697 430.771 375.063 432.062V426.011H373.658V441.853H375.063V434.397C375.063 432.584 376.672 431.156 378.734 431.156C380.593 431.156 381.907 432.538 381.907 434.51V441.853H383.312V434.329C383.312 431.722 381.499 429.864 378.915 429.864ZM391.994 440.833C389.592 440.833 387.802 438.975 387.552 436.55H397.456C397.456 432.516 395.371 429.864 391.904 429.864C388.731 429.864 386.125 432.493 386.125 435.96C386.125 439.473 388.867 442.125 391.994 442.125C393.717 442.125 395.779 441.4 396.776 440.312L395.892 439.36C395.076 440.244 393.467 440.833 391.994 440.833ZM391.949 431.156C394.419 431.156 395.87 432.901 396.051 435.258H387.575C387.87 432.833 389.66 431.156 391.949 431.156ZM401.801 432.538V430.136H400.396V441.853H401.801V435.303C401.801 432.878 403.682 431.156 406.334 431.156V429.864C404.181 429.864 402.458 430.952 401.801 432.538ZM413.927 440.833C411.525 440.833 409.734 438.975 409.485 436.55H419.389C419.389 432.516 417.304 429.864 413.836 429.864C410.663 429.864 408.057 432.493 408.057 435.96C408.057 439.473 410.799 442.125 413.927 442.125C415.649 442.125 417.712 441.4 418.709 440.312L417.825 439.36C417.009 440.244 415.4 440.833 413.927 440.833ZM413.881 431.156C416.352 431.156 417.802 432.901 417.983 435.258H409.508C409.802 432.833 411.593 431.156 413.881 431.156ZM429.423 427.847C429.967 427.847 430.397 427.417 430.397 426.873C430.397 426.351 429.967 425.898 429.423 425.898C428.879 425.898 428.448 426.351 428.448 426.873C428.448 427.417 428.879 427.847 429.423 427.847ZM428.72 441.853H430.125V430.136H428.72V441.853ZM437.693 442.125C440.05 442.125 441.908 440.742 441.908 438.748C441.908 436.708 440.231 435.96 438.078 435.281C435.789 434.533 434.883 434.057 434.883 432.992C434.883 431.858 436.084 431.156 437.512 431.156C438.599 431.156 439.823 431.541 441.002 432.266L441.704 431.179C440.458 430.363 438.939 429.864 437.512 429.864C435.245 429.864 433.478 431.201 433.478 433.15C433.478 434.805 434.588 435.688 437.398 436.504C439.257 437.071 440.503 437.615 440.503 438.884C440.503 440.017 439.302 440.833 437.693 440.833C436.378 440.833 434.951 440.312 433.591 439.337L432.843 440.38C434.225 441.49 436.039 442.125 437.693 442.125ZM64.2327 463.864C63.0769 463.864 61.6265 464.181 60.0854 464.997L60.652 466.153C61.7172 465.564 62.941 465.111 64.1194 465.111C66.7483 465.111 67.5189 466.992 67.5189 468.714V469.19C66.2724 468.782 64.8673 468.487 63.5982 468.487C60.9693 468.487 58.9523 470.074 58.9523 472.385C58.9523 474.652 60.7653 476.125 63.2129 476.125C64.7993 476.125 66.6577 475.377 67.5189 473.994V475.853H68.924V468.714C68.924 465.881 67.3149 463.864 64.2327 463.864ZM63.4395 474.856C61.6945 474.856 60.3347 473.881 60.3347 472.317C60.3347 470.799 61.8531 469.711 63.8021 469.711C65.1166 469.711 66.4084 469.96 67.5189 470.3V472.181C67.0656 473.994 65.0713 474.856 63.4395 474.856ZM77.6805 463.864C75.9581 463.864 74.4624 464.771 73.8278 466.062V464.136H72.4227V475.853H73.8278V468.397C73.8278 466.584 75.4369 465.156 77.4992 465.156C79.3576 465.156 80.672 466.538 80.672 468.51V475.853H82.0771V468.329C82.0771 465.722 80.2641 463.864 77.6805 463.864ZM97.3324 474.833C94.9301 474.833 93.1398 472.975 92.8905 470.55H102.794C102.794 466.516 100.709 463.864 97.2418 463.864C94.069 463.864 91.4627 466.493 91.4627 469.96C91.4627 473.473 94.2049 476.125 97.3324 476.125C99.0548 476.125 101.117 475.4 102.114 474.312L101.23 473.36C100.415 474.244 98.8055 474.833 97.3324 474.833ZM97.2871 465.156C99.7573 465.156 101.208 466.901 101.389 469.258H92.9132C93.2078 466.833 94.9981 465.156 97.2871 465.156ZM110.267 463.864C109.111 463.864 107.66 464.181 106.119 464.997L106.686 466.153C107.751 465.564 108.975 465.111 110.153 465.111C112.782 465.111 113.553 466.992 113.553 468.714V469.19C112.306 468.782 110.901 468.487 109.632 468.487C107.003 468.487 104.986 470.074 104.986 472.385C104.986 474.652 106.799 476.125 109.247 476.125C110.833 476.125 112.692 475.377 113.553 473.994V475.853H114.958V468.714C114.958 465.881 113.349 463.864 110.267 463.864ZM109.474 474.856C107.728 474.856 106.369 473.881 106.369 472.317C106.369 470.799 107.887 469.711 109.836 469.711C111.151 469.711 112.442 469.96 113.553 470.3V472.181C113.1 473.994 111.105 474.856 109.474 474.856ZM122.581 476.125C124.938 476.125 126.797 474.742 126.797 472.748C126.797 470.708 125.12 469.96 122.967 469.281C120.678 468.533 119.771 468.057 119.771 466.992C119.771 465.858 120.972 465.156 122.4 465.156C123.488 465.156 124.712 465.541 125.89 466.266L126.593 465.179C125.346 464.363 123.828 463.864 122.4 463.864C120.134 463.864 118.366 465.201 118.366 467.15C118.366 468.805 119.477 469.688 122.287 470.504C124.145 471.071 125.392 471.615 125.392 472.884C125.392 474.017 124.19 474.833 122.581 474.833C121.267 474.833 119.839 474.312 118.479 473.337L117.731 474.38C119.114 475.49 120.927 476.125 122.581 476.125ZM131.152 479.932C132.783 479.909 133.917 479.162 134.664 477.303L140.058 464.136H138.54L134.438 474.357L130.109 464.136H128.568L133.713 476.034L133.01 477.552C132.579 478.323 131.968 478.64 131.106 478.64C130.608 478.64 130.086 478.527 129.656 478.3L129.293 479.547C129.837 479.796 130.494 479.932 131.152 479.932ZM152.387 475.853H153.792L157.011 466.221L160.206 475.853H161.611L165.532 464.136H164.036L160.909 473.972L157.622 464.136H156.399L153.09 473.972L149.985 464.136H148.489L152.387 475.853ZM172.7 463.864C171.545 463.864 170.094 464.181 168.553 464.997L169.12 466.153C170.185 465.564 171.409 465.111 172.587 465.111C175.216 465.111 175.986 466.992 175.986 468.714V469.19C174.74 468.782 173.335 468.487 172.066 468.487C169.437 468.487 167.42 470.074 167.42 472.385C167.42 474.652 169.233 476.125 171.681 476.125C173.267 476.125 175.125 475.377 175.986 473.994V475.853H177.392V468.714C177.392 465.881 175.782 463.864 172.7 463.864ZM171.907 474.856C170.162 474.856 168.802 473.881 168.802 472.317C168.802 470.799 170.321 469.711 172.27 469.711C173.584 469.711 174.876 469.96 175.986 470.3V472.181C175.533 473.994 173.539 474.856 171.907 474.856ZM182.409 479.932C184.04 479.909 185.174 479.162 185.921 477.303L191.315 464.136H189.797L185.695 474.357L181.366 464.136H179.825L184.97 476.034L184.267 477.552C183.836 478.323 183.225 478.64 182.363 478.64C181.865 478.64 181.344 478.527 180.913 478.3L180.55 479.547C181.094 479.796 181.751 479.932 182.409 479.932ZM205.865 474.334C205.548 474.629 205.049 474.833 204.506 474.833C203.735 474.833 203.1 474.13 203.1 473.133V465.428H206.047V464.136H203.1V460.918H201.695V464.136H199.792V465.428H201.695V473.133C201.695 474.878 202.829 476.125 204.415 476.125C205.185 476.125 205.979 475.853 206.591 475.377L205.865 474.334ZM214.436 476.125C217.722 476.125 220.487 473.315 220.487 469.983C220.487 466.652 217.722 463.864 214.436 463.864C211.15 463.864 208.363 466.652 208.363 469.983C208.363 473.315 211.15 476.125 214.436 476.125ZM214.436 474.833C211.921 474.833 209.836 472.635 209.836 469.983C209.836 467.354 211.921 465.156 214.436 465.156C216.929 465.156 219.014 467.354 219.014 469.983C219.014 472.635 216.929 474.833 214.436 474.833ZM232.292 462.527C232.292 461.53 232.927 460.827 233.697 460.827C234.264 460.827 234.74 461.009 235.057 461.326L235.782 460.283C235.148 459.807 234.4 459.536 233.607 459.536C232.02 459.536 230.887 460.782 230.887 462.527V464.136H228.983V465.428H230.887V475.853H232.292V465.428H235.306V464.136H232.292V462.527ZM238.426 461.847C238.97 461.847 239.401 461.417 239.401 460.873C239.401 460.351 238.97 459.898 238.426 459.898C237.882 459.898 237.452 460.351 237.452 460.873C237.452 461.417 237.882 461.847 238.426 461.847ZM237.724 475.853H239.129V464.136H237.724V475.853ZM242.549 475.853H243.954V460.011H242.549V475.853ZM252.585 474.334C252.268 474.629 251.77 474.833 251.226 474.833C250.455 474.833 249.821 474.13 249.821 473.133V465.428H252.767V464.136H249.821V460.918H248.415V464.136H246.512V465.428H248.415V473.133C248.415 474.878 249.549 476.125 251.135 476.125C251.906 476.125 252.699 475.853 253.311 475.377L252.585 474.334ZM260.952 474.833C258.55 474.833 256.76 472.975 256.51 470.55H266.414C266.414 466.516 264.329 463.864 260.862 463.864C257.689 463.864 255.083 466.493 255.083 469.96C255.083 473.473 257.825 476.125 260.952 476.125C262.675 476.125 264.737 475.4 265.734 474.312L264.85 473.36C264.034 474.244 262.425 474.833 260.952 474.833ZM260.907 465.156C263.377 465.156 264.828 466.901 265.009 469.258H256.533C256.828 466.833 258.618 465.156 260.907 465.156ZM270.759 466.538V464.136H269.354V475.853H270.759V469.303C270.759 466.878 272.64 465.156 275.292 465.156V463.864C273.139 463.864 271.416 464.952 270.759 466.538ZM289.662 476.125C292.948 476.125 295.713 473.315 295.713 469.983C295.713 466.652 292.948 463.864 289.662 463.864C286.376 463.864 283.588 466.652 283.588 469.983C283.588 473.315 286.376 476.125 289.662 476.125ZM289.662 474.833C287.146 474.833 285.061 472.635 285.061 469.983C285.061 467.354 287.146 465.156 289.662 465.156C292.155 465.156 294.24 467.354 294.24 469.983C294.24 472.635 292.155 474.833 289.662 474.833ZM306.769 464.136V471.592C306.769 473.405 305.16 474.833 303.098 474.833C301.239 474.833 299.925 473.451 299.925 471.479V464.136H298.52V471.66C298.52 474.266 300.333 476.125 302.917 476.125C304.639 476.125 306.135 475.218 306.769 473.926V475.853H308.174V464.136H306.769ZM316.834 474.334C316.517 474.629 316.018 474.833 315.474 474.833C314.704 474.833 314.069 474.13 314.069 473.133V465.428H317.015V464.136H314.069V460.918H312.664V464.136H310.76V465.428H312.664V473.133C312.664 474.878 313.797 476.125 315.383 476.125C316.154 476.125 316.947 475.853 317.559 475.377L316.834 474.334ZM331.91 476.125C333.496 476.125 334.969 475.445 336.057 474.357L335.083 473.405C334.267 474.289 333.134 474.833 331.91 474.833C329.372 474.833 327.377 472.703 327.377 469.983C327.377 467.286 329.372 465.156 331.91 465.156C333.111 465.156 334.221 465.677 335.037 466.538L336.012 465.586C334.924 464.521 333.474 463.864 331.91 463.864C328.578 463.864 325.904 466.561 325.904 469.983C325.904 473.405 328.578 476.125 331.91 476.125ZM343.358 463.864C342.202 463.864 340.752 464.181 339.211 464.997L339.777 466.153C340.843 465.564 342.066 465.111 343.245 465.111C345.874 465.111 346.644 466.992 346.644 468.714V469.19C345.398 468.782 343.993 468.487 342.724 468.487C340.095 468.487 338.078 470.074 338.078 472.385C338.078 474.652 339.891 476.125 342.338 476.125C343.925 476.125 345.783 475.377 346.644 473.994V475.853H348.049V468.714C348.049 465.881 346.44 463.864 343.358 463.864ZM342.565 474.856C340.82 474.856 339.46 473.881 339.46 472.317C339.46 470.799 340.979 469.711 342.928 469.711C344.242 469.711 345.534 469.96 346.644 470.3V472.181C346.191 473.994 344.197 474.856 342.565 474.856ZM356.715 474.334C356.398 474.629 355.899 474.833 355.355 474.833C354.585 474.833 353.95 474.13 353.95 473.133V465.428H356.897V464.136H353.95V460.918H352.545V464.136H350.642V465.428H352.545V473.133C352.545 474.878 353.678 476.125 355.265 476.125C356.035 476.125 356.829 475.853 357.44 475.377L356.715 474.334ZM365.082 474.833C362.68 474.833 360.889 472.975 360.64 470.55H370.544C370.544 466.516 368.459 463.864 364.991 463.864C361.819 463.864 359.212 466.493 359.212 469.96C359.212 473.473 361.955 476.125 365.082 476.125C366.804 476.125 368.867 475.4 369.864 474.312L368.98 473.36C368.164 474.244 366.555 474.833 365.082 474.833ZM365.037 465.156C367.507 465.156 368.957 466.901 369.139 469.258H360.663C360.957 466.833 362.748 465.156 365.037 465.156ZM382.436 464.136V466.357C381.529 464.771 379.943 463.864 377.971 463.864C374.934 463.864 372.668 466.244 372.668 469.417C372.668 472.612 374.934 474.992 377.971 474.992C379.92 474.992 381.529 474.062 382.436 472.476V474.606C382.436 476.986 380.736 478.459 378.062 478.459C376.589 478.459 375.07 477.915 374.118 477.054L373.484 478.187C374.549 479.094 376.385 479.751 378.22 479.751C381.529 479.751 383.841 477.62 383.841 474.606V464.136H382.436ZM378.22 473.7C375.886 473.7 374.118 471.864 374.118 469.417C374.118 466.992 375.886 465.156 378.22 465.156C380.668 465.156 382.436 466.924 382.436 469.417C382.436 471.932 380.668 473.7 378.22 473.7ZM392.884 476.125C396.17 476.125 398.935 473.315 398.935 469.983C398.935 466.652 396.17 463.864 392.884 463.864C389.598 463.864 386.811 466.652 386.811 469.983C386.811 473.315 389.598 476.125 392.884 476.125ZM392.884 474.833C390.369 474.833 388.284 472.635 388.284 469.983C388.284 467.354 390.369 465.156 392.884 465.156C395.377 465.156 397.462 467.354 397.462 469.983C397.462 472.635 395.377 474.833 392.884 474.833ZM403.306 466.538V464.136H401.901V475.853H403.306V469.303C403.306 466.878 405.187 465.156 407.839 465.156V463.864C405.686 463.864 403.963 464.952 403.306 466.538ZM410.877 461.847C411.42 461.847 411.851 461.417 411.851 460.873C411.851 460.351 411.42 459.898 410.877 459.898C410.333 459.898 409.902 460.351 409.902 460.873C409.902 461.417 410.333 461.847 410.877 461.847ZM410.174 475.853H411.579V464.136H410.174V475.853ZM420.234 474.833C417.832 474.833 416.042 472.975 415.792 470.55H425.696C425.696 466.516 423.611 463.864 420.144 463.864C416.971 463.864 414.365 466.493 414.365 469.96C414.365 473.473 417.107 476.125 420.234 476.125C421.957 476.125 424.019 475.4 425.016 474.312L424.132 473.36C423.316 474.244 421.707 474.833 420.234 474.833ZM420.189 465.156C422.659 465.156 424.11 466.901 424.291 469.258H415.815C416.11 466.833 417.9 465.156 420.189 465.156ZM432.625 476.125C434.982 476.125 436.84 474.742 436.84 472.748C436.84 470.708 435.163 469.96 433.01 469.281C430.721 468.533 429.815 468.057 429.815 466.992C429.815 465.858 431.016 465.156 432.443 465.156C433.531 465.156 434.755 465.541 435.934 466.266L436.636 465.179C435.39 464.363 433.871 463.864 432.443 463.864C430.177 463.864 428.409 465.201 428.409 467.15C428.409 468.805 429.52 469.688 432.33 470.504C434.188 471.071 435.435 471.615 435.435 472.884C435.435 474.017 434.234 474.833 432.625 474.833C431.31 474.833 429.883 474.312 428.523 473.337L427.775 474.38C429.157 475.49 430.97 476.125 432.625 476.125ZM196.968 497.864C195.812 497.864 194.362 498.181 192.82 498.997L193.387 500.153C194.452 499.564 195.676 499.111 196.854 499.111C199.483 499.111 200.254 500.992 200.254 502.714V503.19C199.007 502.782 197.602 502.487 196.333 502.487C193.704 502.487 191.687 504.074 191.687 506.385C191.687 508.652 193.5 510.125 195.948 510.125C197.534 510.125 199.393 509.377 200.254 507.994V509.853H201.659V502.714C201.659 499.881 200.05 497.864 196.968 497.864ZM196.175 508.856C194.43 508.856 193.07 507.881 193.07 506.317C193.07 504.799 194.588 503.711 196.537 503.711C197.852 503.711 199.143 503.96 200.254 504.3V506.181C199.801 507.994 197.806 508.856 196.175 508.856ZM210.416 497.864C208.693 497.864 207.197 498.771 206.563 500.062V498.136H205.158V509.853H206.563V502.397C206.563 500.584 208.172 499.156 210.234 499.156C212.093 499.156 213.407 500.538 213.407 502.51V509.853H214.812V502.329C214.812 499.722 212.999 497.864 210.416 497.864ZM227.483 494.011V500.425C226.576 498.839 225.035 497.864 223.109 497.864C220.095 497.864 217.761 500.493 217.761 503.983C217.761 507.496 220.095 510.125 223.109 510.125C225.035 510.125 226.576 509.15 227.483 507.564V509.853H228.888V494.011H227.483ZM223.358 508.833C221.001 508.833 219.211 506.748 219.211 503.983C219.211 501.218 221.001 499.156 223.358 499.156C225.783 499.156 227.483 501.15 227.483 503.983C227.483 506.816 225.783 508.833 223.358 508.833ZM243.21 510.125C245.567 510.125 247.426 508.742 247.426 506.748C247.426 504.708 245.749 503.96 243.596 503.281C241.307 502.533 240.4 502.057 240.4 500.992C240.4 499.858 241.601 499.156 243.029 499.156C244.117 499.156 245.341 499.541 246.519 500.266L247.222 499.179C245.975 498.363 244.457 497.864 243.029 497.864C240.763 497.864 238.995 499.201 238.995 501.15C238.995 502.805 240.106 503.688 242.916 504.504C244.774 505.071 246.021 505.615 246.021 506.884C246.021 508.017 244.819 508.833 243.21 508.833C241.896 508.833 240.468 508.312 239.108 507.337L238.36 508.38C239.743 509.49 241.556 510.125 243.21 510.125ZM250.919 495.847C251.463 495.847 251.894 495.417 251.894 494.873C251.894 494.351 251.463 493.898 250.919 493.898C250.376 493.898 249.945 494.351 249.945 494.873C249.945 495.417 250.376 495.847 250.919 495.847ZM250.217 509.853H251.622V498.136H250.217V509.853ZM254.544 509.853H263.79V508.516H256.402L263.745 499.247V498.136H254.68V499.473H261.864L254.544 508.742V509.853ZM271.919 508.833C269.516 508.833 267.726 506.975 267.477 504.55H277.38C277.38 500.516 275.295 497.864 271.828 497.864C268.655 497.864 266.049 500.493 266.049 503.96C266.049 507.473 268.791 510.125 271.919 510.125C273.641 510.125 275.703 509.4 276.7 508.312L275.817 507.36C275.001 508.244 273.392 508.833 271.919 508.833ZM271.873 499.156C274.343 499.156 275.794 500.901 275.975 503.258H267.499C267.794 500.833 269.584 499.156 271.873 499.156ZM284.309 510.125C286.666 510.125 288.524 508.742 288.524 506.748C288.524 504.708 286.847 503.96 284.694 503.281C282.405 502.533 281.499 502.057 281.499 500.992C281.499 499.858 282.7 499.156 284.128 499.156C285.215 499.156 286.439 499.541 287.618 500.266L288.32 499.179C287.074 498.363 285.555 497.864 284.128 497.864C281.861 497.864 280.094 499.201 280.094 501.15C280.094 502.805 281.204 503.688 284.014 504.504C285.873 505.071 287.119 505.615 287.119 506.884C287.119 508.017 285.918 508.833 284.309 508.833C282.995 508.833 281.567 508.312 280.207 507.337L279.459 508.38C280.842 509.49 282.655 510.125 284.309 510.125ZM292.335 510.125C292.902 510.125 293.355 509.649 293.355 509.06C293.355 508.516 292.902 508.04 292.335 508.04C291.723 508.04 291.27 508.516 291.27 509.06C291.27 509.649 291.723 510.125 292.335 510.125ZM297.532 499.519C298.733 498 299.141 497.162 299.141 496.278C299.141 495.394 298.688 494.759 297.985 494.759C297.351 494.759 296.92 495.235 296.92 495.779C296.92 496.368 297.373 496.844 297.963 496.844C297.781 497.524 297.396 498.249 296.784 498.952L297.532 499.519ZM301.906 499.519C303.107 498 303.515 497.162 303.515 496.278C303.515 495.394 303.062 494.759 302.359 494.759C301.725 494.759 301.294 495.235 301.294 495.779C301.294 496.368 301.747 496.844 302.337 496.844C302.155 497.524 301.77 498.249 301.158 498.952L301.906 499.519Z" fill="#2D2D2D"/>
<path d="M188.776 355.028H199.519V353.351H191.609L195.689 349.816C198.317 347.55 199.36 345.873 199.36 343.765C199.36 340.977 197.094 339.187 194.397 339.187C191.949 339.187 190.204 340.343 188.912 342.178L190.159 343.198C191.224 341.748 192.516 340.773 194.329 340.773C195.983 340.773 197.57 341.884 197.57 343.788C197.57 345.329 196.663 346.824 194.465 348.705L188.776 353.555V355.028ZM202.122 355.028H212.864V353.351H204.955L209.034 349.816C211.663 347.55 212.705 345.873 212.705 343.765C212.705 340.977 210.439 339.187 207.742 339.187C205.295 339.187 203.55 340.343 202.258 342.178L203.504 343.198C204.569 341.748 205.861 340.773 207.674 340.773C209.329 340.773 210.915 341.884 210.915 343.788C210.915 345.329 210.009 346.824 207.81 348.705L202.122 353.555V355.028ZM216.986 358.042C218.345 356.343 218.731 355.572 218.731 354.666C218.731 353.623 218.209 352.853 217.348 352.853C216.623 352.853 216.102 353.419 216.102 354.054C216.102 354.734 216.646 355.3 217.326 355.3C217.144 356.003 216.759 356.705 216.147 357.408L216.986 358.042ZM234.09 355.278C237.716 355.278 239.574 353.261 239.574 350.79C239.574 348.048 237.444 346.983 234.475 346.28C231.823 345.646 230.282 345.079 230.282 343.47C230.282 342.042 231.687 340.773 233.614 340.773C235.245 340.773 236.786 341.521 238.078 342.768L239.166 341.385C237.738 340.071 236.016 339.164 233.704 339.164C230.713 339.164 228.492 341.113 228.492 343.606C228.492 346.303 230.464 347.278 233.591 348.003C236.311 348.637 237.784 349.295 237.784 350.949C237.784 352.354 236.56 353.669 234.158 353.669C231.982 353.669 230.373 352.739 229.058 351.425L227.948 352.807C229.512 354.348 231.529 355.278 234.09 355.278ZM247.671 353.306C247.422 353.578 246.968 353.782 246.447 353.782C245.767 353.782 245.178 353.17 245.178 352.309V344.83H248.056V343.312H245.178V340.093H243.478V343.312H241.643V344.83H243.478V352.309C243.478 354.054 244.657 355.3 246.334 355.3C247.127 355.3 247.898 355.028 248.51 354.552L247.671 353.306ZM259.164 343.312V350.768C259.164 352.399 257.509 353.782 255.538 353.782C253.815 353.782 252.614 352.445 252.614 350.541V343.312H250.914V350.768C250.914 353.419 252.728 355.3 255.311 355.3C256.965 355.3 258.484 354.394 259.164 353.147V355.028H260.863V343.312H259.164ZM273.482 339.187V345.51C272.598 343.969 271.103 343.04 269.221 343.04C266.139 343.04 263.828 345.578 263.828 349.159C263.828 352.762 266.139 355.3 269.221 355.3C271.103 355.3 272.598 354.371 273.482 352.83V355.028H275.182V339.187H273.482ZM269.539 353.782C267.25 353.782 265.618 351.856 265.618 349.159C265.618 346.462 267.25 344.558 269.539 344.558C271.85 344.558 273.482 346.462 273.482 349.159C273.482 351.856 271.85 353.782 269.539 353.782ZM284.059 353.782C281.747 353.782 280.138 352.105 279.889 349.816H289.475C289.475 345.714 287.458 343.04 283.923 343.04C280.773 343.04 278.144 345.646 278.144 349.136C278.144 352.739 280.954 355.3 284.081 355.3C285.713 355.3 287.776 354.598 288.795 353.487L287.753 352.377C287.028 353.17 285.441 353.782 284.059 353.782ZM283.991 344.558C286.325 344.558 287.572 346.19 287.798 348.297H279.911C280.229 346.031 281.906 344.558 283.991 344.558ZM297.832 343.04C296.177 343.04 294.659 343.946 293.979 345.193V343.312H292.279V355.028H293.979V347.572C293.979 345.941 295.633 344.558 297.605 344.558C299.327 344.558 300.529 345.895 300.529 347.799V355.028H302.228V347.572C302.228 344.921 300.415 343.04 297.832 343.04ZM310.813 353.306C310.564 353.578 310.11 353.782 309.589 353.782C308.909 353.782 308.32 353.17 308.32 352.309V344.83H311.198V343.312H308.32V340.093H306.62V343.312H304.785V344.83H306.62V352.309C306.62 354.054 307.799 355.3 309.476 355.3C310.269 355.3 311.039 355.028 311.651 354.552L310.813 353.306Z" fill="#A2CC00"/>
<path d="M189.939 321.609C194.665 321.609 197.996 318.278 197.996 313.586V297.847H192.965V313.179C192.965 315.456 191.469 317.054 189.429 317.054C187.866 317.054 186.2 316 185.452 314.47L182.121 317.734C183.684 320.011 186.948 321.609 189.939 321.609ZM210.707 317.224C208.634 317.224 207.104 315.932 206.526 314.028H219.206C219.206 307.399 215.976 303.218 210.469 303.218C205.336 303.218 201.427 307.06 201.427 312.363C201.427 317.768 205.506 321.609 210.741 321.609C213.325 321.609 216.35 320.521 217.914 318.89L214.753 315.66C213.801 316.578 212.101 317.224 210.707 317.224ZM210.673 307.603C212.679 307.603 213.971 308.725 214.447 310.459H206.594C207.24 308.691 208.803 307.603 210.673 307.603ZM232.728 303.218C230.45 303.218 228.479 304.238 227.425 305.836V303.626H222.462V321.201H227.425V310.697L227.459 310.799C227.459 308.895 229.056 307.399 231.13 307.399C233.102 307.399 234.462 308.895 234.462 311.071V321.201H239.255V310.017C239.255 306.04 236.535 303.218 232.728 303.218ZM253.609 303.218C251.331 303.218 249.36 304.238 248.306 305.836V303.626H243.343V321.201H248.306V310.697L248.34 310.799C248.34 308.895 249.938 307.399 252.011 307.399C253.983 307.399 255.343 308.895 255.343 311.071V321.201H260.136V310.017C260.136 306.04 257.416 303.218 253.609 303.218ZM266.808 301.213C268.269 301.213 269.459 299.989 269.459 298.493C269.459 297.099 268.269 295.841 266.808 295.841C265.278 295.841 264.088 297.099 264.088 298.493C264.088 299.989 265.278 301.213 266.808 301.213ZM264.292 321.201H269.255V303.626H264.292V321.201ZM279.469 302.674C279.469 301.518 280.217 300.703 281.135 300.703C281.815 300.703 282.495 300.941 282.835 301.28L284.024 298.255C283.005 297.337 281.407 296.725 279.979 296.725C276.886 296.725 274.71 298.935 274.71 302.096V303.626H272.296V307.637H274.71V321.201H279.469V307.637H283.277V303.626H279.469V302.674ZM294.763 317.224C292.69 317.224 291.16 315.932 290.582 314.028H303.262C303.262 307.399 300.033 303.218 294.526 303.218C289.392 303.218 285.483 307.06 285.483 312.363C285.483 317.768 289.562 321.609 294.797 321.609C297.381 321.609 300.407 320.521 301.97 318.89L298.809 315.66C297.857 316.578 296.157 317.224 294.763 317.224ZM294.729 307.603C296.735 307.603 298.027 308.725 298.503 310.459H290.65C291.296 308.691 292.86 307.603 294.729 307.603ZM311.583 306.89V303.626H306.62V321.201H311.583V312.805C311.583 309.507 313.929 307.399 317.6 307.399V303.218C314.914 303.218 312.739 304.612 311.583 306.89Z" fill="#A2CC00"/>
<circle cx="242.21" cy="160.057" r="98.5836" fill="#F9FFE0" stroke="#A2CC00" stroke-width="1.13314"/>
<circle cx="242.21" cy="160.057" r="87.8187" fill="#EEF9C1"/>
<mask id="mask0_408_28" style="mask-type:alpha" maskUnits="userSpaceOnUse" x="154" y="72" width="177" height="176">
<circle cx="242.21" cy="160.057" r="87.8187" fill="#EFDAB9"/>
</mask>
<g mask="url(#mask0_408_28)">
<path d="M275.856 143.783C319.563 107.978 278.312 75.2285 233.998 92.6709C229.257 94.537 216.121 87.0665 203.952 94.9368C196.103 100.014 199.157 103.992 196.101 107.971C193.045 111.95 181.261 111.716 178.679 122.047C177.15 128.168 181.381 134.579 180.815 139.186C180.25 143.793 175.782 147.946 175.569 154.028C175.477 156.597 175.891 159.158 176.789 161.567C177.687 163.975 179.051 166.183 180.802 168.065C182.554 169.946 184.659 171.464 186.997 172.532C189.335 173.599 191.861 174.196 194.429 174.288C194.45 179.366 196.433 184.239 199.963 187.89C203.494 191.54 208.298 193.685 213.373 193.876C216.746 193.994 225.287 193.995 232.626 189.568C251.016 178.477 246.89 167.511 275.856 143.783Z" fill="white"/>
<path d="M230.473 184.108C230.473 178.602 230.286 151.443 230.295 150.984C215.178 153.212 215.484 124.458 230.779 131.494C234.144 133.635 243.627 131.494 242.709 113.752C259.227 131.494 278.405 110.8 280.05 127.663C282.296 150.687 280.036 174.783 265.727 174.785C264.162 174.766 262.601 174.61 261.063 174.319V184.108C261.063 190.226 272.075 193.285 272.075 193.285C272.075 193.285 253.053 211.21 245.156 211.111C237.259 211.012 219.461 193.285 219.461 193.285C219.461 193.285 230.473 190.226 230.473 184.108Z" fill="url(#paint0_linear_408_28)"/>
<path d="M261.062 174.316C253.473 172.633 246.28 169.496 239.883 165.078C239.883 165.078 245.161 177.983 261.043 180.432L261.062 174.316Z" fill="#DB6F3D"/>
<path d="M302.052 211.638C306.491 221.502 308.782 251.405 308.782 251.405H182.753C182.753 251.405 185.044 221.502 189.482 211.638C193.371 202.998 218.995 193.077 226.504 190.226C230.84 195.076 237.053 198.179 245.767 198.179C254.482 198.179 260.695 195.076 265.031 190.226C272.54 193.077 298.164 202.998 302.052 211.638Z" fill="url(#paint1_linear_408_28)"/>
<mask id="mask1_408_28" style="mask-type:alpha" maskUnits="userSpaceOnUse" x="182" y="190" width="127" height="62">
<path d="M302.052 211.638C306.491 221.502 308.782 251.405 308.782 251.405H182.753C182.753 251.405 185.044 221.502 189.482 211.638C193.371 202.998 218.995 193.077 226.504 190.226C230.84 195.076 237.053 198.179 245.767 198.179C254.482 198.179 260.695 195.076 265.031 190.226C272.54 193.077 298.164 202.998 302.052 211.638Z" fill="url(#paint2_linear_408_28)"/>
</mask>
<g mask="url(#mask1_408_28)">
<path d="M303.276 245.287C303.276 244.561 303.491 243.851 303.894 243.248C304.298 242.644 304.871 242.174 305.542 241.896C306.213 241.618 306.951 241.545 307.663 241.687C308.375 241.829 309.029 242.178 309.542 242.692C310.056 243.205 310.405 243.859 310.547 244.571C310.688 245.283 310.616 246.021 310.338 246.692C310.06 247.363 309.59 247.936 308.986 248.339C308.382 248.743 307.673 248.958 306.947 248.958C305.973 248.958 305.039 248.571 304.351 247.883C303.663 247.194 303.276 246.261 303.276 245.287V245.287ZM278.804 245.287C278.804 244.561 279.019 243.851 279.423 243.248C279.826 242.644 280.399 242.174 281.07 241.896C281.741 241.618 282.479 241.545 283.191 241.687C283.903 241.829 284.557 242.178 285.071 242.692C285.584 243.205 285.933 243.859 286.075 244.571C286.217 245.283 286.144 246.021 285.866 246.692C285.588 247.363 285.118 247.936 284.514 248.339C283.911 248.743 283.201 248.958 282.475 248.958C281.501 248.958 280.568 248.571 279.879 247.883C279.191 247.194 278.804 246.261 278.804 245.287ZM254.332 245.287C254.332 244.561 254.548 243.851 254.951 243.248C255.354 242.644 255.928 242.174 256.598 241.896C257.269 241.618 258.007 241.545 258.719 241.687C259.431 241.829 260.085 242.178 260.599 242.692C261.112 243.205 261.462 243.859 261.603 244.571C261.745 245.283 261.672 246.021 261.394 246.692C261.117 247.363 260.646 247.936 260.043 248.339C259.439 248.743 258.729 248.958 258.003 248.958C257.03 248.958 256.096 248.571 255.408 247.883C254.719 247.194 254.332 246.261 254.332 245.287ZM229.861 245.287C229.861 244.561 230.076 243.851 230.479 243.248C230.883 242.644 231.456 242.174 232.127 241.896C232.797 241.618 233.536 241.545 234.248 241.687C234.96 241.829 235.614 242.178 236.127 242.692C236.64 243.205 236.99 243.859 237.132 244.571C237.273 245.283 237.201 246.021 236.923 246.692C236.645 247.363 236.174 247.936 235.571 248.339C234.967 248.743 234.257 248.958 233.531 248.958C232.558 248.958 231.624 248.571 230.936 247.883C230.247 247.194 229.861 246.261 229.861 245.287ZM205.389 245.287C205.389 244.561 205.604 243.851 206.008 243.248C206.411 242.644 206.984 242.174 207.655 241.896C208.326 241.618 209.064 241.545 209.776 241.687C210.488 241.829 211.142 242.178 211.655 242.692C212.169 243.205 212.518 243.859 212.66 244.571C212.802 245.283 212.729 246.021 212.451 246.692C212.173 247.363 211.703 247.936 211.099 248.339C210.495 248.743 209.786 248.958 209.06 248.958C208.086 248.958 207.152 248.571 206.464 247.883C205.776 247.194 205.389 246.261 205.389 245.287ZM180.917 245.287C180.917 244.561 181.133 243.851 181.536 243.248C181.939 242.644 182.513 242.174 183.183 241.896C183.854 241.618 184.592 241.545 185.304 241.687C186.016 241.829 186.67 242.178 187.184 242.692C187.697 243.205 188.047 243.859 188.188 244.571C188.33 245.283 188.257 246.021 187.979 246.692C187.702 247.363 187.231 247.936 186.627 248.339C186.024 248.743 185.314 248.958 184.588 248.958C183.614 248.958 182.681 248.571 181.992 247.883C181.304 247.194 180.917 246.261 180.917 245.287V245.287ZM291.04 233.051C291.04 232.325 291.255 231.616 291.659 231.012C292.062 230.408 292.635 229.938 293.306 229.66C293.977 229.382 294.715 229.309 295.427 229.451C296.139 229.593 296.793 229.942 297.306 230.456C297.82 230.969 298.169 231.623 298.311 232.335C298.453 233.047 298.38 233.785 298.102 234.456C297.824 235.127 297.354 235.7 296.75 236.103C296.146 236.507 295.437 236.722 294.711 236.722C293.737 236.722 292.804 236.335 292.115 235.647C291.427 234.959 291.04 234.025 291.04 233.051ZM266.568 233.051C266.568 232.325 266.784 231.616 267.187 231.012C267.59 230.408 268.164 229.938 268.834 229.66C269.505 229.382 270.243 229.309 270.955 229.451C271.667 229.593 272.321 229.942 272.835 230.456C273.348 230.969 273.698 231.623 273.839 232.335C273.981 233.047 273.908 233.785 273.63 234.456C273.353 235.127 272.882 235.7 272.278 236.103C271.675 236.507 270.965 236.722 270.239 236.722C269.265 236.722 268.332 236.335 267.643 235.647C266.955 234.959 266.568 234.025 266.568 233.051ZM242.097 233.051C242.097 232.325 242.312 231.616 242.715 231.012C243.119 230.408 243.692 229.938 244.363 229.66C245.033 229.382 245.771 229.309 246.483 229.451C247.195 229.593 247.85 229.942 248.363 230.456C248.876 230.969 249.226 231.623 249.368 232.335C249.509 233.047 249.436 233.785 249.159 234.456C248.881 235.127 248.41 235.7 247.807 236.103C247.203 236.507 246.493 236.722 245.767 236.722C244.794 236.722 243.86 236.335 243.172 235.647C242.483 234.959 242.097 234.025 242.097 233.051V233.051ZM217.625 233.051C217.625 232.325 217.84 231.616 218.243 231.012C218.647 230.408 219.22 229.938 219.891 229.66C220.562 229.382 221.3 229.309 222.012 229.451C222.724 229.593 223.378 229.942 223.891 230.456C224.405 230.969 224.754 231.623 224.896 232.335C225.037 233.047 224.965 233.785 224.687 234.456C224.409 235.127 223.939 235.7 223.335 236.103C222.731 236.507 222.022 236.722 221.296 236.722C220.322 236.722 219.388 236.335 218.7 235.647C218.012 234.959 217.625 234.025 217.625 233.051ZM193.153 233.051C193.153 232.325 193.368 231.616 193.772 231.012C194.175 230.408 194.748 229.938 195.419 229.66C196.09 229.382 196.828 229.309 197.54 229.451C198.252 229.593 198.906 229.942 199.419 230.456C199.933 230.969 200.282 231.623 200.424 232.335C200.566 233.047 200.493 233.785 200.215 234.456C199.937 235.127 199.467 235.7 198.863 236.103C198.26 236.507 197.55 236.722 196.824 236.722C195.85 236.722 194.917 236.335 194.228 235.647C193.54 234.959 193.153 234.025 193.153 233.051ZM303.276 220.815C303.276 220.089 303.491 219.38 303.894 218.776C304.298 218.172 304.871 217.702 305.542 217.424C306.213 217.146 306.951 217.074 307.663 217.215C308.375 217.357 309.029 217.706 309.542 218.22C310.056 218.733 310.405 219.387 310.547 220.099C310.688 220.811 310.616 221.549 310.338 222.22C310.06 222.891 309.59 223.464 308.986 223.868C308.382 224.271 307.673 224.486 306.947 224.486C305.973 224.486 305.039 224.099 304.351 223.411C303.663 222.723 303.276 221.789 303.276 220.815V220.815ZM278.804 220.815C278.804 220.089 279.019 219.38 279.423 218.776C279.826 218.172 280.399 217.702 281.07 217.424C281.741 217.146 282.479 217.074 283.191 217.215C283.903 217.357 284.557 217.706 285.071 218.22C285.584 218.733 285.933 219.387 286.075 220.099C286.217 220.811 286.144 221.549 285.866 222.22C285.588 222.891 285.118 223.464 284.514 223.868C283.911 224.271 283.201 224.486 282.475 224.486C281.501 224.486 280.568 224.099 279.879 223.411C279.191 222.723 278.804 221.789 278.804 220.815ZM254.332 220.815C254.332 220.089 254.548 219.38 254.951 218.776C255.354 218.172 255.928 217.702 256.598 217.424C257.269 217.146 258.007 217.074 258.719 217.215C259.431 217.357 260.085 217.706 260.599 218.22C261.112 218.733 261.462 219.387 261.603 220.099C261.745 220.811 261.672 221.549 261.394 222.22C261.117 222.891 260.646 223.464 260.043 223.868C259.439 224.271 258.729 224.486 258.003 224.486C257.03 224.486 256.096 224.099 255.408 223.411C254.719 222.723 254.332 221.789 254.332 220.815ZM229.861 220.815C229.861 220.089 230.076 219.38 230.479 218.776C230.883 218.172 231.456 217.702 232.127 217.424C232.797 217.146 233.536 217.074 234.248 217.215C234.96 217.357 235.614 217.706 236.127 218.22C236.64 218.733 236.99 219.387 237.132 220.099C237.273 220.811 237.201 221.549 236.923 222.22C236.645 222.891 236.174 223.464 235.571 223.868C234.967 224.271 234.257 224.486 233.531 224.486C232.558 224.486 231.624 224.099 230.936 223.411C230.247 222.723 229.861 221.789 229.861 220.815ZM205.389 220.815C205.389 220.089 205.604 219.38 206.008 218.776C206.411 218.172 206.984 217.702 207.655 217.424C208.326 217.146 209.064 217.074 209.776 217.215C210.488 217.357 211.142 217.706 211.655 218.22C212.169 218.733 212.518 219.387 212.66 220.099C212.802 220.811 212.729 221.549 212.451 222.22C212.173 222.891 211.703 223.464 211.099 223.868C210.495 224.271 209.786 224.486 209.06 224.486C208.086 224.486 207.152 224.099 206.464 223.411C205.776 222.723 205.389 221.789 205.389 220.815ZM180.917 220.815C180.917 220.089 181.133 219.38 181.536 218.776C181.939 218.172 182.513 217.702 183.183 217.424C183.854 217.146 184.592 217.074 185.304 217.215C186.016 217.357 186.67 217.706 187.184 218.22C187.697 218.733 188.047 219.387 188.188 220.099C188.33 220.811 188.257 221.549 187.979 222.22C187.702 222.891 187.231 223.464 186.627 223.868C186.024 224.271 185.314 224.486 184.588 224.486C183.614 224.486 182.681 224.099 181.992 223.411C181.304 222.723 180.917 221.789 180.917 220.815V220.815ZM291.04 208.58C291.04 207.854 291.255 207.144 291.659 206.54C292.062 205.937 292.635 205.466 293.306 205.188C293.977 204.91 294.715 204.838 295.427 204.979C296.139 205.121 296.793 205.471 297.306 205.984C297.82 206.497 298.169 207.151 298.311 207.863C298.453 208.576 298.38 209.314 298.102 209.984C297.824 210.655 297.354 211.228 296.75 211.632C296.146 212.035 295.437 212.25 294.711 212.25C293.737 212.25 292.804 211.864 292.115 211.175C291.427 210.487 291.04 209.553 291.04 208.58ZM266.568 208.58C266.568 207.854 266.784 207.144 267.187 206.54C267.59 205.937 268.164 205.466 268.834 205.188C269.505 204.91 270.243 204.838 270.955 204.979C271.667 205.121 272.321 205.471 272.835 205.984C273.348 206.497 273.698 207.151 273.839 207.863C273.981 208.576 273.908 209.314 273.63 209.984C273.353 210.655 272.882 211.228 272.278 211.632C271.675 212.035 270.965 212.25 270.239 212.25C269.265 212.25 268.332 211.864 267.643 211.175C266.955 210.487 266.568 209.553 266.568 208.58ZM242.097 208.58C242.097 207.854 242.312 207.144 242.715 206.54C243.119 205.937 243.692 205.466 244.363 205.188C245.033 204.91 245.771 204.838 246.483 204.979C247.195 205.121 247.85 205.471 248.363 205.984C248.876 206.497 249.226 207.151 249.368 207.863C249.509 208.576 249.436 209.314 249.159 209.984C248.881 210.655 248.41 211.228 247.807 211.632C247.203 212.035 246.493 212.25 245.767 212.25C244.794 212.25 243.86 211.864 243.172 211.175C242.483 210.487 242.097 209.553 242.097 208.58V208.58ZM217.625 208.58C217.625 207.854 217.84 207.144 218.243 206.54C218.647 205.937 219.22 205.466 219.891 205.188C220.562 204.91 221.3 204.838 222.012 204.979C222.724 205.121 223.378 205.471 223.891 205.984C224.405 206.497 224.754 207.151 224.896 207.863C225.037 208.576 224.965 209.314 224.687 209.984C224.409 210.655 223.939 211.228 223.335 211.632C222.731 212.035 222.022 212.25 221.296 212.25C220.322 212.25 219.388 211.864 218.7 211.175C218.012 210.487 217.625 209.553 217.625 208.58ZM193.153 208.58C193.153 207.854 193.368 207.144 193.772 206.54C194.175 205.937 194.748 205.466 195.419 205.188C196.09 204.91 196.828 204.838 197.54 204.979C198.252 205.121 198.906 205.471 199.419 205.984C199.933 206.497 200.282 207.151 200.424 207.863C200.566 208.576 200.493 209.314 200.215 209.984C199.937 210.655 199.467 211.228 198.863 211.632C198.26 212.035 197.55 212.25 196.824 212.25C195.85 212.25 194.917 211.864 194.228 211.175C193.54 210.487 193.153 209.553 193.153 208.58ZM303.276 196.344C303.276 195.618 303.491 194.908 303.894 194.304C304.298 193.701 304.871 193.23 305.542 192.952C306.213 192.675 306.951 192.602 307.663 192.744C308.375 192.885 309.029 193.235 309.542 193.748C310.056 194.261 310.405 194.916 310.547 195.628C310.688 196.34 310.616 197.078 310.338 197.748C310.06 198.419 309.59 198.993 308.986 199.396C308.382 199.799 307.673 200.014 306.947 200.014C305.973 200.014 305.039 199.628 304.351 198.939C303.663 198.251 303.276 197.317 303.276 196.344V196.344ZM278.804 196.344C278.804 195.618 279.019 194.908 279.423 194.304C279.826 193.701 280.399 193.23 281.07 192.952C281.741 192.675 282.479 192.602 283.191 192.744C283.903 192.885 284.557 193.235 285.071 193.748C285.584 194.261 285.933 194.916 286.075 195.628C286.217 196.34 286.144 197.078 285.866 197.748C285.588 198.419 285.118 198.993 284.514 199.396C283.911 199.799 283.201 200.014 282.475 200.014C281.501 200.014 280.568 199.628 279.879 198.939C279.191 198.251 278.804 197.317 278.804 196.344V196.344ZM205.389 196.344C205.389 195.618 205.604 194.908 206.008 194.304C206.411 193.701 206.984 193.23 207.655 192.952C208.326 192.675 209.064 192.602 209.776 192.744C210.488 192.885 211.142 193.235 211.655 193.748C212.169 194.261 212.518 194.916 212.66 195.628C212.802 196.34 212.729 197.078 212.451 197.748C212.173 198.419 211.703 198.993 211.099 199.396C210.495 199.799 209.786 200.014 209.06 200.014C208.086 200.014 207.152 199.628 206.464 198.939C205.776 198.251 205.389 197.317 205.389 196.344V196.344ZM180.917 196.344C180.917 195.618 181.133 194.908 181.536 194.304C181.939 193.701 182.513 193.23 183.183 192.952C183.854 192.675 184.592 192.602 185.304 192.744C186.016 192.885 186.67 193.235 187.184 193.748C187.697 194.261 188.047 194.916 188.188 195.628C188.33 196.34 188.257 197.078 187.979 197.748C187.702 198.419 187.231 198.993 186.627 199.396C186.024 199.799 185.314 200.014 184.588 200.014C183.614 200.014 182.681 199.628 181.992 198.939C181.304 198.251 180.917 197.317 180.917 196.344V196.344Z" fill="#FFA789"/>
</g>
</g>
<defs>
<linearGradient id="paint0_linear_408_28" x1="249.965" y1="113.752" x2="249.965" y2="211.112" gradientUnits="userSpaceOnUse">
<stop stop-color="#E6864E"/>
<stop offset="1" stop-color="#EB965E"/>
</linearGradient>
<linearGradient id="paint1_linear_408_28" x1="245.767" y1="190.226" x2="245.767" y2="251.405" gradientUnits="userSpaceOnUse">
<stop stop-color="#FECBB5"/>
<stop offset="1" stop-color="#FED4C4"/>
</linearGradient>
<linearGradient id="paint2_linear_408_28" x1="245.767" y1="190.226" x2="245.767" y2="251.405" gradientUnits="userSpaceOnUse">
<stop stop-color="#FECBB5"/>
<stop offset="1" stop-color="#FED4C4"/>
</linearGradient>
</defs>
</svg>
