<svg width="935" height="425" viewBox="0 0 935 425" fill="none" xmlns="http://www.w3.org/2000/svg">
<rect width="935" height="425" fill="#F1FFB7"/>
<mask id="mask0_552_2606" style="mask-type:alpha" maskUnits="userSpaceOnUse" x="0" y="0" width="935" height="425">
<rect width="935" height="425" fill="#F1FFB7"/>
</mask>
<g mask="url(#mask0_552_2606)">
<g filter="url(#filter0_d_552_2606)">
<rect x="492" y="30" width="168.082" height="364.403" rx="8.96439" fill="white" shape-rendering="crispEdges"/>
<rect x="492" y="79" width="168" height="315" fill="#F9F9FF"/>
<rect x="492" y="344" width="168" height="50" fill="#F1F2FF"/>
<rect x="508" y="362" width="136" height="20" fill="#E5E6FC"/>
<rect x="592" y="354" width="52" height="3" fill="#E5E6FC"/>
<rect x="508" y="354" width="39" height="3" fill="#E5E6FC"/>
<rect x="501" y="250" width="150" height="57" fill="#F9F9FF" stroke="#D5D6E5" stroke-width="0.5"/>
<rect x="501" y="185" width="150" height="55" fill="#F9F9FF" stroke="#D5D6E5" stroke-width="0.5"/>
<rect x="501" y="118" width="150" height="57" fill="#F9F9FF" stroke="#D5D6E5" stroke-width="0.5"/>
<rect x="512" y="265" width="18" height="18" rx="3" fill="#F1F2FF" stroke="#D5D6E5" stroke-width="0.5"/>
<rect x="512" y="199" width="18" height="18" rx="3" fill="#F1F2FF" stroke="#D5D6E5" stroke-width="0.5"/>
<rect x="512" y="131" width="18" height="18" rx="3" fill="#F1F2FF" stroke="#D5D6E5" stroke-width="0.5"/>
<rect x="540" y="289" width="94" height="3" fill="#E5E6FC"/>
<rect x="540" y="281" width="71" height="3" fill="#E5E6FC"/>
<rect x="540" y="273" width="94" height="3" fill="#E5E6FC"/>
<rect x="540" y="265" width="71" height="3" fill="#E5E6FC"/>
<rect x="540" y="223" width="94" height="3" fill="#E5E6FC"/>
<rect x="540" y="215" width="71" height="3" fill="#E5E6FC"/>
<rect x="540" y="207" width="94" height="3" fill="#E5E6FC"/>
<rect x="540" y="199" width="71" height="3" fill="#E5E6FC"/>
<rect x="540" y="155" width="94" height="3" fill="#E5E6FC"/>
<rect x="540" y="147" width="71" height="3" fill="#E5E6FC"/>
<rect x="540" y="139" width="94" height="3" fill="#E5E6FC"/>
<rect x="540" y="131" width="71" height="3" fill="#E5E6FC"/>
<rect x="492" y="30" width="168" height="40" fill="#F1F2FF"/>
<path d="M511.166 55H504.083" stroke="#8889A7" stroke-width="0.833333" stroke-linecap="round" stroke-linejoin="round"/>
<path d="M507 57.9167L504.083 55L507 52.0834" stroke="#8889A7" stroke-width="0.833333" stroke-linecap="round" stroke-linejoin="round"/>
<path d="M552.107 52.9172C551.982 52.6662 551.811 52.46 551.65 52.3166C551.462 52.1552 551.094 51.9132 550.449 51.9132C549.328 51.9132 548.701 52.6841 548.701 53.4909C548.701 54.3873 549.427 54.7997 549.92 55.0059L550.493 55.2479C550.888 55.4093 551.354 55.6603 551.354 56.2699C551.354 56.8705 550.924 57.2739 550.368 57.2739C550.009 57.2739 549.758 57.1305 549.588 56.9153C549.445 56.7271 549.337 56.4492 549.337 56.1533L548.432 56.3506C548.468 56.7629 548.611 57.1573 548.934 57.5159C549.238 57.8566 549.651 58.1165 550.341 58.1165C551.462 58.1165 552.268 57.3366 552.268 56.1982C552.268 55.5169 551.964 54.8894 550.861 54.4411L550.26 54.1991C549.678 53.966 549.615 53.6523 549.615 53.473C549.615 53.0875 549.902 52.7558 550.458 52.7558C550.718 52.7558 550.915 52.8186 551.103 52.971C551.238 53.0875 551.318 53.213 551.372 53.3475L552.107 52.9172ZM555.672 56.7271C555.591 56.8705 555.474 57.0229 555.322 57.1394C555.143 57.2739 554.963 57.3277 554.721 57.3277C554.506 57.3277 554.255 57.2918 554.049 57.0856C553.861 56.8974 553.744 56.5926 553.726 56.3237H556.434V56.2161C556.434 55.8217 556.389 55.1224 555.905 54.6204C555.68 54.3873 555.295 54.1274 554.694 54.1274C554.157 54.1274 553.744 54.3246 553.43 54.6384C553.036 55.0417 552.83 55.6065 552.83 56.1892C552.83 56.7539 553.027 57.2739 553.386 57.6325C553.744 57.991 554.157 58.1165 554.659 58.1165C555.062 58.1165 555.465 58.0269 555.77 57.8297C556.012 57.6773 556.245 57.4263 556.407 57.1394L555.672 56.7271ZM553.789 55.6065C553.834 55.4183 553.932 55.239 554.058 55.1224C554.174 55.0059 554.372 54.8804 554.676 54.8804C554.963 54.8804 555.152 54.988 555.268 55.0955C555.403 55.221 555.501 55.4003 555.537 55.6065H553.789ZM560.05 54.3963C559.647 54.1722 559.306 54.1274 559.019 54.1274C558.275 54.1274 557.8 54.3873 557.504 54.6832C557.226 54.9611 556.93 55.4362 556.93 56.1444C556.93 56.8346 557.199 57.2828 557.468 57.5607C557.827 57.9372 558.275 58.1165 558.902 58.1165C559.485 58.1165 559.835 57.9552 560.05 57.8207V56.8436C559.745 57.1842 559.324 57.3277 558.965 57.3277C558.643 57.3277 558.365 57.2111 558.167 57.0229C557.997 56.8526 557.827 56.5567 557.827 56.1175C557.827 55.6962 557.988 55.4093 558.149 55.2479C558.311 55.0866 558.571 54.9162 558.983 54.9162C559.252 54.9162 559.647 54.988 560.05 55.3824V54.3963ZM560.668 54.226V56.4133C560.668 56.8974 560.722 57.3008 561.071 57.6504C561.412 58 561.878 58.1165 562.263 58.1165C562.685 58.1165 563.151 57.991 563.492 57.6504C563.841 57.3008 563.895 56.8974 563.895 56.4133V54.226H563.016V56.3864C563.016 56.6105 563.007 56.8705 562.855 57.0677C562.739 57.2201 562.532 57.3277 562.281 57.3277C562.03 57.3277 561.824 57.2201 561.708 57.0677C561.555 56.8705 561.546 56.6105 561.546 56.3864V54.226H560.668ZM564.786 58H565.664V56.0458C565.664 55.7948 565.664 55.4362 565.906 55.1762C566.077 54.9969 566.265 54.97 566.453 54.97C566.543 54.97 566.704 54.979 566.901 55.1045L567.26 54.3067C567.018 54.1632 566.785 54.1274 566.57 54.1274C566.372 54.1274 566.202 54.1543 566.032 54.2529C565.906 54.3246 565.763 54.4501 565.664 54.5666V54.226H564.786V58ZM569.903 56.7271C569.822 56.8705 569.705 57.0229 569.553 57.1394C569.374 57.2739 569.194 57.3277 568.952 57.3277C568.737 57.3277 568.486 57.2918 568.28 57.0856C568.092 56.8974 567.975 56.5926 567.957 56.3237H570.664V56.2161C570.664 55.8217 570.62 55.1224 570.136 54.6204C569.911 54.3873 569.526 54.1274 568.925 54.1274C568.388 54.1274 567.975 54.3246 567.661 54.6384C567.267 55.0417 567.061 55.6065 567.061 56.1892C567.061 56.7539 567.258 57.2739 567.617 57.6325C567.975 57.991 568.388 58.1165 568.89 58.1165C569.293 58.1165 569.696 58.0269 570.001 57.8297C570.243 57.6773 570.476 57.4263 570.638 57.1394L569.903 56.7271ZM568.02 55.6065C568.065 55.4183 568.163 55.239 568.289 55.1224C568.405 55.0059 568.603 54.8804 568.907 54.8804C569.194 54.8804 569.383 54.988 569.499 55.0955C569.634 55.221 569.732 55.4003 569.768 55.6065H568.02ZM577.816 52.3435C577.297 52.0118 576.768 51.9132 576.221 51.9132C575.396 51.9132 574.679 52.1104 574.06 52.6931C573.558 53.1682 573.101 53.9302 573.101 55.0328C573.101 55.8754 573.361 56.6374 574.06 57.2918C574.41 57.6235 575.091 58.1165 576.176 58.1165C576.588 58.1165 577.216 58.0269 577.816 57.6683V56.5836C577.476 56.9063 576.92 57.2739 576.203 57.2739C574.93 57.2739 574.016 56.2968 574.016 55.0328C574.016 53.715 574.894 52.7558 576.194 52.7558C576.535 52.7558 577.153 52.8186 577.816 53.4192V52.3435ZM578.562 58H579.44V56.1802C579.44 55.6962 579.494 55.4093 579.619 55.23C579.736 55.0597 579.969 54.9162 580.265 54.9162C580.489 54.9162 580.659 55.0059 580.758 55.1135C580.928 55.3017 580.928 55.5438 580.928 55.7679V58H581.807V55.6872C581.807 55.4183 581.798 54.979 581.565 54.6384C581.457 54.486 581.143 54.1274 580.453 54.1274C580.229 54.1274 579.817 54.1632 579.44 54.5487V51.465H578.562V58ZM585.245 56.7271C585.165 56.8705 585.048 57.0229 584.896 57.1394C584.716 57.2739 584.537 57.3277 584.295 57.3277C584.08 57.3277 583.829 57.2918 583.623 57.0856C583.434 56.8974 583.318 56.5926 583.3 56.3237H586.007V56.2161C586.007 55.8217 585.962 55.1224 585.478 54.6204C585.254 54.3873 584.869 54.1274 584.268 54.1274C583.73 54.1274 583.318 54.3246 583.004 54.6384C582.61 55.0417 582.404 55.6065 582.404 56.1892C582.404 56.7539 582.601 57.2739 582.959 57.6325C583.318 57.991 583.73 58.1165 584.232 58.1165C584.636 58.1165 585.039 58.0269 585.344 57.8297C585.586 57.6773 585.819 57.4263 585.98 57.1394L585.245 56.7271ZM583.363 55.6065C583.408 55.4183 583.506 55.239 583.632 55.1224C583.748 55.0059 583.945 54.8804 584.25 54.8804C584.537 54.8804 584.725 54.988 584.842 55.0955C584.976 55.221 585.075 55.4003 585.111 55.6065H583.363ZM589.624 54.3963C589.22 54.1722 588.88 54.1274 588.593 54.1274C587.849 54.1274 587.374 54.3873 587.078 54.6832C586.8 54.9611 586.504 55.4362 586.504 56.1444C586.504 56.8346 586.773 57.2828 587.042 57.5607C587.401 57.9372 587.849 58.1165 588.476 58.1165C589.059 58.1165 589.409 57.9552 589.624 57.8207V56.8436C589.319 57.1842 588.898 57.3277 588.539 57.3277C588.216 57.3277 587.938 57.2111 587.741 57.0229C587.571 56.8526 587.401 56.5567 587.401 56.1175C587.401 55.6962 587.562 55.4093 587.723 55.2479C587.885 55.0866 588.145 54.9162 588.557 54.9162C588.826 54.9162 589.22 54.988 589.624 55.3824V54.3963ZM590.242 51.465V58H591.12V56.5478L591.281 56.3864L592.518 58H593.63L591.891 55.7948L593.514 54.226H592.348L591.12 55.49V51.465H590.242ZM595.707 54.1274C594.568 54.1274 593.69 54.9521 593.69 56.1175C593.69 57.2739 594.568 58.1165 595.707 58.1165C596.845 58.1165 597.724 57.2739 597.724 56.1175C597.724 54.9521 596.845 54.1274 595.707 54.1274ZM595.707 57.3277C595.016 57.3277 594.586 56.8526 594.586 56.1264C594.586 55.2659 595.151 54.9162 595.707 54.9162C596.262 54.9162 596.827 55.2659 596.827 56.1264C596.827 56.8526 596.397 57.3277 595.707 57.3277ZM598.416 54.226V56.4133C598.416 56.8974 598.47 57.3008 598.82 57.6504C599.16 58 599.626 58.1165 600.012 58.1165C600.433 58.1165 600.899 57.991 601.24 57.6504C601.59 57.3008 601.643 56.8974 601.643 56.4133V54.226H600.765V56.3864C600.765 56.6105 600.756 56.8705 600.604 57.0677C600.487 57.2201 600.281 57.3277 600.03 57.3277C599.779 57.3277 599.573 57.2201 599.456 57.0677C599.304 56.8705 599.295 56.6105 599.295 56.3864V54.226H598.416ZM604.112 55.0328V54.226H603.44V52.8455H602.561V54.226H602.194V55.0328H602.561V58H603.44V55.0328H604.112Z" fill="#8889A7"/>
<rect x="501" y="99" width="52" height="3" fill="#E5E6FC"/>
<rect x="501" y="93" width="39" height="3" fill="#E5E6FC"/>
<rect x="612" y="96" width="39" height="3" fill="#E5E6FC"/>
<rect x="489.5" y="27.5" width="173.082" height="369.403" rx="11.4644" stroke="white" stroke-opacity="0.5" stroke-width="5" shape-rendering="crispEdges"/>
</g>
<g filter="url(#filter1_d_552_2606)">
<rect x="274" y="30" width="168.082" height="364.403" rx="8.96439" fill="white" shape-rendering="crispEdges"/>
<rect x="274" y="93" width="168" height="301" fill="#F9F9FF"/>
<rect x="274" y="344" width="168" height="50" fill="#F1F2FF"/>
<rect x="290" y="362" width="136" height="20" fill="#E5E6FC"/>
<rect x="374" y="354" width="52" height="3" fill="#E5E6FC"/>
<rect x="290" y="354" width="39" height="3" fill="#E5E6FC"/>
<rect x="283" y="93" width="47.2358" height="47.0631" fill="#F1F2FF" stroke="#E5E6FC" stroke-width="0.8"/>
<rect x="385.765" y="93" width="47.2358" height="47.0631" fill="#F1F2FF" stroke="#E5E6FC" stroke-width="0.8"/>
<rect x="334.382" y="93" width="47.2358" height="47.0631" fill="#F1F2FF" stroke="#E5E6FC" stroke-width="0.8"/>
<rect x="283" y="314" width="150" height="20" fill="#F9F9FF" stroke="#D5D6E5" stroke-width="0.5"/>
<rect x="283" y="289" width="150" height="20" fill="#F9F9FF" stroke="#D5D6E5" stroke-width="0.5"/>
<rect x="283" y="242" width="150" height="20" fill="#F9F9FF" stroke="#D5D6E5" stroke-width="0.5"/>
<rect x="283" y="217" width="150" height="20" fill="#F9F9FF" stroke="#D5D6E5" stroke-width="0.5"/>
<rect x="283" y="192" width="150" height="20" fill="#F9F9FF" stroke="#D5D6E5" stroke-width="0.5"/>
<rect x="283" y="167" width="150" height="20" fill="#F9F9FF" stroke="#D5D6E5" stroke-width="0.5"/>
<rect x="274" y="30" width="168" height="40" fill="#F1F2FF"/>
<path d="M293.166 55H286.083" stroke="#8889A7" stroke-width="0.833333" stroke-linecap="round" stroke-linejoin="round"/>
<path d="M289 57.9167L286.083 55L289 52.0834" stroke="#8889A7" stroke-width="0.833333" stroke-linecap="round" stroke-linejoin="round"/>
<path d="M334.107 52.9172C333.982 52.6662 333.811 52.46 333.65 52.3166C333.462 52.1552 333.094 51.9132 332.449 51.9132C331.328 51.9132 330.701 52.6841 330.701 53.4909C330.701 54.3873 331.427 54.7997 331.92 55.0059L332.493 55.2479C332.888 55.4093 333.354 55.6603 333.354 56.2699C333.354 56.8705 332.924 57.2739 332.368 57.2739C332.009 57.2739 331.758 57.1305 331.588 56.9153C331.445 56.7271 331.337 56.4492 331.337 56.1533L330.432 56.3506C330.468 56.7629 330.611 57.1573 330.934 57.5159C331.238 57.8566 331.651 58.1165 332.341 58.1165C333.462 58.1165 334.268 57.3366 334.268 56.1982C334.268 55.5169 333.964 54.8894 332.861 54.4411L332.26 54.1991C331.678 53.966 331.615 53.6523 331.615 53.473C331.615 53.0875 331.902 52.7558 332.458 52.7558C332.718 52.7558 332.915 52.8186 333.103 52.971C333.238 53.0875 333.318 53.213 333.372 53.3475L334.107 52.9172ZM337.672 56.7271C337.591 56.8705 337.474 57.0229 337.322 57.1394C337.143 57.2739 336.963 57.3277 336.721 57.3277C336.506 57.3277 336.255 57.2918 336.049 57.0856C335.861 56.8974 335.744 56.5926 335.726 56.3237H338.434V56.2161C338.434 55.8217 338.389 55.1224 337.905 54.6204C337.68 54.3873 337.295 54.1274 336.694 54.1274C336.157 54.1274 335.744 54.3246 335.43 54.6384C335.036 55.0417 334.83 55.6065 334.83 56.1892C334.83 56.7539 335.027 57.2739 335.386 57.6325C335.744 57.991 336.157 58.1165 336.659 58.1165C337.062 58.1165 337.465 58.0269 337.77 57.8297C338.012 57.6773 338.245 57.4263 338.407 57.1394L337.672 56.7271ZM335.789 55.6065C335.834 55.4183 335.932 55.239 336.058 55.1224C336.174 55.0059 336.372 54.8804 336.676 54.8804C336.963 54.8804 337.152 54.988 337.268 55.0955C337.403 55.221 337.501 55.4003 337.537 55.6065H335.789ZM342.05 54.3963C341.647 54.1722 341.306 54.1274 341.019 54.1274C340.275 54.1274 339.8 54.3873 339.504 54.6832C339.226 54.9611 338.93 55.4362 338.93 56.1444C338.93 56.8346 339.199 57.2828 339.468 57.5607C339.827 57.9372 340.275 58.1165 340.902 58.1165C341.485 58.1165 341.835 57.9552 342.05 57.8207V56.8436C341.745 57.1842 341.324 57.3277 340.965 57.3277C340.643 57.3277 340.365 57.2111 340.167 57.0229C339.997 56.8526 339.827 56.5567 339.827 56.1175C339.827 55.6962 339.988 55.4093 340.149 55.2479C340.311 55.0866 340.571 54.9162 340.983 54.9162C341.252 54.9162 341.647 54.988 342.05 55.3824V54.3963ZM342.668 54.226V56.4133C342.668 56.8974 342.722 57.3008 343.071 57.6504C343.412 58 343.878 58.1165 344.263 58.1165C344.685 58.1165 345.151 57.991 345.492 57.6504C345.841 57.3008 345.895 56.8974 345.895 56.4133V54.226H345.016V56.3864C345.016 56.6105 345.007 56.8705 344.855 57.0677C344.739 57.2201 344.532 57.3277 344.281 57.3277C344.03 57.3277 343.824 57.2201 343.708 57.0677C343.555 56.8705 343.546 56.6105 343.546 56.3864V54.226H342.668ZM346.786 58H347.664V56.0458C347.664 55.7948 347.664 55.4362 347.906 55.1762C348.077 54.9969 348.265 54.97 348.453 54.97C348.543 54.97 348.704 54.979 348.901 55.1045L349.26 54.3067C349.018 54.1632 348.785 54.1274 348.57 54.1274C348.372 54.1274 348.202 54.1543 348.032 54.2529C347.906 54.3246 347.763 54.4501 347.664 54.5666V54.226H346.786V58ZM351.903 56.7271C351.822 56.8705 351.705 57.0229 351.553 57.1394C351.374 57.2739 351.194 57.3277 350.952 57.3277C350.737 57.3277 350.486 57.2918 350.28 57.0856C350.092 56.8974 349.975 56.5926 349.957 56.3237H352.664V56.2161C352.664 55.8217 352.62 55.1224 352.136 54.6204C351.911 54.3873 351.526 54.1274 350.925 54.1274C350.388 54.1274 349.975 54.3246 349.661 54.6384C349.267 55.0417 349.061 55.6065 349.061 56.1892C349.061 56.7539 349.258 57.2739 349.617 57.6325C349.975 57.991 350.388 58.1165 350.89 58.1165C351.293 58.1165 351.696 58.0269 352.001 57.8297C352.243 57.6773 352.476 57.4263 352.638 57.1394L351.903 56.7271ZM350.02 55.6065C350.065 55.4183 350.163 55.239 350.289 55.1224C350.405 55.0059 350.603 54.8804 350.907 54.8804C351.194 54.8804 351.383 54.988 351.499 55.0955C351.634 55.221 351.732 55.4003 351.768 55.6065H350.02ZM359.816 52.3435C359.297 52.0118 358.768 51.9132 358.221 51.9132C357.396 51.9132 356.679 52.1104 356.06 52.6931C355.558 53.1682 355.101 53.9302 355.101 55.0328C355.101 55.8754 355.361 56.6374 356.06 57.2918C356.41 57.6235 357.091 58.1165 358.176 58.1165C358.588 58.1165 359.216 58.0269 359.816 57.6683V56.5836C359.476 56.9063 358.92 57.2739 358.203 57.2739C356.93 57.2739 356.016 56.2968 356.016 55.0328C356.016 53.715 356.894 52.7558 358.194 52.7558C358.535 52.7558 359.153 52.8186 359.816 53.4192V52.3435ZM360.562 58H361.44V56.1802C361.44 55.6962 361.494 55.4093 361.619 55.23C361.736 55.0597 361.969 54.9162 362.265 54.9162C362.489 54.9162 362.659 55.0059 362.758 55.1135C362.928 55.3017 362.928 55.5438 362.928 55.7679V58H363.807V55.6872C363.807 55.4183 363.798 54.979 363.565 54.6384C363.457 54.486 363.143 54.1274 362.453 54.1274C362.229 54.1274 361.817 54.1632 361.44 54.5487V51.465H360.562V58ZM367.245 56.7271C367.165 56.8705 367.048 57.0229 366.896 57.1394C366.716 57.2739 366.537 57.3277 366.295 57.3277C366.08 57.3277 365.829 57.2918 365.623 57.0856C365.434 56.8974 365.318 56.5926 365.3 56.3237H368.007V56.2161C368.007 55.8217 367.962 55.1224 367.478 54.6204C367.254 54.3873 366.869 54.1274 366.268 54.1274C365.73 54.1274 365.318 54.3246 365.004 54.6384C364.61 55.0417 364.404 55.6065 364.404 56.1892C364.404 56.7539 364.601 57.2739 364.959 57.6325C365.318 57.991 365.73 58.1165 366.232 58.1165C366.636 58.1165 367.039 58.0269 367.344 57.8297C367.586 57.6773 367.819 57.4263 367.98 57.1394L367.245 56.7271ZM365.363 55.6065C365.408 55.4183 365.506 55.239 365.632 55.1224C365.748 55.0059 365.945 54.8804 366.25 54.8804C366.537 54.8804 366.725 54.988 366.842 55.0955C366.976 55.221 367.075 55.4003 367.111 55.6065H365.363ZM371.624 54.3963C371.22 54.1722 370.88 54.1274 370.593 54.1274C369.849 54.1274 369.374 54.3873 369.078 54.6832C368.8 54.9611 368.504 55.4362 368.504 56.1444C368.504 56.8346 368.773 57.2828 369.042 57.5607C369.401 57.9372 369.849 58.1165 370.476 58.1165C371.059 58.1165 371.409 57.9552 371.624 57.8207V56.8436C371.319 57.1842 370.898 57.3277 370.539 57.3277C370.216 57.3277 369.938 57.2111 369.741 57.0229C369.571 56.8526 369.401 56.5567 369.401 56.1175C369.401 55.6962 369.562 55.4093 369.723 55.2479C369.885 55.0866 370.145 54.9162 370.557 54.9162C370.826 54.9162 371.22 54.988 371.624 55.3824V54.3963ZM372.242 51.465V58H373.12V56.5478L373.281 56.3864L374.518 58H375.63L373.891 55.7948L375.514 54.226H374.348L373.12 55.49V51.465H372.242ZM377.707 54.1274C376.568 54.1274 375.69 54.9521 375.69 56.1175C375.69 57.2739 376.568 58.1165 377.707 58.1165C378.845 58.1165 379.724 57.2739 379.724 56.1175C379.724 54.9521 378.845 54.1274 377.707 54.1274ZM377.707 57.3277C377.016 57.3277 376.586 56.8526 376.586 56.1264C376.586 55.2659 377.151 54.9162 377.707 54.9162C378.262 54.9162 378.827 55.2659 378.827 56.1264C378.827 56.8526 378.397 57.3277 377.707 57.3277ZM380.416 54.226V56.4133C380.416 56.8974 380.47 57.3008 380.82 57.6504C381.16 58 381.626 58.1165 382.012 58.1165C382.433 58.1165 382.899 57.991 383.24 57.6504C383.59 57.3008 383.643 56.8974 383.643 56.4133V54.226H382.765V56.3864C382.765 56.6105 382.756 56.8705 382.604 57.0677C382.487 57.2201 382.281 57.3277 382.03 57.3277C381.779 57.3277 381.573 57.2201 381.456 57.0677C381.304 56.8705 381.295 56.6105 381.295 56.3864V54.226H380.416ZM386.112 55.0328V54.226H385.44V52.8455H384.561V54.226H384.194V55.0328H384.561V58H385.44V55.0328H386.112Z" fill="#8889A7"/>
<rect x="386" y="70" width="56" height="15.68" fill="#F1F2FF"/>
<path d="M402.772 76.9336C402.788 76.6272 403.019 76.4659 403.266 76.4659C403.551 76.4659 403.739 76.6541 403.739 76.939C403.739 77.1863 403.594 77.4282 403.25 77.4282H403.153V77.9336H403.245C403.68 77.9336 403.842 78.2292 403.842 78.4927C403.842 78.7668 403.67 79.0625 403.266 79.0625C402.922 79.0625 402.713 78.8475 402.67 78.5518H401.971C402.03 79.2399 402.573 79.6646 403.261 79.6646C403.971 79.6646 404.54 79.2507 404.54 78.5142C404.54 77.9228 404.137 77.7185 403.992 77.6594C404.368 77.4497 404.406 77.0949 404.406 76.9067C404.406 76.3046 403.971 75.9176 403.282 75.9176C402.67 75.9176 402.18 76.2831 402.116 76.9336H402.772ZM405.155 79.2345C405.155 79.4711 405.338 79.6539 405.575 79.6539C405.811 79.6539 405.994 79.4711 405.994 79.2345C405.994 78.998 405.811 78.8152 405.575 78.8152C405.338 78.8152 405.155 78.998 405.155 79.2345ZM407.915 75.9982V79.584H408.614V78.1432H408.7L409.657 79.584H410.528L409.41 78.0733C409.582 78.0411 409.711 77.9819 409.802 77.9174C410.082 77.7293 410.221 77.4228 410.221 77.0734C410.221 76.8046 410.141 76.4982 409.866 76.267C409.7 76.1272 409.447 75.9982 408.953 75.9982H407.915ZM408.614 76.568H408.824C408.953 76.568 409.501 76.5734 409.501 77.1056C409.501 77.6325 408.947 77.6486 408.813 77.6486H408.614V76.568ZM412.991 75.9982H411.002V79.584H412.991V78.9819H411.701V78.0034H412.937V77.4013H411.701V76.6003H412.991V75.9982ZM413.271 75.9982L414.776 79.584H415.196L416.712 75.9982H415.948L414.991 78.4066L414.035 75.9982H413.271ZM417.129 75.9982V79.584H417.828V75.9982H417.129ZM420.635 75.9982H418.646V79.584H420.635V78.9819H419.345V78.0034H420.581V77.4013H419.345V76.6003H420.635V75.9982ZM423.512 77.3099L424.297 79.584H424.824L426.151 75.9982H425.41L424.549 78.4389L423.721 75.9659H423.334L422.458 78.4389L421.657 75.9982H420.915L422.162 79.584H422.689L423.512 77.3099Z" fill="#D5D6E6"/>
<rect x="386" y="85.2321" width="56" height="0.448" fill="#D5D6E6"/>
<rect x="330" y="70" width="56" height="15.68" fill="#F9F9FF"/>
<path d="M343.7 79.584H346.302V78.9819H345.006L345.624 78.3099C345.904 78.0088 346.275 77.611 346.275 77.0573C346.275 76.4874 345.845 75.9176 345.012 75.9176C344.302 75.9176 343.786 76.3853 343.754 77.1164H344.474C344.485 76.81 344.678 76.5197 345.044 76.5197C345.345 76.5197 345.576 76.7401 345.576 77.0626C345.576 77.2723 345.463 77.4927 345.366 77.6379C345.237 77.8314 344.818 78.3099 344.754 78.3851L343.7 79.584ZM346.917 79.2345C346.917 79.4711 347.099 79.6539 347.336 79.6539C347.572 79.6539 347.755 79.4711 347.755 79.2345C347.755 78.998 347.572 78.8152 347.336 78.8152C347.099 78.8152 346.917 78.998 346.917 79.2345ZM349.676 75.9982V79.584H350.375V78.2561H350.827C351.241 78.2561 351.537 78.1378 351.735 77.9389C352.01 77.6648 352.031 77.2777 352.031 77.1379C352.031 76.8799 351.956 76.5304 351.666 76.2724C351.402 76.0412 351.123 75.9982 350.719 75.9982H349.676ZM350.375 76.6003H350.617C350.784 76.6003 350.967 76.6111 351.112 76.7132C351.214 76.7885 351.311 76.9229 351.311 77.1218C351.311 77.2777 351.246 77.439 351.117 77.5411C350.967 77.654 350.795 77.654 350.66 77.654H350.375V76.6003ZM354.669 79.584H355.421L353.921 75.9982H353.373L351.83 79.584H352.588L352.905 78.8313H354.351L354.669 79.584ZM353.126 78.2615L353.636 76.9712L354.147 78.2615H353.126ZM356.258 79.584H356.957V77.9443L358.22 75.9982H357.392L356.623 77.2454L355.855 75.9982H355.027L356.258 77.9443V79.584ZM358.266 79.584H358.976L359.342 77.3744L360.261 79.584H360.497L361.46 77.3744L361.782 79.584H362.492L361.89 75.9982H361.384L360.39 78.2776L359.438 75.9982H358.933L358.266 79.584ZM365.116 75.9982H363.127V79.584H365.116V78.9819H363.826V78.0034H365.062V77.4013H363.826V76.6003H365.116V75.9982ZM366.493 79.584V77.1863L368.675 79.584H369.159V75.9982H368.46V78.3905L366.278 75.9982H365.794V79.584H366.493ZM371.914 76.6003V75.9982H369.602V76.6003H370.408V79.584H371.107V76.6003H371.914Z" fill="#D5D6E6"/>
<rect x="274" y="70" width="56" height="15.68" fill="#F9F9FF"/>
<path d="M289.996 79.584H290.695V75.9982H289.48V76.6003H289.996V79.584ZM291.774 79.2345C291.774 79.4711 291.957 79.6539 292.193 79.6539C292.43 79.6539 292.612 79.4711 292.612 79.2345C292.612 78.998 292.43 78.8152 292.193 78.8152C291.957 78.8152 291.774 78.998 291.774 79.2345ZM295.071 75.9982V79.584H295.995C296.495 79.584 296.888 79.5356 297.307 79.2399C297.78 78.9066 298.028 78.3905 298.028 77.7938C298.028 77.197 297.775 76.6756 297.339 76.3476C296.942 76.052 296.506 75.9982 296.006 75.9982H295.071ZM295.77 76.6003H295.985C296.221 76.6003 296.576 76.6218 296.866 76.8368C297.151 77.0519 297.307 77.4175 297.307 77.7938C297.307 78.1755 297.146 78.541 296.861 78.7453C296.549 78.9711 296.162 78.9819 295.985 78.9819H295.77V76.6003ZM300.661 75.9982H298.672V79.584H300.661V78.9819H299.371V78.0034H300.608V77.4013H299.371V76.6003H300.661V75.9982ZM301.339 75.9982V79.584H303.146V78.9819H302.038V75.9982H301.339ZM303.628 75.9982V79.584H304.327V75.9982H303.628ZM304.748 75.9982L306.253 79.584H306.672L308.188 75.9982H307.425L306.468 78.4066L305.511 75.9982H304.748ZM310.594 75.9982H308.605V79.584H310.594V78.9819H309.304V78.0034H310.541V77.4013H309.304V76.6003H310.594V75.9982ZM311.272 75.9982V79.584H311.971V78.1432H312.057L313.014 79.584H313.885L312.767 78.0733C312.939 78.0411 313.068 77.9819 313.159 77.9174C313.439 77.7293 313.579 77.4228 313.579 77.0734C313.579 76.8046 313.498 76.4982 313.224 76.267C313.057 76.1272 312.804 75.9982 312.31 75.9982H311.272ZM311.971 76.568H312.181C312.31 76.568 312.858 76.5734 312.858 77.1056C312.858 77.6325 312.304 77.6486 312.17 77.6486H311.971V76.568ZM315.003 79.584H315.702V77.9443L316.965 75.9982H316.137L315.369 77.2454L314.6 75.9982H313.772L315.003 77.9443V79.584Z" fill="#D5D6E6"/>
<rect x="274" y="70" width="168" height="0.448" fill="#F6F6F6"/>
<rect x="283" y="279" width="52" height="3" fill="#E5E6FC"/>
<rect x="283" y="273" width="39" height="3" fill="#E5E6FC"/>
<rect x="283" y="158" width="52" height="3" fill="#E5E6FC"/>
<rect x="283" y="152" width="39" height="3" fill="#E5E6FC"/>
<rect x="394" y="155" width="39" height="3" fill="#E5E6FC"/>
<rect x="271.5" y="27.5" width="173.082" height="369.403" rx="11.4644" stroke="white" stroke-opacity="0.5" stroke-width="5" shape-rendering="crispEdges"/>
</g>
</g>
<defs>
<filter id="filter0_d_552_2606" x="483" y="23" width="186.082" height="382.403" filterUnits="userSpaceOnUse" color-interpolation-filters="sRGB">
<feFlood flood-opacity="0" result="BackgroundImageFix"/>
<feColorMatrix in="SourceAlpha" type="matrix" values="0 0 0 0 0 0 0 0 0 0 0 0 0 0 0 0 0 0 127 0" result="hardAlpha"/>
<feOffset dy="2"/>
<feGaussianBlur stdDeviation="2"/>
<feComposite in2="hardAlpha" operator="out"/>
<feColorMatrix type="matrix" values="0 0 0 0 0 0 0 0 0 0 0 0 0 0 0 0 0 0 0.15 0"/>
<feBlend mode="normal" in2="BackgroundImageFix" result="effect1_dropShadow_552_2606"/>
<feBlend mode="normal" in="SourceGraphic" in2="effect1_dropShadow_552_2606" result="shape"/>
</filter>
<filter id="filter1_d_552_2606" x="265" y="23" width="186.082" height="382.403" filterUnits="userSpaceOnUse" color-interpolation-filters="sRGB">
<feFlood flood-opacity="0" result="BackgroundImageFix"/>
<feColorMatrix in="SourceAlpha" type="matrix" values="0 0 0 0 0 0 0 0 0 0 0 0 0 0 0 0 0 0 127 0" result="hardAlpha"/>
<feOffset dy="2"/>
<feGaussianBlur stdDeviation="2"/>
<feComposite in2="hardAlpha" operator="out"/>
<feColorMatrix type="matrix" values="0 0 0 0 0 0 0 0 0 0 0 0 0 0 0 0 0 0 0.15 0"/>
<feBlend mode="normal" in2="BackgroundImageFix" result="effect1_dropShadow_552_2606"/>
<feBlend mode="normal" in="SourceGraphic" in2="effect1_dropShadow_552_2606" result="shape"/>
</filter>
</defs>
</svg>
