<svg width="80" height="80" viewBox="0 0 80 80" fill="none" xmlns="http://www.w3.org/2000/svg">
<path d="M62.8145 0H17.1855C7.68745 0 0 7.69755 0 17.1855V62.8145C0 72.3125 7.69757 80 17.1855 80H62.8145C72.3024 80 80 72.3024 80 62.8145V17.1855C80 7.68744 72.3126 0 62.8145 0Z" fill="white"/>
<path d="M63.1 71.55L16 39.51V17.77C16 12.78 21.59 9.81998 25.72 12.63L63.1 38.05V71.55Z" fill="url(#paint0_linear_308_94)"/>
<path d="M30.73 61.52L63.09 39.5V23.8299C63.09 16.2599 54.62 11.77 48.35 16.03L16 38.0499V53.72C16 61.3 24.47 65.78 30.73 61.52Z" fill="url(#paint1_linear_308_94)"/>
<path d="M63.1 39.51L39.55 55.53L47.32 60.81L63.1 39.51Z" fill="url(#paint2_linear_308_94)"/>
<path d="M63.1 39.51L39.55 55.53L41.58 56.91L63.1 39.51Z" fill="url(#paint3_linear_308_94)"/>
<path d="M25.72 12.63C21.59 9.81998 16 12.78 16 17.77V38.05L39.55 22.03L25.72 12.63Z" fill="url(#paint4_linear_308_94)"/>
<defs>
<linearGradient id="paint0_linear_308_94" x1="15.9408" y1="15.5007" x2="63.2433" y2="62.1518" gradientUnits="userSpaceOnUse">
<stop stop-color="#E7FF87"/>
<stop offset="0.203125" stop-color="#8FAB00"/>
<stop offset="0.578125" stop-color="#8FAB00"/>
<stop offset="0.760417" stop-color="#797DE1"/>
<stop offset="1" stop-color="#474CCC"/>
</linearGradient>
<linearGradient id="paint1_linear_308_94" x1="71" y1="7.5" x2="-19.5" y2="128.5" gradientUnits="userSpaceOnUse">
<stop stop-color="#EBFF9E"/>
<stop offset="0.2017" stop-color="#B9D93C"/>
<stop offset="0.796875" stop-color="#8FAB00"/>
<stop offset="1" stop-color="#7200FF"/>
</linearGradient>
<linearGradient id="paint2_linear_308_94" x1="68.1387" y1="34.8564" x2="26.6598" y2="74.0003" gradientUnits="userSpaceOnUse">
<stop stop-color="#9A87E0"/>
<stop offset="0.121" stop-color="#A797E4"/>
<stop offset="0.7221" stop-color="#E6E2F7"/>
<stop offset="1" stop-color="white"/>
</linearGradient>
<linearGradient id="paint3_linear_308_94" x1="66.538" y1="33.1602" x2="25.0592" y2="72.3041" gradientUnits="userSpaceOnUse">
<stop stop-color="#9A87E0"/>
<stop offset="0.121" stop-color="#A797E4"/>
<stop offset="0.7221" stop-color="#E6E2F7"/>
<stop offset="1" stop-color="white"/>
</linearGradient>
<linearGradient id="paint4_linear_308_94" x1="30.7076" y1="33.8363" x2="10" y2="1.5" gradientUnits="userSpaceOnUse">
<stop stop-color="#8FAB00"/>
<stop offset="0.3389" stop-color="#B9D93C"/>
<stop offset="0.947917" stop-color="#DEF878"/>
<stop offset="1" stop-color="white"/>
</linearGradient>
</defs>
</svg>
