<svg width="32" height="40" viewBox="0 0 32 40" fill="none" xmlns="http://www.w3.org/2000/svg">
<path d="M4.7002 32.7999C5.7002 33.2999 6.7002 33.5999 7.7002 33.5999C9.0002 33.5999 10.2002 33.1999 11.3002 32.4999L16.4002 28.9999L30.6002 38.6999C30.7002 38.7999 30.8002 38.7999 31.0002 38.7999C31.1002 38.7999 31.2002 38.7999 31.3002 38.6999C31.5002 38.5999 31.6002 38.3999 31.6002 38.0999V18.2999V8.5999C31.6002 6.1999 30.3002 3.9999 28.2002 2.8999C26.0002 1.7999 23.6002 1.8999 21.5002 3.2999L16.4002 6.7999L8.2002 1.1999C7.5002 0.699902 6.7002 0.499902 5.9002 0.399902C5.1002 0.399902 4.3002 0.499902 3.6002 0.899902C2.1002 1.6999 1.2002 3.1999 1.2002 4.8999V17.3999V27.0999C1.2002 29.4999 2.5002 31.6999 4.7002 32.7999ZM17.6002 28.1999L22.3002 24.9999L30.3002 19.4999V36.8999L17.6002 28.1999ZM2.6002 3.9999C2.8002 3.1999 3.4002 2.4999 4.2002 1.9999C4.4002 1.8999 4.7002 1.7999 4.9002 1.6999H5.0002C5.2002 1.5999 5.5002 1.5999 5.7002 1.5999C6.3002 1.5999 6.9002 1.7999 7.5002 2.1999L15.3002 7.4999L10.6002 10.6999L2.6002 16.1999V4.8999C2.5002 4.5999 2.6002 4.2999 2.6002 3.9999ZM2.5002 17.7999L9.5002 13.0999L22.2002 4.3999C23.8002 3.2999 25.8002 3.1999 27.5002 4.0999C29.2002 4.9999 30.3002 6.6999 30.3002 8.6999V17.9999L23.3002 22.6999L10.6002 31.3999C9.0002 32.4999 7.0002 32.5999 5.3002 31.6999C3.6002 30.7999 2.5002 29.0999 2.5002 27.0999V17.7999V17.7999Z" fill="black" stroke="black" stroke-width="0.5" stroke-miterlimit="10"/>
</svg>
