<svg width="46" height="46" viewBox="0 0 46 46" fill="none" xmlns="http://www.w3.org/2000/svg">
<rect x="0.460051" y="0.460051" width="45.0799" height="45.0799" stroke="#2D2D2D" stroke-width="0.920102"/>
<path d="M12.8796 19.9783V35.1632C12.8796 35.3252 13.0111 35.4567 13.1731 35.4567H22.1262C22.3817 35.4567 22.5152 35.1526 22.3423 34.9646L20.3412 32.787C20.1603 32.59 19.8318 32.7183 19.8318 32.9857V33.2376C19.8318 33.3995 19.7003 33.5311 19.5383 33.5311H15.3451C15.1832 33.5311 15.0517 33.3995 15.0517 33.2376V25.1817C15.0517 24.9222 15.3641 24.7903 15.5501 24.9716L26.6524 35.7876C26.8384 35.9689 27.1512 35.8366 27.1508 35.5771L27.1322 23.4287C27.1322 23.3505 27.101 23.2758 27.0453 23.2205L25.4518 21.6405C25.2666 21.4568 24.9519 21.588 24.9519 21.849V30.3938C24.9519 30.6537 24.6391 30.7852 24.4531 30.6035L13.3784 19.7686C13.1924 19.5869 12.8796 19.7184 12.8796 19.9783Z" fill="#2D2D2D"/>
<path d="M33.1203 25.9762V10.8248C33.1203 10.6573 32.9845 10.5215 32.817 10.5215H23.8963C23.6321 10.5215 23.4942 10.8355 23.6727 11.0302L25.6414 13.1726C25.8286 13.376 26.1682 13.2437 26.1682 12.9672V12.7504C26.1682 12.583 26.3041 12.4471 26.4715 12.4471H30.645C30.8124 12.4471 30.9483 12.583 30.9483 12.7504V20.7732C30.9483 21.0413 30.6256 21.1776 30.4333 20.9904L19.3646 10.2071C19.1723 10.0196 18.8492 10.1562 18.8496 10.4247L18.8682 22.5459C18.8682 22.6265 18.9006 22.7039 18.9578 22.7608L20.5316 24.3215C20.7231 24.5114 21.0485 24.3756 21.0485 24.1063V15.6084C21.0485 15.3399 21.3719 15.2036 21.5639 15.3916L32.6046 26.1934C32.7969 26.381 33.1203 26.2451 33.1203 25.9762Z" fill="#2D2D2D"/>
</svg>
