<svg width="46" height="46" viewBox="0 0 46 46" fill="none" xmlns="http://www.w3.org/2000/svg">
<rect x="0.6" y="0.6" width="44.8" height="44.8" rx="9.4" stroke="#2D2D2D" stroke-width="1.2"/>
<path d="M15.3026 32.3158C15.9605 32.6447 16.6184 32.8421 17.2763 32.8421C18.1316 32.8421 18.9211 32.579 19.6447 32.1184L23 29.8158L32.3421 36.1974C32.4079 36.2632 32.4737 36.2632 32.6053 36.2632C32.6711 36.2632 32.7368 36.2632 32.8026 36.1974C32.9342 36.1316 33 36 33 35.8026V22.7763V16.3947C33 14.8158 32.1447 13.3684 30.7632 12.6447C29.3158 11.9211 27.7368 11.9868 26.3553 12.9079L23 15.2105L17.6053 11.5263C17.1447 11.1974 16.6184 11.0658 16.0921 11C15.5658 11 15.0395 11.0658 14.5789 11.3289C13.5921 11.8553 13 12.8421 13 13.9605V22.1842V28.5658C13 30.1447 13.8553 31.5921 15.3026 32.3158ZM23.7895 29.2895L26.8816 27.1842L32.1447 23.5658V35.0132L23.7895 29.2895ZM13.9211 13.3684C14.0526 12.8421 14.4474 12.3816 14.9737 12.0526C15.1053 11.9868 15.3026 11.9211 15.4342 11.8553H15.5C15.6316 11.7895 15.8289 11.7895 15.9605 11.7895C16.3553 11.7895 16.75 11.9211 17.1447 12.1842L22.2763 15.6711L19.1842 17.7763L13.9211 21.3947V13.9605C13.8553 13.7632 13.9211 13.5658 13.9211 13.3684ZM13.8553 22.4474L18.4605 19.3553L26.8158 13.6316C27.8684 12.9079 29.1842 12.8421 30.3026 13.4342C31.4211 14.0263 32.1447 15.1447 32.1447 16.4605V22.5789L27.5395 25.6711L19.1842 31.3947C18.1316 32.1184 16.8158 32.1842 15.6974 31.5921C14.5789 31 13.8553 29.8816 13.8553 28.5658V22.4474Z" fill="#2D2D2D" stroke="#2D2D2D" stroke-width="0.8" stroke-miterlimit="10"/>
</svg>
