<svg width="643" height="451" viewBox="0 0 643 451" fill="none" xmlns="http://www.w3.org/2000/svg">
<rect width="643" height="451" fill="#F1FFB7"/>
<mask id="mask0_565_2880" style="mask-type:alpha" maskUnits="userSpaceOnUse" x="0" y="0" width="643" height="451">
<rect width="643" height="451" fill="#F1FFB7"/>
</mask>
<g mask="url(#mask0_565_2880)">
<g filter="url(#filter0_d_565_2880)">
<rect x="346" y="43" width="168.082" height="364.403" rx="8.96439" fill="white" shape-rendering="crispEdges"/>
<rect x="346" y="92" width="168" height="315" fill="#F9F9FF"/>
<rect x="346" y="357" width="168" height="50" fill="#F1F2FF"/>
<rect x="362" y="375" width="136" height="20" fill="#E5E6FC"/>
<rect x="446" y="367" width="52" height="3" fill="#E5E6FC"/>
<rect x="362" y="367" width="39" height="3" fill="#E5E6FC"/>
<rect x="355" y="263" width="150" height="57" fill="#F9F9FF" stroke="#D5D6E5" stroke-width="0.5"/>
<rect x="355" y="198" width="150" height="55" fill="#F9F9FF" stroke="#D5D6E5" stroke-width="0.5"/>
<rect x="355" y="131" width="150" height="57" fill="#F9F9FF" stroke="#D5D6E5" stroke-width="0.5"/>
<rect x="366" y="278" width="18" height="18" rx="3" fill="#F1F2FF" stroke="#D5D6E5" stroke-width="0.5"/>
<rect x="366" y="212" width="18" height="18" rx="3" fill="#F1F2FF" stroke="#D5D6E5" stroke-width="0.5"/>
<rect x="366" y="144" width="18" height="18" rx="3" fill="#F1F2FF" stroke="#D5D6E5" stroke-width="0.5"/>
<rect x="394" y="302" width="94" height="3" fill="#E5E6FC"/>
<rect x="394" y="294" width="71" height="3" fill="#E5E6FC"/>
<rect x="394" y="286" width="94" height="3" fill="#E5E6FC"/>
<rect x="394" y="278" width="71" height="3" fill="#E5E6FC"/>
<rect x="394" y="236" width="94" height="3" fill="#E5E6FC"/>
<rect x="394" y="228" width="71" height="3" fill="#E5E6FC"/>
<rect x="394" y="220" width="94" height="3" fill="#E5E6FC"/>
<rect x="394" y="212" width="71" height="3" fill="#E5E6FC"/>
<rect x="394" y="168" width="94" height="3" fill="#E5E6FC"/>
<rect x="394" y="160" width="71" height="3" fill="#E5E6FC"/>
<rect x="394" y="152" width="94" height="3" fill="#E5E6FC"/>
<rect x="394" y="144" width="71" height="3" fill="#E5E6FC"/>
<rect x="346" y="43" width="168" height="40" fill="#F1F2FF"/>
<path d="M365.166 68H358.083" stroke="#8889A7" stroke-width="0.833333" stroke-linecap="round" stroke-linejoin="round"/>
<path d="M361 70.9167L358.083 68L361 65.0834" stroke="#8889A7" stroke-width="0.833333" stroke-linecap="round" stroke-linejoin="round"/>
<path d="M406.107 65.9172C405.982 65.6662 405.811 65.46 405.65 65.3166C405.462 65.1552 405.094 64.9132 404.449 64.9132C403.328 64.9132 402.701 65.6841 402.701 66.4909C402.701 67.3873 403.427 67.7997 403.92 68.0059L404.493 68.2479C404.888 68.4093 405.354 68.6603 405.354 69.2699C405.354 69.8705 404.924 70.2739 404.368 70.2739C404.009 70.2739 403.758 70.1305 403.588 69.9153C403.445 69.7271 403.337 69.4492 403.337 69.1533L402.432 69.3506C402.468 69.7629 402.611 70.1573 402.934 70.5159C403.238 70.8566 403.651 71.1165 404.341 71.1165C405.462 71.1165 406.268 70.3366 406.268 69.1982C406.268 68.5169 405.964 67.8894 404.861 67.4411L404.26 67.1991C403.678 66.966 403.615 66.6523 403.615 66.473C403.615 66.0875 403.902 65.7558 404.458 65.7558C404.718 65.7558 404.915 65.8186 405.103 65.971C405.238 66.0875 405.318 66.213 405.372 66.3475L406.107 65.9172ZM409.672 69.7271C409.591 69.8705 409.474 70.0229 409.322 70.1394C409.143 70.2739 408.963 70.3277 408.721 70.3277C408.506 70.3277 408.255 70.2918 408.049 70.0856C407.861 69.8974 407.744 69.5926 407.726 69.3237H410.434V69.2161C410.434 68.8217 410.389 68.1224 409.905 67.6204C409.68 67.3873 409.295 67.1274 408.694 67.1274C408.157 67.1274 407.744 67.3246 407.43 67.6384C407.036 68.0417 406.83 68.6065 406.83 69.1892C406.83 69.7539 407.027 70.2739 407.386 70.6325C407.744 70.991 408.157 71.1165 408.659 71.1165C409.062 71.1165 409.465 71.0269 409.77 70.8297C410.012 70.6773 410.245 70.4263 410.407 70.1394L409.672 69.7271ZM407.789 68.6065C407.834 68.4183 407.932 68.239 408.058 68.1224C408.174 68.0059 408.372 67.8804 408.676 67.8804C408.963 67.8804 409.152 67.988 409.268 68.0955C409.403 68.221 409.501 68.4003 409.537 68.6065H407.789ZM414.05 67.3963C413.647 67.1722 413.306 67.1274 413.019 67.1274C412.275 67.1274 411.8 67.3873 411.504 67.6832C411.226 67.9611 410.93 68.4362 410.93 69.1444C410.93 69.8346 411.199 70.2828 411.468 70.5607C411.827 70.9372 412.275 71.1165 412.902 71.1165C413.485 71.1165 413.835 70.9552 414.05 70.8207V69.8436C413.745 70.1842 413.324 70.3277 412.965 70.3277C412.643 70.3277 412.365 70.2111 412.167 70.0229C411.997 69.8526 411.827 69.5567 411.827 69.1175C411.827 68.6962 411.988 68.4093 412.149 68.2479C412.311 68.0866 412.571 67.9162 412.983 67.9162C413.252 67.9162 413.647 67.988 414.05 68.3824V67.3963ZM414.668 67.226V69.4133C414.668 69.8974 414.722 70.3008 415.071 70.6504C415.412 71 415.878 71.1165 416.263 71.1165C416.685 71.1165 417.151 70.991 417.492 70.6504C417.841 70.3008 417.895 69.8974 417.895 69.4133V67.226H417.016V69.3864C417.016 69.6105 417.007 69.8705 416.855 70.0677C416.739 70.2201 416.532 70.3277 416.281 70.3277C416.03 70.3277 415.824 70.2201 415.708 70.0677C415.555 69.8705 415.546 69.6105 415.546 69.3864V67.226H414.668ZM418.786 71H419.664V69.0458C419.664 68.7948 419.664 68.4362 419.906 68.1762C420.077 67.9969 420.265 67.97 420.453 67.97C420.543 67.97 420.704 67.979 420.901 68.1045L421.26 67.3067C421.018 67.1632 420.785 67.1274 420.57 67.1274C420.372 67.1274 420.202 67.1543 420.032 67.2529C419.906 67.3246 419.763 67.4501 419.664 67.5666V67.226H418.786V71ZM423.903 69.7271C423.822 69.8705 423.705 70.0229 423.553 70.1394C423.374 70.2739 423.194 70.3277 422.952 70.3277C422.737 70.3277 422.486 70.2918 422.28 70.0856C422.092 69.8974 421.975 69.5926 421.957 69.3237H424.664V69.2161C424.664 68.8217 424.62 68.1224 424.136 67.6204C423.911 67.3873 423.526 67.1274 422.925 67.1274C422.388 67.1274 421.975 67.3246 421.661 67.6384C421.267 68.0417 421.061 68.6065 421.061 69.1892C421.061 69.7539 421.258 70.2739 421.617 70.6325C421.975 70.991 422.388 71.1165 422.89 71.1165C423.293 71.1165 423.696 71.0269 424.001 70.8297C424.243 70.6773 424.476 70.4263 424.638 70.1394L423.903 69.7271ZM422.02 68.6065C422.065 68.4183 422.163 68.239 422.289 68.1224C422.405 68.0059 422.603 67.8804 422.907 67.8804C423.194 67.8804 423.383 67.988 423.499 68.0955C423.634 68.221 423.732 68.4003 423.768 68.6065H422.02ZM431.816 65.3435C431.297 65.0118 430.768 64.9132 430.221 64.9132C429.396 64.9132 428.679 65.1104 428.06 65.6931C427.558 66.1682 427.101 66.9302 427.101 68.0328C427.101 68.8754 427.361 69.6374 428.06 70.2918C428.41 70.6235 429.091 71.1165 430.176 71.1165C430.588 71.1165 431.216 71.0269 431.816 70.6683V69.5836C431.476 69.9063 430.92 70.2739 430.203 70.2739C428.93 70.2739 428.016 69.2968 428.016 68.0328C428.016 66.715 428.894 65.7558 430.194 65.7558C430.535 65.7558 431.153 65.8186 431.816 66.4192V65.3435ZM432.562 71H433.44V69.1802C433.44 68.6962 433.494 68.4093 433.619 68.23C433.736 68.0597 433.969 67.9162 434.265 67.9162C434.489 67.9162 434.659 68.0059 434.758 68.1135C434.928 68.3017 434.928 68.5438 434.928 68.7679V71H435.807V68.6872C435.807 68.4183 435.798 67.979 435.565 67.6384C435.457 67.486 435.143 67.1274 434.453 67.1274C434.229 67.1274 433.817 67.1632 433.44 67.5487V64.465H432.562V71ZM439.245 69.7271C439.165 69.8705 439.048 70.0229 438.896 70.1394C438.716 70.2739 438.537 70.3277 438.295 70.3277C438.08 70.3277 437.829 70.2918 437.623 70.0856C437.434 69.8974 437.318 69.5926 437.3 69.3237H440.007V69.2161C440.007 68.8217 439.962 68.1224 439.478 67.6204C439.254 67.3873 438.869 67.1274 438.268 67.1274C437.73 67.1274 437.318 67.3246 437.004 67.6384C436.61 68.0417 436.404 68.6065 436.404 69.1892C436.404 69.7539 436.601 70.2739 436.959 70.6325C437.318 70.991 437.73 71.1165 438.232 71.1165C438.636 71.1165 439.039 71.0269 439.344 70.8297C439.586 70.6773 439.819 70.4263 439.98 70.1394L439.245 69.7271ZM437.363 68.6065C437.408 68.4183 437.506 68.239 437.632 68.1224C437.748 68.0059 437.945 67.8804 438.25 67.8804C438.537 67.8804 438.725 67.988 438.842 68.0955C438.976 68.221 439.075 68.4003 439.111 68.6065H437.363ZM443.624 67.3963C443.22 67.1722 442.88 67.1274 442.593 67.1274C441.849 67.1274 441.374 67.3873 441.078 67.6832C440.8 67.9611 440.504 68.4362 440.504 69.1444C440.504 69.8346 440.773 70.2828 441.042 70.5607C441.401 70.9372 441.849 71.1165 442.476 71.1165C443.059 71.1165 443.409 70.9552 443.624 70.8207V69.8436C443.319 70.1842 442.898 70.3277 442.539 70.3277C442.216 70.3277 441.938 70.2111 441.741 70.0229C441.571 69.8526 441.401 69.5567 441.401 69.1175C441.401 68.6962 441.562 68.4093 441.723 68.2479C441.885 68.0866 442.145 67.9162 442.557 67.9162C442.826 67.9162 443.22 67.988 443.624 68.3824V67.3963ZM444.242 64.465V71H445.12V69.5478L445.281 69.3864L446.518 71H447.63L445.891 68.7948L447.514 67.226H446.348L445.12 68.49V64.465H444.242ZM449.707 67.1274C448.568 67.1274 447.69 67.9521 447.69 69.1175C447.69 70.2739 448.568 71.1165 449.707 71.1165C450.845 71.1165 451.724 70.2739 451.724 69.1175C451.724 67.9521 450.845 67.1274 449.707 67.1274ZM449.707 70.3277C449.016 70.3277 448.586 69.8526 448.586 69.1264C448.586 68.2659 449.151 67.9162 449.707 67.9162C450.262 67.9162 450.827 68.2659 450.827 69.1264C450.827 69.8526 450.397 70.3277 449.707 70.3277ZM452.416 67.226V69.4133C452.416 69.8974 452.47 70.3008 452.82 70.6504C453.16 71 453.626 71.1165 454.012 71.1165C454.433 71.1165 454.899 70.991 455.24 70.6504C455.59 70.3008 455.643 69.8974 455.643 69.4133V67.226H454.765V69.3864C454.765 69.6105 454.756 69.8705 454.604 70.0677C454.487 70.2201 454.281 70.3277 454.03 70.3277C453.779 70.3277 453.573 70.2201 453.456 70.0677C453.304 69.8705 453.295 69.6105 453.295 69.3864V67.226H452.416ZM458.112 68.0328V67.226H457.44V65.8455H456.561V67.226H456.194V68.0328H456.561V71H457.44V68.0328H458.112Z" fill="#8889A7"/>
<rect x="355" y="112" width="52" height="3" fill="#E5E6FC"/>
<rect x="355" y="106" width="39" height="3" fill="#E5E6FC"/>
<rect x="466" y="109" width="39" height="3" fill="#E5E6FC"/>
<rect x="343.5" y="40.5" width="173.082" height="369.403" rx="11.4644" stroke="white" stroke-opacity="0.5" stroke-width="5" shape-rendering="crispEdges"/>
</g>
<g filter="url(#filter1_d_565_2880)">
<rect x="128" y="43" width="168.082" height="364.403" rx="8.96439" fill="white" shape-rendering="crispEdges"/>
<rect x="128" y="106" width="168" height="301" fill="#F9F9FF"/>
<rect x="128" y="357" width="168" height="50" fill="#F1F2FF"/>
<rect x="144" y="375" width="136" height="20" fill="#E5E6FC"/>
<rect x="228" y="367" width="52" height="3" fill="#E5E6FC"/>
<rect x="144" y="367" width="39" height="3" fill="#E5E6FC"/>
<rect x="137" y="106" width="47.2358" height="47.0631" fill="#F1F2FF" stroke="#E5E6FC" stroke-width="0.8"/>
<rect x="239.765" y="106" width="47.2358" height="47.0631" fill="#F1F2FF" stroke="#E5E6FC" stroke-width="0.8"/>
<rect x="188.382" y="106" width="47.2358" height="47.0631" fill="#F1F2FF" stroke="#E5E6FC" stroke-width="0.8"/>
<rect x="137" y="327" width="150" height="20" fill="#F9F9FF" stroke="#D5D6E5" stroke-width="0.5"/>
<rect x="137" y="302" width="150" height="20" fill="#F9F9FF" stroke="#D5D6E5" stroke-width="0.5"/>
<rect x="137" y="255" width="150" height="20" fill="#F9F9FF" stroke="#D5D6E5" stroke-width="0.5"/>
<rect x="137" y="230" width="150" height="20" fill="#F9F9FF" stroke="#D5D6E5" stroke-width="0.5"/>
<rect x="137" y="205" width="150" height="20" fill="#F9F9FF" stroke="#D5D6E5" stroke-width="0.5"/>
<rect x="137" y="180" width="150" height="20" fill="#F9F9FF" stroke="#D5D6E5" stroke-width="0.5"/>
<rect x="128" y="43" width="168" height="40" fill="#F1F2FF"/>
<path d="M147.166 68H140.083" stroke="#8889A7" stroke-width="0.833333" stroke-linecap="round" stroke-linejoin="round"/>
<path d="M143 70.9167L140.083 68L143 65.0834" stroke="#8889A7" stroke-width="0.833333" stroke-linecap="round" stroke-linejoin="round"/>
<path d="M188.107 65.9172C187.982 65.6662 187.811 65.46 187.65 65.3166C187.462 65.1552 187.094 64.9132 186.449 64.9132C185.328 64.9132 184.701 65.6841 184.701 66.4909C184.701 67.3873 185.427 67.7997 185.92 68.0059L186.493 68.2479C186.888 68.4093 187.354 68.6603 187.354 69.2699C187.354 69.8705 186.924 70.2739 186.368 70.2739C186.009 70.2739 185.758 70.1305 185.588 69.9153C185.445 69.7271 185.337 69.4492 185.337 69.1533L184.432 69.3506C184.468 69.7629 184.611 70.1573 184.934 70.5159C185.238 70.8566 185.651 71.1165 186.341 71.1165C187.462 71.1165 188.268 70.3366 188.268 69.1982C188.268 68.5169 187.964 67.8894 186.861 67.4411L186.26 67.1991C185.678 66.966 185.615 66.6523 185.615 66.473C185.615 66.0875 185.902 65.7558 186.458 65.7558C186.718 65.7558 186.915 65.8186 187.103 65.971C187.238 66.0875 187.318 66.213 187.372 66.3475L188.107 65.9172ZM191.672 69.7271C191.591 69.8705 191.474 70.0229 191.322 70.1394C191.143 70.2739 190.963 70.3277 190.721 70.3277C190.506 70.3277 190.255 70.2918 190.049 70.0856C189.861 69.8974 189.744 69.5926 189.726 69.3237H192.434V69.2161C192.434 68.8217 192.389 68.1224 191.905 67.6204C191.68 67.3873 191.295 67.1274 190.694 67.1274C190.157 67.1274 189.744 67.3246 189.43 67.6384C189.036 68.0417 188.83 68.6065 188.83 69.1892C188.83 69.7539 189.027 70.2739 189.386 70.6325C189.744 70.991 190.157 71.1165 190.659 71.1165C191.062 71.1165 191.465 71.0269 191.77 70.8297C192.012 70.6773 192.245 70.4263 192.407 70.1394L191.672 69.7271ZM189.789 68.6065C189.834 68.4183 189.932 68.239 190.058 68.1224C190.174 68.0059 190.372 67.8804 190.676 67.8804C190.963 67.8804 191.152 67.988 191.268 68.0955C191.403 68.221 191.501 68.4003 191.537 68.6065H189.789ZM196.05 67.3963C195.647 67.1722 195.306 67.1274 195.019 67.1274C194.275 67.1274 193.8 67.3873 193.504 67.6832C193.226 67.9611 192.93 68.4362 192.93 69.1444C192.93 69.8346 193.199 70.2828 193.468 70.5607C193.827 70.9372 194.275 71.1165 194.902 71.1165C195.485 71.1165 195.835 70.9552 196.05 70.8207V69.8436C195.745 70.1842 195.324 70.3277 194.965 70.3277C194.643 70.3277 194.365 70.2111 194.167 70.0229C193.997 69.8526 193.827 69.5567 193.827 69.1175C193.827 68.6962 193.988 68.4093 194.149 68.2479C194.311 68.0866 194.571 67.9162 194.983 67.9162C195.252 67.9162 195.647 67.988 196.05 68.3824V67.3963ZM196.668 67.226V69.4133C196.668 69.8974 196.722 70.3008 197.071 70.6504C197.412 71 197.878 71.1165 198.263 71.1165C198.685 71.1165 199.151 70.991 199.492 70.6504C199.841 70.3008 199.895 69.8974 199.895 69.4133V67.226H199.016V69.3864C199.016 69.6105 199.007 69.8705 198.855 70.0677C198.739 70.2201 198.532 70.3277 198.281 70.3277C198.03 70.3277 197.824 70.2201 197.708 70.0677C197.555 69.8705 197.546 69.6105 197.546 69.3864V67.226H196.668ZM200.786 71H201.664V69.0458C201.664 68.7948 201.664 68.4362 201.906 68.1762C202.077 67.9969 202.265 67.97 202.453 67.97C202.543 67.97 202.704 67.979 202.901 68.1045L203.26 67.3067C203.018 67.1632 202.785 67.1274 202.57 67.1274C202.372 67.1274 202.202 67.1543 202.032 67.2529C201.906 67.3246 201.763 67.4501 201.664 67.5666V67.226H200.786V71ZM205.903 69.7271C205.822 69.8705 205.705 70.0229 205.553 70.1394C205.374 70.2739 205.194 70.3277 204.952 70.3277C204.737 70.3277 204.486 70.2918 204.28 70.0856C204.092 69.8974 203.975 69.5926 203.957 69.3237H206.664V69.2161C206.664 68.8217 206.62 68.1224 206.136 67.6204C205.911 67.3873 205.526 67.1274 204.925 67.1274C204.388 67.1274 203.975 67.3246 203.661 67.6384C203.267 68.0417 203.061 68.6065 203.061 69.1892C203.061 69.7539 203.258 70.2739 203.617 70.6325C203.975 70.991 204.388 71.1165 204.89 71.1165C205.293 71.1165 205.696 71.0269 206.001 70.8297C206.243 70.6773 206.476 70.4263 206.638 70.1394L205.903 69.7271ZM204.02 68.6065C204.065 68.4183 204.163 68.239 204.289 68.1224C204.405 68.0059 204.603 67.8804 204.907 67.8804C205.194 67.8804 205.383 67.988 205.499 68.0955C205.634 68.221 205.732 68.4003 205.768 68.6065H204.02ZM213.816 65.3435C213.297 65.0118 212.768 64.9132 212.221 64.9132C211.396 64.9132 210.679 65.1104 210.06 65.6931C209.558 66.1682 209.101 66.9302 209.101 68.0328C209.101 68.8754 209.361 69.6374 210.06 70.2918C210.41 70.6235 211.091 71.1165 212.176 71.1165C212.588 71.1165 213.216 71.0269 213.816 70.6683V69.5836C213.476 69.9063 212.92 70.2739 212.203 70.2739C210.93 70.2739 210.016 69.2968 210.016 68.0328C210.016 66.715 210.894 65.7558 212.194 65.7558C212.535 65.7558 213.153 65.8186 213.816 66.4192V65.3435ZM214.562 71H215.44V69.1802C215.44 68.6962 215.494 68.4093 215.619 68.23C215.736 68.0597 215.969 67.9162 216.265 67.9162C216.489 67.9162 216.659 68.0059 216.758 68.1135C216.928 68.3017 216.928 68.5438 216.928 68.7679V71H217.807V68.6872C217.807 68.4183 217.798 67.979 217.565 67.6384C217.457 67.486 217.143 67.1274 216.453 67.1274C216.229 67.1274 215.817 67.1632 215.44 67.5487V64.465H214.562V71ZM221.245 69.7271C221.165 69.8705 221.048 70.0229 220.896 70.1394C220.716 70.2739 220.537 70.3277 220.295 70.3277C220.08 70.3277 219.829 70.2918 219.623 70.0856C219.434 69.8974 219.318 69.5926 219.3 69.3237H222.007V69.2161C222.007 68.8217 221.962 68.1224 221.478 67.6204C221.254 67.3873 220.869 67.1274 220.268 67.1274C219.73 67.1274 219.318 67.3246 219.004 67.6384C218.61 68.0417 218.404 68.6065 218.404 69.1892C218.404 69.7539 218.601 70.2739 218.959 70.6325C219.318 70.991 219.73 71.1165 220.232 71.1165C220.636 71.1165 221.039 71.0269 221.344 70.8297C221.586 70.6773 221.819 70.4263 221.98 70.1394L221.245 69.7271ZM219.363 68.6065C219.408 68.4183 219.506 68.239 219.632 68.1224C219.748 68.0059 219.945 67.8804 220.25 67.8804C220.537 67.8804 220.725 67.988 220.842 68.0955C220.976 68.221 221.075 68.4003 221.111 68.6065H219.363ZM225.624 67.3963C225.22 67.1722 224.88 67.1274 224.593 67.1274C223.849 67.1274 223.374 67.3873 223.078 67.6832C222.8 67.9611 222.504 68.4362 222.504 69.1444C222.504 69.8346 222.773 70.2828 223.042 70.5607C223.401 70.9372 223.849 71.1165 224.476 71.1165C225.059 71.1165 225.409 70.9552 225.624 70.8207V69.8436C225.319 70.1842 224.898 70.3277 224.539 70.3277C224.216 70.3277 223.938 70.2111 223.741 70.0229C223.571 69.8526 223.401 69.5567 223.401 69.1175C223.401 68.6962 223.562 68.4093 223.723 68.2479C223.885 68.0866 224.145 67.9162 224.557 67.9162C224.826 67.9162 225.22 67.988 225.624 68.3824V67.3963ZM226.242 64.465V71H227.12V69.5478L227.281 69.3864L228.518 71H229.63L227.891 68.7948L229.514 67.226H228.348L227.12 68.49V64.465H226.242ZM231.707 67.1274C230.568 67.1274 229.69 67.9521 229.69 69.1175C229.69 70.2739 230.568 71.1165 231.707 71.1165C232.845 71.1165 233.724 70.2739 233.724 69.1175C233.724 67.9521 232.845 67.1274 231.707 67.1274ZM231.707 70.3277C231.016 70.3277 230.586 69.8526 230.586 69.1264C230.586 68.2659 231.151 67.9162 231.707 67.9162C232.262 67.9162 232.827 68.2659 232.827 69.1264C232.827 69.8526 232.397 70.3277 231.707 70.3277ZM234.416 67.226V69.4133C234.416 69.8974 234.47 70.3008 234.82 70.6504C235.16 71 235.626 71.1165 236.012 71.1165C236.433 71.1165 236.899 70.991 237.24 70.6504C237.59 70.3008 237.643 69.8974 237.643 69.4133V67.226H236.765V69.3864C236.765 69.6105 236.756 69.8705 236.604 70.0677C236.487 70.2201 236.281 70.3277 236.03 70.3277C235.779 70.3277 235.573 70.2201 235.456 70.0677C235.304 69.8705 235.295 69.6105 235.295 69.3864V67.226H234.416ZM240.112 68.0328V67.226H239.44V65.8455H238.561V67.226H238.194V68.0328H238.561V71H239.44V68.0328H240.112Z" fill="#8889A7"/>
<rect x="240" y="83" width="56" height="15.68" fill="#F1F2FF"/>
<path d="M256.772 89.9336C256.788 89.6272 257.019 89.4659 257.266 89.4659C257.551 89.4659 257.739 89.6541 257.739 89.939C257.739 90.1863 257.594 90.4282 257.25 90.4282H257.153V90.9336H257.245C257.68 90.9336 257.842 91.2292 257.842 91.4927C257.842 91.7668 257.67 92.0625 257.266 92.0625C256.922 92.0625 256.713 91.8475 256.67 91.5518H255.971C256.03 92.2399 256.573 92.6646 257.261 92.6646C257.971 92.6646 258.54 92.2507 258.54 91.5142C258.54 90.9228 258.137 90.7185 257.992 90.6594C258.368 90.4497 258.406 90.0949 258.406 89.9067C258.406 89.3046 257.971 88.9176 257.282 88.9176C256.67 88.9176 256.18 89.2831 256.116 89.9336H256.772ZM259.155 92.2345C259.155 92.4711 259.338 92.6539 259.575 92.6539C259.811 92.6539 259.994 92.4711 259.994 92.2345C259.994 91.998 259.811 91.8152 259.575 91.8152C259.338 91.8152 259.155 91.998 259.155 92.2345ZM261.915 88.9982V92.584H262.614V91.1432H262.7L263.657 92.584H264.528L263.41 91.0733C263.582 91.0411 263.711 90.9819 263.802 90.9174C264.082 90.7293 264.221 90.4228 264.221 90.0734C264.221 89.8046 264.141 89.4982 263.866 89.267C263.7 89.1272 263.447 88.9982 262.953 88.9982H261.915ZM262.614 89.568H262.824C262.953 89.568 263.501 89.5734 263.501 90.1056C263.501 90.6325 262.947 90.6486 262.813 90.6486H262.614V89.568ZM266.991 88.9982H265.002V92.584H266.991V91.9819H265.701V91.0034H266.937V90.4013H265.701V89.6003H266.991V88.9982ZM267.271 88.9982L268.776 92.584H269.196L270.712 88.9982H269.948L268.991 91.4066L268.035 88.9982H267.271ZM271.129 88.9982V92.584H271.828V88.9982H271.129ZM274.635 88.9982H272.646V92.584H274.635V91.9819H273.345V91.0034H274.581V90.4013H273.345V89.6003H274.635V88.9982ZM277.512 90.3099L278.297 92.584H278.824L280.151 88.9982H279.41L278.549 91.4389L277.721 88.9659H277.334L276.458 91.4389L275.657 88.9982H274.915L276.162 92.584H276.689L277.512 90.3099Z" fill="#D5D6E6"/>
<rect x="240" y="98.2321" width="56" height="0.448" fill="#D5D6E6"/>
<rect x="184" y="83" width="56" height="15.68" fill="#F9F9FF"/>
<path d="M197.7 92.584H200.302V91.9819H199.006L199.624 91.3099C199.904 91.0088 200.275 90.611 200.275 90.0573C200.275 89.4874 199.845 88.9176 199.012 88.9176C198.302 88.9176 197.786 89.3853 197.754 90.1164H198.474C198.485 89.81 198.678 89.5197 199.044 89.5197C199.345 89.5197 199.576 89.7401 199.576 90.0626C199.576 90.2723 199.463 90.4927 199.366 90.6379C199.237 90.8314 198.818 91.3099 198.754 91.3851L197.7 92.584ZM200.917 92.2345C200.917 92.4711 201.099 92.6539 201.336 92.6539C201.572 92.6539 201.755 92.4711 201.755 92.2345C201.755 91.998 201.572 91.8152 201.336 91.8152C201.099 91.8152 200.917 91.998 200.917 92.2345ZM203.676 88.9982V92.584H204.375V91.2561H204.827C205.241 91.2561 205.537 91.1378 205.735 90.9389C206.01 90.6648 206.031 90.2777 206.031 90.1379C206.031 89.8799 205.956 89.5304 205.666 89.2724C205.402 89.0412 205.123 88.9982 204.719 88.9982H203.676ZM204.375 89.6003H204.617C204.784 89.6003 204.967 89.6111 205.112 89.7132C205.214 89.7885 205.311 89.9229 205.311 90.1218C205.311 90.2777 205.246 90.439 205.117 90.5411C204.967 90.654 204.795 90.654 204.66 90.654H204.375V89.6003ZM208.669 92.584H209.421L207.921 88.9982H207.373L205.83 92.584H206.588L206.905 91.8313H208.351L208.669 92.584ZM207.126 91.2615L207.636 89.9712L208.147 91.2615H207.126ZM210.258 92.584H210.957V90.9443L212.22 88.9982H211.392L210.623 90.2454L209.855 88.9982H209.027L210.258 90.9443V92.584ZM212.266 92.584H212.976L213.342 90.3744L214.261 92.584H214.497L215.46 90.3744L215.782 92.584H216.492L215.89 88.9982H215.384L214.39 91.2776L213.438 88.9982H212.933L212.266 92.584ZM219.116 88.9982H217.127V92.584H219.116V91.9819H217.826V91.0034H219.062V90.4013H217.826V89.6003H219.116V88.9982ZM220.493 92.584V90.1863L222.675 92.584H223.159V88.9982H222.46V91.3905L220.278 88.9982H219.794V92.584H220.493ZM225.914 89.6003V88.9982H223.602V89.6003H224.408V92.584H225.107V89.6003H225.914Z" fill="#D5D6E6"/>
<rect x="128" y="83" width="56" height="15.68" fill="#F9F9FF"/>
<path d="M143.996 92.584H144.695V88.9982H143.48V89.6003H143.996V92.584ZM145.774 92.2345C145.774 92.4711 145.957 92.6539 146.193 92.6539C146.43 92.6539 146.612 92.4711 146.612 92.2345C146.612 91.998 146.43 91.8152 146.193 91.8152C145.957 91.8152 145.774 91.998 145.774 92.2345ZM149.071 88.9982V92.584H149.995C150.495 92.584 150.888 92.5356 151.307 92.2399C151.78 91.9066 152.028 91.3905 152.028 90.7938C152.028 90.197 151.775 89.6756 151.339 89.3476C150.942 89.052 150.506 88.9982 150.006 88.9982H149.071ZM149.77 89.6003H149.985C150.221 89.6003 150.576 89.6218 150.866 89.8368C151.151 90.0519 151.307 90.4175 151.307 90.7938C151.307 91.1755 151.146 91.541 150.861 91.7453C150.549 91.9711 150.162 91.9819 149.985 91.9819H149.77V89.6003ZM154.661 88.9982H152.672V92.584H154.661V91.9819H153.371V91.0034H154.608V90.4013H153.371V89.6003H154.661V88.9982ZM155.339 88.9982V92.584H157.146V91.9819H156.038V88.9982H155.339ZM157.628 88.9982V92.584H158.327V88.9982H157.628ZM158.748 88.9982L160.253 92.584H160.672L162.188 88.9982H161.425L160.468 91.4066L159.511 88.9982H158.748ZM164.594 88.9982H162.605V92.584H164.594V91.9819H163.304V91.0034H164.541V90.4013H163.304V89.6003H164.594V88.9982ZM165.272 88.9982V92.584H165.971V91.1432H166.057L167.014 92.584H167.885L166.767 91.0733C166.939 91.0411 167.068 90.9819 167.159 90.9174C167.439 90.7293 167.579 90.4228 167.579 90.0734C167.579 89.8046 167.498 89.4982 167.224 89.267C167.057 89.1272 166.804 88.9982 166.31 88.9982H165.272ZM165.971 89.568H166.181C166.31 89.568 166.858 89.5734 166.858 90.1056C166.858 90.6325 166.304 90.6486 166.17 90.6486H165.971V89.568ZM169.003 92.584H169.702V90.9443L170.965 88.9982H170.137L169.369 90.2454L168.6 88.9982H167.772L169.003 90.9443V92.584Z" fill="#D5D6E6"/>
<rect x="128" y="83" width="168" height="0.448" fill="#F6F6F6"/>
<rect x="137" y="292" width="52" height="3" fill="#E5E6FC"/>
<rect x="137" y="286" width="39" height="3" fill="#E5E6FC"/>
<rect x="137" y="171" width="52" height="3" fill="#E5E6FC"/>
<rect x="137" y="165" width="39" height="3" fill="#E5E6FC"/>
<rect x="248" y="168" width="39" height="3" fill="#E5E6FC"/>
<rect x="125.5" y="40.5" width="173.082" height="369.403" rx="11.4644" stroke="white" stroke-opacity="0.5" stroke-width="5" shape-rendering="crispEdges"/>
</g>
</g>
<defs>
<filter id="filter0_d_565_2880" x="337" y="36" width="186.082" height="382.403" filterUnits="userSpaceOnUse" color-interpolation-filters="sRGB">
<feFlood flood-opacity="0" result="BackgroundImageFix"/>
<feColorMatrix in="SourceAlpha" type="matrix" values="0 0 0 0 0 0 0 0 0 0 0 0 0 0 0 0 0 0 127 0" result="hardAlpha"/>
<feOffset dy="2"/>
<feGaussianBlur stdDeviation="2"/>
<feComposite in2="hardAlpha" operator="out"/>
<feColorMatrix type="matrix" values="0 0 0 0 0 0 0 0 0 0 0 0 0 0 0 0 0 0 0.15 0"/>
<feBlend mode="normal" in2="BackgroundImageFix" result="effect1_dropShadow_565_2880"/>
<feBlend mode="normal" in="SourceGraphic" in2="effect1_dropShadow_565_2880" result="shape"/>
</filter>
<filter id="filter1_d_565_2880" x="119" y="36" width="186.082" height="382.403" filterUnits="userSpaceOnUse" color-interpolation-filters="sRGB">
<feFlood flood-opacity="0" result="BackgroundImageFix"/>
<feColorMatrix in="SourceAlpha" type="matrix" values="0 0 0 0 0 0 0 0 0 0 0 0 0 0 0 0 0 0 127 0" result="hardAlpha"/>
<feOffset dy="2"/>
<feGaussianBlur stdDeviation="2"/>
<feComposite in2="hardAlpha" operator="out"/>
<feColorMatrix type="matrix" values="0 0 0 0 0 0 0 0 0 0 0 0 0 0 0 0 0 0 0.15 0"/>
<feBlend mode="normal" in2="BackgroundImageFix" result="effect1_dropShadow_565_2880"/>
<feBlend mode="normal" in="SourceGraphic" in2="effect1_dropShadow_565_2880" result="shape"/>
</filter>
</defs>
</svg>
