<svg width="30" height="39" viewBox="0 0 30 39" fill="none" xmlns="http://www.w3.org/2000/svg">
<path d="M30 38.2217L0 17.814V3.96688C0 0.788536 3.56052 -1.09682 6.19109 0.692985L30 16.8841V38.2217Z" fill="url(#paint0_linear_308_209)"/>
<path d="M9.38217 31.8328L29.9936 17.8074V7.82648C29.9936 3.00482 24.5987 0.144957 20.6051 2.85833L0 16.8838V26.8647C0 31.6927 5.39491 34.5462 9.38217 31.8328Z" fill="url(#paint1_linear_308_209)"/>
<path d="M30 17.814L15 28.0178L19.949 31.3809L30 17.814Z" fill="url(#paint2_linear_308_209)"/>
<path d="M30 17.814L15 28.0178L16.293 28.8968L30 17.814Z" fill="url(#paint3_linear_308_209)"/>
<path d="M6.19109 0.692985C3.56052 -1.09682 0 0.788536 0 3.96688V16.8841L15 6.68026L6.19109 0.692985Z" fill="url(#paint4_linear_308_209)"/>
<defs>
<linearGradient id="paint0_linear_308_209" x1="-0.0377069" y1="2.52146" x2="30.0913" y2="32.2355" gradientUnits="userSpaceOnUse">
<stop stop-color="#E7FF87"/>
<stop offset="0.203125" stop-color="#8FAB00"/>
<stop offset="0.578125" stop-color="#8FAB00"/>
<stop offset="0.760417" stop-color="#797DE1"/>
<stop offset="1" stop-color="#474CCC"/>
</linearGradient>
<linearGradient id="paint1_linear_308_209" x1="35.0319" y1="-2.57476" x2="-22.6114" y2="74.4953" gradientUnits="userSpaceOnUse">
<stop stop-color="#EBFF9E"/>
<stop offset="0.2017" stop-color="#B9D93C"/>
<stop offset="0.796875" stop-color="#8FAB00"/>
<stop offset="1" stop-color="#7200FF"/>
</linearGradient>
<linearGradient id="paint2_linear_308_209" x1="33.2094" y1="14.8499" x2="6.78965" y2="39.7823" gradientUnits="userSpaceOnUse">
<stop stop-color="#9A87E0"/>
<stop offset="0.121" stop-color="#A797E4"/>
<stop offset="0.7221" stop-color="#E6E2F7"/>
<stop offset="1" stop-color="white"/>
</linearGradient>
<linearGradient id="paint3_linear_308_209" x1="32.1898" y1="13.7695" x2="5.77013" y2="38.7019" gradientUnits="userSpaceOnUse">
<stop stop-color="#9A87E0"/>
<stop offset="0.121" stop-color="#A797E4"/>
<stop offset="0.7221" stop-color="#E6E2F7"/>
<stop offset="1" stop-color="white"/>
</linearGradient>
<linearGradient id="paint4_linear_308_209" x1="9.3679" y1="14.2002" x2="-0.227644" y2="1.80592" gradientUnits="userSpaceOnUse">
<stop stop-color="#8FAB00"/>
<stop offset="0.3389" stop-color="#B9D93C"/>
<stop offset="0.947917" stop-color="#DEF878"/>
<stop offset="1" stop-color="white"/>
</linearGradient>
</defs>
</svg>
