<svg width="930" height="749" viewBox="0 0 930 749" fill="none" xmlns="http://www.w3.org/2000/svg">
<g clip-path="url(#clip0_111_4217)">
<rect width="930" height="749" fill="#F6F8FF"/>
<rect x="-5" y="52" width="155" height="8" rx="4" fill="#797DE1"/>
<path d="M166.168 61H168.152V50.008H166.168V61ZM174.897 52.536C173.809 52.536 172.849 53.064 172.337 53.832V52.728H170.385V61H172.337V55.768C172.465 54.888 173.312 54.2 174.337 54.2C175.361 54.2 176.081 55 176.081 56.12V61H177.969V55.736C177.969 53.864 176.705 52.536 174.897 52.536ZM184.968 52.536C183.736 52.536 182.744 53.096 182.088 54.04V52.728H180.136V63.752H182.088V59.688C182.744 60.632 183.736 61.192 184.968 61.192C187.16 61.192 188.76 59.4 188.76 56.856C188.76 54.328 187.16 52.536 184.968 52.536ZM184.44 59.528C183.064 59.528 182.104 58.408 182.104 56.856C182.104 55.304 183.064 54.2 184.44 54.2C185.832 54.2 186.824 55.304 186.824 56.856C186.824 58.408 185.832 59.528 184.44 59.528ZM196.125 52.728V57.96C195.997 58.84 195.149 59.528 194.125 59.528C193.101 59.528 192.381 58.728 192.381 57.608V52.728H190.493V57.992C190.493 59.864 191.757 61.192 193.565 61.192C194.653 61.192 195.613 60.664 196.125 59.896V61H198.077V52.728H196.125ZM204.356 59.224C204.18 59.4 203.876 59.528 203.54 59.528C203.076 59.528 202.724 59.128 202.724 58.568V54.344H204.596V52.728H202.724V50.456H200.82V52.728H199.62V54.344H200.82V58.808C200.82 60.2 201.78 61.192 203.156 61.192C203.78 61.192 204.452 60.936 204.916 60.536L204.356 59.224ZM209.487 61.192C211.423 61.192 212.735 60.168 212.735 58.584C212.735 56.856 211.231 56.376 209.839 55.992C208.575 55.624 208.143 55.464 208.143 54.936C208.143 54.472 208.671 54.2 209.359 54.2C210.079 54.2 210.927 54.456 211.711 54.952L212.527 53.528C211.631 52.936 210.495 52.536 209.359 52.536C207.519 52.536 206.239 53.592 206.239 55.144C206.255 56.616 207.391 57.128 209.183 57.592C210.127 57.848 210.847 58.056 210.847 58.696C210.847 59.208 210.303 59.544 209.519 59.544C208.479 59.544 207.551 59.16 206.751 58.584L205.871 59.944C206.863 60.744 208.223 61.192 209.487 61.192Z" fill="#2D2D2D"/>
<path d="M130.683 539.2V549H132.335V539.2H130.683ZM139.163 541.496C137.903 541.496 136.951 541.944 136.419 542.98V541.552H134.809V549H136.419V545.038C136.531 543.876 137.301 543.022 138.533 543.008C139.653 543.008 140.325 543.694 140.325 544.814V549H141.935V544.366C141.935 542.588 140.899 541.496 139.163 541.496ZM150.14 549L150.126 544.114C150.112 542.476 149.034 541.496 147.116 541.496C145.702 541.496 144.946 541.818 143.91 542.434L144.568 543.554C145.31 543.05 146.052 542.798 146.766 542.798C147.942 542.798 148.544 543.358 148.544 544.296V544.52H146.29C144.498 544.534 143.476 545.402 143.476 546.76C143.476 548.076 144.484 549.07 146.094 549.07C147.172 549.07 148.026 548.748 148.558 548.09V549H150.14ZM146.43 547.796C145.534 547.796 144.988 547.362 144.988 546.69C144.988 545.976 145.478 545.696 146.528 545.696H148.544V546.382C148.46 547.194 147.578 547.796 146.43 547.796ZM157.545 543.75L158.427 542.714C157.741 541.93 156.691 541.496 155.347 541.496C153.135 541.496 151.595 543.036 151.595 545.29C151.595 547.53 153.135 549.056 155.347 549.056C156.761 549.056 157.839 548.552 158.511 547.67L157.615 546.774C157.111 547.362 156.355 547.67 155.417 547.67C154.129 547.67 153.205 546.704 153.205 545.29C153.205 543.876 154.129 542.91 155.417 542.91C156.313 542.896 157.027 543.218 157.545 543.75ZM164.006 547.292C163.572 547.502 163.222 547.614 162.886 547.614C162.382 547.614 162.088 547.376 162.088 546.606V543.036H164.286V541.832H162.088V539.788H160.492V541.832H159.442V543.036H160.492V546.9C160.492 548.426 161.458 549.07 162.578 549.07C163.208 549.07 163.824 548.874 164.412 548.524L164.006 547.292ZM166.697 538.458C166.165 538.458 165.759 538.864 165.759 539.424C165.759 539.97 166.165 540.376 166.697 540.376C167.229 540.376 167.635 539.97 167.635 539.424C167.635 538.864 167.229 538.458 166.697 538.458ZM165.899 541.552V549H167.495V541.552H165.899ZM168.702 541.552L171.586 549H173.252L176.108 541.552H174.498L172.454 547.418L170.382 541.552H168.702ZM180.026 541.496C177.814 541.51 176.26 543.036 176.26 545.29C176.26 547.53 177.772 549.056 180.068 549.056C181.356 549.056 182.42 548.594 183.148 547.796L182.294 546.886C181.748 547.446 181.006 547.754 180.194 547.754C179.018 547.754 178.136 547.04 177.884 545.892H183.512C183.708 543.204 182.644 541.496 180.026 541.496ZM177.856 544.716C178.024 543.526 178.864 542.784 180.04 542.784C181.258 542.784 182.056 543.512 182.112 544.716H177.856Z" fill="#797DE1"/>
<path d="M150.821 630.2V640H157.989V638.516H152.473V635.814H157.261V634.344H152.473V631.684H157.821V630.2H150.821ZM161.521 634.036V632.552H159.911V640H161.521V636.108C161.647 634.834 162.599 633.952 164.097 634.036V632.496C162.921 632.496 162.025 633.028 161.521 634.036ZM167.03 634.036V632.552H165.42V640H167.03V636.108C167.156 634.834 168.108 633.952 169.606 634.036V632.496C168.43 632.496 167.534 633.028 167.03 634.036ZM174.122 632.496C171.812 632.496 170.23 634.022 170.23 636.262C170.23 638.516 171.812 640.056 174.122 640.056C176.418 640.056 178 638.516 178 636.262C178 634.022 176.418 632.496 174.122 632.496ZM174.122 633.868C175.452 633.868 176.39 634.862 176.39 636.29C176.39 637.732 175.452 638.712 174.122 638.712C172.778 638.712 171.84 637.732 171.84 636.29C171.84 634.862 172.778 633.868 174.122 633.868ZM181.29 634.036V632.552H179.68V640H181.29V636.108C181.416 634.834 182.368 633.952 183.866 634.036V632.496C182.69 632.496 181.794 633.028 181.29 634.036Z" fill="#797DE1"/>
<path d="M149.693 461H151.457L147.173 451.2H145.479L141.153 461H142.875L143.813 458.788H148.755L149.693 461ZM144.429 457.318L146.277 452.964L148.125 457.318H144.429ZM157.545 455.75L158.427 454.714C157.741 453.93 156.691 453.496 155.347 453.496C153.135 453.496 151.595 455.036 151.595 457.29C151.595 459.53 153.135 461.056 155.347 461.056C156.761 461.056 157.839 460.552 158.511 459.67L157.615 458.774C157.111 459.362 156.355 459.67 155.417 459.67C154.129 459.67 153.205 458.704 153.205 457.29C153.205 455.876 154.129 454.91 155.417 454.91C156.313 454.896 157.027 455.218 157.545 455.75ZM164.006 459.292C163.572 459.502 163.222 459.614 162.886 459.614C162.382 459.614 162.088 459.376 162.088 458.606V455.036H164.286V453.832H162.088V451.788H160.492V453.832H159.442V455.036H160.492V458.9C160.492 460.426 161.458 461.07 162.578 461.07C163.208 461.07 163.824 460.874 164.412 460.524L164.006 459.292ZM166.697 450.458C166.165 450.458 165.759 450.864 165.759 451.424C165.759 451.97 166.165 452.376 166.697 452.376C167.229 452.376 167.635 451.97 167.635 451.424C167.635 450.864 167.229 450.458 166.697 450.458ZM165.899 453.552V461H167.495V453.552H165.899ZM168.702 453.552L171.586 461H173.252L176.108 453.552H174.498L172.454 459.418L170.382 453.552H168.702ZM180.026 453.496C177.814 453.51 176.26 455.036 176.26 457.29C176.26 459.53 177.772 461.056 180.068 461.056C181.356 461.056 182.42 460.594 183.148 459.796L182.294 458.886C181.748 459.446 181.006 459.754 180.194 459.754C179.018 459.754 178.136 459.04 177.884 457.892H183.512C183.708 455.204 182.644 453.496 180.026 453.496ZM177.856 456.716C178.024 455.526 178.864 454.784 180.04 454.784C181.258 454.784 182.056 455.512 182.112 456.716H177.856Z" fill="#797DE1"/>
<path d="M137.382 336.2V337.684H140.476V346H142.128V337.684H145.236V336.2H137.382ZM148.946 347.022L152.334 338.552H150.724L148.652 344.194L146.426 338.552H144.76L147.84 345.888L147.588 346.448C147.336 347.008 146.944 347.274 146.454 347.274C146.118 347.274 145.838 347.162 145.488 346.91L144.802 348.156C145.32 348.59 145.852 348.786 146.524 348.786C147.644 348.786 148.484 348.198 148.946 347.022ZM157.742 338.496C156.58 338.496 155.684 338.972 155.138 339.84V338.552H153.528V348.716H155.138V344.712C155.684 345.58 156.58 346.056 157.77 346.056C159.898 346.056 161.298 344.53 161.298 342.304C161.298 340.036 159.856 338.496 157.742 338.496ZM157.406 344.684C156.076 344.684 155.138 343.69 155.138 342.248C155.138 340.848 156.076 339.84 157.406 339.84C158.736 339.84 159.674 340.862 159.674 342.248C159.674 343.676 158.736 344.684 157.406 344.684ZM163.771 335.458C163.239 335.458 162.833 335.864 162.833 336.424C162.833 336.97 163.239 337.376 163.771 337.376C164.303 337.376 164.709 336.97 164.709 336.424C164.709 335.864 164.303 335.458 163.771 335.458ZM162.973 338.552V346H164.569V338.552H162.973ZM171.306 338.496C170.046 338.496 169.094 338.944 168.562 339.98V338.552H166.952V346H168.562V342.038C168.674 340.876 169.444 340.022 170.676 340.008C171.796 340.008 172.468 340.694 172.468 341.814V346H174.078V341.366C174.078 339.588 173.042 338.496 171.306 338.496ZM181.359 338.552V339.756C180.841 338.944 179.987 338.482 178.839 338.496C176.865 338.51 175.535 339.938 175.535 342.038C175.535 344.18 176.879 345.636 178.895 345.636C180.015 345.636 180.855 345.188 181.359 344.376V345.314C181.359 346.602 180.435 347.428 179.021 347.428C178.111 347.428 177.383 347.134 176.683 346.616L175.997 347.778C176.907 348.394 177.929 348.758 179.091 348.758C181.429 348.758 182.955 347.414 182.955 345.272V338.552H181.359ZM179.217 344.376C177.929 344.376 177.061 343.424 177.047 342.08C177.061 340.75 177.943 339.798 179.217 339.798C180.477 339.798 181.359 340.736 181.359 342.08C181.359 343.424 180.477 344.376 179.217 344.376Z" fill="#797DE1"/>
<path d="M127.087 239.2V249H128.739V244.982H133.191V243.512H128.739V240.684H133.653L133.667 239.2H127.087ZM138.234 241.496C135.924 241.496 134.342 243.022 134.342 245.262C134.342 247.516 135.924 249.056 138.234 249.056C140.53 249.056 142.112 247.516 142.112 245.262C142.112 243.022 140.53 241.496 138.234 241.496ZM138.234 242.868C139.564 242.868 140.502 243.862 140.502 245.29C140.502 246.732 139.564 247.712 138.234 247.712C136.89 247.712 135.952 246.732 135.952 245.29C135.952 243.862 136.89 242.868 138.234 242.868ZM149.042 243.75L149.924 242.714C149.238 241.93 148.188 241.496 146.844 241.496C144.632 241.496 143.092 243.036 143.092 245.29C143.092 247.53 144.632 249.056 146.844 249.056C148.258 249.056 149.336 248.552 150.008 247.67L149.112 246.774C148.608 247.362 147.852 247.67 146.914 247.67C145.626 247.67 144.702 246.704 144.702 245.29C144.702 243.876 145.626 242.91 146.914 242.91C147.81 242.896 148.524 243.218 149.042 243.75ZM156.846 241.552V245.22C156.846 246.522 156.09 247.516 154.802 247.544C153.724 247.544 153.066 246.858 153.066 245.738V241.552H151.456V246.186C151.456 247.964 152.478 249.056 154.186 249.056C155.404 249.042 156.342 248.58 156.846 247.544V249H158.456V241.552H156.846ZM165.082 243.428L165.67 242.238C164.998 241.762 164.004 241.482 163.066 241.482C161.638 241.482 160.322 242.126 160.322 243.638C160.308 246.326 164.228 245.472 164.228 246.998C164.228 247.558 163.696 247.796 163.01 247.796C162.198 247.796 161.162 247.446 160.518 246.872L159.944 248.02C160.686 248.692 161.848 249.056 162.94 249.056C164.438 249.056 165.796 248.37 165.796 246.844C165.81 244.142 161.848 244.884 161.848 243.512C161.848 242.98 162.31 242.77 162.94 242.77C163.598 242.77 164.424 243.022 165.082 243.428ZM170.483 241.496C168.271 241.51 166.717 243.036 166.717 245.29C166.717 247.53 168.229 249.056 170.525 249.056C171.813 249.056 172.877 248.594 173.605 247.796L172.751 246.886C172.205 247.446 171.463 247.754 170.651 247.754C169.475 247.754 168.593 247.04 168.341 245.892H173.969C174.165 243.204 173.101 241.496 170.483 241.496ZM168.313 244.716C168.481 243.526 169.321 242.784 170.497 242.784C171.715 242.784 172.513 243.512 172.569 244.716H168.313ZM181.135 238.612V242.84C180.589 241.972 179.693 241.482 178.489 241.482C176.389 241.482 174.947 243.008 174.947 245.248C174.947 247.516 176.375 249.07 178.517 249.07C179.707 249.07 180.603 248.594 181.135 247.726V249H182.745V238.612H181.135ZM178.853 247.726C177.495 247.726 176.571 246.718 176.557 245.304C176.571 243.876 177.509 242.854 178.853 242.854C180.197 242.854 181.135 243.862 181.135 245.304C181.135 246.718 180.197 247.726 178.853 247.726Z" fill="#797DE1"/>
<path d="M138.747 161.2H134.729V171H138.705C141.673 171 143.815 168.928 143.815 166.1C143.815 163.258 141.687 161.2 138.747 161.2ZM138.789 169.516H136.381V162.684H138.719C140.651 162.684 142.149 164.112 142.149 166.114C142.149 168.102 140.693 169.516 138.789 169.516ZM148.553 163.496C146.341 163.51 144.787 165.036 144.787 167.29C144.787 169.53 146.299 171.056 148.595 171.056C149.883 171.056 150.947 170.594 151.675 169.796L150.821 168.886C150.275 169.446 149.533 169.754 148.721 169.754C147.545 169.754 146.663 169.04 146.411 167.892H152.039C152.235 165.204 151.171 163.496 148.553 163.496ZM146.383 166.716C146.551 165.526 147.391 164.784 148.567 164.784C149.785 164.784 150.583 165.512 150.639 166.716H146.383ZM156.561 161.942C156.897 161.942 157.275 162.068 157.583 162.292L158.199 161.06C157.723 160.71 157.121 160.542 156.519 160.542C155.231 160.542 153.957 161.368 153.957 163.104V163.832H152.977V165.036H153.957V171H155.553V165.036H157.499V163.832H155.553V162.95C155.553 162.25 156.015 161.942 156.561 161.942ZM164.058 171L164.044 166.114C164.03 164.476 162.952 163.496 161.034 163.496C159.62 163.496 158.864 163.818 157.828 164.434L158.486 165.554C159.228 165.05 159.97 164.798 160.684 164.798C161.86 164.798 162.462 165.358 162.462 166.296V166.52H160.208C158.416 166.534 157.394 167.402 157.394 168.76C157.394 170.076 158.402 171.07 160.012 171.07C161.09 171.07 161.944 170.748 162.476 170.09V171H164.058ZM160.348 169.796C159.452 169.796 158.906 169.362 158.906 168.69C158.906 167.976 159.396 167.696 160.446 167.696H162.462V168.382C162.378 169.194 161.496 169.796 160.348 169.796ZM171.365 163.552V167.22C171.365 168.522 170.609 169.516 169.321 169.544C168.243 169.544 167.585 168.858 167.585 167.738V163.552H165.975V168.186C165.975 169.964 166.997 171.056 168.705 171.056C169.923 171.042 170.861 170.58 171.365 169.544V171H172.975V163.552H171.365ZM175.43 160.612V171H177.04V160.612H175.43ZM183.297 169.292C182.863 169.502 182.513 169.614 182.177 169.614C181.673 169.614 181.379 169.376 181.379 168.606V165.036H183.577V163.832H181.379V161.788H179.783V163.832H178.733V165.036H179.783V168.9C179.783 170.426 180.749 171.07 181.869 171.07C182.499 171.07 183.115 170.874 183.703 170.524L183.297 169.292Z" fill="#797DE1"/>
<path d="M226.763 128.824V134.113H230.058V133.199H227.776V128.824H226.763ZM234.169 134.113L234.161 131.468C234.154 130.569 233.557 130.033 232.499 130.033C231.758 130.033 231.305 130.206 230.723 130.531L231.078 131.212C231.494 130.962 231.902 130.834 232.28 130.834C232.884 130.834 233.194 131.113 233.194 131.582V131.688H232.015C231.033 131.695 230.481 132.156 230.481 132.904C230.481 133.622 231.025 134.159 231.894 134.159C232.469 134.159 232.922 133.977 233.202 133.622V134.113H234.169ZM232.129 133.403C231.683 133.403 231.411 133.184 231.411 132.844C231.411 132.489 231.652 132.345 232.174 132.345H233.194V132.708C233.141 133.101 232.695 133.403 232.129 133.403ZM237.651 130.04C237.047 130.04 236.578 130.29 236.291 130.735V128.506H235.309V134.113H236.291V133.456C236.586 133.902 237.054 134.151 237.666 134.151C238.815 134.151 239.563 133.327 239.563 132.111C239.563 130.871 238.792 130.04 237.651 130.04ZM237.432 133.305C236.76 133.305 236.291 132.806 236.291 132.081C236.291 131.37 236.76 130.864 237.432 130.864C238.097 130.864 238.566 131.37 238.566 132.081C238.566 132.798 238.097 133.305 237.432 133.305ZM242.1 130.04C240.891 130.04 240.044 130.871 240.044 132.103C240.044 133.32 240.868 134.151 242.122 134.151C242.833 134.151 243.422 133.894 243.823 133.456L243.294 132.904C243.006 133.199 242.621 133.358 242.205 133.358C241.616 133.358 241.178 133.01 241.049 132.436H244.034C244.132 130.97 243.52 130.04 242.1 130.04ZM241.027 131.778C241.117 131.181 241.525 130.803 242.107 130.803C242.719 130.803 243.12 131.181 243.142 131.778H241.027ZM244.924 128.506V134.113H245.907V128.506H244.924Z" fill="#181919"/>
<path d="M238.6 152.612H235.961V158.959H238.555C240.513 158.959 241.91 157.636 241.91 155.786C241.91 153.927 240.522 152.612 238.6 152.612ZM238.627 157.889H237.176V153.682H238.582C239.77 153.682 240.668 154.552 240.668 155.795C240.668 157.028 239.797 157.889 238.627 157.889ZM244.952 154.072C243.501 154.072 242.485 155.069 242.485 156.547C242.485 158.007 243.474 159.005 244.979 159.005C245.831 159.005 246.539 158.697 247.019 158.171L246.384 157.509C246.04 157.862 245.577 158.053 245.079 158.053C244.371 158.053 243.845 157.636 243.691 156.946H247.273C247.391 155.187 246.656 154.072 244.952 154.072ZM243.664 156.157C243.773 155.441 244.262 154.988 244.961 154.988C245.695 154.988 246.176 155.441 246.203 156.157H243.664ZM250.265 153.192C250.473 153.192 250.709 153.274 250.909 153.41L251.344 152.512C251.018 152.294 250.591 152.177 250.183 152.177C249.286 152.177 248.46 152.73 248.46 153.845V154.308H247.826V155.169H248.46V158.959H249.639V155.169H250.854V154.308H249.639V153.809C249.639 153.383 249.92 153.192 250.265 153.192ZM255.227 158.959L255.218 155.786C255.209 154.707 254.492 154.063 253.223 154.063C252.334 154.063 251.79 154.271 251.092 154.661L251.518 155.477C252.017 155.178 252.506 155.024 252.96 155.024C253.685 155.024 254.057 155.359 254.057 155.922V156.049H252.642C251.463 156.058 250.801 156.611 250.801 157.509C250.801 158.37 251.454 159.014 252.497 159.014C253.186 159.014 253.73 158.796 254.066 158.37V158.959H255.227ZM252.778 158.107C252.243 158.107 251.917 157.844 251.917 157.436C251.917 157.01 252.207 156.838 252.833 156.838H254.057V157.273C253.993 157.744 253.458 158.107 252.778 158.107ZM259.841 154.108V156.502C259.841 157.282 259.387 157.88 258.626 157.889C257.973 157.889 257.583 157.481 257.583 156.801V154.108H256.395V157.146C256.395 158.288 257.066 159.005 258.154 159.005C258.925 159.005 259.505 158.706 259.841 158.062V158.959H261.029V154.108H259.841ZM262.545 152.231V158.959H263.724V152.231H262.545ZM267.803 157.772C267.54 157.899 267.313 157.971 267.113 157.971C266.796 157.971 266.606 157.817 266.606 157.354V155.169H267.993V154.308H266.606V152.975H265.436V154.308H264.747L264.756 155.169H265.436V157.563C265.436 158.56 266.071 159.014 266.86 159.014C267.286 159.014 267.703 158.887 268.075 158.66L267.803 157.772Z" fill="#9A9EA6"/>
<path fill-rule="evenodd" clip-rule="evenodd" d="M468.683 154.002C467.992 154.002 467.435 154.559 467.435 155.25C467.435 155.94 467.992 156.497 468.683 156.497C469.373 156.497 469.93 155.94 469.93 155.25C469.93 154.559 469.373 154.002 468.683 154.002ZM466.774 155.25C466.774 154.194 467.627 153.341 468.683 153.341C469.738 153.341 470.591 154.194 470.591 155.25C470.591 156.305 469.738 157.158 468.683 157.158C467.627 157.158 466.774 156.305 466.774 155.25Z" fill="#484B52"/>
<path fill-rule="evenodd" clip-rule="evenodd" d="M464.388 153.926C465.442 152.269 466.986 151.269 468.682 151.269C470.379 151.269 471.923 152.269 472.977 153.926C473.217 154.303 473.326 154.785 473.326 155.247C473.326 155.71 473.217 156.192 472.977 156.569C471.923 158.225 470.379 159.226 468.682 159.226C466.986 159.226 465.442 158.225 464.388 156.569C464.148 156.192 464.039 155.71 464.039 155.247C464.039 154.785 464.148 154.302 464.388 153.926ZM468.682 151.93C467.267 151.93 465.911 152.764 464.946 154.281L464.945 154.281C464.789 154.526 464.7 154.877 464.7 155.247C464.7 155.618 464.789 155.968 464.945 156.213L464.946 156.214C465.911 157.731 467.267 158.564 468.682 158.564C470.098 158.564 471.454 157.731 472.419 156.214L472.42 156.213C472.576 155.968 472.665 155.618 472.665 155.247C472.665 154.877 472.576 154.526 472.42 154.281L472.419 154.281C471.454 152.764 470.098 151.93 468.682 151.93Z" fill="#484B52"/>
<rect x="226.491" y="143.537" width="256.171" height="23.4257" rx="5.66751" stroke="#DFE1E6" stroke-width="0.755668"/>
<path d="M226.754 175.154V179.385H227.238V177.511H229.789V179.385H230.272V175.154H229.789V177.07H227.238V175.154H226.754ZM232.745 176.187C231.82 176.193 231.167 176.846 231.167 177.795C231.167 178.744 231.814 179.403 232.751 179.403C233.283 179.403 233.73 179.21 234.032 178.877L233.772 178.605C233.525 178.865 233.18 179.01 232.787 179.01C232.164 179.01 231.711 178.599 231.632 177.971H234.232C234.28 176.895 233.772 176.187 232.745 176.187ZM231.632 177.596C231.699 176.979 232.134 176.58 232.745 176.58C233.367 176.58 233.778 176.979 233.809 177.596H231.632ZM235.071 174.9V179.385H235.543V174.9H235.071ZM238.453 176.187C237.897 176.187 237.461 176.447 237.226 176.889V176.205H236.754V180.558H237.226V178.702C237.461 179.143 237.897 179.403 238.465 179.403C239.366 179.403 239.982 178.744 239.982 177.801C239.982 176.852 239.354 176.187 238.453 176.187ZM238.368 178.986C237.697 178.986 237.226 178.491 237.226 177.789C237.226 177.094 237.697 176.592 238.368 176.592C239.033 176.592 239.505 177.1 239.505 177.789C239.505 178.484 239.033 178.986 238.368 178.986ZM245.753 176.109L246.043 175.758C245.638 175.377 245.076 175.141 244.496 175.141C243.268 175.141 242.289 176.078 242.289 177.263C242.289 178.46 243.256 179.403 244.477 179.403C245.064 179.403 245.632 179.156 246.049 178.763L245.753 178.442C245.421 178.757 244.967 178.95 244.502 178.95C243.546 178.95 242.779 178.194 242.779 177.263C242.779 176.326 243.546 175.583 244.502 175.583C244.967 175.583 245.427 175.782 245.753 176.109ZM248.048 176.187C247.099 176.187 246.434 176.846 246.434 177.789C246.434 178.738 247.099 179.403 248.048 179.403C248.991 179.403 249.662 178.738 249.662 177.789C249.662 176.846 248.991 176.187 248.048 176.187ZM248.048 176.604C248.713 176.604 249.19 177.094 249.19 177.795C249.19 178.509 248.713 178.992 248.048 178.992C247.377 178.992 246.905 178.509 246.905 177.795C246.905 177.094 247.377 176.604 248.048 176.604ZM252.22 176.187C251.664 176.187 251.229 176.447 250.993 176.889V176.205H250.521V180.558H250.993V178.702C251.229 179.143 251.664 179.403 252.232 179.403C253.133 179.403 253.75 178.744 253.75 177.801C253.75 176.852 253.121 176.187 252.22 176.187ZM252.135 178.986C251.464 178.986 250.993 178.491 250.993 177.789C250.993 177.094 251.464 176.592 252.135 176.592C252.8 176.592 253.272 177.1 253.272 177.789C253.272 178.484 252.8 178.986 252.135 178.986ZM255.492 179.839L256.955 176.205H256.471L255.461 178.853L254.404 176.205H253.908L255.226 179.361L255.093 179.663C254.966 179.966 254.76 180.123 254.512 180.123C254.355 180.123 254.21 180.074 254.065 179.972L253.866 180.346C254.059 180.504 254.271 180.576 254.537 180.576C254.96 180.576 255.292 180.322 255.492 179.839Z" fill="#181919"/>
<path d="M540.111 151.68H537.472V158.028H540.066C542.025 158.028 543.421 156.704 543.421 154.854C543.421 152.995 542.034 151.68 540.111 151.68ZM540.138 156.958H538.688V152.75H540.093C541.281 152.75 542.179 153.621 542.179 154.863C542.179 156.096 541.308 156.958 540.138 156.958ZM546.463 153.14C545.012 153.14 543.996 154.138 543.996 155.616C543.996 157.076 544.985 158.073 546.49 158.073C547.342 158.073 548.05 157.765 548.53 157.239L547.896 156.577C547.551 156.931 547.089 157.121 546.59 157.121C545.882 157.121 545.357 156.704 545.202 156.015H548.784C548.902 154.256 548.168 153.14 546.463 153.14ZM545.175 155.226C545.284 154.509 545.774 154.056 546.472 154.056C547.206 154.056 547.687 154.509 547.714 155.226H545.175ZM551.776 152.261C551.985 152.261 552.22 152.342 552.42 152.478L552.855 151.58C552.529 151.363 552.103 151.245 551.695 151.245C550.797 151.245 549.972 151.798 549.972 152.913V153.376H549.337V154.237H549.972V158.028H551.15V154.237H552.366V153.376H551.15V152.877C551.15 152.451 551.432 152.261 551.776 152.261ZM556.738 158.028L556.729 154.854C556.72 153.775 556.003 153.131 554.734 153.131C553.845 153.131 553.301 153.34 552.603 153.73L553.029 154.546C553.528 154.246 554.017 154.092 554.471 154.092C555.196 154.092 555.568 154.428 555.568 154.99V155.117H554.154C552.975 155.126 552.313 155.679 552.313 156.577C552.313 157.438 552.966 158.082 554.008 158.082C554.698 158.082 555.242 157.865 555.577 157.438V158.028H556.738ZM554.29 157.175C553.755 157.175 553.428 156.912 553.428 156.504C553.428 156.078 553.718 155.906 554.344 155.906H555.568V156.341C555.505 156.813 554.97 157.175 554.29 157.175ZM561.352 153.176V155.57C561.352 156.35 560.899 156.949 560.137 156.958C559.484 156.958 559.094 156.55 559.094 155.87V153.176H557.906V156.214C557.906 157.357 558.577 158.073 559.665 158.073C560.436 158.073 561.017 157.774 561.352 157.13V158.028H562.54V153.176H561.352ZM564.057 151.299V158.028H565.235V151.299H564.057ZM569.314 156.84C569.051 156.967 568.824 157.039 568.625 157.039C568.307 157.039 568.117 156.885 568.117 156.423V154.237H569.504V153.376H568.117V152.043H566.947V153.376H566.258L566.267 154.237H566.947V156.631C566.947 157.629 567.582 158.082 568.371 158.082C568.797 158.082 569.214 157.955 569.586 157.729L569.314 156.84Z" fill="#9A9EA6"/>
<rect x="528.003" y="142.604" width="256.171" height="23.4257" rx="5.66751" stroke="#DFE1E6" stroke-width="0.755668"/>
<path d="M226.763 428.068V433.358H230.058V432.444H227.776V428.068H226.763ZM234.169 433.358L234.161 430.713C234.154 429.814 233.557 429.277 232.499 429.277C231.758 429.277 231.305 429.451 230.723 429.776L231.078 430.456C231.494 430.207 231.902 430.078 232.28 430.078C232.884 430.078 233.194 430.358 233.194 430.826V430.932H232.015C231.033 430.94 230.481 431.401 230.481 432.149C230.481 432.867 231.025 433.403 231.894 433.403C232.469 433.403 232.922 433.222 233.202 432.867V433.358H234.169ZM232.129 432.648C231.683 432.648 231.411 432.428 231.411 432.088C231.411 431.733 231.652 431.59 232.174 431.59H233.194V431.952C233.141 432.345 232.695 432.648 232.129 432.648ZM237.651 429.285C237.047 429.285 236.578 429.534 236.291 429.98V427.751H235.309V433.358H236.291V432.7C236.586 433.146 237.054 433.396 237.666 433.396C238.815 433.396 239.563 432.572 239.563 431.355C239.563 430.116 238.792 429.285 237.651 429.285ZM237.432 432.549C236.76 432.549 236.291 432.051 236.291 431.325C236.291 430.615 236.76 430.109 237.432 430.109C238.097 430.109 238.566 430.615 238.566 431.325C238.566 432.043 238.097 432.549 237.432 432.549ZM242.1 429.285C240.891 429.285 240.044 430.116 240.044 431.348C240.044 432.564 240.868 433.396 242.122 433.396C242.833 433.396 243.422 433.139 243.823 432.7L243.294 432.149C243.006 432.444 242.621 432.602 242.205 432.602C241.616 432.602 241.178 432.255 241.049 431.68H244.034C244.132 430.214 243.52 429.285 242.1 429.285ZM241.027 431.023C241.117 430.426 241.525 430.048 242.107 430.048C242.719 430.048 243.12 430.426 243.142 431.023H241.027ZM244.924 427.751V433.358H245.907V427.751H244.924Z" fill="#181919"/>
<path d="M235.961 451.856V458.204H237.176V455.692H240.051V454.631H237.176V452.917H240.332L240.341 451.856H235.961ZM241.792 451.312C241.42 451.312 241.157 451.584 241.157 451.965C241.157 452.346 241.42 452.618 241.792 452.618C242.164 452.618 242.427 452.346 242.427 451.965C242.427 451.584 242.164 451.312 241.792 451.312ZM241.203 453.353V458.204H242.381V453.353H241.203ZM246.761 453.307C245.973 453.316 245.365 453.616 245.02 454.26V453.353H243.842V458.204H245.02V455.819C245.02 455.021 245.492 454.432 246.29 454.423C246.961 454.423 247.369 454.84 247.369 455.52V458.204H248.557V455.175C248.557 454.024 247.877 453.307 246.761 453.307ZM250.47 451.312C250.099 451.312 249.836 451.584 249.836 451.965C249.836 452.346 250.099 452.618 250.47 452.618C250.842 452.618 251.105 452.346 251.105 451.965C251.105 451.584 250.842 451.312 250.47 451.312ZM249.881 453.353V458.204H251.06V453.353H249.881ZM255.394 454.668L255.821 453.815C255.34 453.489 254.678 453.298 254.043 453.298C253.064 453.298 252.212 453.761 252.212 454.758C252.203 456.481 254.733 455.992 254.733 456.889C254.733 457.207 254.424 457.343 254.016 457.343C253.49 457.343 252.819 457.125 252.375 456.744L251.967 457.569C252.475 458.014 253.236 458.249 253.971 458.249C255.005 458.249 255.884 457.769 255.884 456.78C255.884 455.039 253.318 455.466 253.318 454.649C253.318 454.35 253.59 454.223 253.971 454.223C254.388 454.223 254.923 454.386 255.394 454.668ZM259.869 453.307C259.071 453.316 258.463 453.616 258.119 454.278V451.476H256.94V458.204H258.119V455.819C258.119 455.021 258.599 454.432 259.397 454.423C260.068 454.423 260.476 454.84 260.476 455.52V458.204H261.664V455.175C261.664 454.024 260.984 453.307 259.869 453.307ZM265.009 453.316C263.558 453.316 262.543 454.314 262.543 455.792C262.543 457.252 263.531 458.249 265.036 458.249C265.889 458.249 266.596 457.941 267.077 457.415L266.442 456.753C266.097 457.107 265.635 457.297 265.136 457.297C264.429 457.297 263.903 456.88 263.749 456.191H267.331C267.449 454.432 266.714 453.316 265.009 453.316ZM263.722 455.402C263.83 454.686 264.32 454.232 265.018 454.232C265.753 454.232 266.233 454.686 266.261 455.402H263.722ZM271.854 451.476V454.151C271.5 453.607 270.938 453.307 270.194 453.307C268.834 453.307 267.909 454.296 267.909 455.765C267.909 457.243 268.834 458.259 270.222 458.259C270.947 458.259 271.509 457.959 271.854 457.424V458.204H273.033V451.476H271.854ZM270.475 457.27C269.659 457.27 269.106 456.663 269.097 455.792C269.106 454.931 269.668 454.314 270.475 454.314C271.292 454.314 271.854 454.921 271.854 455.792C271.854 456.663 271.292 457.27 270.475 457.27Z" fill="#181919"/>
<path fill-rule="evenodd" clip-rule="evenodd" d="M468.683 453.247C467.992 453.247 467.435 453.804 467.435 454.494C467.435 455.184 467.992 455.742 468.683 455.742C469.373 455.742 469.93 455.184 469.93 454.494C469.93 453.804 469.373 453.247 468.683 453.247ZM466.774 454.494C466.774 453.439 467.627 452.585 468.683 452.585C469.738 452.585 470.591 453.439 470.591 454.494C470.591 455.55 469.738 456.403 468.683 456.403C467.627 456.403 466.774 455.55 466.774 454.494Z" fill="#484B52"/>
<path fill-rule="evenodd" clip-rule="evenodd" d="M464.388 453.17C465.442 451.514 466.986 450.514 468.682 450.514C470.379 450.514 471.923 451.514 472.977 453.171C473.217 453.547 473.326 454.03 473.326 454.492C473.326 454.954 473.217 455.437 472.977 455.813C471.923 457.47 470.379 458.47 468.682 458.47C466.986 458.47 465.442 457.47 464.388 455.813C464.148 455.437 464.039 454.954 464.039 454.492C464.039 454.03 464.148 453.547 464.388 453.17ZM468.682 451.175C467.267 451.175 465.911 452.009 464.946 453.525L464.945 453.526C464.789 453.771 464.7 454.121 464.7 454.492C464.7 454.863 464.789 455.213 464.945 455.458L464.946 455.458C465.911 456.975 467.267 457.809 468.682 457.809C470.098 457.809 471.454 456.975 472.419 455.458L472.42 455.458C472.576 455.213 472.665 454.863 472.665 454.492C472.665 454.121 472.576 453.771 472.42 453.526L472.419 453.525C471.454 452.009 470.098 451.175 468.682 451.175Z" fill="#484B52"/>
<rect x="226.491" y="442.781" width="256.171" height="23.4257" rx="5.66751" stroke="#9A9EA6" stroke-width="0.755668"/>
<path d="M226.754 474.398V478.63H227.238V476.756H229.789V478.63H230.272V474.398H229.789V476.315H227.238V474.398H226.754ZM232.745 475.432C231.82 475.438 231.167 476.091 231.167 477.04C231.167 477.989 231.814 478.648 232.751 478.648C233.283 478.648 233.73 478.455 234.032 478.122L233.772 477.85C233.525 478.11 233.18 478.255 232.787 478.255C232.164 478.255 231.711 477.844 231.632 477.215H234.232C234.28 476.139 233.772 475.432 232.745 475.432ZM231.632 476.84C231.699 476.224 232.134 475.825 232.745 475.825C233.367 475.825 233.778 476.224 233.809 476.84H231.632ZM235.071 474.144V478.63H235.543V474.144H235.071ZM238.453 475.432C237.897 475.432 237.461 475.692 237.226 476.133V475.45H236.754V479.803H237.226V477.947C237.461 478.388 237.897 478.648 238.465 478.648C239.366 478.648 239.982 477.989 239.982 477.046C239.982 476.097 239.354 475.432 238.453 475.432ZM238.368 478.231C237.697 478.231 237.226 477.735 237.226 477.034C237.226 476.339 237.697 475.837 238.368 475.837C239.033 475.837 239.505 476.345 239.505 477.034C239.505 477.729 239.033 478.231 238.368 478.231ZM245.753 475.353L246.043 475.003C245.638 474.622 245.076 474.386 244.496 474.386C243.268 474.386 242.289 475.323 242.289 476.508C242.289 477.705 243.256 478.648 244.477 478.648C245.064 478.648 245.632 478.4 246.049 478.007L245.753 477.687C245.421 478.001 244.967 478.195 244.502 478.195C243.546 478.195 242.779 477.439 242.779 476.508C242.779 475.571 243.546 474.827 244.502 474.827C244.967 474.827 245.427 475.027 245.753 475.353ZM248.048 475.432C247.099 475.432 246.434 476.091 246.434 477.034C246.434 477.983 247.099 478.648 248.048 478.648C248.991 478.648 249.662 477.983 249.662 477.034C249.662 476.091 248.991 475.432 248.048 475.432ZM248.048 475.849C248.713 475.849 249.19 476.339 249.19 477.04C249.19 477.753 248.713 478.237 248.048 478.237C247.377 478.237 246.905 477.753 246.905 477.04C246.905 476.339 247.377 475.849 248.048 475.849ZM252.22 475.432C251.664 475.432 251.229 475.692 250.993 476.133V475.45H250.521V479.803H250.993V477.947C251.229 478.388 251.664 478.648 252.232 478.648C253.133 478.648 253.75 477.989 253.75 477.046C253.75 476.097 253.121 475.432 252.22 475.432ZM252.135 478.231C251.464 478.231 250.993 477.735 250.993 477.034C250.993 476.339 251.464 475.837 252.135 475.837C252.8 475.837 253.272 476.345 253.272 477.034C253.272 477.729 252.8 478.231 252.135 478.231ZM255.492 479.083L256.955 475.45H256.471L255.461 478.098L254.404 475.45H253.908L255.226 478.606L255.093 478.908C254.966 479.21 254.76 479.367 254.512 479.367C254.355 479.367 254.21 479.319 254.065 479.216L253.866 479.591C254.059 479.748 254.271 479.821 254.537 479.821C254.96 479.821 255.292 479.567 255.492 479.083Z" fill="#181919"/>
<path d="M537.472 450.924V457.272H538.688V454.76H541.562V453.699H538.688V451.985H541.843L541.852 450.924H537.472ZM543.303 450.38C542.931 450.38 542.669 450.652 542.669 451.033C542.669 451.414 542.931 451.686 543.303 451.686C543.675 451.686 543.938 451.414 543.938 451.033C543.938 450.652 543.675 450.38 543.303 450.38ZM542.714 452.421V457.272H543.893V452.421H542.714ZM548.273 452.375C547.484 452.384 546.876 452.684 546.532 453.327V452.421H545.353V457.272H546.532V454.887C546.532 454.089 547.003 453.5 547.801 453.491C548.472 453.491 548.88 453.908 548.88 454.588V457.272H550.068V454.243C550.068 453.092 549.388 452.375 548.273 452.375ZM551.982 450.38C551.61 450.38 551.347 450.652 551.347 451.033C551.347 451.414 551.61 451.686 551.982 451.686C552.353 451.686 552.616 451.414 552.616 451.033C552.616 450.652 552.353 450.38 551.982 450.38ZM551.392 452.421V457.272H552.571V452.421H551.392ZM556.906 453.735L557.332 452.883C556.851 452.557 556.189 452.366 555.555 452.366C554.575 452.366 553.723 452.829 553.723 453.826C553.714 455.549 556.244 455.059 556.244 455.957C556.244 456.274 555.935 456.411 555.527 456.411C555.001 456.411 554.33 456.193 553.886 455.812L553.478 456.637C553.986 457.082 554.748 457.317 555.482 457.317C556.516 457.317 557.395 456.837 557.395 455.848C557.395 454.107 554.829 454.533 554.829 453.717C554.829 453.418 555.101 453.291 555.482 453.291C555.899 453.291 556.434 453.454 556.906 453.735ZM561.38 452.375C560.582 452.384 559.975 452.684 559.63 453.346V450.544H558.451V457.272H559.63V454.887C559.63 454.089 560.111 453.5 560.909 453.491C561.58 453.491 561.988 453.908 561.988 454.588V457.272H563.176V454.243C563.176 453.092 562.495 452.375 561.38 452.375ZM566.52 452.384C565.07 452.384 564.054 453.382 564.054 454.86C564.054 456.32 565.042 457.317 566.548 457.317C567.4 457.317 568.107 457.009 568.588 456.483L567.953 455.821C567.609 456.175 567.146 456.365 566.647 456.365C565.94 456.365 565.414 455.948 565.26 455.259H568.842C568.96 453.5 568.225 452.384 566.52 452.384ZM565.233 454.47C565.342 453.754 565.831 453.3 566.53 453.3C567.264 453.3 567.745 453.754 567.772 454.47H565.233ZM573.365 450.544V453.219C573.011 452.674 572.449 452.375 571.706 452.375C570.345 452.375 569.42 453.364 569.42 454.833C569.42 456.311 570.345 457.326 571.733 457.326C572.458 457.326 573.02 457.027 573.365 456.492V457.272H574.544V450.544H573.365ZM571.987 456.338C571.171 456.338 570.617 455.73 570.608 454.86C570.617 453.998 571.18 453.382 571.987 453.382C572.803 453.382 573.365 453.989 573.365 454.86C573.365 455.73 572.803 456.338 571.987 456.338Z" fill="#181919"/>
<rect x="528.003" y="441.849" width="256.171" height="23.4257" rx="5.66751" stroke="#9A9EA6" stroke-width="0.755668"/>
<path d="M226.763 314.718V320.007H230.058V319.093H227.776V314.718H226.763ZM234.169 320.007L234.161 317.362C234.154 316.463 233.557 315.927 232.499 315.927C231.758 315.927 231.305 316.101 230.723 316.425L231.078 317.106C231.494 316.856 231.902 316.728 232.28 316.728C232.884 316.728 233.194 317.007 233.194 317.476V317.582H232.015C231.033 317.589 230.481 318.05 230.481 318.798C230.481 319.516 231.025 320.053 231.894 320.053C232.469 320.053 232.922 319.871 233.202 319.516V320.007H234.169ZM232.129 319.297C231.683 319.297 231.411 319.078 231.411 318.738C231.411 318.383 231.652 318.239 232.174 318.239H233.194V318.602C233.141 318.995 232.695 319.297 232.129 319.297ZM237.651 315.934C237.047 315.934 236.578 316.184 236.291 316.629V314.4H235.309V320.007H236.291V319.35C236.586 319.796 237.054 320.045 237.666 320.045C238.815 320.045 239.563 319.221 239.563 318.005C239.563 316.766 238.792 315.934 237.651 315.934ZM237.432 319.199C236.76 319.199 236.291 318.7 236.291 317.975C236.291 317.264 236.76 316.758 237.432 316.758C238.097 316.758 238.566 317.264 238.566 317.975C238.566 318.692 238.097 319.199 237.432 319.199ZM242.1 315.934C240.891 315.934 240.044 316.766 240.044 317.997C240.044 319.214 240.868 320.045 242.122 320.045C242.833 320.045 243.422 319.788 243.823 319.35L243.294 318.798C243.006 319.093 242.621 319.252 242.205 319.252C241.616 319.252 241.178 318.904 241.049 318.33H244.034C244.132 316.864 243.52 315.934 242.1 315.934ZM241.027 317.672C241.117 317.075 241.525 316.698 242.107 316.698C242.719 316.698 243.12 317.075 243.142 317.672H241.027ZM244.924 314.4V320.007H245.907V314.4H244.924Z" fill="#181919"/>
<path d="M235.254 338.295V339.375H237.231V344.643H238.455V339.375H240.432V338.295H235.254ZM243.022 345.251L245.199 339.792H244.011L242.75 343.319L241.372 339.792H240.148L242.152 344.561L242.007 344.879C241.853 345.214 241.608 345.369 241.299 345.369C241.082 345.369 240.9 345.296 240.674 345.124L240.166 346.021C240.538 346.321 240.9 346.457 241.372 346.457C242.143 346.457 242.714 346.058 243.022 345.251ZM248.735 339.755C248.009 339.755 247.447 340.055 247.103 340.59V339.792H245.924V346.402H247.103V343.854C247.456 344.389 248.018 344.688 248.753 344.688C250.131 344.688 251.029 343.7 251.029 342.24C251.029 340.753 250.104 339.755 248.735 339.755ZM248.472 343.673C247.665 343.673 247.103 343.074 247.103 342.204C247.103 341.351 247.665 340.744 248.472 340.744C249.27 340.744 249.832 341.351 249.832 342.204C249.832 343.065 249.27 343.673 248.472 343.673ZM252.64 337.751C252.268 337.751 252.005 338.023 252.005 338.404C252.005 338.785 252.268 339.057 252.64 339.057C253.012 339.057 253.275 338.785 253.275 338.404C253.275 338.023 253.012 337.751 252.64 337.751ZM252.051 339.792V344.643H253.229V339.792H252.051ZM257.609 339.746C256.821 339.755 256.213 340.055 255.868 340.698V339.792H254.69V344.643H255.868V342.258C255.868 341.46 256.34 340.871 257.138 340.862C257.809 340.862 258.217 341.279 258.217 341.959V344.643H259.405V341.614C259.405 340.463 258.725 339.746 257.609 339.746ZM263.984 339.792V340.517C263.649 340.027 263.105 339.746 262.407 339.755C261.146 339.755 260.285 340.689 260.285 342.059C260.285 343.455 261.155 344.398 262.443 344.398C263.132 344.398 263.658 344.126 263.984 343.637V344.208C263.984 344.979 263.431 345.459 262.561 345.459C261.98 345.459 261.491 345.278 261.046 344.951L260.575 345.804C261.146 346.194 261.844 346.448 262.624 346.448C264.157 346.448 265.163 345.568 265.163 344.181V339.792H263.984ZM262.697 343.473C261.926 343.473 261.409 342.902 261.4 342.086C261.409 341.279 261.935 340.698 262.697 340.698C263.458 340.698 263.984 341.27 263.984 342.086C263.984 342.902 263.458 343.473 262.697 343.473Z" fill="#181919"/>
<path d="M269.582 335.854C269.582 335.645 269.413 335.476 269.204 335.476C268.995 335.476 268.826 335.645 268.826 335.854H269.582ZM268.826 346.433C268.826 346.642 268.995 346.811 269.204 346.811C269.413 346.811 269.582 346.642 269.582 346.433H268.826ZM268.826 335.854V346.433H269.582V335.854H268.826Z" fill="#71B0D0"/>
<path fill-rule="evenodd" clip-rule="evenodd" d="M468.683 339.896C467.992 339.896 467.435 340.453 467.435 341.144C467.435 341.834 467.992 342.391 468.683 342.391C469.373 342.391 469.93 341.834 469.93 341.144C469.93 340.453 469.373 339.896 468.683 339.896ZM466.774 341.144C466.774 340.088 467.627 339.235 468.683 339.235C469.738 339.235 470.591 340.088 470.591 341.144C470.591 342.199 469.738 343.052 468.683 343.052C467.627 343.052 466.774 342.199 466.774 341.144Z" fill="#00344E"/>
<path fill-rule="evenodd" clip-rule="evenodd" d="M464.388 339.82C465.442 338.163 466.986 337.163 468.682 337.163C470.379 337.163 471.923 338.163 472.977 339.82C473.217 340.197 473.326 340.679 473.326 341.141C473.326 341.604 473.217 342.086 472.977 342.463C471.923 344.12 470.379 345.12 468.682 345.12C466.986 345.12 465.442 344.12 464.388 342.463C464.148 342.086 464.039 341.604 464.039 341.141C464.039 340.679 464.148 340.196 464.388 339.82ZM468.682 337.824C467.267 337.824 465.911 338.658 464.946 340.175L464.945 340.175C464.789 340.42 464.7 340.771 464.7 341.141C464.7 341.512 464.789 341.863 464.945 342.107L464.946 342.108C465.911 343.625 467.267 344.458 468.682 344.458C470.098 344.458 471.454 343.625 472.419 342.108L472.42 342.107C472.576 341.863 472.665 341.512 472.665 341.141C472.665 340.771 472.576 340.42 472.42 340.175L472.419 340.175C471.454 338.658 470.098 337.824 468.682 337.824Z" fill="#00344E"/>
<rect x="226.491" y="329.431" width="256.171" height="23.4257" rx="5.66751" stroke="#71B0D0" stroke-width="0.755668"/>
<path d="M226.754 361.048V365.279H227.238V363.405H229.789V365.279H230.272V361.048H229.789V362.964H227.238V361.048H226.754ZM232.745 362.081C231.82 362.087 231.167 362.74 231.167 363.689C231.167 364.638 231.814 365.297 232.751 365.297C233.283 365.297 233.73 365.104 234.032 364.771L233.772 364.499C233.525 364.759 233.18 364.904 232.787 364.904C232.164 364.904 231.711 364.493 231.632 363.865H234.232C234.28 362.789 233.772 362.081 232.745 362.081ZM231.632 363.49C231.699 362.873 232.134 362.474 232.745 362.474C233.367 362.474 233.778 362.873 233.809 363.49H231.632ZM235.071 360.794V365.279H235.543V360.794H235.071ZM238.453 362.081C237.897 362.081 237.461 362.341 237.226 362.783V362.099H236.754V366.452H237.226V364.596C237.461 365.037 237.897 365.297 238.465 365.297C239.366 365.297 239.982 364.638 239.982 363.695C239.982 362.746 239.354 362.081 238.453 362.081ZM238.368 364.88C237.697 364.88 237.226 364.385 237.226 363.683C237.226 362.988 237.697 362.486 238.368 362.486C239.033 362.486 239.505 362.994 239.505 363.683C239.505 364.379 239.033 364.88 238.368 364.88ZM245.753 362.003L246.043 361.652C245.638 361.271 245.076 361.035 244.496 361.035C243.268 361.035 242.289 361.972 242.289 363.157C242.289 364.354 243.256 365.297 244.477 365.297C245.064 365.297 245.632 365.05 246.049 364.657L245.753 364.336C245.421 364.651 244.967 364.844 244.502 364.844C243.546 364.844 242.779 364.088 242.779 363.157C242.779 362.22 243.546 361.477 244.502 361.477C244.967 361.477 245.427 361.676 245.753 362.003ZM248.048 362.081C247.099 362.081 246.434 362.74 246.434 363.683C246.434 364.632 247.099 365.297 248.048 365.297C248.991 365.297 249.662 364.632 249.662 363.683C249.662 362.74 248.991 362.081 248.048 362.081ZM248.048 362.498C248.713 362.498 249.19 362.988 249.19 363.689C249.19 364.403 248.713 364.886 248.048 364.886C247.377 364.886 246.905 364.403 246.905 363.689C246.905 362.988 247.377 362.498 248.048 362.498ZM252.22 362.081C251.664 362.081 251.229 362.341 250.993 362.783V362.099H250.521V366.452H250.993V364.596C251.229 365.037 251.664 365.297 252.232 365.297C253.133 365.297 253.75 364.638 253.75 363.695C253.75 362.746 253.121 362.081 252.22 362.081ZM252.135 364.88C251.464 364.88 250.993 364.385 250.993 363.683C250.993 362.988 251.464 362.486 252.135 362.486C252.8 362.486 253.272 362.994 253.272 363.683C253.272 364.379 252.8 364.88 252.135 364.88ZM255.492 365.733L256.955 362.099H256.471L255.461 364.747L254.404 362.099H253.908L255.226 365.255L255.093 365.557C254.966 365.86 254.76 366.017 254.512 366.017C254.355 366.017 254.21 365.968 254.065 365.866L253.866 366.241C254.059 366.398 254.271 366.47 254.537 366.47C254.96 366.47 255.292 366.216 255.492 365.733Z" fill="#181919"/>
<path d="M536.765 337.364V338.443H538.742V343.711H539.966V338.443H541.943V337.364H536.765ZM544.534 344.319L546.71 338.86H545.522L544.262 342.387L542.883 338.86H541.659L543.663 343.63L543.518 343.947C543.364 344.283 543.119 344.437 542.811 344.437C542.593 344.437 542.412 344.364 542.185 344.192L541.677 345.09C542.049 345.389 542.412 345.525 542.883 345.525C543.654 345.525 544.225 345.126 544.534 344.319ZM550.246 338.824C549.521 338.824 548.958 339.123 548.614 339.658V338.86H547.435V345.471H548.614V342.923C548.967 343.458 549.53 343.757 550.264 343.757C551.642 343.757 552.54 342.768 552.54 341.308C552.54 339.821 551.615 338.824 550.246 338.824ZM549.983 342.741C549.176 342.741 548.614 342.143 548.614 341.272C548.614 340.42 549.176 339.812 549.983 339.812C550.781 339.812 551.343 340.42 551.343 341.272C551.343 342.134 550.781 342.741 549.983 342.741ZM554.151 336.82C553.779 336.82 553.516 337.092 553.516 337.473C553.516 337.853 553.779 338.126 554.151 338.126C554.523 338.126 554.786 337.853 554.786 337.473C554.786 337.092 554.523 336.82 554.151 336.82ZM553.562 338.86V343.711H554.741V338.86H553.562ZM559.121 338.815C558.332 338.824 557.724 339.123 557.38 339.767V338.86H556.201V343.711H557.38V341.327C557.38 340.529 557.851 339.939 558.649 339.93C559.32 339.93 559.728 340.347 559.728 341.027V343.711H560.916V340.683C560.916 339.531 560.236 338.815 559.121 338.815ZM565.496 338.86V339.585C565.16 339.096 564.616 338.815 563.918 338.824C562.657 338.824 561.796 339.758 561.796 341.127C561.796 342.524 562.666 343.467 563.954 343.467C564.643 343.467 565.169 343.195 565.496 342.705V343.276C565.496 344.047 564.942 344.528 564.072 344.528C563.492 344.528 563.002 344.346 562.558 344.02L562.086 344.872C562.657 345.262 563.356 345.516 564.135 345.516C565.668 345.516 566.674 344.636 566.674 343.249V338.86H565.496ZM564.208 342.542C563.437 342.542 562.92 341.97 562.911 341.154C562.92 340.347 563.446 339.767 564.208 339.767C564.97 339.767 565.496 340.338 565.496 341.154C565.496 341.97 564.97 342.542 564.208 342.542Z" fill="#181919"/>
<path d="M571.093 334.922C571.093 334.713 570.924 334.544 570.715 334.544C570.507 334.544 570.337 334.713 570.337 334.922H571.093ZM570.337 345.501C570.337 345.71 570.507 345.879 570.715 345.879C570.924 345.879 571.093 345.71 571.093 345.501H570.337ZM570.337 334.922V345.501H571.093V334.922H570.337Z" fill="#71B0D0"/>
<rect x="528.003" y="328.499" width="256.171" height="23.4257" rx="5.66751" stroke="#71B0D0" stroke-width="0.755668"/>
<path d="M226.763 214.97V220.259H230.058V219.345H227.776V214.97H226.763ZM234.169 220.259L234.161 217.614C234.154 216.715 233.557 216.179 232.499 216.179C231.758 216.179 231.305 216.352 230.723 216.677L231.078 217.358C231.494 217.108 231.902 216.98 232.28 216.98C232.884 216.98 233.194 217.259 233.194 217.728V217.834H232.015C231.033 217.841 230.481 218.302 230.481 219.05C230.481 219.768 231.025 220.305 231.894 220.305C232.469 220.305 232.922 220.123 233.202 219.768V220.259H234.169ZM232.129 219.549C231.683 219.549 231.411 219.33 231.411 218.99C231.411 218.635 231.652 218.491 232.174 218.491H233.194V218.854C233.141 219.247 232.695 219.549 232.129 219.549ZM237.651 216.186C237.047 216.186 236.578 216.436 236.291 216.881V214.652H235.309V220.259H236.291V219.602C236.586 220.048 237.054 220.297 237.666 220.297C238.815 220.297 239.563 219.473 239.563 218.257C239.563 217.017 238.792 216.186 237.651 216.186ZM237.432 219.451C236.76 219.451 236.291 218.952 236.291 218.227C236.291 217.516 236.76 217.01 237.432 217.01C238.097 217.01 238.566 217.516 238.566 218.227C238.566 218.944 238.097 219.451 237.432 219.451ZM242.1 216.186C240.891 216.186 240.044 217.017 240.044 218.249C240.044 219.466 240.868 220.297 242.122 220.297C242.833 220.297 243.422 220.04 243.823 219.602L243.294 219.05C243.006 219.345 242.621 219.504 242.205 219.504C241.616 219.504 241.178 219.156 241.049 218.582H244.034C244.132 217.116 243.52 216.186 242.1 216.186ZM241.027 217.924C241.117 217.327 241.525 216.949 242.107 216.949C242.719 216.949 243.12 217.327 243.142 217.924H241.027ZM244.924 214.652V220.259H245.907V214.652H244.924Z" fill="#181919"/>
<path d="M235.559 236.105C235.559 235.897 235.39 235.728 235.181 235.728C234.973 235.728 234.804 235.897 234.804 236.105H235.559ZM234.804 246.685C234.804 246.893 234.973 247.063 235.181 247.063C235.39 247.063 235.559 246.893 235.559 246.685H234.804ZM234.804 236.105V246.685H235.559V236.105H234.804Z" fill="#71B0D0"/>
<path d="M241.462 240.426L241.952 239.374C241.345 238.975 240.501 238.703 239.658 238.703C238.234 238.703 237.282 239.411 237.282 240.517C237.282 242.775 240.692 242.022 240.692 243.346C240.692 243.791 240.284 244.045 239.603 244.045C238.923 244.045 238.062 243.691 237.409 243.111L236.901 244.135C237.581 244.743 238.57 245.151 239.585 245.151C240.982 245.151 242.016 244.462 242.016 243.274C242.025 240.998 238.615 241.696 238.615 240.408C238.615 240.018 238.987 239.81 239.558 239.81C240.048 239.81 240.782 240.018 241.462 240.426ZM245.687 243.918C245.424 244.045 245.198 244.117 244.998 244.117C244.681 244.117 244.49 243.963 244.49 243.5V241.315H245.878V240.454H244.49V239.121H243.321V240.454H242.632L242.641 241.315H243.321V243.709C243.321 244.706 243.955 245.16 244.744 245.16C245.171 245.16 245.588 245.033 245.959 244.806L245.687 243.918ZM250.911 245.105L250.902 241.932C250.893 240.853 250.176 240.209 248.907 240.209C248.018 240.209 247.474 240.417 246.776 240.807L247.202 241.623C247.701 241.324 248.191 241.17 248.644 241.17C249.369 241.17 249.741 241.505 249.741 242.068V242.195H248.327C247.148 242.204 246.486 242.757 246.486 243.655C246.486 244.516 247.139 245.16 248.182 245.16C248.871 245.16 249.415 244.942 249.75 244.516V245.105H250.911ZM248.463 244.253C247.928 244.253 247.601 243.99 247.601 243.582C247.601 243.156 247.891 242.984 248.517 242.984H249.741V243.419C249.678 243.89 249.143 244.253 248.463 244.253ZM253.412 241.188V240.254H252.233V245.105H253.412V242.766C253.412 241.886 254.038 241.288 255.063 241.351V240.209C254.31 240.218 253.739 240.553 253.412 241.188ZM258.457 243.918C258.194 244.045 257.967 244.117 257.768 244.117C257.451 244.117 257.26 243.963 257.26 243.5V241.315H258.647V240.454H257.26V239.121H256.09V240.454H255.401L255.41 241.315H256.09V243.709C256.09 244.706 256.725 245.16 257.514 245.16C257.94 245.16 258.357 245.033 258.729 244.806L258.457 243.918ZM261.711 238.758V239.837H263.688V245.105H264.912V239.837H266.889V238.758H261.711ZM269.48 245.713L271.656 240.254H270.468L269.207 243.782L267.829 240.254H266.605L268.609 245.024L268.464 245.341C268.31 245.677 268.065 245.831 267.757 245.831C267.539 245.831 267.358 245.758 267.131 245.586L266.623 246.484C266.995 246.783 267.358 246.919 267.829 246.919C268.6 246.919 269.171 246.52 269.48 245.713ZM275.192 240.218C274.466 240.218 273.904 240.517 273.56 241.052V240.254H272.381V246.865H273.56V244.317C273.913 244.852 274.475 245.151 275.21 245.151C276.588 245.151 277.486 244.162 277.486 242.702C277.486 241.215 276.561 240.218 275.192 240.218ZM274.929 244.135C274.122 244.135 273.56 243.537 273.56 242.666C273.56 241.814 274.122 241.206 274.929 241.206C275.727 241.206 276.289 241.814 276.289 242.666C276.289 243.528 275.727 244.135 274.929 244.135ZM279.097 238.214C278.725 238.214 278.462 238.486 278.462 238.867C278.462 239.248 278.725 239.52 279.097 239.52C279.469 239.52 279.732 239.248 279.732 238.867C279.732 238.486 279.469 238.214 279.097 238.214ZM278.508 240.254V245.105H279.687V240.254H278.508ZM284.067 240.209C283.278 240.218 282.67 240.517 282.325 241.161V240.254H281.147V245.105H282.325V242.721C282.325 241.923 282.797 241.333 283.595 241.324C284.266 241.324 284.674 241.741 284.674 242.421V245.105H285.862V242.077C285.862 240.925 285.182 240.209 284.067 240.209ZM290.441 240.254V240.98C290.106 240.49 289.562 240.209 288.864 240.218C287.603 240.218 286.742 241.152 286.742 242.521C286.742 243.918 287.612 244.861 288.9 244.861C289.589 244.861 290.115 244.589 290.441 244.099V244.67C290.441 245.441 289.888 245.922 289.018 245.922C288.437 245.922 287.948 245.74 287.503 245.414L287.032 246.266C287.603 246.656 288.301 246.91 289.081 246.91C290.614 246.91 291.62 246.03 291.62 244.643V240.254H290.441ZM289.154 243.936C288.383 243.936 287.866 243.364 287.857 242.548C287.866 241.741 288.392 241.161 289.154 241.161C289.916 241.161 290.441 241.732 290.441 242.548C290.441 243.364 289.916 243.936 289.154 243.936Z" fill="#EFF1F5"/>
<path fill-rule="evenodd" clip-rule="evenodd" d="M468.683 240.148C467.992 240.148 467.435 240.705 467.435 241.396C467.435 242.086 467.992 242.643 468.683 242.643C469.373 242.643 469.93 242.086 469.93 241.396C469.93 240.705 469.373 240.148 468.683 240.148ZM466.774 241.396C466.774 240.34 467.627 239.487 468.683 239.487C469.738 239.487 470.591 240.34 470.591 241.396C470.591 242.451 469.738 243.304 468.683 243.304C467.627 243.304 466.774 242.451 466.774 241.396Z" fill="#00344E"/>
<path fill-rule="evenodd" clip-rule="evenodd" d="M464.388 240.072C465.442 238.415 466.986 237.415 468.682 237.415C470.379 237.415 471.923 238.415 472.977 240.072C473.217 240.449 473.326 240.931 473.326 241.393C473.326 241.856 473.217 242.338 472.977 242.715C471.923 244.371 470.379 245.372 468.682 245.372C466.986 245.372 465.442 244.371 464.388 242.715C464.148 242.338 464.039 241.856 464.039 241.393C464.039 240.931 464.148 240.448 464.388 240.072ZM468.682 238.076C467.267 238.076 465.911 238.91 464.946 240.427L464.945 240.427C464.789 240.672 464.7 241.023 464.7 241.393C464.7 241.764 464.789 242.114 464.945 242.359L464.946 242.36C465.911 243.877 467.267 244.71 468.682 244.71C470.098 244.71 471.454 243.877 472.419 242.36L472.42 242.359C472.576 242.114 472.665 241.764 472.665 241.393C472.665 241.023 472.576 240.672 472.42 240.427L472.419 240.427C471.454 238.91 470.098 238.076 468.682 238.076Z" fill="#00344E"/>
<rect x="226.491" y="229.683" width="256.171" height="23.4257" rx="5.66751" stroke="#71B0D0" stroke-width="0.755668"/>
<path d="M226.754 261.3V265.531H227.238V263.657H229.789V265.531H230.272V261.3H229.789V263.216H227.238V261.3H226.754ZM232.745 262.333C231.82 262.339 231.167 262.992 231.167 263.941C231.167 264.89 231.814 265.549 232.751 265.549C233.283 265.549 233.73 265.356 234.032 265.023L233.772 264.751C233.525 265.011 233.18 265.156 232.787 265.156C232.164 265.156 231.711 264.745 231.632 264.117H234.232C234.28 263.041 233.772 262.333 232.745 262.333ZM231.632 263.742C231.699 263.125 232.134 262.726 232.745 262.726C233.367 262.726 233.778 263.125 233.809 263.742H231.632ZM235.071 261.046V265.531H235.543V261.046H235.071ZM238.453 262.333C237.897 262.333 237.461 262.593 237.226 263.035V262.351H236.754V266.704H237.226V264.848C237.461 265.289 237.897 265.549 238.465 265.549C239.366 265.549 239.982 264.89 239.982 263.947C239.982 262.998 239.354 262.333 238.453 262.333ZM238.368 265.132C237.697 265.132 237.226 264.637 237.226 263.935C237.226 263.24 237.697 262.738 238.368 262.738C239.033 262.738 239.505 263.246 239.505 263.935C239.505 264.63 239.033 265.132 238.368 265.132ZM245.753 262.255L246.043 261.904C245.638 261.523 245.076 261.287 244.496 261.287C243.268 261.287 242.289 262.224 242.289 263.409C242.289 264.606 243.256 265.549 244.477 265.549C245.064 265.549 245.632 265.302 246.049 264.909L245.753 264.588C245.421 264.903 244.967 265.096 244.502 265.096C243.546 265.096 242.779 264.34 242.779 263.409C242.779 262.472 243.546 261.729 244.502 261.729C244.967 261.729 245.427 261.928 245.753 262.255ZM248.048 262.333C247.099 262.333 246.434 262.992 246.434 263.935C246.434 264.884 247.099 265.549 248.048 265.549C248.991 265.549 249.662 264.884 249.662 263.935C249.662 262.992 248.991 262.333 248.048 262.333ZM248.048 262.75C248.713 262.75 249.19 263.24 249.19 263.941C249.19 264.655 248.713 265.138 248.048 265.138C247.377 265.138 246.905 264.655 246.905 263.941C246.905 263.24 247.377 262.75 248.048 262.75ZM252.22 262.333C251.664 262.333 251.229 262.593 250.993 263.035V262.351H250.521V266.704H250.993V264.848C251.229 265.289 251.664 265.549 252.232 265.549C253.133 265.549 253.75 264.89 253.75 263.947C253.75 262.998 253.121 262.333 252.22 262.333ZM252.135 265.132C251.464 265.132 250.993 264.637 250.993 263.935C250.993 263.24 251.464 262.738 252.135 262.738C252.8 262.738 253.272 263.246 253.272 263.935C253.272 264.63 252.8 265.132 252.135 265.132ZM255.492 265.985L256.955 262.351H256.471L255.461 264.999L254.404 262.351H253.908L255.226 265.507L255.093 265.809C254.966 266.112 254.76 266.269 254.512 266.269C254.355 266.269 254.21 266.22 254.065 266.118L253.866 266.492C254.059 266.65 254.271 266.722 254.537 266.722C254.96 266.722 255.292 266.468 255.492 265.985Z" fill="#181919"/>
<path d="M537.07 235.174C537.07 234.965 536.901 234.796 536.693 234.796C536.484 234.796 536.315 234.965 536.315 235.174H537.07ZM536.315 245.753C536.315 245.962 536.484 246.131 536.693 246.131C536.901 246.131 537.07 245.962 537.07 245.753H536.315ZM536.315 235.174V245.753H537.07V235.174H536.315Z" fill="#71B0D0"/>
<path d="M542.974 239.495L543.464 238.443C542.856 238.044 542.013 237.772 541.169 237.772C539.746 237.772 538.794 238.479 538.794 239.585C538.794 241.843 542.203 241.091 542.203 242.415C542.203 242.859 541.795 243.113 541.115 243.113C540.435 243.113 539.573 242.759 538.92 242.179L538.413 243.204C539.093 243.811 540.081 244.219 541.097 244.219C542.493 244.219 543.527 243.53 543.527 242.342C543.536 240.066 540.127 240.764 540.127 239.477C540.127 239.087 540.498 238.878 541.07 238.878C541.559 238.878 542.294 239.087 542.974 239.495ZM547.199 242.986C546.936 243.113 546.709 243.185 546.51 243.185C546.192 243.185 546.002 243.031 546.002 242.569V240.383H547.389V239.522H546.002V238.189H544.832V239.522H544.143L544.152 240.383H544.832V242.777C544.832 243.775 545.467 244.228 546.256 244.228C546.682 244.228 547.099 244.101 547.471 243.875L547.199 242.986ZM552.422 244.174L552.413 241C552.404 239.921 551.688 239.277 550.418 239.277C549.53 239.277 548.986 239.486 548.287 239.876L548.714 240.692C549.212 240.392 549.702 240.238 550.155 240.238C550.881 240.238 551.253 240.574 551.253 241.136V241.263H549.838C548.659 241.272 547.997 241.825 547.997 242.723C547.997 243.584 548.65 244.228 549.693 244.228C550.382 244.228 550.926 244.011 551.262 243.584V244.174H552.422ZM549.974 243.321C549.439 243.321 549.113 243.058 549.113 242.65C549.113 242.224 549.403 242.052 550.029 242.052H551.253V242.487C551.189 242.959 550.654 243.321 549.974 243.321ZM554.924 240.256V239.322H553.745V244.174H554.924V241.834C554.924 240.955 555.55 240.356 556.574 240.42V239.277C555.822 239.286 555.25 239.622 554.924 240.256ZM559.969 242.986C559.706 243.113 559.479 243.185 559.279 243.185C558.962 243.185 558.772 243.031 558.772 242.569V240.383H560.159V239.522H558.772V238.189H557.602V239.522H556.913L556.922 240.383H557.602V242.777C557.602 243.775 558.237 244.228 559.025 244.228C559.452 244.228 559.869 244.101 560.241 243.875L559.969 242.986ZM563.223 237.826V238.905H565.199V244.174H566.424V238.905H568.4V237.826H563.223ZM570.991 244.781L573.167 239.322H571.979L570.719 242.85L569.341 239.322H568.116L570.12 244.092L569.975 244.41C569.821 244.745 569.576 244.899 569.268 244.899C569.05 244.899 568.869 244.827 568.642 244.654L568.135 245.552C568.506 245.851 568.869 245.987 569.341 245.987C570.111 245.987 570.683 245.588 570.991 244.781ZM576.703 239.286C575.978 239.286 575.416 239.585 575.071 240.12V239.322H573.892V245.933H575.071V243.385C575.425 243.92 575.987 244.219 576.721 244.219C578.1 244.219 578.998 243.231 578.998 241.771C578.998 240.284 578.073 239.286 576.703 239.286ZM576.44 243.204C575.633 243.204 575.071 242.605 575.071 241.735C575.071 240.882 575.633 240.275 576.44 240.275C577.238 240.275 577.801 240.882 577.801 241.735C577.801 242.596 577.238 243.204 576.44 243.204ZM580.609 237.282C580.237 237.282 579.974 237.554 579.974 237.935C579.974 238.316 580.237 238.588 580.609 238.588C580.98 238.588 581.243 238.316 581.243 237.935C581.243 237.554 580.98 237.282 580.609 237.282ZM580.019 239.322V244.174H581.198V239.322H580.019ZM585.578 239.277C584.789 239.286 584.182 239.585 583.837 240.229V239.322H582.658V244.174H583.837V241.789C583.837 240.991 584.308 240.402 585.106 240.392C585.778 240.392 586.186 240.81 586.186 241.49V244.174H587.373V241.145C587.373 239.993 586.693 239.277 585.578 239.277ZM591.953 239.322V240.048C591.617 239.558 591.073 239.277 590.375 239.286C589.115 239.286 588.253 240.22 588.253 241.589C588.253 242.986 589.124 243.929 590.411 243.929C591.101 243.929 591.627 243.657 591.953 243.167V243.739C591.953 244.509 591.4 244.99 590.529 244.99C589.949 244.99 589.459 244.809 589.015 244.482L588.543 245.335C589.115 245.724 589.813 245.978 590.593 245.978C592.125 245.978 593.132 245.099 593.132 243.711V239.322H591.953ZM590.665 243.004C589.895 243.004 589.378 242.433 589.369 241.617C589.378 240.81 589.904 240.229 590.665 240.229C591.427 240.229 591.953 240.801 591.953 241.617C591.953 242.433 591.427 243.004 590.665 243.004Z" fill="#EFF1F5"/>
<rect x="528.003" y="228.75" width="256.171" height="23.4257" rx="5.66751" stroke="#71B0D0" stroke-width="0.755668"/>
<path d="M226.763 512.703V517.992H230.058V517.078H227.776V512.703H226.763ZM234.169 517.992L234.161 515.347C234.154 514.448 233.557 513.912 232.499 513.912C231.758 513.912 231.305 514.085 230.723 514.41L231.078 515.09C231.494 514.841 231.902 514.713 232.28 514.713C232.884 514.713 233.194 514.992 233.194 515.461V515.566H232.015C231.033 515.574 230.481 516.035 230.481 516.783C230.481 517.501 231.025 518.038 231.894 518.038C232.469 518.038 232.922 517.856 233.202 517.501V517.992H234.169ZM232.129 517.282C231.683 517.282 231.411 517.063 231.411 516.723C231.411 516.368 231.652 516.224 232.174 516.224H233.194V516.587C233.141 516.98 232.695 517.282 232.129 517.282ZM237.651 513.919C237.047 513.919 236.578 514.169 236.291 514.614V512.385H235.309V517.992H236.291V517.335C236.586 517.781 237.054 518.03 237.666 518.03C238.815 518.03 239.563 517.206 239.563 515.99C239.563 514.75 238.792 513.919 237.651 513.919ZM237.432 517.184C236.76 517.184 236.291 516.685 236.291 515.959C236.291 515.249 236.76 514.743 237.432 514.743C238.097 514.743 238.566 515.249 238.566 515.959C238.566 516.677 238.097 517.184 237.432 517.184ZM242.1 513.919C240.891 513.919 240.044 514.75 240.044 515.982C240.044 517.199 240.868 518.03 242.122 518.03C242.833 518.03 243.422 517.773 243.823 517.335L243.294 516.783C243.006 517.078 242.621 517.237 242.205 517.237C241.616 517.237 241.178 516.889 241.049 516.315H244.034C244.132 514.849 243.52 513.919 242.1 513.919ZM241.027 515.657C241.117 515.06 241.525 514.682 242.107 514.682C242.719 514.682 243.12 515.06 243.142 515.657H241.027ZM244.924 512.385V517.992H245.907V512.385H244.924Z" fill="#9A9EA6"/>
<path d="M235.961 536.491V542.838H237.176V536.491H235.961ZM241.608 537.942C240.819 537.951 240.211 538.25 239.867 538.894V537.987H238.688V542.838H239.867V540.453C239.867 539.656 240.338 539.066 241.136 539.057C241.807 539.057 242.215 539.474 242.215 540.154V542.838H243.403V539.81C243.403 538.658 242.723 537.942 241.608 537.942ZM248.753 542.838L248.744 539.665C248.735 538.585 248.019 537.942 246.749 537.942C245.861 537.942 245.317 538.15 244.618 538.54L245.044 539.356C245.543 539.057 246.033 538.903 246.486 538.903C247.212 538.903 247.584 539.238 247.584 539.801V539.928H246.169C244.99 539.937 244.328 540.49 244.328 541.387C244.328 542.249 244.981 542.893 246.024 542.893C246.713 542.893 247.257 542.675 247.593 542.249V542.838H248.753ZM246.305 541.986C245.77 541.986 245.443 541.723 245.443 541.315C245.443 540.889 245.734 540.716 246.359 540.716H247.584V541.152C247.52 541.623 246.985 541.986 246.305 541.986ZM253.413 539.519L254.129 538.839C253.694 538.277 252.987 537.951 252.098 537.951C250.638 537.951 249.631 538.948 249.631 540.426C249.631 541.886 250.629 542.884 252.08 542.884C253.032 542.884 253.757 542.521 254.184 541.904L253.449 541.297C253.159 541.678 252.706 541.868 252.143 541.868C251.363 541.868 250.819 541.288 250.819 540.417C250.819 539.565 251.363 538.984 252.143 538.984C252.678 538.984 253.105 539.184 253.413 539.519ZM257.761 541.65C257.498 541.777 257.271 541.85 257.071 541.85C256.754 541.85 256.564 541.696 256.564 541.233V539.048H257.951V538.186H256.564V536.853H255.394V538.186H254.705L254.714 539.048H255.394V541.442C255.394 542.439 256.029 542.893 256.817 542.893C257.244 542.893 257.661 542.766 258.033 542.539L257.761 541.65ZM259.547 535.947C259.175 535.947 258.913 536.219 258.913 536.6C258.913 536.98 259.175 537.252 259.547 537.252C259.919 537.252 260.182 536.98 260.182 536.6C260.182 536.219 259.919 535.947 259.547 535.947ZM258.958 537.987V542.838H260.137V537.987H258.958ZM260.853 537.996L262.721 542.838H263.936L265.786 537.987H264.598L263.356 541.678L262.086 537.987L260.853 537.996ZM268.321 537.951C266.87 537.951 265.855 538.948 265.855 540.426C265.855 541.886 266.843 542.884 268.348 542.884C269.201 542.884 269.908 542.575 270.389 542.049L269.754 541.387C269.409 541.741 268.947 541.932 268.448 541.932C267.741 541.932 267.215 541.514 267.061 540.825H270.643C270.761 539.066 270.026 537.951 268.321 537.951ZM267.034 540.036C267.142 539.32 267.632 538.867 268.33 538.867C269.065 538.867 269.545 539.32 269.573 540.036H267.034Z" fill="#DFE1E6"/>
<path fill-rule="evenodd" clip-rule="evenodd" d="M468.683 537.881C467.992 537.881 467.435 538.438 467.435 539.128C467.435 539.819 467.992 540.376 468.683 540.376C469.373 540.376 469.93 539.819 469.93 539.128C469.93 538.438 469.373 537.881 468.683 537.881ZM466.774 539.128C466.774 538.073 467.627 537.22 468.683 537.22C469.738 537.22 470.591 538.073 470.591 539.128C470.591 540.184 469.738 541.037 468.683 541.037C467.627 541.037 466.774 540.184 466.774 539.128Z" fill="#DFE1E6"/>
<path fill-rule="evenodd" clip-rule="evenodd" d="M464.388 537.805C465.442 536.148 466.986 535.148 468.682 535.148C470.379 535.148 471.923 536.148 472.977 537.805C473.217 538.181 473.326 538.664 473.326 539.126C473.326 539.589 473.217 540.071 472.977 540.448C471.923 542.104 470.379 543.104 468.682 543.104C466.986 543.104 465.442 542.104 464.388 540.448C464.148 540.071 464.039 539.589 464.039 539.126C464.039 538.664 464.148 538.181 464.388 537.805ZM468.682 535.809C467.267 535.809 465.911 536.643 464.946 538.16L464.945 538.16C464.789 538.405 464.7 538.756 464.7 539.126C464.7 539.497 464.789 539.847 464.945 540.092L464.946 540.093C465.911 541.61 467.267 542.443 468.682 542.443C470.098 542.443 471.454 541.61 472.419 540.093L472.42 540.092C472.576 539.847 472.665 539.497 472.665 539.126C472.665 538.756 472.576 538.405 472.42 538.16L472.419 538.16C471.454 536.643 470.098 535.809 468.682 535.809Z" fill="#DFE1E6"/>
<rect x="226.491" y="527.415" width="256.171" height="23.4257" rx="5.66751" stroke="#EFF1F5" stroke-width="0.755668"/>
<path d="M226.754 559.032V563.264H227.238V561.39H229.789V563.264H230.272V559.032H229.789V560.949H227.238V559.032H226.754ZM232.745 560.066C231.82 560.072 231.167 560.725 231.167 561.674C231.167 562.623 231.814 563.282 232.751 563.282C233.283 563.282 233.73 563.089 234.032 562.756L233.772 562.484C233.525 562.744 233.18 562.889 232.787 562.889C232.164 562.889 231.711 562.478 231.632 561.85H234.232C234.28 560.773 233.772 560.066 232.745 560.066ZM231.632 561.475C231.699 560.858 232.134 560.459 232.745 560.459C233.367 560.459 233.778 560.858 233.809 561.475H231.632ZM235.071 558.779V563.264H235.543V558.779H235.071ZM238.453 560.066C237.897 560.066 237.461 560.326 237.226 560.767V560.084H236.754V564.437H237.226V562.581C237.461 563.022 237.897 563.282 238.465 563.282C239.366 563.282 239.982 562.623 239.982 561.68C239.982 560.731 239.354 560.066 238.453 560.066ZM238.368 562.865C237.697 562.865 237.226 562.369 237.226 561.668C237.226 560.973 237.697 560.471 238.368 560.471C239.033 560.471 239.505 560.979 239.505 561.668C239.505 562.363 239.033 562.865 238.368 562.865ZM245.753 559.988L246.043 559.637C245.638 559.256 245.076 559.02 244.496 559.02C243.268 559.02 242.289 559.957 242.289 561.142C242.289 562.339 243.256 563.282 244.477 563.282C245.064 563.282 245.632 563.034 246.049 562.641L245.753 562.321C245.421 562.635 244.967 562.829 244.502 562.829C243.546 562.829 242.779 562.073 242.779 561.142C242.779 560.205 243.546 559.462 244.502 559.462C244.967 559.462 245.427 559.661 245.753 559.988ZM248.048 560.066C247.099 560.066 246.434 560.725 246.434 561.668C246.434 562.617 247.099 563.282 248.048 563.282C248.991 563.282 249.662 562.617 249.662 561.668C249.662 560.725 248.991 560.066 248.048 560.066ZM248.048 560.483C248.713 560.483 249.19 560.973 249.19 561.674C249.19 562.388 248.713 562.871 248.048 562.871C247.377 562.871 246.905 562.388 246.905 561.674C246.905 560.973 247.377 560.483 248.048 560.483ZM252.22 560.066C251.664 560.066 251.229 560.326 250.993 560.767V560.084H250.521V564.437H250.993V562.581C251.229 563.022 251.664 563.282 252.232 563.282C253.133 563.282 253.75 562.623 253.75 561.68C253.75 560.731 253.121 560.066 252.22 560.066ZM252.135 562.865C251.464 562.865 250.993 562.369 250.993 561.668C250.993 560.973 251.464 560.471 252.135 560.471C252.8 560.471 253.272 560.979 253.272 561.668C253.272 562.363 252.8 562.865 252.135 562.865ZM255.492 563.718L256.955 560.084H256.471L255.461 562.732L254.404 560.084H253.908L255.226 563.24L255.093 563.542C254.966 563.845 254.76 564.002 254.512 564.002C254.355 564.002 254.21 563.953 254.065 563.851L253.866 564.225C254.059 564.383 254.271 564.455 254.537 564.455C254.96 564.455 255.292 564.201 255.492 563.718Z" fill="#9A9EA6"/>
<path d="M537.472 535.559V541.907H538.688V535.559H537.472ZM543.119 537.01C542.33 537.019 541.722 537.318 541.378 537.962V537.055H540.199V541.907H541.378V539.522C541.378 538.724 541.849 538.134 542.647 538.125C543.318 538.125 543.726 538.543 543.726 539.223V541.907H544.914V538.878C544.914 537.726 544.234 537.01 543.119 537.01ZM550.265 541.907L550.255 538.733C550.246 537.654 549.53 537.01 548.261 537.01C547.372 537.01 546.828 537.219 546.13 537.609L546.556 538.425C547.054 538.125 547.544 537.971 547.998 537.971C548.723 537.971 549.095 538.307 549.095 538.869V538.996H547.68C546.501 539.005 545.839 539.558 545.839 540.456C545.839 541.317 546.492 541.961 547.535 541.961C548.224 541.961 548.768 541.744 549.104 541.317V541.907H550.265ZM547.816 541.054C547.281 541.054 546.955 540.791 546.955 540.383C546.955 539.957 547.245 539.785 547.871 539.785H549.095V540.22C549.031 540.692 548.496 541.054 547.816 541.054ZM554.924 538.588L555.64 537.908C555.205 537.346 554.498 537.019 553.609 537.019C552.149 537.019 551.143 538.017 551.143 539.495C551.143 540.955 552.14 541.952 553.591 541.952C554.543 541.952 555.269 541.589 555.695 540.973L554.96 540.365C554.67 540.746 554.217 540.936 553.655 540.936C552.875 540.936 552.331 540.356 552.331 539.486C552.331 538.633 552.875 538.053 553.655 538.053C554.19 538.053 554.616 538.252 554.924 538.588ZM559.272 540.719C559.009 540.846 558.782 540.918 558.583 540.918C558.265 540.918 558.075 540.764 558.075 540.302V538.116H559.462V537.255H558.075V535.922H556.905V537.255H556.216L556.225 538.116H556.905V540.51C556.905 541.508 557.54 541.961 558.329 541.961C558.755 541.961 559.172 541.834 559.544 541.607L559.272 540.719ZM561.059 535.015C560.687 535.015 560.424 535.287 560.424 535.668C560.424 536.049 560.687 536.321 561.059 536.321C561.43 536.321 561.693 536.049 561.693 535.668C561.693 535.287 561.43 535.015 561.059 535.015ZM560.469 537.055V541.907H561.648V537.055H560.469ZM562.364 537.064L564.232 541.907H565.448L567.297 537.055H566.11L564.867 540.746L563.598 537.055L562.364 537.064ZM569.832 537.019C568.382 537.019 567.366 538.017 567.366 539.495C567.366 540.955 568.354 541.952 569.86 541.952C570.712 541.952 571.419 541.644 571.9 541.118L571.265 540.456C570.921 540.81 570.458 541 569.959 541C569.252 541 568.726 540.583 568.572 539.894H572.154C572.272 538.134 571.537 537.019 569.832 537.019ZM568.545 539.105C568.654 538.388 569.143 537.935 569.842 537.935C570.576 537.935 571.057 538.388 571.084 539.105H568.545Z" fill="#DFE1E6"/>
<rect x="528.003" y="526.484" width="256.171" height="23.4257" rx="5.66751" stroke="#EFF1F5" stroke-width="0.755668"/>
<path d="M226.763 607.917V613.207H230.058V612.292H227.776V607.917H226.763ZM234.169 613.207L234.161 610.562C234.154 609.662 233.557 609.126 232.499 609.126C231.758 609.126 231.305 609.3 230.723 609.625L231.078 610.305C231.494 610.055 231.902 609.927 232.28 609.927C232.884 609.927 233.194 610.207 233.194 610.675V610.781H232.015C231.033 610.788 230.481 611.249 230.481 611.997C230.481 612.715 231.025 613.252 231.894 613.252C232.469 613.252 232.922 613.071 233.202 612.715V613.207H234.169ZM232.129 612.496C231.683 612.496 231.411 612.277 231.411 611.937C231.411 611.582 231.652 611.438 232.174 611.438H233.194V611.801C233.141 612.194 232.695 612.496 232.129 612.496ZM237.651 609.133C237.047 609.133 236.578 609.383 236.291 609.829V607.599H235.309V613.207H236.291V612.549C236.586 612.995 237.054 613.244 237.666 613.244C238.815 613.244 239.563 612.421 239.563 611.204C239.563 609.965 238.792 609.133 237.651 609.133ZM237.432 612.398C236.76 612.398 236.291 611.899 236.291 611.174C236.291 610.463 236.76 609.957 237.432 609.957C238.097 609.957 238.566 610.463 238.566 611.174C238.566 611.892 238.097 612.398 237.432 612.398ZM242.1 609.133C240.891 609.133 240.044 609.965 240.044 611.196C240.044 612.413 240.868 613.244 242.122 613.244C242.833 613.244 243.422 612.987 243.823 612.549L243.294 611.997C243.006 612.292 242.621 612.451 242.205 612.451C241.616 612.451 241.178 612.103 241.049 611.529H244.034C244.132 610.063 243.52 609.133 242.1 609.133ZM241.027 610.872C241.117 610.275 241.525 609.897 242.107 609.897C242.719 609.897 243.12 610.275 243.142 610.872H241.027ZM244.924 607.599V613.207H245.907V607.599H244.924Z" fill="#181919"/>
<path d="M235.254 631.705V632.784H237.231V638.053H238.455V632.784H240.432V631.705H235.254ZM242.64 633.165C241.189 633.165 240.174 634.163 240.174 635.641C240.174 637.101 241.162 638.098 242.668 638.098C243.52 638.098 244.227 637.79 244.708 637.264L244.073 636.602C243.728 636.956 243.266 637.146 242.767 637.146C242.06 637.146 241.534 636.729 241.38 636.04H244.962C245.08 634.28 244.345 633.165 242.64 633.165ZM241.353 635.251C241.461 634.534 241.951 634.081 242.649 634.081C243.384 634.081 243.865 634.534 243.892 635.251H241.353ZM245.193 633.201L246.771 635.568L245.075 638.053H246.39L247.56 636.357L248.639 638.053H249.999L248.349 635.568L249.89 633.201H248.594L247.56 634.779L246.553 633.201H245.193ZM253.43 636.865C253.167 636.992 252.941 637.064 252.741 637.064C252.424 637.064 252.233 636.91 252.233 636.448V634.262H253.621V633.401H252.233V632.068H251.063V633.401H250.374L250.383 634.262H251.063V636.656C251.063 637.654 251.698 638.107 252.487 638.107C252.913 638.107 253.33 637.98 253.702 637.753L253.43 636.865ZM257.392 631.705V638.053H258.607V635.477H261.771V638.053H262.986V631.705H261.771V634.416H258.607V631.705H257.392ZM266.532 633.165C265.082 633.165 264.066 634.163 264.066 635.641C264.066 637.101 265.054 638.098 266.56 638.098C267.412 638.098 268.119 637.79 268.6 637.264L267.965 636.602C267.621 636.956 267.158 637.146 266.659 637.146C265.952 637.146 265.426 636.729 265.272 636.04H268.854C268.972 634.28 268.237 633.165 266.532 633.165ZM265.245 635.251C265.354 634.534 265.843 634.081 266.541 634.081C267.276 634.081 267.757 634.534 267.784 635.251H265.245ZM271.056 634.135V633.201H269.877V638.053H271.056V635.713C271.056 634.834 271.681 634.235 272.706 634.299V633.156C271.953 633.165 271.382 633.501 271.056 634.135ZM275.556 633.165C274.105 633.165 273.09 634.163 273.09 635.641C273.09 637.101 274.078 638.098 275.583 638.098C276.436 638.098 277.143 637.79 277.624 637.264L276.989 636.602C276.644 636.956 276.182 637.146 275.683 637.146C274.976 637.146 274.45 636.729 274.296 636.04H277.878C277.995 634.28 277.261 633.165 275.556 633.165ZM274.268 635.251C274.377 634.534 274.867 634.081 275.565 634.081C276.3 634.081 276.78 634.534 276.808 635.251H274.268Z" fill="#181919"/>
<g clip-path="url(#clip1_111_4217)">
<path fill-rule="evenodd" clip-rule="evenodd" d="M468.682 632.689C468.865 632.689 469.013 632.837 469.013 633.02V635.224C469.013 635.407 468.865 635.555 468.682 635.555C468.5 635.555 468.352 635.407 468.352 635.224V633.02C468.352 632.837 468.5 632.689 468.682 632.689Z" fill="#AB0C00"/>
<path fill-rule="evenodd" clip-rule="evenodd" d="M468.682 630.526C468.33 630.526 467.903 630.768 467.543 631.417L464.872 636.222C464.537 636.826 464.551 637.303 464.731 637.609C464.91 637.915 465.319 638.16 466.011 638.16H468.682C468.701 638.16 468.719 638.161 468.737 638.164H471.354C472.043 638.164 472.452 637.92 472.633 637.613C472.813 637.307 472.828 636.83 472.493 636.226L469.822 631.417C469.462 630.768 469.035 630.526 468.682 630.526ZM468.628 638.821H466.011C465.174 638.821 464.498 638.519 464.161 637.944C463.823 637.37 463.888 636.632 464.294 635.901L466.965 631.096C466.965 631.096 466.965 631.096 466.965 631.096C467.39 630.33 467.999 629.865 468.682 629.865C469.366 629.865 469.975 630.33 470.4 631.096L471.696 633.428L473.071 635.905C473.477 636.637 473.54 637.375 473.202 637.949C472.865 638.523 472.189 638.825 471.354 638.825H468.682C468.664 638.825 468.646 638.824 468.628 638.821Z" fill="#AB0C00"/>
<path fill-rule="evenodd" clip-rule="evenodd" d="M468.239 636.546C468.239 636.303 468.437 636.105 468.68 636.105H468.684C468.927 636.105 469.125 636.303 469.125 636.546C469.125 636.79 468.927 636.987 468.684 636.987H468.68C468.437 636.987 468.239 636.79 468.239 636.546Z" fill="#AB0C00"/>
</g>
<rect x="226.491" y="622.63" width="256.171" height="23.4257" rx="5.66751" stroke="#FF9691" stroke-width="0.755668"/>
<path d="M226.754 654.247V658.479H229.704V658.031H227.238V656.556H229.372V656.115H227.238V654.694H229.626V654.247H226.754ZM231.097 656.006V655.299H230.625V658.479H231.097V656.786C231.151 656.145 231.568 655.728 232.239 655.74V655.281C231.701 655.287 231.308 655.54 231.097 656.006ZM233.346 656.006V655.299H232.875V658.479H233.346V656.786C233.401 656.145 233.818 655.728 234.489 655.74V655.281C233.951 655.287 233.558 655.54 233.346 656.006ZM236.418 655.281C235.468 655.281 234.804 655.939 234.804 656.883C234.804 657.832 235.468 658.497 236.418 658.497C237.361 658.497 238.032 657.832 238.032 656.883C238.032 655.939 237.361 655.281 236.418 655.281ZM236.418 655.698C237.083 655.698 237.56 656.187 237.56 656.889C237.56 657.602 237.083 658.086 236.418 658.086C235.747 658.086 235.275 657.602 235.275 656.889C235.275 656.187 235.747 655.698 236.418 655.698ZM239.332 656.006V655.299H238.861V658.479H239.332V656.786C239.387 656.145 239.804 655.728 240.475 655.74V655.281C239.937 655.287 239.544 655.54 239.332 656.006ZM242.989 654.247V658.479H243.449V654.96L244.984 658.031H245.274L246.816 654.96L246.822 658.479H247.269V654.247H246.677L245.135 657.318L243.588 654.247H242.989ZM249.747 655.281C248.822 655.287 248.169 655.939 248.169 656.889C248.169 657.838 248.816 658.497 249.753 658.497C250.285 658.497 250.733 658.303 251.035 657.971L250.775 657.699C250.527 657.959 250.182 658.104 249.79 658.104C249.167 658.104 248.713 657.693 248.635 657.064H251.234C251.283 655.988 250.775 655.281 249.747 655.281ZM248.635 656.689C248.701 656.072 249.137 655.673 249.747 655.673C250.37 655.673 250.781 656.072 250.811 656.689H248.635ZM253.724 655.927L253.906 655.565C253.64 655.389 253.271 655.274 252.89 655.274C252.31 655.274 251.784 655.534 251.784 656.139C251.778 657.263 253.561 656.87 253.543 657.644C253.537 657.965 253.235 658.11 252.86 658.11C252.485 658.11 252.074 657.959 251.802 657.705L251.621 658.049C251.923 658.339 252.388 658.497 252.842 658.497C253.452 658.497 254.009 658.219 254.009 657.596C254.009 656.453 252.231 656.822 252.231 656.103C252.231 655.8 252.503 655.673 252.86 655.673C253.156 655.673 253.477 655.77 253.724 655.927ZM256.464 655.927L256.645 655.565C256.379 655.389 256.01 655.274 255.629 655.274C255.049 655.274 254.523 655.534 254.523 656.139C254.517 657.263 256.3 656.87 256.282 657.644C256.276 657.965 255.974 658.11 255.599 658.11C255.224 658.11 254.813 657.959 254.541 657.705L254.36 658.049C254.662 658.339 255.128 658.497 255.581 658.497C256.192 658.497 256.748 658.219 256.748 657.596C256.748 656.453 254.97 656.822 254.97 656.103C254.97 655.8 255.243 655.673 255.599 655.673C255.895 655.673 256.216 655.77 256.464 655.927ZM259.959 658.479L259.953 656.375C259.947 655.698 259.511 655.281 258.725 655.281C258.181 655.281 257.837 655.438 257.426 655.71L257.625 656.042C257.958 655.806 258.284 655.673 258.635 655.673C259.197 655.673 259.487 655.958 259.487 656.423V656.623H258.441C257.692 656.629 257.25 656.979 257.25 657.535C257.25 658.08 257.673 658.497 258.332 658.497C258.84 658.497 259.245 658.327 259.499 657.983V658.479H259.959ZM258.423 658.104C257.976 658.104 257.692 657.868 257.692 657.517C257.692 657.161 257.97 656.997 258.502 656.997H259.493V657.384C259.372 657.838 258.961 658.104 258.423 658.104ZM263.315 655.299V655.946C263.085 655.522 262.674 655.274 262.13 655.281C261.277 655.287 260.691 655.909 260.691 656.804C260.691 657.705 261.283 658.339 262.142 658.339C262.68 658.339 263.091 658.098 263.315 657.674V658.158C263.315 658.829 262.861 659.258 262.166 659.258C261.743 659.252 261.41 659.113 261.096 658.853L260.878 659.198C261.265 659.494 261.682 659.657 262.184 659.663C263.151 659.663 263.786 659.077 263.786 658.146V655.299H263.315ZM262.227 657.953C261.586 657.953 261.138 657.475 261.132 656.816C261.138 656.151 261.586 655.673 262.227 655.673C262.861 655.673 263.315 656.151 263.315 656.816C263.315 657.475 262.861 657.953 262.227 657.953ZM266.112 655.281C265.187 655.287 264.534 655.939 264.534 656.889C264.534 657.838 265.181 658.497 266.118 658.497C266.65 658.497 267.098 658.303 267.4 657.971L267.14 657.699C266.892 657.959 266.547 658.104 266.154 658.104C265.532 658.104 265.078 657.693 265 657.064H267.599C267.648 655.988 267.14 655.281 266.112 655.281ZM265 656.689C265.066 656.072 265.502 655.673 266.112 655.673C266.735 655.673 267.146 656.072 267.176 656.689H265Z" fill="#AB0C00"/>
<path d="M536.765 630.773V631.853H538.742V637.121H539.966V631.853H541.943V630.773H536.765ZM544.152 632.233C542.701 632.233 541.685 633.231 541.685 634.709C541.685 636.169 542.673 637.166 544.179 637.166C545.031 637.166 545.738 636.858 546.219 636.332L545.584 635.67C545.24 636.024 544.777 636.214 544.279 636.214C543.571 636.214 543.045 635.797 542.891 635.108H546.473C546.591 633.349 545.856 632.233 544.152 632.233ZM542.864 634.319C542.973 633.603 543.462 633.149 544.161 633.149C544.895 633.149 545.376 633.603 545.403 634.319H542.864ZM546.704 632.27L548.282 634.636L546.587 637.121H547.901L549.071 635.425L550.15 637.121H551.51L549.86 634.636L551.402 632.27H550.105L549.071 633.848L548.065 632.27H546.704ZM554.941 635.933C554.678 636.06 554.452 636.133 554.252 636.133C553.935 636.133 553.744 635.979 553.744 635.516V633.331H555.132V632.469H553.744V631.136H552.575V632.469H551.886L551.895 633.331H552.575V635.725C552.575 636.722 553.209 637.176 553.998 637.176C554.425 637.176 554.842 637.049 555.213 636.822L554.941 635.933ZM558.903 630.773V637.121H560.118V634.546H563.283V637.121H564.498V630.773H563.283V633.485H560.118V630.773H558.903ZM568.044 632.233C566.593 632.233 565.577 633.231 565.577 634.709C565.577 636.169 566.566 637.166 568.071 637.166C568.923 637.166 569.631 636.858 570.111 636.332L569.476 635.67C569.132 636.024 568.669 636.214 568.171 636.214C567.463 636.214 566.937 635.797 566.783 635.108H570.365C570.483 633.349 569.748 632.233 568.044 632.233ZM566.756 634.319C566.865 633.603 567.354 633.149 568.053 633.149C568.787 633.149 569.268 633.603 569.295 634.319H566.756ZM572.567 633.204V632.27H571.388V637.121H572.567V634.782C572.567 633.902 573.192 633.303 574.217 633.367V632.224C573.464 632.233 572.893 632.569 572.567 633.204ZM577.067 632.233C575.616 632.233 574.601 633.231 574.601 634.709C574.601 636.169 575.589 637.166 577.095 637.166C577.947 637.166 578.654 636.858 579.135 636.332L578.5 635.67C578.156 636.024 577.693 636.214 577.194 636.214C576.487 636.214 575.961 635.797 575.807 635.108H579.389C579.507 633.349 578.772 632.233 577.067 632.233ZM575.78 634.319C575.889 633.603 576.378 633.149 577.076 633.149C577.811 633.149 578.292 633.603 578.319 634.319H575.78Z" fill="#181919"/>
<rect x="528.003" y="621.698" width="256.171" height="23.4257" rx="5.66751" stroke="#FF9691" stroke-width="0.755668"/>
<rect x="211.5" y="112.5" width="599" height="581.62" rx="3.27834" stroke="#D3D5FF"/>
</g>
<defs>
<clipPath id="clip0_111_4217">
<rect width="930" height="749" fill="white"/>
</clipPath>
<clipPath id="clip1_111_4217">
<rect width="10.5793" height="10.5793" fill="white" transform="translate(463.393 629.053)"/>
</clipPath>
</defs>
</svg>
