<svg width="1100" height="178" viewBox="0 0 1100 178" fill="none" xmlns="http://www.w3.org/2000/svg">
<circle r="25.407" transform="matrix(-1 0 0 1 311.163 70.8372)" stroke="#797DE1" stroke-width="5"/>
<circle r="18.6047" transform="matrix(-1 0 0 1 311.163 70.8373)" fill="#A3FFDF"/>
<circle cx="331.628" cy="54.0931" r="5.5814" transform="rotate(180 331.628 54.0931)" fill="#A3FFDF"/>
<circle cx="292.558" cy="89.4419" r="5.5814" transform="rotate(180 292.558 89.4419)" fill="#A3FFDF"/>
<circle r="25.407" transform="matrix(-1 0 0 1 247.907 94.093)" stroke="#797DE1" stroke-width="5"/>
<circle r="18.6047" transform="matrix(-1 0 0 1 247.907 94.093)" fill="#A3FFDF"/>
<circle cx="268.372" cy="77.3488" r="5.5814" transform="rotate(180 268.372 77.3488)" fill="#A3FFDF"/>
<circle cx="229.302" cy="112.698" r="5.5814" transform="rotate(180 229.302 112.698)" fill="#A3FFDF"/>
<circle r="25.407" transform="matrix(-1 0 0 1 257.209 29.907)" stroke="#797DE1" stroke-width="5"/>
<circle r="18.6047" transform="matrix(-1 0 0 1 257.209 29.907)" fill="#A3FFDF"/>
<circle cx="277.674" cy="13.1628" r="5.5814" transform="rotate(180 277.674 13.1628)" fill="#A3FFDF"/>
<circle cx="238.605" cy="48.5116" r="5.5814" transform="rotate(180 238.605 48.5116)" fill="#A3FFDF"/>
<circle r="20.8269" transform="matrix(-1 0 0 1 623.615 88.9232)" stroke="#797DE1" stroke-width="4.5"/>
<circle r="15.3846" transform="matrix(-1 0 0 1 623.615 88.9232)" fill="#A3FFDF"/>
<circle cx="640.539" cy="75.0769" r="4.61538" transform="rotate(180 640.539 75.0769)" fill="#A3FFDF"/>
<circle cx="608.231" cy="104.308" r="4.61538" transform="rotate(180 608.231 104.308)" fill="#A3FFDF"/>
<circle r="20.8269" transform="matrix(-1 0 0 1 569.769 88.9232)" stroke="#797DE1" stroke-width="4.5"/>
<circle r="15.3846" transform="matrix(-1 0 0 1 569.769 88.9232)" fill="#A3FFDF"/>
<circle cx="586.692" cy="75.0769" r="4.61538" transform="rotate(180 586.692 75.0769)" fill="#A3FFDF"/>
<circle cx="554.385" cy="104.308" r="4.61538" transform="rotate(180 554.385 104.308)" fill="#A3FFDF"/>
<circle r="20.8269" transform="matrix(-1 0 0 1 515.923 88.9232)" stroke="#797DE1" stroke-width="4.5"/>
<circle r="15.3846" transform="matrix(-1 0 0 1 515.923 88.9232)" fill="#A3FFDF"/>
<circle cx="532.846" cy="75.0769" r="4.61538" transform="rotate(180 532.846 75.0769)" fill="#A3FFDF"/>
<circle cx="500.538" cy="104.308" r="4.61538" transform="rotate(180 500.538 104.308)" fill="#A3FFDF"/>
<circle r="20.8269" transform="matrix(-1 0 0 1 462.077 88.9232)" stroke="#797DE1" stroke-width="4.5"/>
<circle r="15.3846" transform="matrix(-1 0 0 1 462.077 88.9232)" fill="#A3FFDF"/>
<circle cx="479" cy="75.0769" r="4.61538" transform="rotate(180 479 75.0769)" fill="#A3FFDF"/>
<circle cx="446.692" cy="104.308" r="4.61538" transform="rotate(180 446.692 104.308)" fill="#A3FFDF"/>
<circle r="20.8269" transform="matrix(-1 0 0 1 623.615 35.0769)" stroke="#797DE1" stroke-width="4.5"/>
<circle r="15.3846" transform="matrix(-1 0 0 1 623.615 35.0769)" fill="#A3FFDF"/>
<circle cx="640.539" cy="21.2309" r="4.61538" transform="rotate(180 640.539 21.2309)" fill="#A3FFDF"/>
<circle cx="608.231" cy="50.4616" r="4.61538" transform="rotate(180 608.231 50.4616)" fill="#A3FFDF"/>
<circle r="20.8269" transform="matrix(-1 0 0 1 569.769 35.0769)" stroke="#797DE1" stroke-width="4.5"/>
<circle r="15.3846" transform="matrix(-1 0 0 1 569.769 35.0769)" fill="#A3FFDF"/>
<circle cx="586.692" cy="21.2309" r="4.61538" transform="rotate(180 586.692 21.2309)" fill="#A3FFDF"/>
<circle cx="554.385" cy="50.4616" r="4.61538" transform="rotate(180 554.385 50.4616)" fill="#A3FFDF"/>
<circle r="20.8269" transform="matrix(-1 0 0 1 515.923 35.0769)" stroke="#797DE1" stroke-width="4.5"/>
<circle r="15.3846" transform="matrix(-1 0 0 1 515.923 35.0769)" fill="#A3FFDF"/>
<circle cx="532.846" cy="21.2309" r="4.61538" transform="rotate(180 532.846 21.2309)" fill="#A3FFDF"/>
<circle cx="500.538" cy="50.4616" r="4.61538" transform="rotate(180 500.538 50.4616)" fill="#A3FFDF"/>
<circle r="20.8269" transform="matrix(-1 0 0 1 462.077 35.0769)" stroke="#797DE1" stroke-width="4.5"/>
<circle r="15.3846" transform="matrix(-1 0 0 1 462.077 35.0769)" fill="#A3FFDF"/>
<circle cx="479" cy="21.2309" r="4.61538" transform="rotate(180 479 21.2309)" fill="#A3FFDF"/>
<circle cx="446.692" cy="50.4616" r="4.61538" transform="rotate(180 446.692 50.4616)" fill="#A3FFDF"/>
<circle cx="60" cy="62" r="56" stroke="#797DE1" stroke-width="8"/>
<circle cx="60" cy="62" r="40" fill="#A3FFDF"/>
<circle r="12" transform="matrix(1 0 0 -1 16 26)" fill="#A3FFDF"/>
<circle r="12" transform="matrix(1 0 0 -1 100 102)" fill="#A3FFDF"/>
<rect x="753" y="3" width="72.5185" height="87.3334" fill="#E7ECFF" stroke="#797DE1" stroke-width="6" stroke-dasharray="1 1"/>
<circle r="3.73333" transform="matrix(-1 0 0 1 806.296 74.0742)" stroke="#797DE1" stroke-width="1.42223"/>
<circle r="3.73333" transform="matrix(-1 0 0 1 794.444 74.0742)" stroke="#797DE1" stroke-width="1.42223"/>
<circle r="3.73333" transform="matrix(-1 0 0 1 782.593 74.0742)" stroke="#797DE1" stroke-width="1.42223"/>
<circle r="3.73333" transform="matrix(-1 0 0 1 770.741 74.0742)" stroke="#797DE1" stroke-width="1.42223"/>
<circle r="3.73333" transform="matrix(-1 0 0 1 806.296 22.2222)" stroke="#797DE1" stroke-width="1.42223"/>
<circle r="3.73333" transform="matrix(-1 0 0 1 794.444 22.2222)" stroke="#797DE1" stroke-width="1.42223"/>
<circle r="3.73333" transform="matrix(-1 0 0 1 782.593 22.2222)" stroke="#797DE1" stroke-width="1.42223"/>
<circle r="3.73333" transform="matrix(-1 0 0 1 770.741 22.2222)" stroke="#797DE1" stroke-width="1.42223"/>
<rect x="794.481" y="33.359" width="72.5185" height="87.3334" fill="#E7ECFF" stroke="#797DE1" stroke-width="6" stroke-dasharray="1 1"/>
<circle r="3.73333" transform="matrix(-1 0 0 1 847.778 104.433)" stroke="#797DE1" stroke-width="1.42223"/>
<circle r="3.73333" transform="matrix(-1 0 0 1 835.926 104.433)" stroke="#797DE1" stroke-width="1.42223"/>
<circle r="3.73333" transform="matrix(-1 0 0 1 824.074 104.433)" stroke="#797DE1" stroke-width="1.42223"/>
<circle r="3.73333" transform="matrix(-1 0 0 1 812.222 104.433)" stroke="#797DE1" stroke-width="1.42223"/>
<circle r="3.73333" transform="matrix(-1 0 0 1 847.778 52.5812)" stroke="#797DE1" stroke-width="1.42223"/>
<circle r="3.73333" transform="matrix(-1 0 0 1 835.926 52.5812)" stroke="#797DE1" stroke-width="1.42223"/>
<circle r="3.73333" transform="matrix(-1 0 0 1 824.074 52.5812)" stroke="#797DE1" stroke-width="1.42223"/>
<circle r="3.73333" transform="matrix(-1 0 0 1 812.222 52.5812)" stroke="#797DE1" stroke-width="1.42223"/>
<rect x="982.769" y="2.76923" width="72.9801" height="87.7949" fill="#E7ECFF" stroke="#797DE1" stroke-width="5.53846"/>
<rect x="992" y="12.9231" width="55.3846" height="68.3077" fill="#A3FFDF"/>
<circle r="4.44445" transform="matrix(-1 0 0 1 1036.3 71.3049)" fill="#797DE1"/>
<circle r="4.44445" transform="matrix(-1 0 0 1 1024.44 71.3049)" fill="#797DE1"/>
<circle r="4.44445" transform="matrix(-1 0 0 1 1012.59 71.3049)" fill="#797DE1"/>
<circle r="4.44445" transform="matrix(-1 0 0 1 1000.74 71.3049)" fill="#797DE1"/>
<circle r="4.44445" transform="matrix(-1 0 0 1 1036.3 22.2222)" fill="#797DE1"/>
<circle r="4.44445" transform="matrix(-1 0 0 1 1024.44 22.2222)" fill="#797DE1"/>
<circle r="4.44445" transform="matrix(-1 0 0 1 1012.59 22.2222)" fill="#797DE1"/>
<circle r="4.44445" transform="matrix(-1 0 0 1 1000.74 22.2222)" fill="#797DE1"/>
<rect x="1024.25" y="33.1282" width="72.9801" height="87.7949" fill="#E7ECFF" stroke="#797DE1" stroke-width="5.53846"/>
<rect x="1032.62" y="42.4615" width="55.3846" height="68.3077" fill="#A3FFDF"/>
<circle r="4.44445" transform="matrix(-1 0 0 1 1077.78 101.664)" fill="#797DE1"/>
<circle r="4.44445" transform="matrix(-1 0 0 1 1065.93 101.664)" fill="#797DE1"/>
<circle r="4.44445" transform="matrix(-1 0 0 1 1054.07 101.664)" fill="#797DE1"/>
<circle r="4.44445" transform="matrix(-1 0 0 1 1042.22 101.664)" fill="#797DE1"/>
<circle r="4.44445" transform="matrix(-1 0 0 1 1077.78 52.5812)" fill="#797DE1"/>
<circle r="4.44445" transform="matrix(-1 0 0 1 1065.93 52.5812)" fill="#797DE1"/>
<circle r="4.44445" transform="matrix(-1 0 0 1 1054.07 52.5812)" fill="#797DE1"/>
<circle r="4.44445" transform="matrix(-1 0 0 1 1042.22 52.5812)" fill="#797DE1"/>
<path d="M1016.47 170H1018.47V166.304H1021.26C1023.61 166.304 1025.37 164.8 1025.37 162.656C1025.37 160.512 1023.61 159.008 1021.26 159.008H1016.47V170ZM1018.47 164.464V160.848H1021.03C1022.39 160.848 1023.34 161.536 1023.34 162.656C1023.34 163.776 1022.39 164.464 1021.03 164.464H1018.47ZM1035.31 170H1037.52L1032.92 159.008H1030.7L1026.11 170H1028.33L1029.16 168.016H1034.48L1035.31 170ZM1029.88 166.288L1031.82 161.664L1033.76 166.288H1029.88ZM1043.78 165.584H1046.51V167.584C1045.83 168.08 1044.93 168.368 1044.1 168.368C1042.05 168.368 1040.32 166.608 1040.32 164.496C1040.32 162.4 1042.05 160.64 1044.1 160.64C1045.17 160.64 1046.35 161.12 1047.04 161.92L1048.47 160.592C1047.41 159.488 1045.7 158.816 1044.1 158.816C1040.95 158.816 1038.29 161.408 1038.29 164.496C1038.29 167.584 1040.95 170.192 1044.1 170.192C1045.7 170.192 1047.41 169.504 1048.47 168.4V163.952H1043.78V165.584ZM1058.87 160.832V159.008H1050.6V170H1058.87V168.176H1052.6V165.312H1058.28V163.488H1052.6V160.832H1058.87ZM1064.85 170.176C1067.47 170.176 1068.98 168.784 1068.98 166.816C1068.98 164.816 1067.44 164.08 1065.15 163.568C1063.41 163.168 1062.59 162.848 1062.59 161.952C1062.59 161.184 1063.34 160.512 1064.45 160.512C1065.54 160.512 1066.64 160.976 1067.6 161.808L1068.69 160.336C1067.58 159.392 1066.27 158.8 1064.53 158.8C1062.21 158.8 1060.58 160.208 1060.58 162.128C1060.58 164.192 1062.16 164.848 1064.43 165.376C1066.19 165.792 1066.98 166.096 1066.98 167.008C1066.98 167.792 1066.27 168.464 1064.91 168.464C1063.47 168.464 1062.3 167.888 1061.3 166.976L1060.14 168.4C1061.36 169.536 1062.96 170.176 1064.85 170.176Z" fill="#2D2D2D"/>
<path d="M767.51 170H769.494V160.832H773.014V159.008H763.99V160.832H767.51V170ZM782.994 160.832V159.008H774.722V170H782.994V168.176H776.722V165.312H782.402V163.488H776.722V160.832H782.994ZM785.053 170H787.053V162.656L790.669 169.36L794.301 162.656V170H796.285V159.008H794.301L790.669 165.712L787.053 159.008H785.053V170ZM798.722 170H800.722V166.304H803.506C805.858 166.304 807.618 164.8 807.618 162.656C807.618 160.512 805.858 159.008 803.506 159.008H798.722V170ZM800.722 164.464V160.848H803.282C804.642 160.848 805.586 161.536 805.586 162.656C805.586 163.776 804.642 164.464 803.282 164.464H800.722ZM811.079 168.176V159.008H809.095V170H816.727V168.176H811.079ZM826.715 170H828.923L824.331 159.008H822.107L817.515 170H819.739L820.571 168.016H825.883L826.715 170ZM821.291 166.288L823.227 161.664L825.163 166.288H821.291ZM832.307 170H834.291V160.832H837.811V159.008H828.787V160.832H832.307V170ZM847.791 160.832V159.008H839.519V170H847.791V168.176H841.519V165.312H847.199V163.488H841.519V160.832H847.791ZM853.77 170.176C856.394 170.176 857.898 168.784 857.898 166.816C857.898 164.816 856.362 164.08 854.074 163.568C852.33 163.168 851.514 162.848 851.514 161.952C851.514 161.184 852.266 160.512 853.37 160.512C854.458 160.512 855.562 160.976 856.522 161.808L857.61 160.336C856.506 159.392 855.194 158.8 853.45 158.8C851.13 158.8 849.498 160.208 849.498 162.128C849.498 164.192 851.082 164.848 853.354 165.376C855.114 165.792 855.898 166.096 855.898 167.008C855.898 167.792 855.194 168.464 853.834 168.464C852.394 168.464 851.226 167.888 850.218 166.976L849.066 168.4C850.282 169.536 851.882 170.176 853.77 170.176Z" fill="#2D2D2D"/>
<path d="M499.949 170.192C503.069 170.192 505.709 167.584 505.709 164.496C505.709 161.408 503.069 158.816 499.949 158.816C496.813 158.816 494.173 161.408 494.173 164.496C494.173 167.584 496.813 170.192 499.949 170.192ZM499.949 168.368C497.917 168.368 496.205 166.608 496.205 164.496C496.205 162.4 497.917 160.64 499.949 160.64C501.965 160.64 503.661 162.4 503.661 164.496C503.661 166.608 501.965 168.368 499.949 168.368ZM516.534 170L513.782 166.096C515.366 165.6 516.438 164.32 516.438 162.656C516.438 160.512 514.678 159.008 512.326 159.008H507.542V170H509.542V166.304H511.67L514.262 170H516.534ZM509.542 160.848H512.102C513.462 160.848 514.406 161.536 514.406 162.656C514.406 163.776 513.462 164.464 512.102 164.464H509.542V160.848ZM523.317 165.584H526.053V167.584C525.365 168.08 524.469 168.368 523.637 168.368C521.589 168.368 519.861 166.608 519.861 164.496C519.861 162.4 521.589 160.64 523.637 160.64C524.709 160.64 525.893 161.12 526.581 161.92L528.005 160.592C526.949 159.488 525.237 158.816 523.637 158.816C520.485 158.816 517.829 161.408 517.829 164.496C517.829 167.584 520.485 170.192 523.637 170.192C525.237 170.192 526.949 169.504 528.005 168.4V163.952H523.317V165.584ZM538.504 170H540.712L536.12 159.008H533.896L529.304 170H531.528L532.36 168.016H537.672L538.504 170ZM533.08 166.288L535.016 161.664L536.952 166.288H533.08ZM542.311 170H544.311V162.272L550.119 170H552.103V159.008H550.119V166.736L544.311 159.008H542.311V170ZM554.559 170H556.543V159.008H554.559V170ZM562.903 170.176C565.527 170.176 567.031 168.784 567.031 166.816C567.031 164.816 565.495 164.08 563.207 163.568C561.463 163.168 560.647 162.848 560.647 161.952C560.647 161.184 561.399 160.512 562.503 160.512C563.591 160.512 564.695 160.976 565.655 161.808L566.743 160.336C565.639 159.392 564.327 158.8 562.583 158.8C560.263 158.8 558.631 160.208 558.631 162.128C558.631 164.192 560.215 164.848 562.487 165.376C564.247 165.792 565.031 166.096 565.031 167.008C565.031 167.792 564.327 168.464 562.967 168.464C561.527 168.464 560.359 167.888 559.351 166.976L558.199 168.4C559.415 169.536 561.015 170.176 562.903 170.176ZM568.999 170H570.999V162.656L574.615 169.36L578.247 162.656V170H580.231V159.008H578.247L574.615 165.712L570.999 159.008H568.999V170ZM586.731 170.176C589.355 170.176 590.859 168.784 590.859 166.816C590.859 164.816 589.323 164.08 587.035 163.568C585.291 163.168 584.475 162.848 584.475 161.952C584.475 161.184 585.227 160.512 586.331 160.512C587.419 160.512 588.523 160.976 589.483 161.808L590.571 160.336C589.467 159.392 588.155 158.8 586.411 158.8C584.091 158.8 582.459 160.208 582.459 162.128C582.459 164.192 584.043 164.848 586.315 165.376C588.075 165.792 588.859 166.096 588.859 167.008C588.859 167.792 588.155 168.464 586.795 168.464C585.355 168.464 584.187 167.888 583.179 166.976L582.027 168.4C583.243 169.536 584.843 170.176 586.731 170.176Z" fill="#2D2D2D"/>
<path d="M232.507 170H234.507V162.656L238.123 169.36L241.755 162.656V170H243.739V159.008H241.755L238.123 165.712L234.507 159.008H232.507V170ZM251.535 170.192C254.655 170.192 257.295 167.584 257.295 164.496C257.295 161.408 254.655 158.816 251.535 158.816C248.399 158.816 245.759 161.408 245.759 164.496C245.759 167.584 248.399 170.192 251.535 170.192ZM251.535 168.368C249.503 168.368 247.791 166.608 247.791 164.496C247.791 162.4 249.503 160.64 251.535 160.64C253.551 160.64 255.247 162.4 255.247 164.496C255.247 166.608 253.551 168.368 251.535 168.368ZM261.016 168.176V159.008H259.032V170H266.664V168.176H261.016ZM276.556 160.832V159.008H268.284V170H276.556V168.176H270.284V165.312H275.964V163.488H270.284V160.832H276.556ZM283.832 170.192C285.448 170.192 286.92 169.504 287.976 168.4L286.568 167.088C285.88 167.872 284.904 168.368 283.832 168.368C281.8 168.368 280.088 166.608 280.088 164.496C280.088 162.4 281.8 160.64 283.832 160.64C284.888 160.64 285.88 161.136 286.552 161.92L287.976 160.592C286.92 159.504 285.448 158.816 283.832 158.816C280.696 158.816 278.056 161.408 278.056 164.496C278.056 167.584 280.696 170.192 283.832 170.192ZM294.399 170.192C297.247 170.192 299.247 168.176 299.247 165.312V159.008H297.263V165.248C297.263 167.072 296.079 168.384 294.399 168.384C292.735 168.384 291.551 167.072 291.551 165.248V159.008H289.551V165.312C289.551 168.176 291.567 170.192 294.399 170.192ZM303.438 168.176V159.008H301.454V170H309.086V168.176H303.438ZM318.978 160.832V159.008H310.706V170H318.978V168.176H312.706V165.312H318.386V163.488H312.706V160.832H318.978ZM324.958 170.176C327.582 170.176 329.086 168.784 329.086 166.816C329.086 164.816 327.55 164.08 325.262 163.568C323.518 163.168 322.702 162.848 322.702 161.952C322.702 161.184 323.454 160.512 324.558 160.512C325.646 160.512 326.75 160.976 327.71 161.808L328.798 160.336C327.694 159.392 326.382 158.8 324.638 158.8C322.318 158.8 320.686 160.208 320.686 162.128C320.686 164.192 322.27 164.848 324.542 165.376C326.302 165.792 327.086 166.096 327.086 167.008C327.086 167.792 326.382 168.464 325.022 168.464C323.582 168.464 322.414 167.888 321.406 166.976L320.254 168.4C321.47 169.536 323.07 170.176 324.958 170.176Z" fill="#2D2D2D"/>
<path d="M40.8243 170H43.0323L38.4403 159.008H36.2163L31.6243 170H33.8483L34.6803 168.016H39.9923L40.8243 170ZM35.4003 166.288L37.3363 161.664L39.2723 166.288H35.4003ZM46.4163 170H48.4003V160.832H51.9203V159.008H42.8963V160.832H46.4163V170ZM58.3944 170.192C61.5144 170.192 64.1544 167.584 64.1544 164.496C64.1544 161.408 61.5144 158.816 58.3944 158.816C55.2584 158.816 52.6184 161.408 52.6184 164.496C52.6184 167.584 55.2584 170.192 58.3944 170.192ZM58.3944 168.368C56.3624 168.368 54.6504 166.608 54.6504 164.496C54.6504 162.4 56.3624 160.64 58.3944 160.64C60.4104 160.64 62.1064 162.4 62.1064 164.496C62.1064 166.608 60.4104 168.368 58.3944 168.368ZM66.1316 170H68.1316V162.656L71.7476 169.36L75.3796 162.656V170H77.3636V159.008H75.3796L71.7476 165.712L68.1316 159.008H66.1316V170ZM83.8641 170.176C86.4881 170.176 87.9921 168.784 87.9921 166.816C87.9921 164.816 86.4561 164.08 84.1681 163.568C82.4241 163.168 81.6081 162.848 81.6081 161.952C81.6081 161.184 82.3601 160.512 83.4641 160.512C84.5521 160.512 85.6561 160.976 86.6161 161.808L87.7041 160.336C86.6001 159.392 85.2881 158.8 83.5441 158.8C81.2241 158.8 79.5921 160.208 79.5921 162.128C79.5921 164.192 81.1761 164.848 83.4481 165.376C85.2081 165.792 85.9921 166.096 85.9921 167.008C85.9921 167.792 85.2881 168.464 83.9281 168.464C82.4881 168.464 81.3201 167.888 80.3121 166.976L79.1601 168.4C80.3761 169.536 81.9761 170.176 83.8641 170.176Z" fill="#2D2D2D"/>
</svg>
